<?xml version="1.0" standalone="no"?>
<!DOCTYPE svg PUBLIC "-//W3C//DTD SVG 1.1//EN" "http://www.w3.org/Graphics/SVG/1.1/DTD/svg11.dtd" >
<svg xmlns="http://www.w3.org/2000/svg" xmlns:xlink="http://www.w3.org/1999/xlink" version="1.1">
<metadata>
Created by FontForge 20200427 at Wed Nov  2 02:08:58 2016
 By www
Copyright (c) 2016 by Paul J. Lloyd. All rights reserved.
</metadata>
<defs>
<font id="BuntislandWeathered-Regular" horiz-adv-x="536" >
  <font-face 
    font-family="BuntislandWeathered-Regular"
    font-weight="400"
    font-stretch="normal"
    units-per-em="1000"
    panose-1="0 0 5 0 0 0 0 0 0 0"
    ascent="990"
    descent="-10"
    x-height="898"
    cap-height="896"
    bbox="-432.769 -103.5 1505.06 1136.82"
    underline-thickness="50"
    underline-position="-100"
    unicode-range="U+000D-2122"
  />
<missing-glyph horiz-adv-x="500" 
d="M410 -100h-317v1000h317v-1000zM168 833v-33h65v-37h-66v-33h166v33h-66v37h66v33h-165zM167 704v-104h166v34h-66v70h-100zM233 634h-33v36h33v-36zM167 573v-33h66v-37h-66v-33h100v70h66v33h-166zM300 513v-66h-133v-34h166v100h-33zM233 391v-56h34v23h33v-47h-100
v80h-33v-113h166v113h-100zM167 218v-113h166v113h-166zM300 138h-100v47h100v-47zM167 82v-33h70l-70 -47v-33h166v33h-102l70 47h32v33h-166z" />
    <glyph glyph-name=".notdef" horiz-adv-x="500" 
d="M410 -100h-317v1000h317v-1000zM168 833v-33h65v-37h-66v-33h166v33h-66v37h66v33h-165zM167 704v-104h166v34h-66v70h-100zM233 634h-33v36h33v-36zM167 573v-33h66v-37h-66v-33h100v70h66v33h-166zM300 513v-66h-133v-34h166v100h-33zM233 391v-56h34v23h33v-47h-100
v80h-33v-113h166v113h-100zM167 218v-113h166v113h-166zM300 138h-100v47h100v-47zM167 82v-33h70l-70 -47v-33h166v33h-102l70 47h32v33h-166z" />
    <glyph glyph-name=".null" horiz-adv-x="0" 
 />
    <glyph glyph-name=".null" horiz-adv-x="0" 
 />
    <glyph glyph-name="nonmarkingreturn" unicode="&#xd;" horiz-adv-x="250" 
 />
    <glyph glyph-name="space" unicode=" " horiz-adv-x="270" 
 />
    <glyph glyph-name="exclam" unicode="!" horiz-adv-x="294" 
d="M241 252q5 -10 -5 -15l-1 -1l-9 -7q-4 -3 -7 -3.5t-7 -0.5h-18l-28 -6l-8 -3q-4 -2 -13 -2l-19 -1l-8 -11q-5 -8 -14 -6l-4 1l-25 -8q-4 -1 -6.5 -1.5t-6.5 -0.5h-2q-16 2 -5 14l8 8l-3 25q-1 6 2 14l4 11l1 20l-2 28l-1 23l-3 15q-1 8 0 14l3 9l-4 12q-2 4 -2 14l1 20
v12q0 4 0.5 7t1.5 7l4 13l-3 21q-1 7 0 14l2 16l-6 16q-2 4 -2 14l1 18v5q0 6 2 14l4 15l1 22l-4 17q-1 4 -1.5 7t0.5 7l2 14l-4 19q-2 8 -2 14l1 8q0 7 3 13l8 17l-6 12q-3 8 -3 14l2 28l-1 9q-2 13 11 11l15 -1l15 4l19 9l24 12l13 14l15 11l24 22l8 10q3 4 11 9
q9 4 12 -8l3 -14l1 -8q1 -4 0.5 -6.5t-0.5 -6.5l-2 -27l4 -14l3 -16q1 -6 -2 -14l-7 -16l8 -11q4 -5 4 -14l-2 -13l-3 -28l3 -25l2 -10q1 -6 -2 -14l-6 -11l-2 -22l6 -27q2 -8 2 -13v-4q0 -10 -2 -14l-6 -16l7 -16q3 -8 2 -14q0 -4 -3 -10l-7 -19l7 -25q1 -4 1.5 -6.5
t0.5 -6.5l-2 -8l-6 -28l3 -9q3 -5 4 -12l1 -7q1 -6 -2 -14l-4 -12l2 -33l4 -12q2 -5 1.5 -7.5t-2.5 -6.5l-6 -16zM67 24q-2 5 -1.5 7t2.5 7l4 11l-6 16q-2 5 -4 13v4q0 10 3 14l14 23q4 6 12 8l17 2l21 7l13 6q4 2 14 2h13l16 6q8 4 13 4h9q9 0 14 -5l15 -15q6 -6 6 -14v-7
q0 -8 -3 -14l-4 -9l-2 -21l4 -14q2 -9 -3 -15l-15 -23q-4 -6 -14 -6h-9l-14 -7l-15 -12q-4 -3 -6.5 -3.5t-6.5 -0.5l-41 -1l-23 1q-8 0 -12 9l-6 13z" />
    <glyph glyph-name="quotedbl" unicode="&#x22;" horiz-adv-x="292" 
d="M189 906q8 8 16 2l4 -3l9 2q10 2 15 -4l18 -20q6 -8 4 -14l-5 -16l-3 -19l9 -23q2 -4 2 -14l-1 -9l-1 -17v-6.5t-1 -6.5l-6 -24l-3 -24l3 -3q8 -6 1 -15l-17 -18q-4 -6 -11 -7l-9 -3q-7 -3 -14 0q-4 2 -8 6l-13 13q-4 4 -8 12l-3 7q-2 8 0 15l8 18l-5 12q-2 6 -1 15l1 6
l4 22l-5 28l-3 9q-1 6 0 14l5 23l-3 10q-2 9 4 15zM49 901q4 8 13 8l22 -1l15 -2q8 -2 13 -8l10 -13q5 -8 1 -15l-6 -12l5 -29l2 -9q1 -4 1 -13l-1 -18q0 -3 -1 -6.5t-2 -6.5l-2 -9v-33l2 -5q2 -3 3 -6t1 -8l-1 -15q0 -4 -1 -6.5t-3 -6.5l-9 -16q-3 -7 -11 -10l-9 -3l-6 -2
t-7 -1h-5q-8 0 -13 6l-12 15q-5 7 -6 13l-3 25v31l-2 22q0 9 2 14l4 12l-4 11q-2 7 1 15l6 13l-6 20q-1 4 -1.5 7t-0.5 7v6q0 8 3 14z" />
    <glyph glyph-name="numbersign" unicode="#" horiz-adv-x="766" 
d="M658 541q-7 -3 -14 0l-11 4l-24 6l-18 -34l-9 -14l3 -13q1 -6 -2 -14l-9 -16l8 -20q3 -7 -3 -14l-3 -6l-6 -29l-5 -21l24 -15l23 -7l9 5q7 4 14 4l11 1q9 0 13 -1l13 -3q9 -2 13 -7l5 -8q5 -6 3 -14l-3 -13l-2 -10q-1 -3 -1 -6.5t-2 -6.5l-6 -14q-2 -6 -11 -10l-14 -4
l-53 -11q-8 -2 -14 1l-15 4l-17 -26l-6 -15v-22q0 -7 -6 -13l-9 -7l1 -15q0 -4 -0.5 -7t-1.5 -7l-5 -17l-1 -21l-8 -51l-1 -7q-1 -6 -6 -13l-6 -7q-2 -3 -4.5 -5t-5.5 -4l-12 -7q-3 -2 -6 -2.5t-7 -1.5l-18 -3l-14 -4q-11 -3 -13 8l-2 10q-1 4 -1.5 7t0.5 7l1 7l1 27l-5 14
q-2 8 0 15l6 14l5 11l7 24l-2 19q-1 5 0 7.5t3 6.5l2 5l-1 24q0 8 3 14l1 4l-16 32l-16 -2l-29 -4h-15q-8 0 -13 2l-7 2l-25 -5l-13 -1q-6 -1 -13 2l-19 7l-25 -34l-5 -22l1 -1q5 -7 0 -15l-10 -15l5 -15q2 -5 2.5 -7t-1.5 -7l-5 -15l-3 -18q-2 -8 -4 -13l-12 -30l-5 -19
q-1 -5 -9 -11l-11 -8l-14 -9l-17 -13q-7 -5 -15 -2h-1q-9 3 -12 8l-6 7q-4 5 -4 14v8q0 5 2 13l3 11l-5 12q-2 6 -1 14l2 14l3 18l5 23l3 21l6 23l5 17l-5 24l-19 22l-8 -3q-7 -3 -14 0l-16 6l-20 -3q-4 -1 -7 -0.5t-7 1.5l-6 1q-7 2 -12 6l-6 5q-7 6 -4 15l5 14l18 38
q3 8 10 11l10 5q8 4 12 5l17 4q8 2 13 2h17q8 0 14 -3l13 -6l14 21l7 20l-3 24q-1 6 5 14l7 8l5 19l-2 21q-1 5 -0.5 7l1.5 6l5 16l5 21l-19 23l-17 -1q-3 0 -6 -0.5t-7 0.5l-14 1l-27 -3l-18 -3q-11 -2 -14 7l-1 4q-2 6 -1 14l4 19q2 8 4 12v1l3 17q1 5 3 7.5t5 5.5l5 4
q7 5 13 5l37 2l24 4l23 1l21 29l6 25l-4 7q-3 7 1 15l8 15l-1 15q0 8 1 13l6 25l3 32q0 6 4 13l3 5q3 7 9 11l11 9l9 14q3 5 12 8l18 5l9 2q4 1 7 1.5t7 -1.5l10 -3q11 -4 9 -13l-1 -14q0 -3 -1 -6.5t-2 -6.5l-1 -5l-10 -33l4 -5q6 -8 3 -15l-4 -11v-23q0 -10 -2 -14l-5 -14
l-2 -13q-1 -6 -5 -13l-6 -8l-3 -25l20 -13l23 -12l23 -1l23 6l14 3q4 1 6.5 1.5t6.5 -0.5l19 -2l10 -2l25 -6l22 27l1 25q0 5 1.5 7t3.5 6l7 11l5 27l-4 15q-2 8 4 15l8 8l1 39q0 5 1 7.5t3 5.5l7 16q2 4 4.5 6t6.5 4l8 4l11 17q5 6 12 9l2 1q4 2 14 2h9q7 0 14 -5l11 -8
q8 -6 2 -15l-2 -3l5 -15q1 -4 1.5 -7t-1.5 -8l-7 -17l-4 -19l3 -16q1 -8 -1 -14l-4 -10l-9 -23l4 -22q2 -9 -2 -14l-1 -1l-9 -30l28 -13l23 -11l18 3l16 5q8 3 15 -1l18 -12q7 -6 7 -14v-8q0 -6 -3 -14l-11 -20l-1 -13q0 -8 -9 -12l-10 -4zM466 401v6q0 4 1 7l2 6l7 24l5 19
v18l2 20l5 20l-24 30l-15 -7q-9 -3 -15 -1l-3 1l-19 -4q-4 -1 -14 -1h-8q-8 0 -14 3l-14 6l-19 -7q-7 -3 -15 0l-3 1l-28 -21l-1 -12q0 -6 -4 -14l-5 -11l-5 -26l-4 -21l5 -14q3 -7 -2 -15l-7 -11l-5 -23l24 -14l28 -12l10 7q5 4 14 4h8h6.5t6.5 -1l17 -3l12 -3l22 5
q4 1 7 0.5t7 -0.5l15 -1l19 15z" />
    <glyph glyph-name="dollar" unicode="$" 
d="M507 198q2 -2 -0.5 -5t-8.5 -6l-17 -8l-23 -8l-10 -4l-14 -10q-6 -5 -13 -6l-23 -4l-17 -13l-16 -10l-15 -8l-32 -41l-10 -16q-4 -6 -10 -10l-16 -8l-8 -13q-5 -8 -11 -9l-13 -3l-14 -7q-8 -5 -15 2l-12 10q-6 6 -6 14v12l3 23l4 23l-4 10q-3 6 -3 14l1 21l-15 31l-25 5
l-29 1l-6 -2q-6 -3 -14 -1l-13 3l-26 1q-5 0 -13 4l-17 7q-10 5 -5 15l8 18l3 9q2 3 3 6t3 6l12 16l5 7q4 6 11 9l20 10l15 8l14 6l15 6q6 3 14 3h32q6 0 14 -2l24 -7l1 1q7 1 14 0l8 -2q9 -2 13 -5l15 -11l21 -8l23 -11l-8 26l-14 17q-2 3 -4 5.5t-3 6.5l-3 13l-13 4
q-6 1 -12 7l-20 21l-13 15l-12 2q-8 2 -13 8l-12 16l-5 2q-3 2 -5.5 4t-4.5 5l-19 21l-5 2q-6 3 -10 10l-10 16l-17 10q-3 2 -5 4t-4 7l-6 15l-8 4q-3 2 -5.5 3t-5.5 4l-12 11q-5 5 -8 11l-8 12q-2 3 -2.5 6t-2.5 6l-2 6l-9 26q-2 8 -2 14l1 12v33l-14 11q-2 2 0 11q1 3 6 8
l5 5q2 2 5.5 3.5t6.5 3.5l11 4q6 3 13 3l12 1l17 14q4 4 13 6l4 1l40 20l19 11l26 13l-5 27q-2 8 4 15l9 10l9 18l6 20q2 8 7 12l21 18q4 4 13 6l27 5q7 1 15 -2l12 -6q8 -4 10 -12l3 -12q1 -4 0.5 -7t-1.5 -7l-4 -17v-3q0 -9 -1 -13l-5 -21l4 -19q1 -8 0 -14l-3 -11v-23
l31 -20l14 -2q7 -1 13 -6l10 -8l12 3q7 3 14 0l20 -8h7q9 0 13 -1l21 -5q9 -3 9 -13v-9q0 -6 -5 -13l-6 -8l-11 -20q-2 -4 -4 -6t-4 -5l-3 -4q-4 -6 -10 -10l-3 -2q-6 -4 -12 -6l-12 -4l-31 -15l-10 -3q-3 -1 -6.5 -2t-7.5 -1l-38 -1q-8 0 -13 4l-8 6l-20 -2q-4 0 -7 0.5
t-7 2.5l-11 6l-13 4q-4 1 -6.5 3t-5.5 4l-4 3q-3 2 -5 4.5t-4 5.5l-10 14v-37l6 -7l14 -12q6 -6 9 -10l12 -15l14 -2q5 -1 12 -6l17 -12l13 -7q3 -2 5 -4t4 -7l7 -18l17 -1q6 0 13 -5l10 -8l20 -22l12 -14q2 -3 4 -5t4 -5l5 -8l13 -13l11 -12q4 -4 7 -11l7 -18l9 -5
q6 -4 8 -12l5 -23l8 -9q5 -7 5 -14v-12l7 -11q6 -7 4 -15l-3 -23l-1 -23l5 -4z" />
    <glyph glyph-name="percent" unicode="%" horiz-adv-x="1247" 
d="M496 752l-1 -33l6 -7q6 -8 5 -14l-2 -16l-3 -26l2 -14q1 -6 -2 -14l-4 -8l-3 -22l3 -19q1 -4 0.5 -6.5t-0.5 -6.5l-1 -14l4 -15q2 -6 1 -14l-3 -15l2 -33l1 2l3 -5q7 -9 -2 -15l-8 -4l-27 -12l-24 -9l-19 -8l-6 -6q-4 -5 -12 -7l-17 -4l-8 -13q-4 -8 -13 -8l-12 -1
l-20 -13l-20 -9q-8 -5 -15 2l-10 10l-34 17q-4 2 -6 3.5t-5 4.5l-13 12l-13 6l-18 4l-6 1.5t-6 2.5l-11 6l-22 15l-27 4l-11 1q-9 2 -13 6l-6 7l-45 3q-5 0 -13 2l-9 2q-11 2 -9 12q1 7 10 10h1l1 20l-2 21v13l2 18l-1 5q-1 8 1 14l7 19l2 26v11l-3 20q-1 4 -1 13l1 16
l-2 27l1 17l-3 11q-1 4 -1 13l1 16q0 8 3 14l2 4h-1q-6 9 3 15l2 1q6 5 13 6l17 3l8 10q3 5 12 8l12 4q5 2 14 2h15l7 11q5 7 12 8l19 5l4 5q2 3 4 5.5t5 4.5l13 10l20 13q8 5 15 -1l14 -13q3 -3 4.5 -5t3.5 -5l10 -12l19 -3q9 -2 13 -7l5 -6l28 -13l12 -7l26 -8h17
q5 0 13 -2l16 -4q5 -1 12 -6l17 -14h23l9 2q8 2 14 -3l11 -8q10 -6 0 -16q0 -1 -9 6l-1 1zM682 831q2 5 4 7t5 4l18 12l14 10l9 12q4 5 12 7l14 4q8 2 14 2h6l21 6q9 3 15 -3l5 -4q8 -6 3 -15l-5 -10l-7 -29v-7q-1 -6 -6 -13l-12 -14l-4 -23q-1 -5 -5 -12l-6 -9l-4 -42
q-1 -8 -5 -14l-11 -16l-4 -13q-2 -3 -3 -6t-3 -6l-4 -4v-27q0 -5 -2 -13l-2 -13l-3 -10q-1 -5 -6 -12l-11 -12l-2 -17q0 -7 -3 -13l-3 -9l-7 -24l-3 -14q-1 -7 -5 -13l-11 -16l-2 -13q-1 -4 -1 -7t-2 -6l-9 -24l-4 -14l3 -14q1 -8 -3 -14l-12 -21l-2 -14q-1 -5 -5 -12l-2 -3
l-6 -25q-1 -7 -6 -13l-3 -4l-9 -30l-8 -20l-2 -7q-2 -8 -4 -13l-9 -17l-4 -33q-2 -8 -4 -13l-10 -25l-3 -12q-1 -5 -7 -13l-4 -4l-17 -21l-18 -24l-8 -11q-3 -4 -11 -8l-13 -6l-37 -13l-12 -6q-7 -4 -15 1l-9 6q-8 7 -3 15l12 19l5 20l-2 13q-1 7 4 14l9 9l5 29l1 13
q1 7 5 14l5 9l3 25q1 5 5 13l14 24l11 23l6 29l-2 7q-1 7 0 14l3 12q2 6 5 13l7 11l12 26l3 18v16q0 6 6 14l11 13l1 8q1 3 1 6t1 6l3 12q1 4 2.5 6.5t3.5 5.5l11 17l1 17q0 5 2 13l2 8l3 18q1 4 1 7t2 6l8 18l14 22l-2 6q-1 9 1 15l8 21l8 19l3 17q1 5 2.5 6.5t3.5 5.5l5 8
l-1 23q0 7 3 13l4 10q4 8 8 12l9 9l-1 9q0 10 2 14l17 39zM253 594q5 -2 11 -7l11 -9l13 -6q6 -3 11 -8l10 -11l13 16l4 21l6 21l-4 4q-6 8 -5 15l5 28l-21 8l-11 2q-9 2 -13 5l-23 13l-9 4q-7 3 -11 8l-7 9l-24 -5l9 -13q6 -7 4 -15l-1 -10q-2 -8 -4 -13l-7 -15l1 -21z
M1209 379l-4 -17l6 -18q1 -5 1 -13v-28q0 -8 -4 -13l-7 -11l5 -23q1 -5 0.5 -7.5t-1.5 -6.5l-3 -11l4 -8q3 -8 2 -14l-2 -16l-4 -23l8 -21q2 -7 0 -14l-6 -21l5 -7q9 -6 -4 -13l-8 -4l-21 -9l-16 -12q-4 -3 -13 -5l-10 -2l-17 -9q-8 -4 -13 -4l-13 -1l-4 -5q-2 -4 -4.5 -5
t-6.5 -3l-25 -9l-5 -8q-4 -7 -10 -9l-7 -3q-8 -3 -14 -2l-9 2q-7 2 -12 6l-22 19l-12 7q-3 2 -5.5 3.5t-4.5 5.5l-5 7l-21 8l-28 11l-18 4h-9q-9 0 -13 2l-12 4q-6 2 -12 5l-18 11l-10 3l-22 4l-26 2q-8 0 -13 2l-2 1q-7 3 -10 10q-1 2 1 2.5t5 -1.5l11 32l-7 15
q-2 4 -3 6.5t0 7.5l2 10l3 13l3 9v17q0 5 2 13l3 17l-3 21l-5 13q-2 4 -1.5 7t1.5 7l7 26l-1 18l-2 15q-1 4 -0.5 6.5t1.5 6.5l3 19l-7 16q-2 6 -1 15l1 3q-11 7 2 14l7 3q8 4 13 5l7 1l19 3l26 10l13 10q6 5 11 7l16 7l10 10q2 3 4.5 5t5.5 4l15 8l15 7l16 8q7 4 15 -1
l22 -13q3 -2 5 -3.5t5 -4.5l10 -8h14q9 0 14 -6l10 -11l15 -5l20 -6q4 -2 6.5 -3t5.5 -3l12 -9l18 -1q5 0 13 -4l18 -9h15q9 0 14 -4l10 -7h19q9 0 13 -2l12 -5q11 -5 5 -14l-3 -5l-2 -4zM939 251q4 -2 5.5 -3.5l4.5 -4.5l13 -12l17 -5q4 -1 6.5 -3t5.5 -4l9 -9l12 -15l16 7
l7 16l-3 18q-1 8 1 14l6 16l-7 26l-22 14l-9 2q-4 2 -7 3t-6 3l-19 14l-15 9l-8 1q-8 2 -13 4l-10 4l1 -24q0 -9 -2 -13l-5 -15l1 -9q2 -8 2 -13l1 -11z" />
    <glyph glyph-name="ampersand" unicode="&#x26;" horiz-adv-x="896" 
d="M863 110q3 -5 -3 -12l-3 -4q-4 -6 -12 -9l-53 -19l-10 -8q-3 -2 -5.5 -3t-5.5 -3l-19 -8l-14 -11l-12 -9q-7 -5 -13 -5l-20 -1l-9 -15q-7 -11 -15 -2l-13 13l-14 5q-4 2 -6.5 3t-5.5 3l-10 7q-3 2 -5.5 3.5t-4.5 4.5l-12 13l-13 15l-20 6l-20 2l-50 3l-24 -2l-12 -7
q-4 -2 -6.5 -2.5t-6.5 -1.5l-7 -2l-23 -12l-21 -8q-6 -3 -13 -3l-13 1l-20 -12l-4 -6q-6 -8 -10 -10l-12 -7q-7 -4 -15 -2l-10 2q-7 1 -12 8l-9 14l-20 4q-9 2 -12 9l-7 14l-17 10l-18 5l-24 1q-6 0 -13 5l-13 9l-7 1q-4 0 -6.5 0.5t-6.5 2.5l-23 12l-10 4l-15 -2
q-6 -1 -13 0l-21 2q-4 1 -7 1t-6 2l-3 1q-12 5 -5 15l8 10l-1 9q0 5 2 13l3 20l-1 29l-3 6q-3 6 -3 13v6q0 5 -0.5 7.5t1.5 5.5l7 21l-5 12q-3 6 -3 14l1 22l1 9q1 3 1 6.5t2 6.5l8 21l-9 14q-4 5 -2 14l2 12l-1 15q0 9 4 14l4 7l-1 22l-2 19l-4 19q-1 7 2 15l7 13l-6 21
q-1 4 -1 13v3l-1 2q-3 10 4 15l4 3q4 3 13 5l20 5l16 1l8 8q6 6 12 7l19 6l19 9l9 5l11 6l18 7l14 16q2 3 4.5 4.5t6.5 3.5l2 1q8 5 15 -1l20 -13l8 -5l22 4l-11 22q-3 8 -2 14l2 6l4 22l-10 19q-2 4 -3 6.5t-1 7.5v19q0 9 5 14l7 6q-6 1 -13 6q-10 8 2 15l13 6q8 4 12 5
l13 4l23 8l21 11l4 3q6 4 13 6l21 6l11 10l15 14q5 5 14 5l6 -1l16 12q7 4 15 1l38 -18l10 -6q8 -4 10 -10l6 -11l31 -11l9 -3l30 -12l9 3q8 3 15 -2l13 -8h24l14 3l13 1q7 1 14 -2l23 -13q8 -5 7 -14l-1 -5q0 -6 -5 -13l-5 -7l-10 -17q-2 -6 -9 -11l-18 -14l-18 -15l-7 -5
q-7 -5 -12 -6l-18 -5l-5 -1q-8 -2 -13 -2l-35 -2q-9 0 -14 1l-19 5h-12q-9 0 -14 4l-17 10l-15 10l-24 13l-12 8l-1 -29l-3 -29l6 -14q2 -3 2 -6t1 -7l2 -14l7 -11q5 -7 4 -14l-2 -16l7 -11q5 -7 5 -14l-1 -14l7 -28l9 -17l8 -16l11 -20l9 -17q2 -3 3.5 -6t2.5 -6l3 -11
l11 -25l9 -16q4 -5 2 -14l-2 -14l7 -13l12 -14q2 -3 3.5 -5t2.5 -7l3 -17q1 -7 0 -14l-2 -13l16 -17l24 -28l10 -4l21 -13l17 -13l12 -11l14 6l2 13q1 6 5 13l15 22q2 3 4 4.5t5 4.5l3 3q7 5 13 5l14 1l14 6q4 2 14 2h17l12 6q6 4 14 2l14 -3q6 -1 12 -5l14 -7q7 -4 6 -14
l-3 -17l1 -8q0 -4 -0.5 -7t-1.5 -7l-3 -9l4 -22l3 -24q1 -7 0 -14l-3 -13l2 -7q2 -5 1.5 -7.5t-2.5 -6.5v-2zM358 213q5 6 11 10l13 7l8 34l2 21l-9 16q-4 8 -5 13l-3 14l-12 10q-6 6 -6 13v21l-9 11q-5 7 -6 13l-3 17l-1 14l-27 36l-22 -4q-4 -1 -7 -0.5t-7 1.5l-6 2
q-5 1 -12 6l-7 8l-14 10l-22 -13l5 -11q3 -7 -2 -15l-5 -9l-2 -26l5 -15q3 -6 3 -13v-25q0 -4 -0.5 -7t-1.5 -7l-7 -24l8 -16q3 -6 0 -14l-3 -9l6 -28l15 -9l20 -4q3 -1 6.5 -1.5t6.5 -2.5l9 -4q7 -3 11 -9l6 -7l18 -16l36 -4z" />
    <glyph glyph-name="quotesingle" unicode="'" horiz-adv-x="161" 
d="M59 903q7 7 14 5l14 -2l10 3q10 3 14 -8l6 -15q3 -6 3 -14l-2 -22l-3 -16l4 -33l1 -3q3 -6 3 -13l1 -11q0 -9 -1 -13l-4 -24l6 -18q3 -7 -3 -15l-7 -9l-11 -21q-2 -5 -11 -9q-6 -3 -14 -1l-18 2q-9 2 -13 8l-5 8q-2 5 -4 13l-1 6q-1 4 -1 13l1 14v28l-2 12q-1 5 -0.5 7.5
t1.5 6.5l3 12l-2 12q-1 4 -1 13l1 18l1 21l-1 15q0 8 6 14z" />
    <glyph glyph-name="parenleft" unicode="(" horiz-adv-x="356" 
d="M322 886q7 -6 5 -14l-2 -20l5 -7q5 -7 5 -13l2 -25l-1 -11q0 -9 -7 -13l-10 -6q-4 -3 -14 -5l-32 -3l-7 -7l-16 -21q-4 -6 -11 -9l-11 -4v-24q0 -9 -5 -14l-7 -7v-26q0 -8 -3 -14l-3 -5l-4 -28l3 -14q1 -4 1.5 -7t-0.5 -7l-3 -15l5 -25q2 -8 -3 -14l-4 -7l7 -21
q1 -5 1 -14l-1 -16l-1 -44l-5 -29l-3 -20l1 -17l-1 -26l6 -16l6 -23q2 -8 2 -14l-1 -19l2 -6q3 -8 2 -14l-2 -16l13 -23l8 -20l10 -20l14 -13l18 -17h21q9 0 13 -8l5 -8q4 -5 4 -14v-10l6 -16q2 -3 2 -6.5t1 -6.5l2 -13q1 -7 -3 -14l-8 -11l-7 -17q-3 -8 -12 -10l-15 -3
q-4 -1 -13 -1l-27 1q-5 0 -13 3l-12 3q-8 3 -12 10l-3 5l-24 3q-9 2 -13 6l-4 3q-6 4 -9 11l-7 15l-11 26l-6 8l-13 21l-11 21l-10 21q-3 6 -3 13l1 17l-7 11q-4 5 -4 13l1 21l-1 18l-9 21q-3 6 -3 14l1 14l1 23l-6 15q-2 5 0 15l4 14v15l-9 16q-3 6 -1 14l4 15l5 53l-5 6
q-5 7 -5 13v15q0 8 3 14l5 15l-5 15q-2 6 -1 14l1 6q1 3 1 5.5t1 6.5l6 17l3 13l-1 20q0 7 3 14l9 18l-2 6q-2 9 2 14l10 15l-3 20q-2 8 3 14l11 17v8q0 5 0.5 7t2.5 6l6 11q2 3 4 5.5t4 5.5l10 10l11 22l7 13q2 4 9 11l6 6l5 10q5 6 12 9l12 5l11 4q3 2 6 2t7 1l25 3l37 4
l10 4q9 3 15 -3z" />
    <glyph glyph-name="parenright" unicode=")" horiz-adv-x="356" 
d="M42 899q5 6 14 6h7l44 -4l20 -3q9 -2 13 -7l10 -10l21 -13l6 -1q4 -1 6.5 -3t5.5 -4l4 -4q5 -5 8 -11l8 -15l9 -11q4 -6 5 -13l1 -8l10 -23l11 -16q5 -6 6 -12l5 -14q2 -5 1.5 -7.5t-2.5 -7.5l-1 -5l10 -20q2 -5 4 -13l2 -8l6 -19q2 -5 1.5 -7.5t-1.5 -6.5l-5 -19l4 -7
q3 -5 4 -13l1 -10q1 -6 0 -13l-2 -14l4 -14q1 -4 1.5 -6.5t-0.5 -7.5l-2 -15l6 -26l3 -11q1 -7 0 -14l-9 -44l5 -9q4 -7 0 -15l-8 -15l-1 -28l-2 -28l-2 -20l3 -20l1 -20q0 -10 -2 -14l-4 -9l-2 -14l-3 -13l-5 -15v-18q0 -9 -5 -14l-8 -8v-23q0 -8 -3 -14l-16 -38l-5 -9
q-2 -5 -7 -11l-9 -11l-13 -18q-4 -5 -13 -7l-17 -3l-4 -8q-2 -6 -9 -11l-11 -7q-8 -5 -14 -2l-13 5l-46 -10q-6 -1 -14 2l-9 4l-19 11q-8 5 -8 14l1 13l3 23l3 16l2 26q0 8 3 14v1q3 8 13 8h32l8 12q5 7 12 8l20 3l11 18l7 22l-2 21v22q0 6 5 13l9 10l5 31l-4 10q-3 6 -3 13
l-1 13q0 9 4 14l7 10l-5 21q-1 5 -0.5 7.5t1.5 6.5l4 13l-7 20q-2 8 -2 14l1 36l-3 16q-1 4 -0.5 6.5t0.5 6.5l2 26l-1 15q0 7 5 14l3 4l-9 21q-2 5 -1.5 7.5t2.5 7.5l6 14l-7 16q-3 6 -3 14v21l-6 11q-3 6 -3 14l1 14l-7 27l-10 22l-16 3q-8 2 -13 8l-12 14l-28 -5
q-9 -2 -14 6l-8 12q-4 7 0 15l6 11l-6 18q-2 8 -2 13l-1 14q0 10 2 14l1 3q4 8 7 12z" />
    <glyph glyph-name="asterisk" unicode="*" horiz-adv-x="434" 
d="M370 827q10 3 15 -6l13 -17l2 -4q4 -7 1 -15l-13 -29q-2 -6 -11 -10l-5 -2q-8 -4 -13 -4h-11l-15 -13l-16 -17l1 -20l16 -7q3 -2 6 -3t6 -3l14 -11l11 -11l10 -6q5 -3 9 -10l6 -11q4 -5 4 -13v-7q0 -7 -5 -14l-3 -4q-4 -5 -12 -7l-23 -6q-9 -3 -14 6l-4 7l-23 3
q-7 1 -13 6l-10 9l-14 10l-23 -3l5 -23q1 -4 1.5 -7t-0.5 -7l-3 -15l1 -16l1 -8q0 -5 -1 -7.5t-3 -5.5l-9 -16q-4 -8 -12 -9l-15 -2h-13l-6 1q-9 2 -13 6l-10 10q-6 6 -4 14l4 14l-2 11q-1 7 0 14l3 17l3 27l-20 13l-28 -14l-19 -10l-5 -8q-4 -6 -11 -9l-7 -3q-6 -3 -14 -1
l-15 3q-7 2 -12 6l-13 10q-3 1 -4 4q-5 5 -2 14l7 19q3 8 10 11l15 6l14 16q7 7 14 6l2 -1l24 16l-2 25l-11 12l-21 7l-14 5q-4 2 -7 3t-5 5l-8 11l-20 21q-8 10 1 16l7 4l11 18q5 8 12 9l17 3q8 2 14 -2l7 -3q6 -3 11 -8l11 -10l16 -11l26 -10l16 7l-5 16q-2 8 0 15l6 16
l-7 24l-2 10q-1 7 4 14l16 20q5 7 13 7l10 1q10 0 14 -7l5 -7l17 -16q8 -7 5 -15l-3 -9l5 -22l2 -25q0 -8 -1 -13l-3 -14l19 1q3 0 6.5 0.5t6.5 -0.5l14 -2l5 9q4 6 12 8l18 5l10 9q4 4 13 6z" />
    <glyph glyph-name="comma" unicode="," horiz-adv-x="212" 
d="M38 121q4 8 13 8h3l22 9l20 10q6 3 14 3l20 -1l14 -3h22q8 0 14 -3l8 -5q9 -5 5 -15l-8 -19l5 -20l4 -17q1 -4 0.5 -7t-1.5 -7l-3 -15l-3 -20l2 -23l1 -24l3 -16q2 -8 -5 -15l-21 -21l-5 -4q-8 -6 -13 -6l-16 -1q-8 0 -13 5l-7 6q-7 7 -6 14l2 18l-3 24l-16 18l-13 -2
q-4 -1 -13 -1l-13 1q-8 0 -13 4l-6 4q-3 2 -5.5 4t-4.5 7l-4 12q-2 8 -2 13v4q0 8 3 14l7 13l-2 19q-1 5 0 8t3 6z" />
    <glyph glyph-name="hyphen" unicode="-" horiz-adv-x="365" 
d="M180 368q-6 -3 -14 2l-16 8l-19 10l-31 15l-17 9l-16 10q-4 2 -6 3.5t-5 4.5l-5 4q-6 6 -9 10l-6 9q-6 11 6 14l10 2l13 15q4 6 11 9l2 1q3 2 6 2.5t7 2.5l24 8l20 7l12 12l9 13q4 6 9 10l13 8q8 5 15 -1l21 -17l16 -11l17 -6q4 -1 12 -5l14 -8l12 -5q3 -2 5.5 -3t5.5 -3
l23 -15l12 -9q7 -6 2 -16l-5 -9q-3 -5 -9 -10l-13 -10l-13 -11q-2 -2 -4.5 -3.5t-6.5 -3.5l-12 -6q-6 -3 -14 -3h-9l-30 -13l-15 -12q-3 -2 -6 -3t-7 -3z" />
    <glyph glyph-name="period" unicode="." horiz-adv-x="212" 
d="M25 0q-7 5 -9 12l-1 6q-1 8 1 14l10 19l-9 21q-3 6 -3 14v2q-1 5 0 8t3 6l13 23q4 8 13 8h18l10 7q6 5 14 3l21 -2l8 8q6 6 14 6h20l15 -1q7 0 13 -6l9 -10q5 -5 8 -11l2 -4q3 -7 0 -15l-6 -15v-24l1 -10q0 -8 -3 -14l-11 -28q-3 -8 -11 -10l-7 -2l-20 -6q-5 -2 -14 -2
h-15l-28 -7l-22 -2h-3q-4 0 -7 0.5t-7 2.5z" />
    <glyph glyph-name="slash" unicode="/" horiz-adv-x="462" 
d="M287 831q3 7 11 10l21 8l14 14l11 14q5 6 13 6h11l30 10l5 3q9 7 15 -2l9 -13q7 -9 -1 -15l-9 -9l-3 -19l-4 -21l-10 -26l-4 -16l-6 -28l-2 -11q-2 -8 -4 -13l-7 -11l-5 -15l-2 -22q0 -6 -4 -13l-9 -14l-5 -18q-1 -3 -6 -12l-7 -10l-4 -17l-8 -33l-7 -19l-5 -15l-5 -21
q-2 -8 -4 -13l-7 -16l-6 -19l-1 -23l-1 -13q0 -5 -1 -7.5t-3 -5.5l-18 -36l-10 -21l-3 -13l-8 -29l-5 -15l1 -17q0 -10 -1 -14l-2 -6q-3 -7 -8 -12l-13 -10l-2 -21q0 -7 -3 -13l-5 -15l-4 -33q0 -7 -6 -13l-6 -6l-13 -27q-4 -8 -8 -11l-8 -5l-2 -8q-1 -7 -8 -12l-17 -11
l-4 -12q-3 -9 -8 -12l-11 -10q-8 -6 -13 -6h-10l-15 -13q-4 -4 -13 -6l-11 -1q-8 -1 -14 5l-6 8q-6 8 -3 15l7 20l1 13q0 7 6 13l6 6l9 23l8 25q1 4 2 6.5t3 5.5l3 5l8 24l5 20v13q0 5 -0.5 8t1.5 6l5 12l8 21l3 19q1 6 5 13l12 19l7 19l7 23l5 19l3 19l5 21q1 5 4 12l5 10
l1 13q0 7 3 13l6 14l12 24l-2 16q-1 8 2 14l3 8q3 6 8 11l8 8l-2 22q0 9 4 14l12 15l-2 10q-1 8 5 14l10 10l-2 18q0 8 1 13l2 8q1 6 9 12l13 10l-2 16q0 9 2 14l5 15l3 16q2 6 5 13l8 19l14 42z" />
    <glyph glyph-name="zero" unicode="0" 
d="M501 740v-16q0 -5 -2 -13l-5 -16l1 -4q1 -5 1 -14l-1 -14l7 -26q2 -8 2 -13l-1 -10l1 -20q0 -9 -1 -13l-2 -10l-2 -6t-3 -7l-5 -11l1 -21l-1 -24l5 -23q2 -8 2 -13l1 -14l-1 -17l-2 -23l4 -13q2 -8 2 -13l-1 -25l-1 -9l-3 -13l-6 -17l5 -17l4 -17q2 -8 2 -13l1 -10
q0 -9 -2 -13l-7 -20l4 -14l4 -25l2 -22q0 -8 -3 -14l-2 -6l3 -32q0 -9 -5 -13q3 0 -1.5 -4.5t-11.5 -9.5l-6 -4l-10 -7q-6 -4 -11 -7l-12 -6l-8 -8q-6 -6 -12 -7l-24 -3l-7 -3l-25 -13l-10 -11q-4 -5 -12 -7l-21 -3l-7 -8q-7 -8 -15 -4l-10 4q-8 4 -12 8l-20 20l-12 3
q-4 2 -6.5 3t-5.5 3q-5 2 -10 8l-10 13l-24 2q-9 2 -13 5l-15 10l-15 3l-18 1q-6 0 -14 4l-7 5l-23 9l-16 7l-33 5q-5 2 -7 3.5t0 2.5l-3 8q-2 4 -2 13v5q0 4 1.5 6.5t3.5 6.5l9 13l-5 18q-1 4 -1.5 7t0.5 8l5 17l-4 11q-1 3 -1.5 6t-0.5 8l2 24v31q0 5 2 13l4 22l-1 17v6.5
t1 6.5l1 12l-8 15q-3 8 -2 15l4 18l-3 11l-3 24q-1 6 2 14l3 7l6 35l-3 19l-4 9q-3 7 0 15l5 13l-4 20q-1 7 0 14l2 12l-1 11q0 10 1 14l6 25l1 19l-7 20l-3 14q-2 10 0 15l5 12l-6 38v-1q-7 7 2 14l11 10q4 4 13 6l16 4l18 5l6 7q5 7 12 8l14 3l18 9l14 11q6 5 14 5h22
l3 12q3 8 10 12l12 7q8 5 16 0l15 -9q7 -5 10 -11l5 -9l21 -10q8 -4 11 -8l7 -8h23q8 0 13 -7l3 -4l35 -16l15 -6l23 -6h14q10 0 14 -2l14 -6l30 -7l11 -2q7 -1 8.5 -5t-4.5 -8l-5 -8zM233 249q3 -2 5.5 -4t4.5 -5l8 -8l27 -13l8 -4q5 -2 11 -7l6 -5l14 1l7 22l-2 10
q-1 4 -1.5 7t0.5 7l3 25l-1 24l-4 14q-2 8 2 15l9 14l-2 15v29l-7 15q-2 4 -2.5 6.5t1.5 7.5l5 12l-1 23l1 25l-3 17q-1 7 4 14l4 5l-10 26q-2 6 -1 14l1 5l4 33l-2 15l-2 21q-1 8 2 14l8 19l-34 10h-5q-7 0 -13 3l-6 3l-12 6l-18 12l-21 15l-1 -7q0 -5 -1 -7.5t-3 -5.5
l-3 -6l-6 -24l3 -23l3 -9q3 -6 3 -14v-38l-2 -24l4 -18q1 -5 1 -14l-1 -9q0 -5 -4 -13l-6 -10l4 -34l4 -10q2 -4 1.5 -6.5l-1.5 -7.5l-4 -16l2 -22l-1 -22l3 -12q1 -8 0 -14l-3 -9l4 -26q1 -8 -1 -14l-6 -15l5 -16z" />
    <glyph glyph-name="one" unicode="1" horiz-adv-x="568" 
d="M529 150q10 -2 10 -12v-2q0 -7 -3 -13l-12 -25l-1 -11q0 -9 -10 -12l-14 -4l-14 -22l-4 -11q-2 -5 -4 -7t-6 -4l-12 -6q-6 -3 -14 -3h-9l-24 -8l-6 -6q-6 -7 -15 -5l-35 8l-17 -4q-9 -2 -15 2l-20 10l-19 -2q-4 0 -7 -0.5t-6 0.5l-11 1l-16 4l-29 9l-28 3l-14 3l-24 -2
l-18 1l-46 -5l-28 -7q-3 -1 -7 -1q-4 1 -5.5 4t-3.5 6l-1 3q-3 8 -2 14l6 25q1 9 7 13l6 5l13 16l14 20q4 6 13 8l14 2l9 16q5 6 12 9l15 5l20 7l11 16l29 28l-4 20l-1 19l-4 19q-1 6 2 14l8 17l-3 21l-4 8q-3 7 -2 14l2 18q1 8 4 13l3 5l-6 13q-3 8 -2 15l5 26l2 20l-4 12
q-1 5 -0.5 7.5t1.5 6.5l3 13v20l-6 20q-1 4 -1.5 7t-0.5 7v10l2 21q0 5 2 13l4 12l-5 11q-2 6 -1 14l5 20l1 22l-10 23l-23 15l-7 -2q-8 -2 -14 1l-17 6q-3 2 -6 3t-6 3l-12 8l-21 -2q-6 0 -14 2l-4 1l-21 7q-6 2 -11 9l-9 15l-3 3q-7 9 2 15l15 10l12 6l14 5q6 2 13 1
l18 -2l5 7q3 4 11 9l18 10q4 2 6.5 2.5t5.5 1.5l13 4l17 7l18 17l5 10q2 3 4 5.5t4 5.5l5 5q6 6 12 7l15 5q3 1 8 1q3 -1 5.5 -3t5.5 -4l7 -6q3 -2 5.5 -3.5t4.5 -4.5l11 -12h15q7 0 13 -6l14 -15l20 -13l19 -10l17 -8q16 -9 8 -12l-14 -6l-8 -31l1 -25l3 -15q2 -9 -3 -15
l-5 -5l7 -27q2 -8 2 -13v-1q0 -7 -3 -13l-5 -12l6 -21q1 -4 1.5 -6.5t0.5 -6.5v-14q0 -8 -3 -14l-7 -11v-25l4 -13q1 -7 0 -14l-3 -11l9 -21q2 -7 0 -14l-3 -10l-5 -19l4 -20q1 -8 -1 -14l-3 -12v-21l3 -26l2 -22q0 -4 0.5 -7t-0.5 -7l-2 -11l5 -16q2 -5 1 -7.5t-3 -6.5
l-6 -13l3 -14q1 -5 1.5 -8t-1.5 -7l-4 -11l6 -27l27 -30l12 -1q7 0 13 -3l13 -4l18 -3l23 1l21 5q4 1 7 0.5t7 -1.5z" />
    <glyph glyph-name="two" unicode="2" horiz-adv-x="517" 
d="M483 107q2 -2 -5 -10l-12 -13l-5 -4q-6 -6 -12 -7l-24 -6l-3 -1q-4 -2 -12 -4l-14 -3l-14 -11q-7 -5 -12 -6l-21 -5l-20 -10l-5 -5q-6 -6 -10 -9l-13 -9q-7 -6 -16 1l-16 13l-6 2q-9 2 -13 6l-14 13l-31 5h-13q-7 0 -13 6l-15 13l-17 -3q-9 -2 -14 2l-11 6l-15 2l-33 5
h-10q-10 0 -14 1l-7 2q-4 1 -6.5 1.5t-6.5 2.5q-9 6 -3 15l1 3q0 8 10 11l3 1l-4 32q-1 6 2 14l5 10l1 19q0 7 8 12l8 6l-1 10q-2 8 3 14l19 23l9 15l6 14q4 8 7 12l7 8l19 20l5 10q4 6 11 9l8 2l21 21l3 9q3 7 8 12l16 13l3 14q2 6 5 13l5 9q2 4 3.5 6t3.5 5l8 11l13 20
l8 15l6 19q1 3 2.5 6t3.5 6l8 13l13 22l-3 19q-1 6 4 14l9 12l1 27v29l-1 5q-1 7 0 14l4 22l-7 30l-10 -4q-4 -1 -6.5 -1.5t-7.5 1.5l-13 4h-26l-16 -6q-6 -3 -14 -1q-6 0 -12 3l-12 5l-25 5q-4 1 -6.5 1.5t-6.5 2.5q-6 3 -10 7l-17 15l-21 13l-12 2q-9 3 -8 13l1 5
q2 8 9 11l19 8q6 3 14 3l13 -1l20 3l25 6l13 10q3 2 6 3t6 3l16 6l11 6l12 17q3 6 10 9l12 7l14 12q8 7 15 0l21 -19l16 -1q8 0 14 -6l4 -4l17 -18l23 -10l35 -14q3 -2 6 -3t6 -3l14 -9l13 -2q4 -1 7 -1.5t6 -2.5l3 -2q8 -6 9 -12q2 -8 -4 -4l-9 -20l3 -19q1 -4 0.5 -6.5
t-1.5 -6.5l-4 -21l-1 -18l3 -23l2 -24l-1 -21q0 -9 -5 -14l-10 -9l4 -24q1 -8 -1 -14l-5 -12l-11 -22l-7 -25l-1 -4q-1 -3 -1.5 -6.5t-2.5 -6.5l-9 -23l-3 -9q-3 -7 -8 -11l-14 -12l-12 -20l-4 -13q-1 -3 -2 -5.5t-3 -6.5l-7 -14q-2 -4 -4 -6l-5 -5l-10 -9l-2 -13
q-1 -9 -7 -13l-18 -16l-5 -6l-21 -29l-7 -9l-10 -12l-9 -9l-17 -14l10 -35l20 -7l16 -9l20 -7l3 22q1 7 7 13l7 5q7 5 14 4l9 -1l42 14l20 3l24 2l9 1q8 2 15 -2l15 -8q7 -4 7 -14v-21l-1 -12q0 -7 -3 -13l-7 -15l4 -35l2 -11z" />
    <glyph glyph-name="three" unicode="3" horiz-adv-x="529" 
d="M492 444l-8 -12l5 -18q1 -4 1 -13l1 -22l3 -9q1 -6 -2 -14l-9 -18l2 -17l8 -19q3 -6 1 -14l-2 -5l-1 -27l-3 -21l5 -27l4 -26v-9q0 -8 -3 -14l-8 -16l8 -20q0 -1 0.5 -1.5t0.5 -1.5q2 -5 0 -14l-1 -2q-1 -7 -8 -12l-7 -5q-6 -4 -12 -6l-8 -3l-38 -15l-13 -11
q-4 -3 -13 -5l-16 -4l-21 -15l-4 -3q-5 -5 -11 -8l-18 -7l-20 -9q-10 -4 -15 3l-14 15l-14 12l-15 11l-8 3q-3 2 -6 3t-6 3l-15 12l-20 9l-28 11l-14 4l-22 -6q-8 -2 -14 1l-5 3l-30 4l-14 -4q-8 -3 -14 0l-11 4q-8 3 -11 11l-4 14q-3 8 0 14l5 12q4 8 7 11l11 12l7 12
q3 7 12 10l21 5l7 5q6 5 13 6l22 6l9 7q5 5 13 5l30 -1q4 0 6.5 -0.5t6.5 -2.5l21 -11l7 -2q3 -2 6 -3t6 -3l11 -7l14 -8q4 -2 6.5 -3.5t4.5 -4.5l13 -15l24 -11l8 -4l2 28l2 19l-5 10q-3 6 -3 13v19q0 9 1 13l3 11l-3 14q-1 8 3 15l3 4l-6 17q-2 4 -2 14v30h-9q-7 0 -13 3
l-16 7l-16 8l-21 6l-15 2q-4 1 -7 1.5t-6 2.5l-8 5l-27 22l-7 1q-7 2 -13 7l-13 11l-12 11l-11 13q-6 8 2 15l9 7l16 13q5 5 11 8l16 7l16 9q9 5 12 6l18 6l4 13q1 7 8 12l11 7q8 5 15 -2l3 -3l10 19l-5 16q-1 8 1 14l4 14l-4 27l-1 5q-1 8 1 14l8 16l-9 25l-20 25l-10 -6
q-4 -3 -13 -5l-12 -2q-7 -1 -14 0l-21 5l-16 2l-11 -2q-7 -1 -14 4l-12 8l-21 12q-4 2 -6 3.5t-5 4.5l-7 6l-15 3q-9 2 -13 7l-7 8q-4 5 -4 14v3q0 9 10 12l19 5l27 12l4 4q5 7 12 8l16 4l18 3l20 12l16 23l10 13q4 5 9 9l14 10q8 6 15 1l11 -8q8 -6 10 -10l10 -19l24 -14
l19 -9l11 -6q3 -2 6 -3.5t5 -4.5l11 -12l22 -10l19 -1q5 0 13 -4l16 -8l21 -6l10 -1q8 -2 11 -4.5t0 -4.5l-7 -4l-2 -30v-25l3 -11q1 -6 0 -14l-3 -15l-2 -18l-5 -31l3 -7q2 -4 3 -7l2 -6l2 -10q1 -8 -1 -14l-4 -12l5 -22q1 -5 1 -14l-1 -7l-4 -27l3 -8q2 -3 2.5 -6.5
t1.5 -6.5l6 -30l22 -4l27 -9z" />
    <glyph glyph-name="four" unicode="4" horiz-adv-x="535" 
d="M506 233q2 0 -0.5 -4t-8.5 -9l-4 -3q-3 -3 -5 -4.5t-6 -3.5l-11 -6l-19 -8q-3 -2 -6 -2t-7 -1l-15 -3l-15 -9l-21 -17l-8 -17l29 -18l11 -1q4 -1 7 -1.5t6 -3.5l13 -11q5 -4 4 -8.5t-7 -6.5l-11 -4l-15 -14q-3 -3 -5.5 -4t-5.5 -3l-13 -6l-18 -12q-4 -3 -13 -5l-17 -4
l-6 -13q-3 -7 -11 -10l-20 -8l-6 -11q-6 -9 -15 -3l-27 16l-17 7l-12 6q-8 4 -11 7l-14 13l-9 7l-23 12q-8 4 -11 8l-7 7q0 3 1 6q2 6 6 5l-4 32l-1 13v21l-19 32l-17 6l-21 -1q-9 0 -14 4l-7 4l-21 -3q-7 -1 -14 4l-6 4h-2q-12 0 -12 11q0 7 11 7h1l-1 16l-5 32v16
q0 8 3 14l4 12l9 17l4 26l-4 14q-3 8 3 15l6 6l9 22l5 21l-2 27q0 10 2 14l3 7q2 3 3 6t3 6l5 6l6 22l2 14q1 5 5 13l12 23l10 14l3 12l2 6t3 7l10 21l1 12q0 6 4 13l7 9l-2 20q0 7 5 14l3 4l7 23q1 5 7 13l6 7l2 26q0 4 1 7l2 6l1 5l7 21l-6 24q-2 10 5 15l23 17l5 5
q6 6 14 6l10 -1l31 4l12 11q5 5 14 5h10l17 1q4 0 7 -0.5t7 -3.5l16 -13q7 -5 7 -13v-13q0 -7 -3 -13l-8 -17l3 -11q1 -6 0 -14l-3 -11l-6 -25l-6 -19l-2 -23l-4 -19v-14q0 -9 -1 -13l-4 -24l-3 -13q-1 -6 -5 -13q-1 -3 -2 -5.5t-3 -5.5l-10 -18l-15 -22l-9 -15l-5 -40
q-1 -6 -6 -13l-14 -16l-2 -15q0 -7 -5 -14l-2 -3l-7 -21l-11 -26l-8 -21l-6 -23l3 -19l18 -15l22 -15l17 -1q4 -1 7 -1t6 -2l5 -2q8 -4 12 -7l12 -8l19 10l-4 8q-4 6 -2 14l5 19l2 6t3 7l6 12q3 6 8 11l7 6q3 3 6.5 3.5t7.5 0.5l16 -1l20 5l23 4l21 7q6 2 14 -1q3 -2 6 -3
t6 -3l15 -11q7 -6 7 -13v-4l4 -13q2 -8 -1 -15l-10 -21l4 -7q5 -8 4 -14l-3 -18l-2 -26l3 -22q1 -5 1 -7v-4h5z" />
    <glyph glyph-name="five" unicode="5" horiz-adv-x="520" 
d="M469 446q8 -2 9 -4q2 -5 -1.5 -7t-7.5 -4h-1l2 -24q0 -10 -3 -14l-7 -11l5 -15q2 -7 0 -15l-2 -10l2 -11q1 -4 0.5 -7t-1.5 -7l-3 -19l5 -13q2 -3 2.5 -6.5t1.5 -6.5l2 -7q1 -5 0.5 -7.5t-1.5 -6.5l-7 -26l4 -4q5 -5 5 -14l-1 -14l-6 -25l5 -13q3 -6 3 -13v-18
q0 -9 -1 -10l-1 -7q0 -8 -6 -13l-2 -1q-6 -4 -11 -7l-14 -6q-7 -3 -13 -5l-13 -2l-6 -7q-4 -5 -12 -7l-22 -4l-6 -10q-4 -6 -12 -9l-12 -4l-19 -13q-7 -5 -12 -6l-15 -3l-9 -10q-6 -8 -15 -1l-11 9l-19 11q-4 2 -6 3.5t-5 4.5l-7 6q-5 3 -8 12l-4 12l-14 1q-6 0 -13 5
l-16 14l-14 -1q-9 0 -14 5l-6 7l-20 -1h-6.5t-6.5 1l-22 4l-7 -1q-6 0 -14 2l-22 7q-11 4 -8 13l1 3l1 16l3 14q1 5 5 13l12 19l1 4q2 8 9 12l17 10l8 8q5 5 15 3l20 -6l41 4l13 -1q5 0 13 -2l10 -3q3 -1 6.5 -2t6.5 -3l20 -13l6 -1q7 0 14 -5l19 -16l14 10l7 22l1 29l-2 10
q-1 8 0 14l4 14l-5 20q-1 4 -1.5 7t1.5 7l3 9l2 34l-20 15l-18 -4q-10 -2 -15 4l-11 12l-15 -1q-9 0 -13 3l-15 9l-13 8l-22 17h-3q-10 2 -14 5l-11 9l-16 9q-7 3 -10 9l-6 10l-28 23q-2 0 1 10l4 15l2 23l-2 13q-1 4 -1 13l1 20l-2 11l-6 27q-1 4 -1 13v14l2 14l-1 17
q0 4 -0.5 7.5t0.5 6.5l1 10l8 31l-5 15q-2 8 -2 13v5l3 34l-2 8l-1 1q-3 9 5 15q6 4 12 4l24 2l10 13q2 3 4.5 5t5.5 4l2 2q6 6 13 7l24 6l17 11l6 3q4 3 13 5l13 1l38 29q8 6 15 0l9 -6q4 -3 10 -9l10 -9l24 -18l13 -6q8 -4 11 -8l12 -13l13 1q9 0 14 -4l17 -11l24 -7l4 3
q8 5 15 2l18 -7l27 -8q5 -2 6.5 -6t-1.5 -9l-2 -3l-5 -17l-7 -14q-2 -6 -9 -11l-18 -13l-32 -28q-7 -5 -14 -5h-4l-59 -10q-8 -2 -15 1l-14 5q-6 2 -12 6l-10 8l-16 1q-10 0 -13 9l-5 15l-17 -18l2 -7q3 -7 -2 -15l-5 -9v-23l5 -27q1 -7 0 -14l-3 -11l4 -16q1 -5 0.5 -7.5
t-1.5 -6.5l-2 -6l19 -41l11 -7l25 -9q3 -2 6 -3t6 -3l3 -2l30 -18l6 1q8 2 15 -5l14 -13l17 -3h42q8 0 13 -7l8 -10z" />
    <glyph glyph-name="six" unicode="6" horiz-adv-x="542" 
d="M505 478q8 -5 9 -11q1 -2 -2.5 -3.5t-8.5 -1.5h-2l5 -24q1 -8 0 -14l-3 -12l3 -25v-12q0 -9 -2 -13l-6 -15v-26l1 -12v-6.5t-1 -6.5l-2 -20l5 -15l3 -13v-2q1 -4 0.5 -7t-0.5 -7l-2 -22l3 -15q1 -7 0 -14l-4 -18l1 -2q2 -3 3 -6t0 -8l-4 -21l5 -17q2 1 -4 -6t-12 -13
q-1 -2 -9 -5l-17 -6l-17 -5l-11 -5l-22 -17q-6 -4 -11 -7l-11 -5l-20 -7l-21 -7l-16 -10l-12 -9q-6 -5 -15 -3l-15 4q-7 2 -11 9l-8 14l-20 13l-16 9l-22 6l-17 5q-8 4 -12 7l-15 12h-5q-10 0 -14 2l-10 3q-6 2 -12 6l-14 9l-12 -3q-4 -1 -7 -1.5t-7 0.5l-15 2q-9 2 -13 5
l-17 10l-5 1q-8 2 -8.5 7t7.5 7l-1 24l-3 28l-1 8q-1 7 0 13l3 18l-2 22q0 4 -0.5 7.5t-0.5 6.5l1 16v8q0 10 2 14l6 15l1 22l-6 24q-1 8 1 14l7 16l-6 7q-5 7 -2 15l8 22l-8 26l-1 4q-3 10 8 13l-2 3q-4 5 -3.5 9t5.5 4l-6 22q-1 7 0 14l3 16l2 15l-3 21l-1 23l-3 14
q-1 6 2 14l7 14l-4 42v13v6q0 5 2 13l5 23l-5 6q-5 7 -4 14l4 22l-1 12q-5 -1 -2 4.5t9 10.5q1 1 8 2l14 2l30 13l3 3q5 7 11 9l38 12l17 16q6 6 13 7l11 1l3 5q2 3 5 5l6 4l15 10q8 6 15 -1l18 -16l17 -10l18 -12l11 -6q6 -3 11 -8l5 -4l22 -13l12 2q7 1 14 0l18 -5l17 -5
l22 1q8 0 14 -3l11 -5l18 -4l18 -5q10 -3 7 -14l-2 -6q-2 -3 -3 -6t-3 -6l-5 -8l-3 -22q-1 -8 -6 -13l-7 -7l-13 -11q-5 -5 -11 -8l-8 -3q-5 -2 -13 -4l-19 -2l-17 -6q-4 -2 -14 -2l-35 2l-17 4l-17 6l-27 10l-24 7l-11 3l-19 -8l-2 -14l-4 -31l2 -12l4 -18q1 -4 1 -13
l-1 -16l-3 -24l10 6q8 5 16 0l4 -2q4 -2 6 -4l4 -4l15 -11l22 -8q3 -2 6 -3t6 -4l7 -6l27 -19l14 -3q9 -2 13 -6l10 -9l25 -5h19l18 -3q4 -1 7 -1.5t6 -2.5l8 -5l17 -1q5 0 13 -4zM246 239q4 -2 7 -2.5t6 -3.5l12 -12l21 -4q8 -2 13 -4l14 -7l11 4v19l-2 26v16l-2 20
q0 9 1 13l1 9l-2 29l-27 12l-10 5q-7 3 -10 9l-6 8l-23 2q-8 0 -13 8l-6 11l-16 -4l4 -21q1 -5 0.5 -7.5t-1.5 -6.5l-5 -20l-2 -15v-29l3 -11q1 -6 0 -13l-2 -11l28 -18z" />
    <glyph glyph-name="seven" unicode="7" horiz-adv-x="593" 
d="M125 -33q-14 2 -10 7l3 14l2 11l2 40l1 13l-1 19l3 26q2 8 4 13l4 8l12 23v14v6.5t1 6.5l1 10l3 13l8 23l16 36l1 16l5 27q1 6 5 13l11 14l2 4q4 8 7 12l18 22v3q0 6 6 14l15 17l3 7q2 6 5 13l8 13l15 21l12 28l11 19l2 14q1 9 7 13l5 5l13 26l6 15q2 6 9 11l11 7l15 28
v11q0 6 5 13l5 6l-2 28l-12 22l-20 -2q-9 0 -13 1l-14 3q-7 1 -13 5l-12 6l-20 -2q-9 -1 -13 6l-9 12l-30 2l-17 -11l7 -17q3 -10 -1 -15l-3 -4l-13 -34q-3 -9 -14 -7l-8 1l-22 -14q-7 -6 -15 -1l-5 2l-16 -9q-3 -2 -6.5 -2t-7.5 -1l-7 -1q-4 -1 -7 -0.5t-7 1.5l-9 2
q-3 1 -6.5 1.5t-6.5 2.5l-8 4q-9 5 -9 12l-1 17l-5 24l-3 17q-1 4 -0.5 6.5t1.5 6.5l2 9l3 15l4 23l-4 37q-1 0 -1 1q-3 2 -1.5 6t4.5 8l6 6q4 5 12 7l6 2q3 1 6 1t7 1l12 1q3 1 6.5 1h6.5l12 -1l10 14q4 6 13 8l16 2l11 4q4 2 7 1.5t6 0.5l21 3l14 16q3 4 6 4.5t7 0.5h7
l21 11l27 13q8 5 15 -2l12 -10l23 -15l7 1q9 0 14 -4l20 -15l9 2q9 2 15 -3l12 -7l18 -3l23 -1q9 0 13 -2l15 -5l26 -7l18 -8h19q9 0 13 -1q8 -2 13 -4q6 -2 -4 -6q2 -6 2 -13v-1q0 -6 -2 -14l-7 -22l4 -18q1 -5 1 -14l-1 -9q-1 -4 -1 -7t-2 -6l-4 -10l-7 -28l-3 -21l1 -17
q0 -4 0.5 -6.5t-0.5 -6.5l-1 -4q-1 -5 -2 -6.5t-3 -5.5l-10 -14l-7 -25v-12q0 -7 -5 -14l-12 -16l-9 -16l-11 -19v-21q0 -8 -5 -13l-24 -24l-10 -17v-20q0 -9 -8 -13l-11 -4l-2 -14q-1 -6 -5 -13l-10 -14l-11 -21q-2 -5 -7 -11l-6 -7l-6 -22q-1 -5 -6 -12l-10 -13l-10 -15
l-2 -14l-4 -19q-1 -7 -6 -13l-5 -6l-15 -33l-1 -7q0 -5 -4 -13l-9 -21l4 -11q3 -8 0 -15l-8 -17l1 -21l5 -5q3 -3 7 -11q2 -5 -9 -8l-26 -9l-12 -2l-32 -7l-3 -1q-8 -2 -13 -2h-11l-24 -11l-15 -6l-18 -9q-4 -2 -7 -2.5t-7 -0.5z" />
    <glyph glyph-name="eight" unicode="8" horiz-adv-x="541" 
d="M507 446q0 -1 -1 -2q-1 -2 -2 -1l-4 -31l5 -22q1 -9 -5 -15l-5 -4l4 -15q1 -4 1.5 -6.5t-0.5 -7.5l-5 -23l7 -9q2 -4 3.5 -6t1.5 -7l1 -20l-1 -17l-1 -22l2 -26v-19q0 -8 -3 -14l-7 -16l3 -11q2 -5 2.5 -7t-1.5 -7l-6 -18l3 -2q8 -4 11 -8q6 -6 -6 -12l-23 -11l-6 -8
q-5 -6 -14 -5l-6 1l-24 -11l-32 -23q-6 -5 -13 -6l-20 -5l-19 -9l-8 -6l-13 -7q-7 -4 -15 -1l-14 5q-8 4 -12 7l-13 9l-15 2q-9 2 -12 9l-4 9l-17 4q-9 2 -13 5l-21 17l-12 -1q-9 0 -13 1l-4 1q-7 1 -12 5l-9 7l-25 7q-4 1 -12 5l-13 6l-13 -2q-4 -1 -7 -0.5t-7 1.5l-8 2
l-17 5q-5 2 -6 4q-3 3 -1.5 6t3.5 6l6 30l-2 7q-2 7 1 15l8 17l-7 13q-3 7 -1 15l5 17l-5 14q-3 6 -3 13l1 13l1 27q0 5 2 13l1 6l2 32l2 22l-1 6q-1 4 -0.5 6.5t1.5 6.5l3 20l-6 13q-6 13 2 13l-5 5q-7 8 0 15l3 4l21 24l-7 24q-2 8 -2 13v1q0 8 1 13l8 25l-1 6q-2 8 -2 13
l-1 16l1 26l-3 19q-1 4 -1 13l1 12l1 19l1 24l1 33l-2 28h-4q-5 1 -2.5 5t6.5 6l19 10l10 10q2 2 5 4.5t7 3.5l12 3l16 3l21 17q6 5 11 7l11 4l10 12l14 13q5 5 11 8l15 10q8 5 15 -1l12 -10l12 -6q5 -2 11 -7l9 -7l25 -17l18 -8l13 -4l20 -8l11 -6l12 -8l20 -4l21 -6l20 -3
l16 -4q8 -2 13 -6l16 -11v-2q0 -3 -1 -7l-2 -5l-3 -17q-2 -8 -4 -13l-3 -7l8 -23q3 -7 0 -15l-5 -17l-5 -23v-18l2 -18q1 -7 0 -14l-2 -11l1 -26l2 -5q3 -6 3 -13l1 -25l3 -21l1 -15l20 -33zM271 669q-6 2 -10 6l-20 18l-4 2l-3 -27l-6 -31l5 -17q1 -6 0 -14l-3 -15l15 -32
l18 -18l19 -5l16 4l4 14l-3 23q-1 5 -0.5 7.5t1.5 6.5l6 19l-7 12q-4 6 -1 15l7 19zM327 222l5 29l-5 12q-2 8 0 15l5 11l-10 27l-13 9l-21 9l-17 5q-8 2 -12 7l-13 14l-14 3h-18l3 -8q3 -6 3 -14l1 -17q0 -5 -2 -13l-1 -6l-1 -21l1 -25l23 -21l14 -1q8 0 13 -7l9 -11l12 -2
q9 -2 13 -5l12 -10l13 7v13z" />
    <glyph glyph-name="nine" unicode="9" horiz-adv-x="534" 
d="M507 421q5 -5 3 -13q-2 -10 -13 -5h-1l4 -25v-25q0 -8 -3 -14l-5 -13l5 -26l2 -19v-22q0 -6 -2 -14l-4 -11l-4 -16l9 -22q3 -8 2 -14l-1 -12q-2 -8 -4 -13l-6 -14l10 -24v-1q6 -6 6 -13v-2q0 -8 -7 -13l-5 -4q-6 -5 -13 -6l-22 -4l-21 -5l-4 -3q-3 -3 -5.5 -4t-5.5 -3
l-16 -6l-16 -9l-15 -11q-4 -3 -13 -5l-18 -2l-5 -14q-3 -7 -12 -9l-9 -1q-6 -1 -14 2l-22 9l-5 3q-8 4 -11 8l-10 11l-26 19l-19 10h-15q-8 0 -13 4l-8 5l-16 6l-30 2l-24 -1l-12 1q-7 0 -14 4l-13 7l-28 2q-11 2 -11 11v6.5t2 6.5l5 15l-1 18q0 9 7 13l7 4l9 19q3 8 13 8
l13 -1l24 9l17 12q6 5 14 3l25 -4q7 -1 12 -4l14 -6l14 1q4 0 7 -0.5t7 -3.5l13 -11l33 -6h11q10 0 13 -9l6 -14l29 20l-3 13q-1 4 -1.5 7t0.5 7l1 6q2 8 4 13l4 8l-5 16q-2 8 -2 13v15l1 33l-15 2q-4 1 -6.5 1.5t-6.5 2.5l-14 8l-6 -2q-7 -3 -15 2l-16 9l-19 3q-9 2 -13 5
l-12 6l-13 5l-19 7q-6 3 -11 8l-11 9l-13 4q-6 2 -11 9l-6 8l-17 14l-27 20l-17 15l-3 3q-5 5 -8 11l-10 23q-5 3 0 13l4 8l-3 30l-2 9q-1 7 2 15l7 13v43q0 9 1 13l2 12l-8 17q-3 7 -2 14l1 13l-2 16q-1 6 2 14l5 13l-4 15q-2 8 -2 13l-1 21q0 7 2 7q-1 6 5 12l9 8
q3 3 5.5 4t5.5 3l14 5l18 7l10 9q6 6 14 6l18 2l18 13l13 8l11 11q2 2 4.5 4t5.5 4l11 8q5 4 13 4l14 1q9 2 14 -5l9 -10l19 -12l18 -12l46 -21l18 -2q6 0 14 -4l15 -8h1q9 2 14 -2l16 -10h24q5 0 13 -4l34 -17l15 -1q16 -2 5 -14h-9l8 -16q3 -6 0 -14l-9 -24l6 -17
q3 -6 3 -13l-2 -9l-3 -15l5 -25q1 -4 1.5 -6.5t-0.5 -6.5l-3 -12q-2 -8 -4 -12l-3 -8l8 -20q3 -8 2 -14v-3q0 -4 -1 -7l-2 -6l-4 -12l3 -13q1 -5 1 -14l-2 -25l-4 -22l7 -18l8 -16zM237 517l19 -16l22 -4q4 -1 6.5 -3t5.5 -4l10 -9l20 11l-2 30l-2 6q-1 4 -0.5 7t1.5 7l6 19
l-6 24l-2 12q-1 8 2 14l9 16l-4 21l-23 13l-25 15l-9 4l-28 18l-15 11l-18 -5v-24l1 -17l5 -20q1 -4 1.5 -6.5t-0.5 -7.5l-2 -7l-3 -26l5 -25l7 -41z" />
    <glyph glyph-name="colon" unicode=":" horiz-adv-x="212" 
d="M30 412q-6 6 -6 13l-1 12v33l-6 11q-3 7 0 15l4 9l18 34q4 6 12 8l10 2l32 13q9 4 15 1l18 -5l15 8q4 2 6.5 2.5t6.5 0.5h7q10 0 14 -6l12 -14q6 -7 4 -15l-1 -4l2 -20q0 -10 -1 -14l-1 -10v-27q0 -6 -5 -13l-14 -17q-4 -5 -13 -7l-13 -3l-8 -7q-5 -5 -13 -7l-15 -2
l-9 -3q-6 -3 -14 -1l-22 6l-16 -1q-10 0 -14 4zM19 7q-5 8 0 15l5 5l-4 17q-1 4 -1.5 7t0.5 7l2 12l-3 14q-1 8 3 15l16 24q3 4 9 10l2 2q7 5 13 5l25 2l6 5q5 5 13 5h6q9 0 13 -1l17 -4l18 8q9 5 15 -5l9 -15q4 -6 5 -13q1 -4 1 -12v-37q0 -9 -1 -13l-1 -5q-1 -4 -5 -12
l-13 -23q-3 -5 -9 -10l-21 -13q-5 -4 -13 -4h-18l-8 -4q-7 -4 -14 -4l-20 1l-21 -3q-9 -1 -14 7z" />
    <glyph glyph-name="semicolon" unicode=";" horiz-adv-x="212" 
d="M36 536q5 8 14 6l12 -1l18 14q4 3 7 3.5t7 0.5l15 -2l14 5q6 3 14 1l12 -3l6 2q7 2 14 -3l21 -15q8 -6 8 -13q0 -2 -2 -10l-6 -26l-5 -14l7 -19q4 -9 -2 -15l-14 -16q-4 -6 -11 -9l-23 -11q-6 -3 -14 -3h-45l-17 -7q-6 -3 -14 -3q-7 0 -13 6l-18 18q-6 6 -6 14v3
q0 4 0.5 7t1.5 7l4 13l-2 11q-1 4 -1.5 7t0.5 7l2 15q1 6 5 13zM25 5q-5 7 -4 14l1 6l-5 14q-3 6 -3 14l1 20v8q0 6 4 13l20 28q2 4 4.5 5t6.5 3l14 5l7 4q7 5 13 5h18l24 -1l24 2l13 7q11 7 14 -5l8 -22l4 -4q7 -7 4 -15l-6 -19v-21l-1 -22v-29l2 -16q1 -4 1 -13l-1 -8
l5 -13q3 -8 -2 -15l-17 -26q-4 -6 -12 -8l-13 -2l-6 -5q-7 -6 -16 1l-12 11q-5 4 -7 13l-1 12q0 9 2 14l6 17l-31 7l-16 4l-17 -2q-8 -1 -14 5z" />
    <glyph glyph-name="question" unicode="?" horiz-adv-x="593" 
d="M568 818q2 -1 -1 -3t-8 -4l-1 -12l-1 -8l-6 -35l-3 -22l1 -21q0 -5 -2 -13l-1 -6q-1 -7 -6 -13l-7 -9l1 -23q0 -9 -4 -14l-6 -8l-7 -14q-4 -8 -8 -12l-13 -14l-18 -20l-3 -8q-2 -3 -3 -6t-3 -6l-8 -12l-8 -10l-10 -9l-21 -17l-3 -15q-1 -6 -6 -13l-11 -11l-17 -18l-7 -5
l-19 -24l-14 -21l-4 -16l-3 -15q-1 -6 -6 -13l-12 -15v-19l1 -25q0 -5 -2 -13l-7 -21l8 -5q7 -4 6 -14q0 -10 -12 -8l-11 1l-25 4l-9 -4q-7 -3 -13 -5l-22 -5l-27 -15q-4 -2 -7 -3l-6 -2l-20 -5l-14 -3q-6 -1 -14 2h-1q-8 4 -9 12q0 1 1 -1.5t2 -2.5l-1 13q0 10 1 14l6 23
l7 19l-3 18q-1 6 2 14l9 18l-3 7q-3 9 1 15l7 14l14 23l-3 22q-1 8 6 13l7 6l12 20l15 18l9 18l14 25l1 14q0 6 6 14l4 5q4 5 13 7l14 3l16 20l6 11q2 3 4 5.5t4 5.5l6 7q2 3 4.5 5t5.5 4l13 9l3 11q1 4 2.5 6.5t3.5 5.5l13 20l16 19l-15 24l-19 -3q-4 -1 -7 -0.5t-7 1.5
l-12 3h-19q-7 0 -13 5l-11 8l-13 -1q-4 -1 -7 -0.5t-7 1.5l-24 8l-18 -11l6 -10q3 -6 3 -14v-5q0 -10 -3 -14l-14 -21q-4 -6 -11 -9l-11 -4l-17 -8q-8 -4 -14 -4l-24 -1h-22l-11 -5q-8 -4 -13 -4h-4q-9 0 -14 4l-17 11q-7 5 -6 14l3 14q1 5 4 12l3 7l-1 24l1 13l-9 25
q-2 5 -1.5 7.5t2.5 7.5l4 11l2 23l-6 5l-3 2q-9 9 3 15l8 4q4 2 14 2h15l13 11q4 4 13 6l13 3q4 1 6.5 2t6.5 0l8 -1l26 17l6 4q5 4 14 4l20 -1l16 15q5 5 14 5l15 -1l8 8q3 3 5.5 4.5t5.5 3.5l18 11q8 5 15 -1l19 -14l13 -9l19 -14l16 -9h24q6 0 14 -2q2 0 9 -4l21 -11
l14 4q7 2 15 -1l17 -6l7 -1q7 0 13 -3l19 -7l10 2q4 1 6.5 0.5t6.5 -1.5l22 -3q5 -1 11 -3zM163 113q2 5 4 7t5 4l22 13l6 3q8 4 12 5l13 3q4 1 13 1l19 -1l19 2h12q10 0 14 -2l16 -7q8 -3 8 -13v-14q0 -4 -0.5 -6.5t-1.5 -6.5l-4 -14l2 -27l2 -7q2 -8 -1 -14l-10 -22
q-5 -10 -14 -8l-17 2l-11 -9q-4 -3 -12 -7l-15 -5q-4 -2 -7 -1.5t-7 1.5l-11 2l-21 -6q-7 -3 -14 0l-17 5l-15 7q-9 3 -8 13l3 19l4 23l-2 6q-2 8 0 15l7 20z" />
    <glyph glyph-name="at" unicode="@" horiz-adv-x="961" 
d="M492 903q3 1 6 0.5t7 -0.5l26 -2l17 -4l20 -2q4 -1 6.5 -1t6.5 -2l15 -4l14 -4q4 -2 7 -3t6 -3l15 -11l15 1q8 0 14 -5l4 -3l18 -8l29 -18l21 -8l9 -5q8 -5 10 -10l9 -19l11 -5q6 -3 10 -11l8 -14l10 -4q6 -3 11 -8l19 -20l15 -17l12 -15l9 -17q2 -3 3 -5.5t1 -7.5l1 -10
l12 -14q5 -6 7 -11l4 -10q2 -5 4 -13v-2l9 -21q2 -4 2 -14v-8l15 -34l3 -9q1 -4 1.5 -6.5t-0.5 -7.5l-3 -16l5 -7q3 -4 3 -14v-41q0 -10 -2 -14l-5 -15l-5 -16v-35q0 -4 -1 -6.5t-2 -6.5l-5 -17l-6 -21q-1 -7 -8 -12l-10 -7l-2 -21q-2 -8 -4 -13l-3 -6q-3 -6 -8 -11l-13 -13
l-9 -15l-15 -20l-4 -7q-2 -3 -4 -5.5t-4 -5.5l-18 -19l-1 -5q-1 -7 -8 -12l-38 -29l-17 -11l-13 -13q-6 -6 -13 -7l-12 -1l-16 -15q-3 -2 -5.5 -3t-6.5 -3l-10 -3l-16 -3l-20 -13q-3 -2 -5.5 -3.5t-5.5 -3.5l-9 -3q-8 -3 -14 -2l-10 2l-10 -5q-4 -2 -7 -2.5t-7 -0.5l-13 1
l-22 -10q-6 -3 -13 -3l-8 -1q-6 -1 -13 0l-44 7l-24 3l-12 -2q-7 -1 -14 0l-19 4l-5 2q-6 2 -12 5l-14 7l-14 1q-8 0 -13 4l-18 14l-21 4q-7 1 -12 5l-4 2q-3 2 -5 3.5t-5 4.5l-10 8l-37 22l-6 4t-5 4l-12 10l-3 1q-7 1 -12 8l-18 20l-17 16l-14 13l-10 11l-13 15
q-5 7 -6 12l-5 17l-6 6q-7 5 -8 12l-5 15l-14 11q-6 5 -6 14l1 16l-11 22q-3 7 -4 13l-3 17l-6 20l-6 11q-3 8 -2 14l4 19l-2 7q-1 4 -1 14l1 39q0 8 3 14l4 9l3 18v17q0 9 2 13l7 18l-4 16l-1.5 7.5t1.5 6.5l6 16l11 23l6 15l10 19q2 4 8 10l12 11l15 13l13 26l3 11
q1 7 8 12l10 9q3 3 6 4t6 3l11 4l6 13q2 4 3.5 6t3.5 5l10 10q6 6 10 9l3 2q6 5 12 6l13 4l20 15l19 12l17 12q3 2 6 3t6 3l23 9q3 2 6 2t7 1l20 3l17 1l23 7l11 2q4 1 13 1l27 1l14 5q3 2 6 2t7 1zM523 65q9 0 13 -1l8 -2l20 7l32 6l4 4q2 3 4.5 5t5.5 4l18 11l8 8
q4 4 13 6l13 3l27 18l8 14q3 7 11 10l15 6l13 18l7 15q2 4 3 6.5t3 5.5q1 3 7 7l19 14l3 23q1 4 1 7t2 6l2 5q3 9 8 12l7 7l1 24q0 8 7 13l11 8l1 26l3 20l-1 27l-3 18v38q0 5 2 13l6 23l-5 7q-6 7 -4 15l4 22l-10 12q-4 5 -4 13v9l-5 24l-17 21l-18 31q-4 8 -5 13l-2 18
l-9 16l-17 8q-8 4 -10 11l-4 13l-14 8q-3 2 -5.5 4t-4.5 6l-7 12l-16 19l-21 15l-15 8l-25 9q-3 2 -6 2.5t-6 2.5l-10 6l-17 -1q-8 0 -14 3l-11 6l-22 11l-13 -4q-4 -1 -14 -1l-34 1h-28l-23 -6l-20 -9q-6 -3 -14 -3l-7 -1l-20 -6l-24 -6l-6 -14q-2 -5 -10 -11l-16 -11
l-17 -10q-4 -2 -7 -3l-6 -2l-3 -1l-13 -21q-2 -4 -4.5 -6t-5.5 -4l-16 -10l-11 -20l-5 -13q-3 -7 -8 -12l-15 -13l-5 -16l-7 -18l-5 -20q-1 -9 -7 -13l-12 -11l1 -11q0 -9 -2 -14l-10 -19l3 -16q2 -8 2 -13v-12q0 -8 -3 -14l-3 -6l-3 -54v-36l13 -30l6 -13q3 -5 4 -12l3 -16
l9 -17l6 -15q2 -4 2 -14l-1 -16l17 -16q6 -6 9 -10l4 -7l12 -23l13 -22l15 -15l6 -3q6 -3 11 -8l20 -19l3 -1q4 -2 6 -4.5t4 -5.5l10 -16h16q8 0 13 -4l19 -13l17 -7l25 -8l11 1q4 0 7 -0.5t7 -1.5l39 -10l36 5zM752 266q10 -6 1 -15l-7 -8q-6 -6 -14 -6l-16 -1l-29 -26
q-6 -6 -10 -9l-21 -14l-7 -5q-6 -5 -13 -6l-12 -2q-8 -2 -14 2l-18 9l-18 11l-18 5q-4 2 -6.5 2.5t-5.5 3.5l-10 9l-48 30l-14 -9l-19 -17l-15 -12q-7 -5 -12 -6l-18 -4l-8 -14q-6 -8 -12 -9l-16 -4q-9 -2 -15 3l-28 23l-17 3q-4 1 -7 1.5t-6 2.5l-12 7q-3 2 -5.5 3.5
t-5.5 4.5l-10 11l-11 9q-6 6 -4 15l2 6l-1 29l-1 14q0 10 3 14l7 12l1 18v53l-6 7q-6 6 -3 15l10 23l-7 13q-2 4 -3 6.5t-1 6.5l-1 14l-1 22q0 8 3 14l6 14l1 19v18l-1 29l-5 12q-3 6 -3 14l1 14q0 5 2 13l1 6q5 3 10 5l7 3.5t4 1.5l16 11q4 3 13 5l9 1l23 16l20 10l21 11
l16 11l13 12q6 6 15 2l20 -7q7 -3 11 -8l10 -12l14 -6q3 -2 6 -3t6 -4l7 -6l25 -8l8 -1q9 0 13 -2l12 -5q6 -3 11 -8l12 -10l11 2q4 1 6.5 0.5t6.5 -1.5l21 -6l25 -10l3 -1q8 -2 9.5 -6.5t-4.5 -6.5l-1 -5l1 -13q0 -9 -1 -14l-5 -24l1 -7q1 -6 0 -13l-2 -19l5 -17l4 -18
l1.5 -7.5t-1.5 -6.5l-6 -18l-1 -17l6 -19q2 -8 -1 -15l-7 -17l5 -12q3 -7 1 -15l-4 -12v-18l-2 -23l29 -22l14 -8q3 -2 5.5 -3.5t5.5 -4.5l14 -14l11 1q8 0 14 -5zM485 533q-3 2 -6 3t-6 3l-14 10l-18 14l-25 19l-13 -13l3 -11q1 -4 1.5 -7t-0.5 -7l-2 -22l2 -18l4 -19
l16 -30l22 4q7 1 14 0l16 -2l31 25l-8 11q-4 7 -4 14l1 21zM435 306q3 -2 5.5 -4t4.5 -5l17 -17l17 -5l24 6l3 31l-2 10q-1 8 0 14l5 15l-25 28l-19 1l-16 -7q-7 -3 -15 0l-4 1l-25 -18l6 -30l17 -15z" />
    <glyph glyph-name="A" unicode="A" horiz-adv-x="641" 
d="M599 112q11 -6 1 -15l-3 -3q-3 -3 -5 -4.5t-6 -3.5l-13 -6l-22 -11l-25 -23l-13 -9l-22 -12l-8 -8q-4 -5 -12 -7l-15 -4q-6 -3 -14 -1l-6 1q-6 1 -12 7l-10 9q-6 6 -9 10l-8 11l-22 13h-14q-7 0 -14 5l-9 6l-31 14l-22 -6l-17 -8l-12 -12l-17 -15q-4 -4 -13 -6l-18 -5
l-6 -14q-3 -7 -11 -10l-19 -8q-10 -4 -15 3l-28 29l-20 11l-17 8q-3 2 -6 3t-6 4l-11 9l-14 4q-4 1 -12 5l-12 6q-10 5 -4 15l5 7l11 26l-5 9q-2 3 -3 5.5t-1 7.5v10q0 10 2 14l8 20l-5 6q-6 6 -3 15l7 20l1 22l-4 9q-2 4 -2.5 6t-0.5 7l1 18l-3 23q0 8 3 14l1 2l-1 27
l-1 11q-1 7 0 13l3 20l-4 17q-1 9 1 15l6 17l-3 8q-2 4 -1.5 6.5l1.5 7.5l3 16l2 16l-4 18q-1 8 0 14l5 17l-4 19q-1 7 0 14l2 13l-4 9q-3 6 -1 14l4 15l3 30l-4 8q-2 6 -1 14l3 21l-6 34q-1 5 -0.5 7.5t1.5 6.5l5 18l-7 7q-3 3 7 10l8 5q3 2 6 3t6 3l12 5l8 8q6 5 13 6
l11 3l25 8l16 11q3 2 5.5 3t5.5 3l13 6l17 9l23 20l9 6q8 5 15 -2l19 -18l4 -1q3 -1 6.5 -1t6.5 -2l18 -7q3 -2 6 -3t6 -4l10 -9l19 -13l20 -7q6 -3 11 -8l7 -7l28 -4l16 1q10 0 14 -2l13 -7l16 -11l27 -1q5 0 13 -2q6 -2 9 -4t0 -4l-9 -17l-5 -19l1 -22l2 -19q1 -3 0.5 -6
t-0.5 -7l-1 -19l5 -15q2 -7 0 -14l-5 -13l3 -20l2 -19q0 -4 0.5 -7.5t-0.5 -6.5l-3 -17l2 -9q1 -5 1 -14l-2 -21l5 -14q2 -5 1.5 -8t-1.5 -7l-6 -19l2 -6q2 -8 -1 -14l-6 -15l6 -19q2 -4 2 -13v-16l-1 -19l2 -24q0 -6 -3 -14l-5 -9l-2 -28l1 -13l-1 -31l5 -7q5 -6 3 -14
l-4 -25l3 -25l16 -14l23 -15l15 -4q7 -2 11 -9l8 -11l11 -3q7 -1 12 -5zM306 650q-7 1 -13 6l-7 4l-17 10q-4 2 -6.5 3.5t-4.5 4.5l-8 9l-22 17l-14 -7l-2 -16l6 -24q1 -7 -2 -15l-5 -12v-19l-2 -16l1 -22l6 -15q3 -8 0 -15l-7 -14l27 -13l16 -1q8 0 14 -3l19 -8l19 3l18 28
l3 18l-3 18q-2 8 3 14l7 10v20l-13 33zM257 145q8 -2 13 -6l23 -13l9 -2l26 10l3 20l-6 11q-4 8 -2 15l5 12l-3 23q-1 7 0 13l2 9l-5 17q-1 7 0 14l5 18l3 15l-4 12q-1 7 0 14l6 22l-23 19l-22 6l-36 -4l-21 -3l-13 -15l-5 -25l3 -15v-19q0 -9 -1 -14l-5 -14v-26l3 -3
q5 -8 1 -15l-7 -12l12 -31l9 -11z" />
    <glyph glyph-name="B" unicode="B" horiz-adv-x="610" 
d="M577 112q7 -9 -2 -15l-16 -9q-5 -4 -14 -4l-4 1l-21 -14l-19 -11l-20 -14l-17 -9l-15 -7q-6 -3 -13 -3l-13 -1l-19 -14l-17 -13q-8 -7 -15 2l-13 14l-14 7q-6 4 -10 10l-8 11l-16 5l-23 5q-7 1 -12 5l-9 5l-24 15l-16 2q-10 2 -13 6l-5 7l-19 3q-3 1 -5.5 1t-6.5 2l-13 4
l-16 -2q-4 -1 -6.5 -0.5t-6.5 0.5l-12 1q-8 2 -13 4l-10 5q-12 7 -2 15q6 6 8 -4l7 38l-9 19q-3 7 -2 14v4q0 5 2 13l6 22l2 17l-1 21l-4 27l-2 19l-3 11q-1 5 -1 14l1 12q0 9 2 13l8 21l-3 23l-8 8q-3 3 -3 5q-2 5 2 13l11 24v20l-7 15q-2 4 -2 14l1 21l-1 10q-1 5 0 8t3 6
l9 16l-4 19q-2 8 -2 13l1 15l-3 10q-3 9 4 15l13 10q5 4 14 4h9q7 0 14 -4l12 -7l18 -1q8 0 13 -2l8 -2l25 -5l19 7q9 3 15 -4l6 -7q5 -6 3 -15l-3 -17l4 -7q3 -4 3 -14l-2 -23l3 -12l8 -18q4 7 13 1l19 -14l23 8l-3 10q-1 7 0 14l4 15l-3 21l-4 21q-1 7 0 13l3 11l2 27
l-1 18l-21 15l-18 -8q-8 -4 -12 -5l-8 -1q-10 -2 -15 3l-7 6l-20 -7q-7 -3 -14 0l-13 4q-4 2 -6.5 2.5t-5.5 2.5l-10 5l-22 -3q-7 -1 -14 2l-11 5l-15 1l-25 6l-6 2t-7 3l-4 2q-4 2 -6.5 3.5t-4.5 4.5l-7 8l-26 19l-13 1q-8 1 -10 11v1q-2 10 8 13l32 11l4 3q5 4 13 4l19 2
l28 11l14 8q7 4 14 4l11 1l4 6q5 7 12 9l23 6l11 14l12 12q2 3 5 4.5t6 3.5l18 12l15 8l26 18q8 6 16 0l15 -13l15 -17l17 -11l15 -13l19 -12l16 -7q7 -3 11 -9l9 -14l17 2q7 1 14 0l29 -8l6 -2t7 -3l9 -5q6 -4 9.5 -7.5t0.5 -3.5l-1 -4l-1 -22q0 -4 -1 -7l-2 -6l-6 -21
l2 -15v-13l-1 -20l2 -4q2 -3 3.5 -6t1.5 -7l1 -9q0 -8 -1 -13l-4 -20l5 -19q2 -8 -2 -14l-6 -9l3 -31l6 -14q2 -6 1 -15l-4 -16l-4 -21l8 -11q4 -5 5 -12l5 -22l26 -8l13 -2q5 -1 6 -4t-4 -6l-3 -11l2 -22q0 -5 -0.5 -7.5t-1.5 -5.5l-3 -8l-4 -27l6 -19q1 -4 1 -14l-1 -17
v-9q0 -5 -2 -13l-3 -16l-1 -32l3 -6q3 -6 3 -14l-1 -23l4 -24l1 -8q1 -8 0 -13t-3 -3zM399 320l-6 21l-23 7l-10 -1q-4 0 -7.5 0.5t-6.5 3.5l-14 12l-21 13l-18 8l-10 -12v-18l-2 -27l1 -21l5 -18q2 -8 2 -13v-14l23 -21l4 1q8 2 14 -6l16 -17l21 -11l13 -10l17 8l-5 26
l-2 9q-1 5 -0.5 7.5t1.5 6.5l5 17l2 27z" />
    <glyph glyph-name="C" unicode="C" 
d="M494 98q-4 -5 -12 -7l-20 -4l-9 -14q-4 -7 -13 -7h-7l-28 -11l-12 -12q-6 -6 -12 -7l-3 -1l-19 -8l-27 -16l-16 -13q-8 -6 -16 0l-10 8q-6 4 -10 10l-6 9l-21 14q-3 2 -5.5 3.5t-4.5 4.5l-5 6l-36 13l-24 13l-17 5q-5 1 -12 6l-12 8l-22 5l-19 2q-5 0 -13 2l-31 8l-7 2
q-8 3 -12 6.5t0 4.5l6 24l-3 29v38q0 10 2 14l6 16v27l-4 7q-4 6 -1 14l7 20l-3 14q-1 7 0 14l1 8l1 33l-5 10q-3 7 0 15l3 6l4 27l1 21l-1 29l-4 10q-2 3 -2 6t-1 6l-2 13q-2 10 2 15l9 16l-7 9q-5 7 -1 15l9 15l-4 17l-7 30l-1 17q0 8 1 13l3 10q2 8 4 13l3 8l-9 23
q-2 6 -1 14l3 17l2 21q-2 2 -4 3.5t-4 6.5q-3 8 8 11l11 4l27 17l17 8l11 4q8 2 14 2l16 1l16 11q3 2 6 3t6 3l7 3l9 12q2 4 5.5 5t7.5 2l19 3l7 12q7 11 15 3l18 -18l8 -2q7 -3 11 -9l9 -12l20 -1q9 0 13 -7l7 -9l19 -5l42 -13l18 2q8 2 14 -5l5 -6l26 8q8 3 15 -1l11 -6
l19 -5q11 -4 9 -13v-3q-1 -7 -7 -13l-12 -13l-5 -15q-1 -7 -6 -13l-8 -8q-2 -3 -4.5 -4.5t-5.5 -3.5l-8 -5l-11 -6l-9 -4l-23 -12q-8 -4 -14 -3l-9 1l-40 -8q-7 -1 -15 2l-7 4l-15 3q-4 1 -12 5l-40 18l-14 4l-14 -8l-5 -11l-3 -28l-4 -16l1 -32l-1 -13l9 -25q2 -4 2 -14
q0 -3 -1 -8l-2 -16l-1 -32l1 -4q1 -8 -1 -14l-5 -15l4 -27q1 -6 -2 -14l-4 -13l4 -19l2 -7q2 -8 2 -14v-12q0 -9 -1 -13l-4 -13l6 -27l2 -21l-1 -19q0 -10 -2 -14l-6 -17l23 -15l16 3q6 1 14 -3l14 -7l19 -15l15 -13l9 -3l11 27l14 28q3 7 7 11l4 4q7 7 14 5l15 -4l24 8
q4 1 6.5 1.5t7.5 -0.5h8l18 8q4 2 12 4q9 2 15 -4l11 -9q7 -5 8 -12l4 -13q1 -4 1.5 -6.5t-0.5 -7.5l-3 -13l-2 -15l2 -19l4 -18q1 -7 0 -14l-3 -20l3 -11q1 -4 1.5 -7t-0.5 -7l-2 -9z" />
    <glyph glyph-name="D" unicode="D" horiz-adv-x="611" 
d="M569 789q4 -2 5 -4t-1 -2l-6 -13l6 -21q1 -4 1.5 -7t-1.5 -7l-3 -7l4 -14q1 -5 1 -14l-1 -16l-1 -26l1 -17q0 -4 -0.5 -7t-1.5 -7l-5 -16l6 -11q3 -7 3 -14l1 -14q0 -7 -5 -14l-6 -8l-2 -31l2 -15l3 -20l4 -26q1 -7 0 -14l-3 -16l3 -7q3 -8 -1 -15l-7 -11l3 -26l1 -26
l4 -13q2 -7 0 -14l-6 -15l6 -29l1 -2q2 -7 0 -14l-9 -27l5 -5q6 -6 2 -15l-7 -16l4 -23q1 -6 0 -13l-3 -15l5 -17q1 -6 -2 -14v-2q8 -3 -2 -13l-3 -3q-4 -5 -12 -7l-19 -3l-10 -13q-5 -6 -14 -5l-14 2l-11 -10l-21 -14q-6 -5 -13 -6l-15 -3l-10 -11q-5 -7 -11 -9l-4 -1
l-25 -9q-8 -3 -14 0l-6 3l-14 10q-3 2 -5.5 3.5t-4.5 4.5l-18 19l-12 10l-25 6q-4 1 -12 5l-11 5l-19 10h-9q-9 0 -13 2l-20 9l-8 -1q-4 -1 -7 -0.5t-7 1.5l-19 6l-15 2q-3 1 -6.5 1.5t-6.5 2.5l-17 6q-5 2 -9.5 5.5t-1.5 3.5l1 8l5 26l-7 25q-1 7 2 15l7 14l-4 9
q-2 4 -2 14l-1 14l-3 18l-1 26q0 7 4 14l9 13l-1 6q-1 5 -1 14l2 24v12l-8 25q-3 9 1 15l5 8v18l-2 32l-5 11q-3 6 -3 14l1 15v6.5t1 6.5l3 12l-3 12q-1 7 0 14l3 14l-3 15q-2 10 2 15l8 12l-7 13q-3 4 -3 14l1 8q0 7 6 13l12 11q9 7 16 1l15 -10h4q8 2 14 -1l21 -10l20 -3
h27l9 3q9 3 15 -5l13 -13q5 -7 6 -13v-3q1 -5 0.5 -7.5t-1.5 -6.5l-7 -23l2 -8l2 -6t1 -7l1 -16q0 -9 -1 -13l-2 -15l4 -6q3 -4 3 -14l-1 -16q0 -4 -1 -7.5t-2 -6.5l-4 -14l-1 -24l1 -13l6 -26q1 -5 0.5 -7.5t-1.5 -6.5l-3 -12l-3 -14l2 -26l4 -11q3 -6 3 -13l-1 -18l3 -34
l15 -11l33 -7q9 -2 13 -8l11 -16l17 -6l16 3l10 20l-7 12q-3 8 -2 14l6 27l-4 15q-1 7 0 14l4 14l3 13l-6 21q-1 7 0 14l4 15l-6 15q-2 3 -3 6t0 8l2 10l1.5 6t2.5 6l6 13l-4 28l-5 15q-2 5 -1.5 7.5t1.5 6.5l4 13l3 24l-3 6q-3 7 -2 14l2 12l6 28l-7 29l-2 10v49l-9 15
l-17 -13q-6 -5 -15 -3h-8l-22 -7l-25 -4q-8 -2 -14 3l-8 5l-20 -7q-6 -3 -14 -1l-6 2l-31 8l-18 8l-16 -1q-9 0 -14 5l-4 4h-24q-9 0 -14 4l-15 9l-12 2l-17 2q-7 1 -13 5l-10 5q-4 2 -6 3.5t-4 5.5l-1 1q-2 3 -3 6t-3 6l-3 7q-5 10 6 14l19 7q6 3 14 1l16 -4l13 12l20 14
l17 10q3 2 6 2.5t7 1.5l18 3l34 22q6 5 13 6h5l13 13q7 5 12 6l12 3l29 18l11 6q7 4 15 0l21 -9l5 -3q3 -2 6.5 -3.5t5.5 -3.5l13 -12l19 -10q8 -4 11 -8l8 -9l22 -4l18 -5l15 -3q8 -2 12 -5l25 -15l15 1q7 0 13 -3l9 -5l23 -3q3 -1 6.5 -1t6.5 -2z" />
    <glyph glyph-name="E" unicode="E" 
d="M506 108q0 -9 -7 -13l-10 -6q-4 -3 -13 -5l-9 -1l-8 -9q-4 -5 -13 -7l-11 -3l-14 -11q-6 -5 -14 -5l-18 1l-20 -15l-21 -14l-12 -9q-7 -5 -12 -6l-9 -2q-9 -3 -14 5l-7 9l-10 4q-8 3 -12 7l-15 15l-21 14l-19 4q-8 2 -12 7l-4 4h-23q-8 0 -13 6l-9 11l-14 9l-15 -4
q-5 -2 -7.5 -1.5t-6.5 2.5l-16 6l-20 2q-5 0 -13 2l-17 5l-11 4q-7 2 -7 6.5t7 8.5l9 4l-1 32l-2 5q-3 6 -3 13l-1 6q-1 6 2 14l6 15l1 23l-3 24l-1 16q0 4 -0.5 7t0.5 6l2 17l3 25l-5 19l-1.5 7.5t1.5 6.5l5 14l-8 12q-4 7 -3 14l2 9l5 31l4 15l-4 33l-5 14q-2 6 -1 14l2 9
l-1 21l1 20q0 6 2 14l4 15l-3 20l-2 15l-1 16q0 8 3 14l6 17v21l-6 13q-3 8 -2 14l3 21l5 24l-6 13q-4 0 0 5t12 8l4 2l9 9q3 3 11 7l12 6l21 8l23 13l17 7l9 4q4 2 7 3l6 2l16 4l21 14l20 16q10 8 16 -1l9 -13l16 -8l19 -13l13 -7q6 -3 11 -8l11 -10l12 -8l29 -12l10 4
q7 3 15 -2l11 -6l20 2q7 1 14 -2l14 -8l9 2q7 1 13 0l15 -2q11 -2 8 -13l-5 -14l-5 -20q-1 -4 -3 -6.5t-4 -5.5l-7 -9q-2 -3 -5 -5l-6 -4l-3 -2l-18 -15l-12 -13q-4 -5 -11 -8l-5 -2q-6 -3 -14 -3h-24l-28 -2q-4 0 -7 -0.5t-7 0.5l-10 2q-9 2 -13 5l-12 8h-22q-8 0 -13 7
l-4 5l-21 15l-15 -9l-7 -24l-4 -29l5 -11q2 -4 3 -6.5t1 -7.5v-11q0 -5 -2 -13l-5 -17l4 -20q1 -5 0.5 -7.5t-1.5 -6.5l-1 -4l7 -32l19 -6l10 9q6 6 12 7l12 4l11 10q7 7 15 2l15 -9q3 -2 5.5 -4t4.5 -5l5 -8l24 -17l17 -3q3 -1 6 -1t6 -2l14 -5l20 -9q4 -2 6.5 -3t4.5 -5
l5 -7q5 -8 1 -16l-2 -4q-2 -3 -4.5 -5.5t-4.5 -5.5l-11 -11q-5 -5 -11 -8l-13 -7q-8 -4 -12 -5l-9 -3l-11 -14q-4 -6 -12 -8l-12 -3l-18 -8q-3 -2 -6 -2t-7 -1l-17 -2q-3 -1 -6.5 -1h-6.5h-13q-10 0 -14 7l-5 8l-23 -16l-5 -19l6 -14q2 -4 3 -6.5t0 -7.5l-3 -23l-1 -20
l6 -20l12 -15l29 -17l22 -10l1 -1q9 -2 13 -7l9 -14l14 5l4 20q2 6 5 13l13 25q2 5 12 9l4 1q6 3 14 3l16 -1l19 8q8 3 15 0l8 -2l21 8q3 2 6.5 2t6.5 1l7 1q8 2 14 -3l10 -7q8 -6 3 -15l-6 -12l3 -29l4 -5q5 -7 5 -14v-12q0 -9 -1 -13l-4 -21l2 -6q2 -5 2.5 -7.5t-1.5 -7.5
l-8 -23q9 2 9 -9z" />
    <glyph glyph-name="F" unicode="F" horiz-adv-x="524" 
d="M336 690q-5 0 -13 2l-11 4l-19 4l-19 5q-3 1 -5.5 1.5t-6.5 2.5l-4 3l-19 8l-22 -11l3 -12q1 -7 0 -14l-3 -12l1 -15q0 -10 -2 -14l-7 -19l9 -15q4 -6 0 -15l-5 -12l-5 -21l3 -26l21 -18l17 16l16 13q3 3 6 3.5t6 2.5l13 5q9 3 15 -3l13 -12l14 -1q9 -2 13 -9l5 -9
l29 -21l16 -4q4 -2 7 -3t6 -3l26 -16q10 -7 0 -16l-16 -12l-6 -11q-4 -7 -12 -9l-12 -2l-26 -11l-7 -16q-3 -8 -13 -8h-10l-17 -13q-6 -5 -13 -5l-23 -1l-22 1q-8 0 -13 8l-8 12l-17 -11l-11 -22l4 -17q2 -8 2 -12l1 -8q0 -5 -0.5 -7.5t-1.5 -6.5l-6 -18l4 -14q1 -5 1 -14
v-17l2 -6q2 -5 0 -15l-5 -17v-29l19 -15l25 -12l13 -9l13 -4q8 -4 12 -8l13 -11l20 -14q12 -8 -2 -15l-16 -8l-24 -9l-6 -8q-2 -3 -4 -5.5t-5 -4.5l-7 -5q-5 -4 -13 -4l-23 -2l-6 -9q-2 -3 -4.5 -5t-5.5 -4l-15 -8l-15 -16q-7 -7 -16 0l-18 16l-23 11l-10 4q-8 4 -12 8
l-25 24l-15 2q-5 0 -13 4l-12 5q-9 4 -9 13q0 7 11 7h4l-3 18q-1 6 2 14l7 14l-8 17q-2 3 -3 6t0 8l3 17l-2 15q0 9 2 13l8 21l-3 23l-1 4q-2 6 -1 14l5 21v21l-4 11q-2 6 -1 14l6 23l-9 16q-2 6 -1 14l1 5l-1 30l2 18l-2 9q-1 4 -1 13v21l3 16l3 12l4 13l-5 15
q-1 4 -1.5 6.5t0.5 7.5l3 19l-1 8q0 10 1 14l3 25l-3 10q-1 6 0 14l1 8l3 25l2 24l-5 12q-3 8 -2 14l5 19l-5 18l-9 19q-2 4 6 10l5 4q4 3 7 3.5t7 0.5h16l27 8l14 10l15 13q3 3 5.5 4.5t5.5 3.5l13 9l7 4q4 3 13 5l15 1l21 13l12 12q8 8 15 1l18 -16l13 -13l26 -15l14 -10
l9 -2q8 -2 13 -4l14 -8l17 -8l25 -3l21 -5l10 3q3 1 6.5 1t6.5 1l16 2q8 2 15 -2l7 -4l25 -15q8 -5 8 -13q0 -1 -5 -9l-14 -21l-11 -15q-4 -7 -10 -10l-5 -3l-11 -13q-3 -4 -11 -9l-9 -5l-22 -8q-3 -2 -6.5 -2.5t-6.5 -1.5l-9 -1q-5 -1 -13 -1z" />
    <glyph glyph-name="G" unicode="G" horiz-adv-x="547" 
d="M504 109q-1 -7 -7 -13l-7 -6l-14 -9q-6 -4 -11 -7l-15 -5l-19 -4l-14 -13q-3 -3 -6 -4t-6 -3l-7 -3q-7 -3 -14 -2h-5l-22 -18q-4 -3 -12 -7l-4 -2l-21 -12q-8 -5 -15 2l-16 16l-13 16l-20 3q-9 2 -13 7l-11 13l-14 9l-28 10h-11l-13 2q-8 2 -13 4l-21 10l-16 5l-25 10
l-17 1l-26 5h-1q-8 1 -9.5 5.5t6.5 6.5l-8 26q-3 8 2 15l8 10l-8 25q-2 6 -1 15l2 5l7 25l-6 11q-3 6 -1 14l4 15l3 24l-7 14q-2 4 -3 6.5t0 7.5l3 18l-1 16l3 33l3 19l-3 9q-2 8 -2 13l-1 15q0 5 2 13l5 17l-3 8q-2 6 -1 14l5 25l-3 23l-2 7q-2 6 -1 14l4 21l-2 13l-1 27
l-2 16q-1 7 0 13l2 11l6 29l-5 16q-3 8 -2 14l1 5l3 13l6 18l-5 15q-3 -1 -1.5 4t6.5 11l2 2q6 6 14 6l10 1l25 10l14 9q5 4 13 4l8 1l23 8l14 10l15 12l23 18l15 9q8 5 15 -3l12 -15l11 -2q9 -2 13 -6l12 -12l15 -8l17 -5q10 -4 13 -8l13 -14l21 -6l14 3q8 2 14 -1l8 -3h23
l26 -4l17 1q10 0 14 -2l9 -4q10 -5 6 -14l-8 -14l-9 -25l-1 -6q-1 -7 -9 -12l-14 -8l-12 -12q-5 -5 -11 -8l-15 -8l-12 -10q-6 -6 -14 -4l-13 2l-39 -9q-7 -1 -14 0l-14 3l-16 3q-7 1 -13 6l-14 10q-3 2 -5.5 4t-4.5 5l-4 5l-18 12l-18 -14l-5 -18l2 -16q1 -4 0.5 -7
t-1.5 -7l-3 -17l5 -31q1 -7 0 -14l-3 -23l3 -9q2 -6 1 -15l-4 -16l3 -22l3 -16q2 -8 -3 -14l-8 -9l2 -24l7 -19q3 -9 -1 -15l-7 -10l-2 -24l1 -23l3 -24l5 -8q4 -5 2 -15l-4 -16l1 -21l-2 -30l12 -1q8 0 14 -5l12 -9l28 -16l5 -1q8 0 14 -6l16 -17l15 12l-5 15q-2 6 -1 14
l3 12l-3 11l-2 16q-1 3 -1 6.5v6.5l1 22v25l-1 18l-22 18l-22 4l-1 -1q-8 -8 -16 0l-9 10q-6 8 -5 14l2 13l-3 16q-1 6 2 14l7 17l8 26q1 7 9 12l22 14q4 3 12 5l3 1l13 3l8 1q4 1 7 0.5t7 -1.5l25 -7l6 4q8 4 14 4h17q4 0 6.5 0.5t6.5 -1.5l14 -4l28 -3l6 7q6 6 14 6h9
q7 0 13 -6l14 -14q7 -7 5 -15l-3 -18l-2 -15l-3 -13l-4 -11l-9 -46l-3 -20l3 -14q1 -7 0 -14l-6 -28v-42l2 -10l3 -27l5 -14q1 -4 1.5 -6.5t-0.5 -7.5l-2 -16q-2 -8 -4 -13l-4 -9l1 -15l8 -30q2 -8 -1 -14v-1h-1z" />
    <glyph glyph-name="H" unicode="H" horiz-adv-x="743" 
d="M704 107q10 -9 -1 -15l-3 -1l-23 -20l-13 -10q-4 -3 -13 -5l-10 -3l-32 -19l-15 -8l-22 -17l-9 -9q-8 -8 -15 -1l-15 13l-18 10q-6 3 -10 10l-5 7l-19 15l-26 9l-18 5q-8 2 -12 7l-13 15l-20 -15q-5 -4 -14 -4l-8 -1l-19 -16q-2 -2 -4.5 -3.5t-6.5 -3.5l-6 -4l-16 -16
l-18 -16q-3 -3 -11 -7l-10 -5q-7 -4 -15 2l-19 15l-14 4q-7 2 -13 7l-8 6l-16 17l-17 4q-9 3 -13 8l-8 10l-25 12q-11 5 -5 15q0 2 10 0l8 -1l4 32l-3 20l-7 14q-2 5 -2 14l1 18l3 20l-4 18q-1 6 2 14l4 11l2 18l-3 30l-2 9q-1 7 0 14l3 15l1 29l1 11l-5 23q-1 8 1 14l5 10
l-6 13q-2 8 0 15l7 19l-4 19l-2 19q-1 5 -0.5 7l1.5 6l4 15l-3 10q-1 4 -1.5 6.5t0.5 7.5l6 27l-1 22v14l2 20l-1 26l-6 19q-1 6 0 14l5 25l-32 11l-9 2q-4 1 -6.5 3t-5.5 4l-8 8l-16 3q-9 2 -12 10l-2 6l-13 5q-11 5 -5 14l3 5q3 4 9 10l10 9q3 3 6 3.5t6 2.5l13 5l22 11
l16 12q4 3 12 7l11 4l17 14l22 17q9 8 16 -2l8 -11l41 -24q3 -2 5.5 -3.5t4.5 -4.5l11 -14h9q8 0 14 -5l23 -18l16 -2h25l26 19l13 11l16 10l16 14q6 6 12 7l9 2l19 15q7 6 16 0l14 -9q5 -4 9 -10l8 -12l17 -7l25 -15l8 -1q7 -1 13 -5l20 -10l15 -7q7 -3 7.5 -7.5t-7.5 -7.5
l-3 -1l-14 -9l-3 -36l4 -12l5 -13q2 -6 1 -14l-5 -23v-21l1 -16q0 -10 -2 -14l-3 -7l8 -16q3 -7 0 -15l-9 -20l3 -18l2 -14l1 -19v-13l-1 -14l3 -21q1 -6 0 -13l-2 -15l4 -20l1 -16q0 -9 -1 -14l-4 -16l2 -14v-19q0 -8 -3 -14l-5 -10l9 -25q2 -6 1 -15l-3 -13l2 -6
q3 -6 3 -14v-15q0 -8 -3 -14l-5 -8l-3 -18l12 -33l18 -20l11 -5q5 -2 11 -7l11 -8l17 -5q6 -1 12 -7zM403 752l-15 11l-18 7l-19 4l-24 8l-16 2l2 -9q1 -8 -1 -14l-5 -12l3 -19l5 -23l3 -22v-24q0 -9 -4 -14l-3 -5l-1 -28l2 -6q3 -6 3 -14l-2 -25l2 -9q1 -6 0 -13l-2 -20
l23 -24l19 4l50 5l23 20l-1 18l-4 25l-2 14q-1 6 2 14l10 20l-2 11q-1 3 -1 6.5v6.5v11l-1 17l-1 23l-8 35zM332 160l12 -5q8 -4 11 -7l15 -15l16 1q9 0 14 -4l14 -9l15 7l3 18l-2 18q-1 7 0 14l2 16v19l-7 18q-3 8 -2 14l2 10l-2 18q-1 4 -0.5 7t1.5 7l4 15l-3 23l-2 25
l-24 18l-17 1q-5 0 -13 2l-17 4l-22 -3l-18 -17l2 -28v-17l-1 -16q0 -6 -2 -14l-3 -12l-1 -19v-31l8 -12q4 -7 1 -15l-4 -12z" />
    <glyph glyph-name="I" unicode="I" horiz-adv-x="458" 
d="M424 112q11 -10 -3 -15l-18 -7l-15 -8l-14 -18q-4 -5 -13 -7l-7 -1l-27 -16l-14 -13q-4 -4 -12 -6l-10 -3l-16 -16q-8 -8 -15 1l-10 11l-23 10l-16 10q-3 2 -5.5 4t-4.5 5l-6 9l-21 4q-3 1 -6.5 1.5t-6.5 2.5l-3 1q-9 3 -12 8l-14 17q-1 1 2 5.5t8 1.5l-2 30q0 10 2 14
l2 4l-3 25q-1 8 2 14l5 12l-5 22q-1 4 -1 13v13l-2 6q-1 4 -1.5 7t-0.5 7l1 19l5 28l-2 16q-1 4 -0.5 7t1.5 7l4 17l-2 7q-1 4 -1.5 6.5t0.5 7.5l3 20l-5 11q-2 4 -2.5 6.5t1.5 7.5l5 15l-5 17q-1 4 -1.5 6.5t0.5 7.5l4 17l4 16v26l-4 11q-2 4 -2 14l1 20l3 18l-1 26l-4 13
q-1 4 -1.5 6.5t-0.5 6.5l-1 16q0 8 1 13l1 7l4 21l-4 30l-18 18l-24 17q-8 2 -13 4l-12 5l-20 6q-4 2 -6.5 3t-5.5 3l-9 7q-12 10 2 15l19 6l21 9l17 8l11 13q5 7 12 8l13 3l20 14l16 20q5 7 12 8l11 2q8 2 14 -3l16 -12l13 -6l23 -13q7 -3 10 -9l8 -12h19q9 0 13 -7l7 -11
q5 -4 12 -9q7 -7 0 -16l-1 -2l-1 -25q0 -7 -3 -13l-5 -12l4 -21q1 -4 1 -14l-1 -10l-5 -22l4 -22l4 -19q1 -5 1 -13v-6q0 -4 -1 -7l-2 -6l-5 -14l-1 -24l4 -15q2 -8 -1 -15l-2 -3l1 -22q0 -9 -1 -13l-3 -14l-1 -24l2 -16q1 -6 0 -13l-1 -10l6 -12q3 -8 2 -14l-4 -24l5 -15
q1 -4 1.5 -6.5t-0.5 -7.5l-3 -17l-1 -9q0 -8 -3 -14l-4 -10l1 -25l6 -18q3 -9 -1 -15l-6 -11l7 -17q2 -6 1 -15l-2 -11l24 -27h5q7 0 14 -5l14 -13l14 -10l18 -2q9 -2 13 -6z" />
    <glyph glyph-name="J" unicode="J" horiz-adv-x="531" 
d="M492 814q9 -5 6 -14q-1 -6 -11 -4h-3l-6 -27l-5 -26l1 -27l4 -11q3 -6 3 -13l1 -11q0 -5 -2 -13l-2 -10l-1 -27l-3 -18l1 -18l6 -23q1 -4 1.5 -6.5t0.5 -6.5l-1 -8v-34l1 -16q0 -5 -2 -13l-2 -9l-2 -28l5 -15q3 -6 1 -14l-3 -11l1 -20l3 -20l1 -14q0 -9 -1 -13l-5 -22
l-3 -18l4 -21l1.5 -7.5t-1.5 -6.5l-4 -10l6 -20q2 -8 -1 -14l-4 -10l4 -25l2 -21q1 -5 0.5 -7t-2.5 -6l-3 -9l2 -30q6 0 9 -9q3 -8 -7 -12l-11 -3l-19 -9l-26 -14l-23 -12l-12 -7q-4 -3 -13 -5l-12 -2l-16 -9q-8 -4 -12 -5l-13 -4l-17 -18l-5 -7q-6 -8 -16 -2l-13 9l-18 14
q-6 5 -9 10l-5 8l-22 6q-7 1 -12 8l-9 11l-18 -2q-8 -2 -14 4l-8 7l-22 7h-19q-10 0 -14 1l-7 1q-8 2 -12 4l-8 4l-17 -4q-8 -2 -14 3l-11 8q-8 7 -7 14v3q1 6 6 13l5 7l13 20q2 3 4 5t4 5l2 2q2 3 4.5 4.5t5.5 3.5l4 3q3 2 5.5 3t5.5 3l19 9l4 3q6 6 12 7l26 5l28 1
q10 0 14 -1l25 -5l7 2q8 3 15 -1l22 -12h5q7 0 14 -5l19 -16l8 17v19l2 25l-1 6q-1 8 0 14l7 24l-6 10q-3 8 -3 14l-1 13l2 28l-3 13q-1 8 1 14l5 15l4 15l2 27l-1 16v13v4l-2 34l-3 12l-2 20q-1 6 2 14l3 7l-4 23q-1 7 0 14l3 16l-3 13q-1 3 -1 6.5v6.5v7q0 8 1 13l5 15
l-4 15l-3 12l-1 14q0 4 -0.5 6.5t0.5 6.5l4 23l-19 2q-10 2 -12 9l-2 4l-20 6q-4 1 -6.5 3.5l-4.5 4.5l-13 11l-15 3q-8 2 -12 7l-1 2q-6 8 1 15l11 9q5 5 14 5l21 19q6 5 13 6l11 1l24 9l8 17q3 7 12 9l13 3l13 15q6 7 15 2l19 -12q3 -2 5 -3.5t5 -4.5l4 -4l30 -19l12 -6
q5 -2 11 -7l16 -12l19 -10z" />
    <glyph glyph-name="K" unicode="K" horiz-adv-x="781" 
d="M742 111q10 -10 -3 -15l-14 -5l-4 -4q-3 -4 -9 -10l-11 -9q-3 -2 -6 -3t-6 -3l-19 -7l-36 -30q-2 -2 -4.5 -3.5t-6.5 -3.5l-11 -6l-7 -10q-7 -9 -15 -2l-28 19l-9 1q-9 2 -13 7l-13 17l-20 13l-8 4q-3 2 -6 3t-6 3l-13 10l-2 1q-8 4 -13 9t-1 4l2 9v16q0 4 0.5 6.5
t1.5 6.5l5 17l-4 20l-3 22q-1 4 -0.5 6.5t1.5 6.5l2 14l-1 9q-1 4 -0.5 6.5t1.5 6.5l5 22l2 13l-5 24l-2 18q0 10 2 14l5 12l-24 30l-13 22l-33 16l-13 9l-44 20l-36 -15l4 -16q2 -8 2 -13l1 -15l3 -20v-17q0 -7 -3 -13l-4 -11l7 -24q1 -4 1.5 -7t-1.5 -7l-6 -17l-3 -22v-17
l1 -24l9 -19l17 -23l14 -10l20 -2q9 0 13 -8l7 -15l10 -2q6 -1 12 -6l5 -3q10 -7 2 -15l-10 -11q-5 -5 -13 -5h-7l-24 -14l-4 -9q-3 -7 -12 -9l-24 -3l-3 -15q-1 -8 -12 -10l-20 -1l-12 -14q-6 -6 -15 -4l-12 3q-4 1 -6.5 3t-5.5 4l-30 28l-12 3q-7 1 -12 8l-7 9l-24 16
l-11 4q-11 5 -5 13l5 6l3 25l-6 22l-3 25q-1 4 -0.5 6.5t0.5 6.5v4.5t1 5.5l4 22l-1 16l-4 16q-1 5 -1 14l2 23l1 14l1 22l-3 24q-1 7 0 13l1 8l3 13l4 12l1 21l1 26l-7 13q-3 8 -2 15l3 15q1 7 4 12l3 6l-1 27l-4 8q-3 6 -3 14l-1 19l-1 20q0 10 1 14l3 12q2 8 4 12l2 6
l-6 23q-1 5 -1 14l1 15l-3 16q-1 5 -0.5 7.5t1.5 6.5l4 12l-22 16l-17 14l-16 4q-9 2 -13 7l-14 14l-12 10h-4q-8 0 -9 4.5t5 9.5l15 10l7 7q5 5 11 8l13 5l18 9l29 22l10 6l32 26q8 7 15 1l41 -28l17 -8l22 -7q4 -2 7 -3t5 -5l9 -13l17 -8q3 -2 5.5 -3t5.5 -4q5 -5 7 -8.5
t-1 -3.5l-11 -12l-3 -34l-1 -18l3 -11l2 -6t1 -7l1 -17q0 -8 -1 -13l-2 -9l3 -21q1 -6 0 -13l-2 -11l-9 -34l5 -6q4 -5 4 -13l-1 -23l1 -7q1 -8 0 -14l-7 -22l27 -7l16 9l16 5l8 15q4 7 11 10l20 6l3 13q1 6 8 12l16 11l13 12l7 28l3 8l-4 41l-1 25q0 9 1 13l3 19l-10 4
q-8 4 -11 8l-14 16l-18 3q-4 1 -7 1.5t-6 2.5l-10 6l-19 9l-8 5q-7 5 -6 8.5t9 5.5l10 2l10 16q5 7 12 9l22 6l9 10q6 6 14 6h5l24 13l22 13l10 15q3 5 7.5 5t8.5 -5l11 -14l20 -5q7 -1 12 -5l12 -9q3 -2 5.5 -4t4.5 -5l7 -10l16 -2q4 -1 6.5 -1.5t6.5 -2.5l8 -4
q3 -2 5.5 -4t5.5 -4l11 -9q3 -2 5 -6t0 -6.5t-4 -5.5l-6 -10l-12 -22l7 -18q3 -7 0 -15l-3 -7l-2 -24l1 -23l-1 -36l-1 -19l-3 -19q-1 -6 -5 -13l-13 -19v-15q0 -9 -7 -13l-12 -7l-9 -29l4 -17l18 -24l9 -8l21 -24l6 -4q8 -4 9 -12l2 -12q1 -5 0 -7.5t-3 -6.5l-1 -4l-4 -25
l-6 -24l1 -18l4 -23q1 -4 1 -13l-1 -12l4 -17q1 -5 0.5 -7.5t-1.5 -6.5l-6 -22l2 -7q1 -5 1 -14l-2 -23l20 -21l11 -1q9 -2 13 -5l20 -13l11 -3q6 -1 12 -6l8 -5z" />
    <glyph glyph-name="L" unicode="L" horiz-adv-x="633" 
d="M602 108q6 -4 -7 -11l-14 -7l-11 -7q-4 -2 -7 -3l-6 -2l-17 -6l-4 -8q-2 -5 -11 -10l-9 -5q-8 -4 -12 -5l-12 -4q-8 -2 -13 -2h-11l-12 -10l-29 -23l-8 -7q-8 -7 -15 -1l-19 14l-15 8q-3 2 -5.5 3t-5.5 4l-10 10l-13 4q-3 2 -6 3t-6 3l-12 8l-16 6q-8 4 -12 8l-12 12h-9
q-6 0 -14 2l-10 3q-4 2 -6.5 3t-5.5 4l-14 11l-20 4l-23 -1q-6 0 -14 2q-4 1 -12 5l-9 5q-6 3 -6.5 7.5t6.5 6.5l3 1l-3 17q-1 7 2 15l3 8l3 23l-2 19q-1 4 -0.5 6.5t0.5 6.5l1 14l-3 26l-4 8q-4 7 -2 14l7 18l-2 29l-2 12q-2 9 3 15l5 6l1 24l-7 12q-3 8 -2 14l1 13l4 34
l2 18l-5 8q-3 6 -1 14l5 21l1 24v13l2 32l-3 10q-1 5 -0.5 7.5t1.5 6.5l2 9l1 22l1 26l-6 23l-2 6t-1 7l-1 22l-13 16l-16 3q-5 1 -12 6l-16 12l-12 5l-11 2q-7 1 -13 6l-5 4q-7 6 -3 15l3 4q5 8 13 8h14l21 16l25 18l14 7l13 9q4 3 12 7l11 5l23 12q7 4 15 -1l10 -7l18 -5
q4 -2 6.5 -3t5.5 -3l11 -7l18 -14l19 -11l26 -18l15 -10q12 -7 0 -15q-2 -2 -10 -1l-2 -29l-3 -30l-3 -17l1 -21l-1 -24l4 -9q3 -6 3 -13v-19q0 -10 -2 -14l-5 -9l3 -28l1 -6q0 -10 -1 -14l-3 -20l3 -15q1 -4 1.5 -7t-0.5 -7l-2 -13l-2 -17l-3 -33l-1 -12l7 -18q3 -8 0 -14
l-8 -19l2 -25l3 -6q3 -6 1 -14l-6 -20l6 -12q3 -8 -1 -15l-6 -9l5 -29l25 -17l23 -5l14 -4q6 -1 12 -7l6 -6l23 -18l18 7l-8 12q-4 5 -2 14l5 19l-2 3q-4 6 -3 14l3 20l6 29v13l-3 14q-1 7 0 14l2 12l-3 23q-1 7 0 14l3 12q1 7 6 13l11 15q2 4 5 5.5t6 3.5l7 4q4 2 7 2.5
t7 0.5l6 -1l23 8q6 3 14 1l15 -2l14 1l24 1q9 0 14 -5l8 -8q5 -5 6 -13l1 -6q1 -6 -2 -14l-6 -18l5 -12q2 -4 3 -6.5t0 -7.5l-1 -10l-1 -13q0 -7 -3 -13l-6 -19l4 -19l5 -29q1 -5 0.5 -7.5t-1.5 -6.5l-2 -7l-1 -26l3 -15q1 -7 -3 -14l-6 -9l3 -22l4 -34v-12q0 -5 -2 -13v-2z
" />
    <glyph glyph-name="M" unicode="M" horiz-adv-x="1030" 
d="M996 110q6 -9 -2 -15l-10 -7q-7 -5 -12 -6l-16 -4l-19 -18l-6 -4q-6 -5 -12 -7l-11 -3l-14 -20q-3 -6 -12 -9l-21 -6l-7 -5q-7 -5 -15 -2l-27 9l-10 5q-7 3 -11 9l-5 6l-18 23l-12 -2q-7 -1 -14 4l-24 19h-18q-5 0 -13 2l-11 3l-14 -15q-3 -5 -12 -8l-12 -4l-10 -10
q-2 -2 -5 -4.5t-7 -3.5l-23 -7l-3 -8q-2 -5 -10 -11l-16 -11q-6 -5 -15 2l-15 13l-21 13l-20 16l-10 3q-5 1 -12 6l-19 12l-13 8q-4 2 -6 3.5t-5 4.5l-8 8l-12 -9q-6 -5 -14 -5l-13 1l-16 -15l-21 -15q-5 -4 -14 -4l-3 -1l-19 -17q-3 -3 -5.5 -3.5t-6.5 -2.5l-7 -3l-9 -13
q-7 -11 -16 -2l-19 17l-14 9q-4 3 -10 9l-10 9l-16 4q-9 2 -13 7l-5 5l-24 8q-10 4 -12 9l-8 15l3 -4v2q0 9 1 13l5 26v7q0 9 1 13l3 15l-9 27q-2 8 -2 13v8q0 6 5 14l7 10l-5 17l-4 19q-2 10 2 15l6 9l-3 24l-2 21v23l-1 15q0 5 2 13l6 25l-2 13l-6 18q-2 8 -2 13v38
q0 6 5 14l4 6l-9 22q-2 4 -2 14v28q0 8 3 14l7 16l-2 22v13l1 13l-1 14v13l1 14l-10 31l-8 9l-25 16q-5 3 -10 9l-22 5q-5 1 -12 6l-3 2l-19 10q-7 3 -6.5 7.5t8.5 6.5l14 3l19 17q3 3 11 7l3 2q4 3 13 5l18 4l5 6q2 3 4.5 5t5.5 4l13 9l28 17l11 15q7 11 16 3l12 -9
q5 -4 9 -10l8 -12l14 -9l44 1l26 15l18 10l14 5q8 3 15 -1l16 -8l19 -13l17 -1q8 0 13 -8l5 -8l24 -14q4 -2 6.5 -3.5t4.5 -3.5l6 -5l48 6l8 5l12 7l15 6l21 11l16 13q6 5 13 6l20 2l12 15q7 8 16 2l11 -6q4 -2 6 -3.5t5 -4.5l12 -11q7 -7 9 -11l5 -9l26 -5l17 -4
q9 -2 13 -5l13 -8l24 -17l13 -1l16 -3q9 -2 13 -5l13 -9l15 1q4 0 7 -0.5t7 -2.5l13 -7q8 -5 9 -11q1 -2 -1 -3.5t-5 0.5l-11 -32l-2 -21l2 -19l5 -16q1 -4 2 -6.5t1 -6.5l1 -10q0 -10 -2 -14l-7 -19l4 -6q5 -7 5 -13v-15q0 -4 -0.5 -6.5t-1.5 -6.5l-5 -17l4 -15
q2 -8 -1 -15l-3 -6l4 -11q3 -6 3 -14l-1 -18q0 -5 -0.5 -7t-2.5 -6l-5 -9l3 -15q1 -4 1 -14v-8q0 -9 -1 -13l-3 -12l-2 -25l8 -22q3 -8 -2 -15l-3 -3v-33l7 -14q2 -4 2 -14q0 -3 -0.5 -5.5t-1.5 -6.5l-4 -13l4 -22l1 -15q0 -9 -1 -13l-7 -30l21 -15l20 -13l18 -5l20 -7
l16 -6q9 -3 12 -8zM331 157l11 -2q7 -1 13 -6l21 -17l10 -2q5 -1 12 -6l12 -9l19 12l-4 18q-1 7 0 14l3 17l4 23l-3 18l-6 23q-1 4 -1 13v26q0 5 2 13l4 12v24l-5 20q-1 4 -1 14v9l3 30l-1 13q-1 8 1 14l5 11l-3 10q-3 6 -3 13l-1 16l-1 23q0 8 1 13l2 11l1 12q0 4 0.5 6.5
t1.5 6.5l5 16l-5 31l-5 32q-1 6 2 14l6 17l-28 10h-7q-7 0 -13 3l-5 2q-3 2 -6 3t-6 3l-12 9l-29 21l-11 -18l3 -5q4 -9 0 -16l-7 -11l4 -31l4 -13q2 -7 -1 -15l-6 -10l4 -9q3 -6 3 -14l-1 -23l3 -8q2 -4 1.5 -6.5l-1.5 -7.5l-3 -13q-1 -3 -1.5 -6.5t-2.5 -6.5l-4 -11l4 -26
v-45l2 -5q1 -7 0 -14l-5 -21l5 -12q3 -8 2 -14l-2 -10l-4 -35l-3 -21l6 -14q3 -6 1 -14l-4 -15v-9l-1 -30l3 -25zM621 166q8 -4 12 -7l5 -4q3 -2 5 -4.5t4 -5.5l7 -9l19 -3q7 -1 13 -6l10 -7l15 5l6 23v22l-6 13q-3 8 0 15l7 13l1 34l-3 11q-1 4 -1.5 7t0.5 7l1 10l-4 27v8
q0 10 1 14l6 25l-4 12q-2 8 -2 13l-1 8l-4 24q-1 5 -1 13l1 14l3 19v15l-1 31l2 22l-1 5q-2 6 -1 14l3 14l-5 23q-1 6 2 14l9 18l-4 8q-3 6 -3 13l-2 22l-20 14l-23 7l-14 4q-8 2 -12 7l-5 6l-19 11l-17 -10l-5 -13l4 -25l4 -20q2 -8 2 -13v-5q0 -7 -3 -13l-6 -12l6 -15
q3 -8 2 -14l-3 -12l-6 -26l1 -17l3 -16q2 -8 2 -13l2 -24l1 -3q3 -7 -1 -15l-9 -16l3 -22l1 -18l2 -22l4 -15q1 -5 0.5 -7.5t-1.5 -6.5l-4 -14l-2 -30l7 -16q3 -9 -1 -15l-5 -9l4 -16q1 -4 0.5 -7t-1.5 -7l-2 -9v-35z" />
    <glyph glyph-name="N" unicode="N" horiz-adv-x="745" 
d="M711 112q9 -9 0 -15l-5 -4q-3 -2 -5.5 -4t-5.5 -4l-23 -11l-16 -13q-6 -4 -11 -7l-5 -3l-23 -9l-15 -13q-4 -3 -12 -7l-8 -2l-20 -18q-8 -8 -15 3l-10 14l-18 3q-9 2 -13 5l-6 4l-24 15l-23 11l-12 4q-7 3 -12 9l-11 14l-16 -6q-6 -3 -13 -3l-12 1l-17 -12l-23 -16
l-13 -14l-9 -8l-14 -15q-6 -6 -12 -7l-10 -3q-7 -3 -14 0l-10 3q-7 1 -12 8l-15 18l-10 3q-7 1 -12 5l-20 14l-12 5q-3 2 -5.5 3t-5.5 3l-14 11l-13 3q-14 4 -4 14l9 9l-5 24q-1 4 -0.5 7t0.5 7q0 2 2 10l5 21l-5 15q-3 7 -1 15l4 13l-4 23q-1 5 -0.5 7.5t1.5 6.5l4 15
l-4 12q-2 8 -2 13q-1 4 -0.5 7t1.5 7l5 20l-2 16q-1 8 1 14l5 13l-6 20q-1 5 -1 14v5q0 4 1 7l2 6l4 12l-1 30l-3 15q-1 4 -0.5 6.5t0.5 6.5l1 17l-4 12q-2 6 -1 14l2 11l-1 21q0 6 2 14l4 15l-2 23l1 25l-4 13q-1 7 2 15l4 8l-7 24q-1 4 -1.5 7t-0.5 7v15l-11 8
q-3 2 -5.5 4t-4.5 5l-16 16l-12 2l-13 3l-6 2q-6 2 -12 6l-5 3l-18 10q-13 8 1 15l21 10l4 8q3 7 10 10l7 3q5 2 13 4l15 2l28 12l5 12q2 4 9 11l7 6q3 3 6 4t6 3l17 8q8 4 15 -2l20 -14l11 -4q8 -4 11 -7l10 -11l35 -1l25 10l11 16q4 6 11 8l18 5q7 3 15 -2l34 -18
q8 -4 11 -8l9 -11l16 -11l23 -1q8 0 13 -7l9 -10l19 -3q9 -2 13 -6l11 -10l18 -5l24 -1q7 0 13 -3l4 -2l25 -7q6 -2 7 -4q3 -4 0.5 -6.5t-6.5 -4.5l-10 -5l5 -13q3 -8 2 -14l-3 -18q-2 -8 -4 -13l-4 -10l8 -11q4 -7 1 -16l-6 -12l3 -15q1 -3 1 -6.5v-6.5l1 -18q0 -9 -1 -13
l-1 -7l-3 -13l-3 -9l4 -13q1 -4 2 -6.5t1 -6.5l1 -11q0 -4 -0.5 -7t-1.5 -7l-6 -20l6 -12q2 -3 3 -6t0 -8l-3 -15l1 -18q0 -4 0.5 -7.5t-0.5 -6.5l-2 -17l-1 -17l3 -9q2 -8 2 -14l-1 -24l-2 -22l-1 -22l5 -12q3 -9 -1 -15l-4 -5l-1 -26v-25l4 -16q1 -4 1 -13l-1 -23l17 -10
l20 -7q3 -2 6 -3t6 -4l13 -12l17 -9l13 -3q4 -1 6.5 -3t5.5 -4zM330 167q4 -1 12 -5l10 -5q6 -4 10 -10l6 -10l17 -4q6 -1 12 -7l14 -12l21 15l-7 16q-3 8 3 15l7 7l-7 24q-1 4 -1.5 6.5t-0.5 6.5v38l2 23l-1 7q-1 4 -1 13v6q0 4 1 7l2 6l6 17l-9 16q-4 6 -2 15l9 35l-6 14
q-3 8 -2 14l2 15v24q0 10 1 14l2 11l3 20l-4 13q-2 4 -2 14l1 19l-2 12q-1 5 -0.5 7.5t1.5 6.5l2 8l-6 21q-1 6 0 14l2 10l-1 25l-13 19l-26 8l-17 3q-7 2 -12 9l-4 7l-28 9l-10 -1l7 -23q2 -9 -2 -15l-5 -10l6 -16q3 -7 -2 -15l-4 -7l-3 -25l1 -15v-29l-3 -26l1 -14l2 -22
l4 -15q1 -4 1.5 -6.5t-0.5 -7.5l-2 -10l3 -15q1 -5 0.5 -7.5t-1.5 -6.5l-6 -23l6 -17q3 -6 3 -13q0 -3 -0.5 -5l-1.5 -6l-4 -14l4 -28v-13q0 -5 -2 -13l-4 -16l4 -12q1 -6 0 -13l-3 -24l4 -8q3 -7 0 -15l-9 -23z" />
    <glyph glyph-name="O" unicode="O" 
d="M502 775q3 -4 -1 -12l-5 -11l6 -26q1 -5 1 -13l-1 -10l1 -15q0 -4 0.5 -6.5t-0.5 -6.5l-2 -18l1 -22q0 -8 -3 -14l-6 -14l1 -10q1 -6 0 -13l-3 -13l8 -15q2 -4 2.5 -6t0.5 -7l-1 -25l-4 -21l-1 -25l4 -15l2 -11q1 -6 -2 -14l-6 -16l4 -21l3 -24q1 -6 -2 -14l-7 -14l5 -6
q5 -5 2 -15l-8 -19l9 -18q3 -8 2 -14l-4 -15l-7 -20l1 -17l6 -18l2 -6t1 -7l1 -8q0 -8 -1 -13l-6 -27l7 -22q2 -1 2 -11v-2q0 -8 -8 -13l-10 -7q-3 -2 -6 -3t-7 -3l-6 -2q-4 -2 -13 -2h-8l-27 -14l-3 -4q-4 -5 -12 -9l-35 -15l-19 -10l-19 -13l-20 -11q-8 -5 -15 3l-10 15
l-11 3q-9 3 -12 9l-6 9l-21 14l-17 10h-15q-8 0 -14 3l-13 8l-32 15h-1q-6 -2 -15 1l-16 8l-22 1q-6 0 -14 2l-15 5l-12 1q-7 0 -13 3l-5 2q-14 5 -4 15l3 2l2 7v11v6.5t1 6.5l5 23l4 18l-1 29l-6 11q-3 8 -2 14l2 8l-4 23q-1 8 1 14l6 14l-1 25l-2 8q-1 4 -1 13v23l-1 15
q0 10 2 14l4 11l-2 23l2 25l-2 15q0 7 3 13l3 8l-4 14q-1 5 -1 14l1 20l-4 30v20l-1 12l-1 21q0 10 1 14l4 16l7 25l-3 21l-6 19q-2 4 -2 14v11l-1 21l-1 9q0 2 -0.5 3t-0.5 3q0 4 8 8l18 10l16 11l15 8l20 9q3 2 6 2t7 1l12 2l23 16l3 2q4 5 12 7l20 4l4 10q3 7 12 9l18 3
q6 1 14 -2l13 -6q6 -3 11 -8l11 -11l23 -11l8 -5l22 -5q8 -2 11 -9l6 -13l29 -8l13 1l20 -2q7 0 13 -5l18 -14l26 -5l7 3q6 2 14 -1l7 -2q7 -2 9.5 -6t-2.5 -6zM236 246q3 -2 6 -3t6 -4l2 -2l20 -15l18 -3q7 -1 11 -11l2 -9l27 11l-2 7q-1 4 -1.5 6.5t-0.5 6.5l-1 14l2 29
l1 25l2 15l-2 26l2 27l-2 6l-2 6t-1 7l-1 15v6.5t1 6.5l1 12v36q0 5 2 13l4 21l-3 27l-1 13q-1 7 0 13l5 18l-5 23l-5 11q-2 6 -1 14l1 12l5 24l-18 21l-21 1q-6 0 -14 2l-10 3q-9 2 -13 6l-8 7l-21 18l-10 -11l2 -13l5 -21q1 -4 1.5 -7t-0.5 -7l-4 -19l3 -17q2 -10 -2 -15
l-4 -7l5 -19q1 -6 0 -14l-3 -16l3 -17q1 -8 -1 -14l-4 -12l2 -16q1 -7 0 -14l-3 -9l-4 -30l3 -10q1 -4 2 -6.5t1 -6.5v-22l3 -14q2 -8 -3 -14l-5 -5l-1 -31l5 -23l3 -22l2 -20z" />
    <glyph glyph-name="P" unicode="P" horiz-adv-x="611" 
d="M570 795q8 -2 9.5 -5.5t-4.5 -6.5l-3 -16l1 -16q0 -9 -1 -13l-2 -9l-4 -28v-27l7 -13q5 -8 -2 -16l-2 -2v-27l1 -15q0 -10 -1 -14l-4 -19v-19l7 -12q4 -8 1 -15l-8 -15l7 -12q4 -5 2 -14l-5 -27l-1 -10l-3 -22l8 -21q3 -8 1 -15l-5 -14v-31l1 -1q7 -3 10 -11q-2 -1 -3 -1
q-5 -2 -9 -3l-14 -4l-10 -13q-3 -4 -11 -8l-13 -6q-8 -4 -12 -5l-8 -2l-19 -8l-10 -9q-4 -4 -12 -7l-16 -6l-12 -8q-7 -5 -12 -6l-9 -2l-25 -16q-9 -6 -16 3l-15 19l-19 12l-6 1q-9 0 -14 5l-8 7l-28 -12v-14l-3 -25l6 -20l6 -17l17 -23l20 -11l12 -4q6 -2 11 -9l9 -15
l15 -1q7 0 13 -8l5 -8q6 -8 -1 -15l-2 -2q-4 -4 -12 -8l-19 -9l-15 -9q-6 -3 -12 -5l-17 -4l-4 -9q-3 -7 -12 -9l-12 -2l-11 -19q-3 -6 -10 -10l-17 -9q-7 -4 -15 1l-11 7q-7 4 -10 10l-7 13l-22 17l-20 11h-16q-7 0 -13 6l-9 9l-22 12q-7 4 -6 14q1 4 11 6l10 1l-6 21
q-1 9 3 15l2 4l-2 19l-7 26q-2 8 1 14l5 10l1 27l-2 2q-5 6 -3 15l6 21l-4 10q-3 7 -2 14l2 21l-6 16l-5 4q-5 4 -4 8.5t7 6.5v2l9 19l-4 28q-1 7 0 14l1 4l-3 13q-1 4 -1 13l1 15l-2 16q-1 8 1 14l8 21l-3 8q-2 4 -2 13l1 13l6 34l-1 2q-2 3 -3 6t-1 8l-2 24l1 14q0 5 2 13
l1 6q1 4 2.5 6t3.5 6q6 9 15 6l33 -10q8 -2 12 -4l12 -5l30 -1l8 2q8 3 13 2l12 -1q7 -1 13 -6l9 -8q5 -4 7 -12l2 -7q1 -4 1.5 -6.5t-0.5 -7.5l-5 -20l5 -19l2 -16q1 -8 -3 -14l-4 -7l-3 -20l9 -25l26 -17l13 -4q4 -1 6.5 -3t5.5 -4l7 -6l17 -13q3 -2 5.5 -4t4.5 -5l6 -8
h18l3 27l-3 18q-1 4 -0.5 7t1.5 7l4 16l1 12l1 21l-9 23q-3 9 1 15l9 15l-4 9q-2 5 -4 13l-1 9q-1 4 -0.5 6.5t1.5 6.5l5 21l-3 5l-3 6t-1 7l-1 21l-20 3h-22l-15 -4l-22 -4q-3 -1 -6.5 -1h-6.5l-16 -1l-16 -5q-6 -2 -14 1l-11 6l-20 -6q-4 -1 -7 -1.5t-7 0.5l-9 1
q-5 1 -13 7l-8 7l-17 2q-9 2 -14 5l-7 5l-20 -1q-9 0 -13 2l-14 6q-3 2 -6 3t-6 3l-10 7l-28 14l-9 4q-8 4 -7 14q1 5 9 10l19 11q7 3 14 2l14 -3l17 9q6 3 13 3l13 1l9 9q3 3 5.5 4t5.5 3l20 9l11 7q7 5 14 5h15l12 16l13 13q4 5 12 7l21 5l11 12q2 3 4.5 5t5.5 4l11 6
q7 4 15 1l12 -5q8 -4 12 -7l17 -13l6 -4q3 -2 5.5 -3.5t5.5 -4.5l16 -14l5 -2q5 -1 13 -6l15 -9l13 1q8 0 14 -3l21 -10l12 -3q8 -2 12 -4l28 -12l7 3q8 3 14 2z" />
    <glyph glyph-name="Q" unicode="Q" horiz-adv-x="646" 
d="M610 114q11 -8 -1 -15l-15 -8l-10 -14q-4 -7 -14 -7h-17l-22 -12l-8 -16q-2 -4 -4 -6t-5 -4l-12 -7l-20 -9l-17 -10q-9 -5 -15 1l-12 11l-20 14l-21 8l-43 -8l-13 -1l-24 -12l-12 -12q-8 -8 -16 -3l-17 9l-15 11q-7 5 -9 11l-3 9l-27 14l-13 7l-13 1q-7 0 -14 5l-22 15
l-24 7l-18 3h-11q-8 0 -13 4l-14 9l-15 1q-5 0 -13 2l-6 2q-11 3 -6 14l3 6v21v6.5t1 6.5l1 5v31l-2 14l-1 18q0 9 2 13l7 17l-1 30l1 11l-4 31l-5 16q-2 8 1 15l5 12l-5 17q-3 7 2 15l6 8l-2 29l-1 14l-4 20q-1 7 0 14l3 19l-2 10q-1 6 2 14l6 13l-3 12l-2 6t-1 7l1 21
l-5 21q-1 7 2 15l3 6l2 19l-3 27q-1 8 2 14l2 5l-5 15q-2 5 -1.5 7.5t2.5 7.5l6 16l-6 33h-1q-9 0 -11 11q0 4 8 9l13 7q7 4 14 4h15l21 7l18 12l10 7q5 5 12 6l12 3l22 7l20 18l13 10l13 7q8 5 15 1l16 -7q6 -3 11 -8l6 -5l24 -11q8 -4 12 -7l5 -3l19 -19l15 1q8 0 14 -3
l16 -10l24 -11l16 -7l24 -1l21 -3q4 -1 7 -1.5t6 -2.5l13 -9l10 -2q15 -3 12 -6v-7q0 -4 -1 -6.5t-2 -6.5l-3 -11l4 -23q1 -8 -1 -14l-4 -10l1 -12q1 -5 0.5 -7l-1.5 -6l-6 -20l5 -9q2 -5 4 -13l2 -18q2 -8 -3 -14l-7 -9l9 -19q3 -6 3 -13v-1q0 -5 -2 -13l-7 -20l5 -16
l3 -13v-3q0 -10 -2 -14l-10 -22l4 -6q5 -8 2 -15l-6 -16l9 -22q2 -4 2 -13l1 -8q0 -10 -1 -14l-2 -14l1 -6q1 -8 -1 -14l-9 -26l8 -12q4 -7 1 -16l-2 -4l-4 -26l3 -20l1 -16v-13l-1 -17l21 -14q7 -3 11 -9l11 -11l15 -8q6 -4 10 -9l2 -3l17 -3q7 -1 12 -5zM257 237
q6 0 14 -2l4 -1q9 -4 11 -9l8 -15l16 -10l26 2l-5 20q-2 8 -2 13v4q0 4 0.5 6.5t1.5 6.5l4 13l1 21v24l-5 22l-5 18q-1 8 1 14l8 23l-6 35q-1 8 1 14l5 16l-1 20l-4 10q-3 8 -2 14l3 13l3 32l-6 17q-3 8 -2 14l2 9l-2 24l-2 20q-1 7 0 13l3 22l-21 6q-5 1 -12 6l-10 7
l-12 -1q-8 -2 -14 6l-6 7l-16 20l-25 -6l5 -23l2 -15q1 -7 0 -14l-3 -17l1 -18l-1 -28l-2 -17l3 -23v-27l4 -15q2 -8 -1 -14l-4 -12l4 -23q1 -7 0 -14l-3 -14l4 -18l1 -8q1 -7 0 -14l-5 -28l-3 -20l3 -7q2 -6 1 -14l-3 -16l2 -14q1 -4 1 -14l-1 -23l26 -17z" />
    <glyph glyph-name="R" unicode="R" horiz-adv-x="715" 
d="M679 109q11 -5 3 -15l-5 -6q-3 -4 -12 -7l-21 -6l-22 -12l-8 -10q-4 -6 -13 -6l-20 -1l-30 -33q-2 -3 -5 -5l-6 -4l-10 -6q-9 -5 -15 2l-15 16l-15 11l-8 5q-3 2 -5.5 3.5t-5.5 4.5l-15 14l-10 1q-5 1 -12 6l-20 15l-8 1q-6 2 -8 5.5t3 8.5q-5 -1 -9 -2t-7.5 -1.5
t-6.5 -1.5l-10 -10q-6 -6 -13 -6h-13l-26 -24l-3 -2q-6 -4 -11 -7l-21 -8l-8 -14q-4 -6 -11 -9l-9 -3q-7 -3 -15 3l-14 11l-19 14l-28 13l-11 1q-7 0 -13 6l-14 15l-9 6l-22 10q-6 3 -6 7.5t6 7.5q2 2 4 -1l-4 24q-1 7 0 14l2 9v16q0 4 1 7l2 6l7 22l-5 11q-3 7 -1 15l5 18
l-7 11q-4 9 2 15l3 3l1 30l-6 9q-2 4 -3.5 6.5t-1.5 7.5l1 20l6 43l1 24l-10 15q-5 3 3 11l12 28l-3 13q-2 8 -2 14v14q0 5 2 13l1 7l-8 23q-3 8 -2 14l2 8l-1 21q0 6 2 14l6 18l-4 10q-3 9 3 15l5 6q6 8 15 3l21 -10l15 5q6 3 15 -1l8 -4l31 -9l9 5q7 4 15 -1l11 -7l22 -9
q11 -5 3 -15l-4 -6l1 -26l1 -12l15 -35q6 9 14 -1l15 -16l30 5l-5 14q-2 5 -1.5 7.5t1.5 6.5l3 12v28l-1 19l1 28l-5 8q-2 4 -3.5 6.5t-1.5 7.5v18l-19 15l-8 -6q-5 -4 -14 -4h-14l-34 -2l-8 -2q-8 -3 -14 0l-10 5h-39q-6 0 -13 5l-19 12l-14 -3q-7 -1 -14 5l-9 8l-15 1
q-7 0 -13 6l-9 10l-19 6q-6 2 -12 7l-8 8q-6 7 -5 14v4q1 7 9 12l13 6q6 3 14 3l17 -1l6 8q5 7 13 7l17 1l19 7l21 12q6 3 12 5l16 6l18 13l9 9q2 3 5 4t7 3l8 3l21 12l14 11q6 5 11 7l19 9q9 4 15 -2l11 -10l17 -13l18 -12l14 -9q4 -2 10 -8l18 -15l8 -1q5 0 13 -4l19 -10
l12 -6l26 -1q8 0 14 -6l11 -13l15 -1q7 -1 9 -5t-4 -9q-3 -3 -9 5l4 -26l4 -18q1 -8 -1 -14l-8 -21l1 -15l-1 -24l-1 -32l5 -7q6 -7 3 -14l-7 -23l3 -7q2 -3 2.5 -6.5t1.5 -6.5l2 -8q1 -4 0.5 -6.5t-0.5 -6.5l-1 -21q0 -4 -1 -7.5t-2 -6.5l-4 -11l4 -22l8 -26l9 -26l21 1
q4 0 7 -0.5t7 -3.5l4 -3q10 -8 -1 -15l-3 -2q2 1 2.5 -4t-0.5 -11l-1 -11l-6 -40l3 -8q2 -4 2 -14v-18q0 -6 -3 -14l-6 -12l2 -13q1 -4 1.5 -6.5t-0.5 -6.5l-2 -15v-27l6 -16l17 -27l14 -4q8 -2 13 -6l14 -10q7 -5 10 -11l1 -3l23 -7zM404 130l-2 18q0 4 -0.5 6.5t0.5 6.5
l1 9l-8 17q-3 7 -2 14q0 3 0.5 5.5t1.5 6.5l4 12l-1 33l-2 4q-2 4 -2 13l2 23l6 35h-1q-9 0 -14 4l-19 14l-27 5q-5 1 -12 6l-8 7l-29 18l-16 -6l7 -47l1 -6q1 -3 0.5 -6.5t-0.5 -7.5l-2 -24l1 -18v-40l2 -20q0 -8 -1 -13l-2 -23l17 -18l17 -1q9 0 13 -7l3 -6l22 -21l9 1
q8 2 14 -3l19 -11z" />
    <glyph glyph-name="S" unicode="S" 
d="M514 107q2 -2 -12 -7l-9 -4l-18 -15q-6 -6 -15 -4l-12 2l-13 -10q-5 -4 -13 -7l-10 -3l-14 -11q-4 -3 -12 -7l-17 -7l-37 -21l-9 -10q-7 -8 -15 0l-11 11l-19 9q-5 3 -11 7l-15 12l-7 6l-20 13l-23 12l-8 -2q-7 -1 -14 0l-13 3q-9 2 -13 5l-10 8l-23 -6q-7 -1 -14 0
l-14 4h-12q-9 0 -14 4l-14 9q-10 7 0 15l3 3v12q0 7 3 13l6 13q3 6 8 11l6 7q4 4 12 7l17 7l8 12q4 7 14 7h20l4 7q4 9 14 7l36 -4q4 -1 7 -1t6 -2l12 -5l20 -2q4 -1 7 -1t6 -2l5 -2l15 -5q4 -2 7 -3t6 -3l15 -12l13 -9l9 25l-13 15q-5 6 -6 14l-2 20l-3 20l-10 13l-14 20
l-19 19l-14 17l-14 23l-7 10l-14 25l-12 17l-9 9q-5 5 -8 11l-10 17l-8 6q-6 5 -9 10l-8 14q-2 3 -3.5 5.5t-2.5 6.5l-1 3l-17 14q-6 5 -9 10l-3 6l-3 6t-1 7v16l-12 15q-3 5 -6 11l-7 14l-10 23l-5 8q-4 7 -4 13v20l-11 19q-4 8 -5 13l-3 17l-4 14q-1 4 -1.5 7t0.5 7l1 8
l-6 29q-1 3 -1 6.5v6.5v4q-4 5 2 9l8 18q3 7 12 9l23 6l14 5q4 2 13 2l12 1l5 7q6 8 12 9l10 3l14 11q5 5 12 6l17 2l25 19l9 10q7 8 15 0l14 -14l20 -18l2 -1q9 -2 13 -7l15 -17l19 -4q8 -2 12 -8l3 -4h19l24 1q8 0 14 -6l4 -4l22 3q8 2 14 -1l7 -2l23 -10l19 -2
q11 -2 9 -13l-2 -9l-4 -15q-2 -8 -4 -13l-4 -8q-3 -6 -8 -11l-2 -2q-5 -5 -11 -8l-12 -8q-3 -2 -6 -3t-6 -3l-15 -6l-13 -12q-6 -5 -13 -6l-17 -3h-28q-6 0 -14 2l-15 6l-15 -2q-6 -1 -14 2l-19 7q-8 4 -11 7l-8 8l-36 18l-3 -25l9 -16q2 -3 3 -5.5t1 -7.5l1 -14l4 -33
l12 -19l10 -17l6 -11l18 -29l9 -12l13 -8q8 -5 8 -13l1 -16l14 -20l18 -9q8 -4 9 -12v-4l20 -31l7 -9l20 -22l10 -6q7 -5 9 -11l6 -15l13 -24l4 -4q3 -4 7 -12l7 -17l12 -13q2 -3 4 -5.5t4 -5.5l3 -6l3 -6t2 -6l6 -20l3 -13v-6l5 -23l4 -29l1 -4q1 -4 1.5 -6.5t-0.5 -7.5
l-6 -26l4 -19l5 -2q4 -2 10 -6z" />
    <glyph glyph-name="T" unicode="T" horiz-adv-x="695" 
d="M511 691q-4 -1 -13 -1l-21 1l-28 -1l-17 -18l-4 -26l2 -16q1 -3 1 -6.5v-6.5l-1 -15l-3 -26l4 -7q5 -6 3 -14l-5 -21l-6 -18l10 -21q2 -4 2 -14v-20q0 -8 -3 -14l-6 -16l6 -15q3 -6 1 -14l-6 -19l4 -20q2 -9 -2 -14l-3 -4l5 -21q1 -4 1 -13l1 -16q0 -5 -0.5 -7t-2.5 -6
l-5 -10l1 -18l2 -25q0 -9 -1 -13l-1 -10l6 -28l16 -19l22 -9q5 -2 11 -7l5 -3q3 -2 5 -4.5t4 -5.5l5 -7h20q9 0 14 -4l9 -5q9 -6 1 -16l-8 -8q-4 -4 -12 -8l-21 -9l-8 -7q-5 -5 -11 -8l-19 -8q-3 -2 -6.5 -2.5t-6.5 -1.5l-6 -1l-12 -19q-5 -7 -12 -8l-6 -1l-29 -11
q-8 -3 -15 2l-13 10l-15 7l-10 4q-3 2 -5.5 4t-5.5 4l-21 18l-15 10l-18 3q-9 2 -13 7l-3 4q-3 4 -7 12q-2 5 8 9l4 1l-2 14q-1 7 0 13l6 25l-2 3q-2 5 -4 13l-4 19q-1 6 2 14l7 13v13l-2 24q0 4 -0.5 6.5t0.5 6.5l2 9l3 26l-6 24l-5 16q-3 7 3 15l4 6l-4 21l-1 13
q0 4 -0.5 6.5t0.5 6.5l2 13l2 30l1 18l-7 23q-1 6 0 14l2 11l-1 6q-1 5 -0.5 7.5t1.5 6.5l5 15l-6 18q-2 8 0 15l4 10l-3 13q-1 7 2 15l7 14l-10 34l-4 11q-4 11 8 13l20 2l30 7v23h-20q-7 0 -13 5l-9 7l-11 -1q-6 -1 -13 0l-19 3l-16 5q-3 1 -5.5 1.5t-6.5 2.5l-20 11
l-25 -2l-5 -3q-7 -5 -14 -4l-25 3l-7 -4q-7 -5 -14 -5h-14q-9 0 -13 1l-11 2q-2 0 -2.5 0.5t-2.5 0.5q-5 4 -8 11q-2 3 8 8l34 15q8 3 15 1l15 -4l11 8q6 5 11 7l14 6l26 14q8 4 14 4l24 -1l3 7q3 7 10 10l19 8q6 3 13 3h12l11 16q2 3 4 5.5t5 4.5q4 3 11 4l22 5l7 10
q7 8 15 3l18 -12q3 -2 5.5 -3.5t4.5 -5.5l1 -1l21 -11q5 -2 11 -7l6 -5l30 -10l13 2q8 1 14 -5l8 -8l17 4q7 1 14 0l20 -4l28 -3l17 5l25 5l42 10q8 2 13 2h11q12 0 9 -12l-4 -10l-7 -20l-8 -18l-5 -16q-1 -6 -7 -12l-14 -14l-11 -10l-13 -14q-7 -7 -13 -7l-23 -1l-10 -11
q-4 -5 -13 -7z" />
    <glyph glyph-name="U" unicode="U" horiz-adv-x="742" 
d="M701 113q13 -5 1 -14l-15 -10l-5 -6q-3 -4 -11 -8l-16 -8l-21 -19l-16 -11q-4 -3 -12 -7l-8 -4l-25 -15l-17 -13q-7 -6 -15 1l-8 7l-21 20l-20 8l-42 7l-7 -9q-2 -3 -4.5 -5t-4.5 -4l-11 -9l-15 -15q-8 -8 -16 0l-16 19l-22 6q-8 2 -12 7l-10 11l-22 14h-8q-6 0 -14 4
l-6 3q-3 2 -6 3t-6 3l-16 12l-12 2q-9 2 -13 5l-15 10l-20 4q-3 1 -6.5 1.5t-6.5 2.5l-14 6l-22 3l-2 1q-6 2 -8 5.5t3 7.5l-5 26q-1 7 2 15l5 11l-6 10q-4 6 -1 15l6 14l-3 15q-1 4 -0.5 7t1.5 7l2 11l3 21l-7 19q-2 4 -1.5 7t1.5 8l5 20l-1 5q-1 3 -1 6.5v6.5v25l3 17
l-5 20q-1 6 2 14l7 14l-7 25v5q-1 4 -1.5 7t0.5 7l4 25l2 16l-7 16q-3 9 1 15l8 15l-4 12q-3 8 0 14l6 11l-3 21l-5 17q-1 4 -1.5 6.5t0.5 7.5l4 23l-2 7q-1 4 -1.5 6.5t-0.5 6.5l1 29l-25 16h-4q-9 1 -13 7l-9 12l-13 3q-4 2 -6.5 3t-5.5 3l-16 10q-7 1 -7 5.5t7 8.5l6 3
l12 12q2 3 4.5 5t5.5 4l13 8q7 5 12 6l12 3l6 11q5 7 11 9l22 11l20 17l4 6q7 9 16 2l22 -14q4 -2 10 -8l10 -10l13 -8l6 -4t5 -5l9 -10l17 1q5 0 13 -4l16 -9l23 -16l11 1l25 10l5 8q4 6 11 9l10 5l22 18q5 5 13 5h9l8 12q4 6 10 10l12 9q8 5 16 0l8 -5q4 -2 10 -8l13 -12
l13 -14l23 -8q6 -1 12 -6l12 -9l17 -17l14 -6q6 -2 6.5 -6.5t-5.5 -8.5l-7 -3l-10 -5l-2 -20l1 -30v-22l1 -24l-1 -19l-1 -23l4 -13q1 -4 1.5 -6.5t0.5 -6.5l1 -18l2 -4q3 -7 0 -15l-6 -16l3 -21l1 -19q0 -6 -2 -14l-5 -21l3 -12q2 -8 2 -13l1 -11l4 -12q2 -8 -1 -15l-4 -11
l-1 -27q0 -9 -2 -13l-1 -3l3 -34l3 -5q4 -5 4 -14v-5q0 -9 -1 -13l-4 -20l2 -10q1 -6 0 -13l-3 -25l1 -12l2 -28l2 -27l23 -15l11 -4q8 -4 12 -8l8 -8l15 -6q3 -2 6 -3.5t5 -5.5l7 -9zM335 246q4 0 7 -1l6 -2l4 -1l21 -9q3 -2 6.5 -3.5t5.5 -3.5l14 -16l17 -6l4 1l6 21v23
l-2 6q-2 7 0 14l8 24l-3 8q-2 4 -2 14l1 15l-3 21q-1 7 0 13l2 16l4 15l-6 15q-2 4 -2 13v13l-1 15q0 4 -0.5 6.5t0.5 6.5l2 15l6 26l-7 16q-3 6 -3 14v7q0 4 0.5 6.5t1.5 6.5l5 17l-5 18q-1 6 0 14l1 5l5 33l3 23l-3 3q-6 8 -3 15l7 16l-1 28l-32 23l-11 3q-8 3 -12 8l-1 2
l-28 16l-17 10l-18 -21l5 -13q3 -7 1 -15l-5 -16v-39q0 -5 -2 -13l-4 -16l6 -10q5 -8 2 -15l-7 -14l3 -20v-32l5 -9q2 -6 1 -15l-2 -10l-9 -32l4 -5q3 -4 3 -14v-33q0 -3 0.5 -7t-0.5 -7l-3 -24l-4 -19l6 -46l1 -5q1 -4 1 -13l-1 -18q0 -9 -1 -13l-2 -7l3 -40z" />
    <glyph glyph-name="V" unicode="V" horiz-adv-x="649" 
d="M616 814q11 -7 3 -15q-3 -3 -11 -5l-11 -3l2 -20l1 -15q0 -9 -1 -13l-4 -19l-3 -27l7 -10q4 -5 2 -14l-5 -20l-3 -22l7 -13q4 -6 1 -15l-6 -13l5 -19l3 -21q1 -6 -2 -14l-7 -20l3 -8l3 -13l2 -16v-10q0 -6 -2 -14l-6 -21l5 -22q1 -3 1 -6.5v-6.5l1 -10l-1 -20l-4 -21v-26
l1 -8v-7t-1 -7l-2 -18l-2 -28l7 -19q3 -8 -1 -14l-5 -7l4 -26l4 -9q2 -4 2 -14l-1 -15v-34q5 -2 2 -8l-10 -19q-3 -6 -12 -9l-20 -6l-10 -6q-4 -2 -6.5 -2.5t-6.5 -1.5l-18 -2l-11 -8l-13 -11q-6 -6 -12 -7l-15 -5l-15 -8l-29 -12l-9 -7q-8 -7 -15 -1l-21 15l-11 7
q-3 2 -5.5 4t-4.5 6l-7 10l-20 10l-26 9h-2q-8 2 -14 6l-14 13l-31 6l-21 7l-13 -3q-8 -3 -14 3l-7 6l-22 1l-16 3q-10 2 -14 5l-3 2q-8 7 -4 15h1l7 23l-6 16q-2 6 -1 14l4 16l6 30l-6 7q-6 6 -3 15l4 14l5 31l-9 15q-3 6 -3 14l2 9l5 21l-5 18q-1 4 -1 14v3q0 9 2 13l5 11
l-4 15q-1 6 2 14l6 14l2 27l-1 25l-4 13q-1 7 0 14l3 11l2 30l-3 7q-3 7 -4 13l-3 22v19q0 7 3 13l3 10l3 18l2 20l-9 21q-2 4 -3 6.5t-2 5.5l-5 22l-19 3q-9 2 -13 6l-14 11h-4q-7 0 -13 3l-13 6q-5 3 -11 7l-3 2q-9 7 0 16l6 6q3 3 5 4l6 3l8 5q4 2 6.5 2.5t6.5 1.5l10 2
l26 18l17 12l8 12q5 7 12 8l17 4l13 12q7 7 15 2l10 -5q3 -2 5.5 -3t5.5 -3l14 -10q4 -3 10 -9l13 -13l16 -13l13 -3q7 -1 13 -6l14 -11l28 -5l20 3l25 12l12 17q4 6 11 9l6 3l20 12q4 3 13 5l7 1l14 15q7 9 16 3l12 -6q3 -2 6 -3t6 -4l10 -10l17 -22l13 -2q5 -1 13 -7
l14 -13l25 -7q8 -2 12 -4zM431 221l-3 26l-4 16q-1 4 -1 13v12l-2 15q-1 4 -0.5 7t0.5 7l2 21l-1 15q0 9 1 13l2 7l3 22l2 29l2 24l-1 20l1 15l-2 25l1 15l-5 26l-3 12q-1 7 0 14l2 18l-2 16l-1 20q0 6 2 14l5 15l-2 10q-1 4 -1.5 7t0.5 7l3 13l-3 37l-16 18l-20 1
q-7 0 -12 9l-4 8l-21 6l-15 2l-23 -6l-6 -22l8 -20q3 -9 -1 -15l-8 -13l9 -20q3 -8 2 -14l-1 -8q-2 -8 -4 -13l-7 -14l3 -6q3 -6 3 -13v-16l3 -27q1 -3 1 -6.5v-6.5v-3q0 -4 -1 -7l-2 -6l-4 -16l-3 -17l5 -13q2 -3 1.5 -6t-0.5 -8l-1 -25l-1 -20l2 -14q1 -7 0 -14l-5 -21v-3
q2 -8 2 -13v-25l5 -9q3 -7 3 -14l-1 -18q0 -7 -3 -13l-5 -12l10 -25l14 -16l11 -1q6 0 14 -2l8 -2q4 -2 6.5 -3t5.5 -4l14 -13l19 -21l20 13v16z" />
    <glyph glyph-name="W" unicode="W" horiz-adv-x="933" 
d="M894 817q5 -4 5 -7.5t-5 -3.5l-6 -7l-1 -30l-4 -27l4 -27l1 -8q0 -4 -0.5 -6.5t-1.5 -6.5l-5 -18l-5 -25l6 -12q2 -4 3 -6.5t0 -7.5l-4 -19l2 -13l2 -15q1 -6 0 -13l-5 -25l3 -10q1 -4 1.5 -6.5t0.5 -6.5v-13q0 -9 -4 -14l-5 -8l-1 -24l4 -25l4 -20q1 -7 -4 -14l-3 -3
l3 -29l1 -17l1 -27q0 -5 -2 -13l-4 -15l5 -14q2 -7 0 -14l-3 -7l4 -26l1 -25l4 -13q3 -9 -3 -15l-6 -7l7 -27q1 -4 1.5 -6.5t-0.5 -7.5l-2 -11l3 -7q5 -9 -2 -15l-7 -11q-5 -6 -13 -8l-20 -4l-10 -6q-6 -4 -12 -6l-18 -5l-7 -5q-3 -2 -5.5 -3t-5.5 -3l-19 -7l-12 -9
q-6 -5 -14 -5h-14l-8 -13q-5 -7 -11 -9l-13 -4q-9 -3 -15 3l-14 14l-11 7l-14 15l-20 4q-8 2 -13 8l-10 11l-13 7l-41 -5l-30 -4l-10 -14q-2 -4 -5.5 -5t-7.5 -2l-19 -3l-22 -12l-21 -17l-11 -10q-9 -7 -16 -1l-18 15l-14 14l-21 13l-13 10l-21 9l-10 1q-9 2 -13 6l-13 11
l-20 13l-21 -2q-9 -2 -15 3l-18 12l-10 1l-41 1q-4 0 -7 0.5t-7 2.5l-5 3q-11 5 -3 15l8 8l2 17l-6 24q-2 9 2 14l5 7l-1 19l-4 33l-2 7q-2 6 -1 14l4 24l2 22l-4 5q-4 7 -4 14l-1 21l2 22l-1 17q0 9 2 13l4 9l1 25l-5 16q-3 9 3 15l7 8v31l-5 9q-3 8 -2 14l1 12l4 29v23
l-4 8q-3 6 0 14l7 18l-6 10q-5 6 -3 14l4 17l4 21l-7 24l-12 24l-21 15l-13 4l-20 4q-5 1 -12 6l-10 7l-17 8q-6 3 -5.5 7.5t6.5 7.5l17 8l9 7q6 6 12 7l23 6l17 5l14 19q5 7 12 8l15 3l24 24q9 7 16 1l17 -15l15 -9l22 -14l20 -10l29 -10l13 -6q8 -4 11 -7l14 -15l4 3
q2 2 5 4l6 4l28 17l19 16q4 4 13 6h5l24 9l23 27l2 3q6 9 15 2l15 -11l17 -9q4 -2 5.5 -3.5l4.5 -4.5l14 -12l20 -7q8 -2 12 -5l16 -11l16 -8l17 -11q7 -5 8 -8l11 10q7 5 12 6l18 5l17 16q6 6 10 8l8 5l18 15l12 12q4 4 11 8l12 7q9 5 15 -3l14 -17l43 -19l14 -7
q7 -4 10 -11l6 -13l18 -3q7 -1 13 -6zM347 240q9 0 14 -4l11 -7q6 -3 10 -8l10 -11l20 -11l14 5l-5 14q-2 8 0 15l7 18l-7 22q-2 8 1 14l4 10l-5 14q-1 4 -1 14v21l-1 18q0 7 4 14l4 5l-6 18q-1 6 0 14l5 22l3 20v22l-7 19q-3 8 -2 14v4q0 4 1 7l2 6l7 22l-6 13q-3 8 0 15
l7 12l-9 17q-2 3 -3 6t0 8l1 6l-1 17q0 9 1 14l5 19l-2 14q-1 7 1 13l7 19l-23 18l-17 17l-12 2q-8 2 -12 4l-10 4q-3 2 -6 3t-6 3l-12 8l-16 -18l1 -16v-20q0 -5 -2 -13l-2 -10l1 -25q0 -8 -1 -13l-5 -17l4 -5q6 -6 3 -15l-5 -12l-1 -27l1 -29v-12q0 -9 -1 -13l-3 -11
l7 -16q3 -6 3 -14l1 -18l-1 -15q0 -5 -2 -13l-2 -8l-7 -31v-61l2 -31l4 -20l1 -13q0 -9 -1 -13l-4 -21l20 -14zM708 219q-3 8 -2 15l9 39v16l-3 18l-3 31l-4 16q-1 4 -0.5 6.5t0.5 6.5l1 9q0 4 0.5 7t1.5 7l1 3l-2 25l-1 23l-1 20q0 9 4 14l6 11l-2 21l-5 19q-2 8 -2 14v2
q-1 8 2 14l6 13l-8 23q-2 5 -1 8t3 7l6 12l-1 11v32l1 20l-2 9q-1 4 -1.5 6.5t0.5 6.5l4 31l-22 4q-9 2 -13 6l-12 10l-15 10q-3 2 -5.5 4t-4.5 6l-2 4h-27l-14 -13l1 -6q1 -7 0 -14l-5 -25l-3 -23l-2 -21l4 -12q1 -6 0 -14l-3 -15l2 -14v-32l4 -9q2 -5 4 -13l1 -7
q1 -6 -2 -14l-5 -14l3 -15q1 -4 1.5 -7t-0.5 -7l-2 -10l1 -23l-1 -25l1 -13q0 -9 -2 -14l-6 -11v-30l7 -16q4 -9 -2 -15l-2 -3l-3 -25l5 -21q1 -7 0 -14l-1 -4l6 -25l14 -16l23 -4q9 -2 13 -5l4 -2l22 -20l16 -15l23 7z" />
    <glyph glyph-name="X" unicode="X" horiz-adv-x="752" 
d="M710 111q5 -2 4.5 -6t-5.5 -8q-3 -3 -11 -7l-22 -11l-13 -13l-12 -14q-2 -3 -4.5 -5t-5.5 -4l-9 -6q-4 -3 -13 -5l-19 -3l-5 -8q-3 -7 -10 -10l-19 -10q-10 -5 -15 3l-6 7l-23 21l-19 14h-9q-6 0 -14 4l-15 9l-31 16l-9 5q-6 4 -8.5 7.5t0.5 4.5l15 12l-2 20q0 10 2 14
l5 11l-3 7q-3 6 -3 13v7q0 9 1 13l7 26l-1 10q-1 4 -0.5 6.5t1.5 6.5l2 11l-7 26q-2 8 -2 13v8l2 23l-3 16l-14 40l-38 13l-27 -20l-13 -9q-4 -3 -12 -7l-7 -2l-14 -12l-22 -18l-6 -14q-4 -8 -7 -12l-7 -10l5 -41l1 -20l1 -16q0 -5 -1 -8t-3 -6l-6 -11l20 -11q4 -2 6.5 -3.5
t4.5 -4.5l14 -17l17 -10l22 -9l9 -5q4 -2 6 -4l4 -4l5 -5q8 -8 0 -16l-7 -7q-4 -4 -13 -6l-16 -2l-9 -13q-2 -4 -5 -5t-7 -3l-15 -6l-22 -7l-5 -8q-2 -3 -3.5 -5t-4.5 -5l-10 -9q-6 -6 -10 -8l-17 -10q-8 -5 -15 -1l-16 10l-11 7l-6 4t-5 5l-10 10l-20 13l-14 8l-24 15
l-19 10q-4 3 -6 6q-2 4 1.5 5t7.5 2h2l-2 27q0 9 1 14l4 17l-4 12q-1 4 -1.5 6.5t0.5 7.5l2 19v18l-2 17q-1 4 -0.5 6.5t1.5 6.5l8 35l-1 15q0 9 2 14l7 13l3 22q1 6 6 13l8 8l6 18q2 4 3 7t4 5l7 6l13 13l16 19q2 3 4 5.5t5 4.5l11 8l6 17l-28 4h-9q-8 0 -14 3q-5 3 -5.5 6
t4.5 3l1 39l-3 13q-1 4 -1.5 7t0.5 7l2 18l-5 12q-3 7 0 15l7 18l-3 10q-1 4 -2 6.5t-1 6.5l-2 39l-2 19q-1 8 1 14l8 20l-23 14q-3 2 -5 3.5t-5 4.5l-7 6l-14 5q-6 2 -12 5l-18 10l-12 5q-3 2 -6.5 3.5t-5.5 3.5l-3 3q-10 10 3 15l13 4l14 9l32 22l32 21l11 8q3 2 5.5 3
t6.5 3l13 4l20 21q6 8 15 -1l11 -12l21 -11q4 -2 5.5 -3.5l4.5 -4.5l12 -11l9 -9l3 -4l27 -13l16 -4l26 -7l21 3l12 11q8 6 12 7l11 3l24 12l17 15l11 10q3 3 5.5 4.5t5.5 3.5l11 7q7 4 15 1l15 -6q3 -2 6 -3t6 -4l17 -15l16 -15l13 -5l23 -5q8 -2 12 -8l5 -9l19 -8
q13 -7 5 -13l-19 -11l4 -35l2 -13q1 -6 0 -13q0 -2 -0.5 -4.5t-1.5 -6.5l-7 -25l-1 -20l5 -31q1 -4 1 -14l-1 -15q0 -5 -1 -7.5t-3 -5.5l-5 -8l-14 -25l-1 -8q0 -7 -6 -13l-16 -16l-11 -25l2 -30l20 -4q9 -2 12 -9l2 -5l18 -24l7 -5q8 -6 10 -10l8 -13q5 -9 -4 -15l-2 -2
l-8 -30l5 -21q1 -7 0 -14l-4 -16l2 -11q1 -3 1 -6.5v-6.5v-24l1 -8q0 -9 -1 -13l-2 -15l-3 -29l4 -21l26 -18l9 -6q3 -2 5.5 -4t4.5 -5l8 -10l20 -10l17 -10zM406 747l-18 6q-4 2 -6.5 3t-4.5 4l-4 5l-19 8q-3 2 -6 3.5t-5 5.5l-3 5l-25 8l-2 -32l2 -16q1 -4 0.5 -6.5
t-0.5 -6.5l-1 -14l-4 -23l5 -14q3 -7 1 -15l-5 -18l6 -14q2 -6 1 -14l-6 -27l28 -13l28 -3h39l1 15q0 7 6 13l10 8l-3 20q-1 7 0 13l6 38l2 12l-9 35z" />
    <glyph glyph-name="Y" unicode="Y" horiz-adv-x="649" 
d="M615 820q6 -2 7 -6t-3 -9l-3 -3l-17 -16l1 -16l2 -24l1 -19q0 -9 -1 -14l-3 -14l-4 -23l2 -22v-25l1 -3q3 -8 2 -14l-3 -15l-1 -21l2 -21l4 -23q1 -7 -4 -14l-6 -7l1 -23l4 -25q1 -5 0.5 -7.5t-1.5 -6.5l-5 -16l5 -8q2 -4 3 -6.5t1 -7.5l1 -9q0 -4 -0.5 -7t-1.5 -7
l-4 -17v-9l1 -1q5 -3 6 -7t-4 -6l-2 -23l3 -13q1 -4 0.5 -6.5t-0.5 -6.5l-1 -18l-6 -31l4 -14l4 -20q1 -8 -1 -14l-2 -5l-3 -32l2 -25l4 -13q3 -6 1 -14l-2 -8q4 -2 2 -6t-9 -6l-5 -1l-26 -13l-14 -10q-4 -3 -13 -5l-14 -3l-14 -4l-17 -11l-16 -8l-12 -16q-5 -7 -12 -8
l-13 -3l-14 -7q-7 -5 -15 0l-39 25l-15 10l-18 13l-17 10l-13 1q-5 0 -13 4l-17 10l-23 4h-34q-8 0 -14 3l-5 2l-27 2q-5 0 -13 3l-8 2q-11 3 -6 15l5 9l9 22l3 9q1 7 6 13l11 15l11 12q2 3 4 4.5t6 3.5l8 4q8 4 14 4h13l21 2l44 11q4 1 7 1.5t7 -0.5l8 -1q8 -2 13 -4l10 -4
l19 -6q4 -2 6.5 -2.5t5.5 -2.5l36 -17l16 9l1 24l-4 21l-8 15q-7 -2 -13 3l-10 7q-3 2 -5.5 4t-4.5 5l-13 14l-18 3q-4 1 -7 1.5t-6 3.5l-9 8l-14 5q-8 4 -11 8l-10 11l-24 11l-16 3q-7 1 -13 6l-5 3l-33 7l-20 6l-10 -3q-5 -2 -7.5 -1.5t-6.5 1.5l-17 6h-5q-6 1 -8 5.5
t2 9.5l6 6l1 29v19l2 22l-6 9q-4 5 -2 15l4 26l-2 11q-1 6 2 14l4 10l1 32v36l-2 33l-4 12q-3 8 2 15l8 11l-7 17q-2 5 0 15l7 26l-26 8q-9 3 -12 8l-4 6l-22 15l-8 -1q-10 0 -14 4l-12 11l-8 4q-12 7 -2 15l5 5q4 4 12 8l40 20l10 10q4 4 11 8l11 6q4 2 6.5 2.5t6.5 1.5
l12 2l6 12q3 7 11 10l15 5q7 3 14 0l12 -4q4 -2 7.5 -3t5.5 -4l13 -14l11 -14l22 -7l19 -8l12 -6l19 -12l11 -1l27 3l14 11q3 2 6 3t6 3l7 2l13 16q5 7 11 9l12 4l29 11l5 12q5 13 15 5l19 -15l15 -16l15 -6q3 -2 6 -2.5t6 -2.5l25 -16l14 -2q5 -1 12 -6l13 -11zM428 472
l1 30v37l1 33l-7 16q-2 6 -1 14l1 6v13q0 5 2 13l4 19l-3 24l-3 13q-2 8 -2 13l1 26l-16 8q-4 2 -6 3.5t-4 5.5l-10 14l-8 1l-13 3l-14 4l-24 12l-9 -8l-7 -20l6 -14q2 -6 1 -14l-3 -16l3 -22q1 -5 0.5 -7l-1.5 -6l-5 -17l2 -4q2 -6 1 -14l-4 -18l5 -19q2 -10 0 -15l-7 -14
l3 -10q1 -4 1.5 -6.5t-0.5 -7.5l-5 -21l7 -20l15 -14h20q9 0 13 -6l12 -14l5 -2q7 -1 13 -6l16 -13h19v20z" />
    <glyph glyph-name="Z" unicode="Z" 
d="M512 113q3 -5 -5 -11l-13 -10q-7 -5 -13 -5h-6l-18 -17q-8 -6 -13 -7l-17 -3l-18 -6l-12 -11q-4 -4 -12 -8h-1q-6 -3 -13 -3l-17 -1l-13 -14q-4 -5 -12 -7l-13 -3q-9 -3 -15 3l-11 9l-21 5q-3 1 -6.5 1.5t-6.5 2.5l-14 7l-17 11l-19 4l-13 -2q-7 -1 -14 3l-16 8l-14 8
h-25q-10 0 -14 1l-14 4l-15 1q-9 0 -14 4l-6 4l-21 2q-9 2 -13 5q-2 2 -2 4q0 5 10 9l7 2l-1 9l-3 23q-1 7 0 13l4 20l-1 14q0 9 2 13l8 24l7 20l7 23l1 6q1 3 1.5 6.5t2.5 6.5l5 15q4 8 7 12l7 10l3 12q1 6 8 12l11 10l12 22q2 6 7 12l5 7q2 3 5 5l6 4l6 3l16 29l9 13l6 12
l30 42l7 17q3 8 10 11l15 7l2 7q1 4 5 12l14 23l11 20l3 8q2 3 4 5.5t4 5.5l10 11l5 27l5 21l7 26l4 14l1 34l-21 -1l-14 -3q-4 -1 -7 -1.5t-7 -0.5l-45 4l-14 -6q-6 -3 -13 -3h-5q-9 0 -13 2l-19 7l-10 2q-4 1 -7 1.5t-6 2.5l-12 8l-21 12l-16 3q-10 2 -13 6l-11 12l-3 3
q-2 4 0 8t6 6l28 14l10 4q6 3 14 1l12 -2l16 12q6 5 12 7l18 5q8 2 13 2h11l24 6l19 11l19 17l9 12q4 6 12 8l17 3q-1 4 3.5 4.5t10.5 -4.5l9 -6q3 -2 5.5 -4t4.5 -5l3 -4l22 -6l19 -9l23 -10l18 -11q3 -2 5.5 -4t4.5 -5l5 -5l21 -14h17q9 0 13 -3l7 -5q7 -5 6 -14
q0 -3 -5 -10l-4 -4v-7l6 -24q2 -10 -2 -15l-10 -15v-12q0 -9 -1 -13l-5 -25l-1 -13q0 -5 -4 -13l-3 -6q-2 -4 -3 -6.5t-3 -5.5l-7 -10l-2 -19q0 -6 -7 -13l-8 -7l-5 -18q-1 -5 -5 -12l-8 -12l-9 -20q-2 -4 -3.5 -6t-3.5 -5l-8 -11v-4q-1 -6 -5 -13l-12 -16l-15 -17l-14 -27
l-5 -12q-2 -3 -3 -6t-3 -6l-11 -13l-3 -11q-3 -8 -11 -11l-15 -4l-12 -27l-1 -10q-1 -8 -6 -13l-10 -10q-3 -3 -5.5 -5t-5.5 -4l-8 -5l-7 -18l-6 -12l-11 -18l-4 -16l7 -20l21 -8l18 -2q8 -2 13 -4l9 -4q3 -2 5.5 -3t5.5 -3l15 -11l10 14l-5 15q-2 7 2 14l9 16l11 28
q4 11 14 8l3 -1l22 5l22 14q7 4 14 1l13 -4h23l7 5q8 5 16 -1l10 -9q5 -5 6 -13l4 -20l1 -13v-13v-52l2 -24l5 -25v1z" />
    <glyph glyph-name="bracketleft" unicode="[" horiz-adv-x="313" 
d="M285 889q8 -5 7 -14l-2 -18l-3 -13l-5 -16l4 -13q1 -4 1.5 -6.5t0.5 -6.5v-6q0 -9 -5 -14l-16 -13q-6 -6 -15 -3l-14 4l-18 -20l7 -17q3 -8 2 -14l-3 -22l2 -4q4 -8 5 -13l3 -21l4 -16l1.5 -7.5t-1.5 -6.5l-5 -13l9 -18q3 -7 0 -15l-2 -6l-3 -22l6 -20q3 -6 3 -13v-4
q0 -9 -1 -13l-4 -22v-29l3 -7q3 -8 2 -14l-3 -16l4 -27v-10q0 -4 0.5 -6.5t-0.5 -6.5l-2 -14l2 -23q0 -9 -5 -14l-4 -4l4 -22q1 -6 -2 -14l-9 -18l7 -17q3 -8 -2 -15l-3 -4l-9 -31l6 -16q2 -5 1.5 -7.5t-2.5 -6.5l-4 -7l19 -22l11 -1q9 0 13 -7l8 -11q2 -3 3 -6t3 -6l2 -5
q3 -7 1 -15l-4 -12l7 -18q3 -6 3 -14v-5q0 -8 -6 -14l-17 -15q-5 -6 -13 -7l-4 -1q-8 -2 -15 1l-17 8l-10 -5q-6 -4 -15 0l-13 5l-19 -5q-4 -1 -7 -1.5t-7 0.5l-14 1l-28 -2l-11 -2q-9 -2 -14 6l-4 8q-3 8 -1 15l8 23v15l-2 10q-1 7 2 15l11 21l-2 16q0 8 5 15l5 6l-2 31
l-3 13q-1 5 -0.5 7.5t1.5 6.5l8 36l6 21l-1 22l-4 20q-1 5 -0.5 7.5t1.5 6.5l6 18l-2 17l-2 13q-1 4 -0.5 6.5t1.5 6.5l3 12l-2 26v16q0 5 2 13l6 22l-4 14q-1 4 -1.5 6.5t0.5 7.5l1 12l-4 8q-3 6 -3 14l2 19q0 4 1 7l2 6l1 4l-8 19q-2 3 -3 6t0 8l2 14l-2 20q0 8 1 13l4 16
l-8 19l-6 14q-3 6 -3 13l-2 24v17q0 5 2 13l2 7l-5 22l-6 14q-3 6 -3 13v47l-5 3q-9 6 -2 15l6 8q5 7 12 8l19 4q4 1 7 1.5t7 -0.5l12 -3l15 4q8 3 14 -4l6 -6l17 6q8 2 14 2h9q5 0 13 -2l21 -5l6 4q8 6 15 1z" />
    <glyph glyph-name="backslash" unicode="\" horiz-adv-x="462" 
d="M198 768q4 -7 4 -14l-1 -18l9 -24l5 -6q2 -3 3.5 -5t3.5 -6l6 -13q2 -5 4 -13l2 -8l1.5 -6t-0.5 -7l-1 -10l14 -32l4 -9q2 -4 2 -13l1 -10l8 -23q2 -3 2 -6t1 -7l2 -16l6 -11q4 -8 5 -12l2 -9l13 -24q2 -3 3.5 -6t2.5 -6l1 -3q1 -5 1 -14l-1 -14l12 -20q4 -5 2 -15l-1 -6
l15 -31l1 -2q2 -3 2 -6t1 -7l3 -16l8 -18q2 -5 4 -13l2 -9l7 -21q1 -4 1 -13l-1 -21l10 -5q8 -3 8 -12l2 -20l2 -23l9 -11q5 -7 6 -13l2 -16l8 -12q4 -6 3 -14l-2 -14l6 -29l11 -17l7 -14q5 -8 -3 -16l-9 -8q-7 -7 -15 -2l-11 6l-10 2q-7 1 -13 6l-14 10l-16 10q-7 5 -10 11
l-6 10l-12 11q-5 5 -8 11l-7 15l-14 12q-7 5 -8 12l-1 6l-7 12q-2 3 -3 5.5t-2 6.5l-10 49l-7 21l-5 14q-1 4 -1.5 7t-0.5 6l-1 9l-8 18l-11 11q-7 7 -6 14l3 24l-14 22l-6 14q-4 8 -4 13l-1 11l-9 17q-3 7 -2 14l2 12l-8 11q-5 7 -4 14l1 8l-13 29l-5 19l-6 17q-2 8 -2 14
l1 7l-9 22l-10 12q-5 6 -6 13l-3 13l-3 25l-4 30l-9 13q-5 9 -6 12l-1 7l-9 23q-2 3 -2.5 6.5t-1.5 6.5l-2 10l-4 22l-7 20l-7 13q-5 9 -6 12l-4 15q-1 5 -1 13l1 8l-11 17l-7 11q-5 8 1 15l12 15q6 10 15 1l9 -7l18 -1q6 0 13 -5l14 -9l6 -2q7 -1 13 -6l6 -4q6 -4 10 -10
l16 -19l3 -5q3 -4 7 -12l14 -33z" />
    <glyph glyph-name="bracketright" unicode="]" horiz-adv-x="313" 
d="M37 894q4 10 14 7l22 -7l11 6q7 4 15 1l17 -6l22 -2l8 2q3 1 6.5 1h6.5l24 1l4 3q6 5 14 3l8 -2q8 -2 12 -7l8 -9q6 -7 4 -15l-4 -18l-2 -19l1 -15l1 -25q0 -7 -3 -13l-4 -10l-13 -27l4 -13q2 -9 -2 -14l-8 -11l3 -16q2 -8 2 -13v-7q0 -5 -2 -13l-6 -19l-1 -20l2 -17
q0 -4 -0.5 -6.5t-1.5 -6.5l-4 -16v-27l4 -17q1 -4 1.5 -7t-0.5 -7v-2q-2 -8 -4 -13l-9 -18l5 -19q2 -8 2 -13v-4l1 -28l-5 -50l6 -10q3 -6 2 -14l-4 -18l-2 -22v-12l5 -35l1 -14l5 -17q1 -4 1 -14v-20l5 -13l6 -14q2 -4 2 -14v-47l3 -20l4 -11q2 -5 4 -13l2 -13q1 -4 1 -13
v-7q0 -8 -6 -14l-3 -2q-4 -4 -13 -6l-14 -2l-8 -3q-7 -2 -15 0l-11 2l-30 6l-15 -9q-8 -5 -15 1l-8 5l-18 -3l-22 -1q-10 0 -13 7l-6 13q-3 6 -3 14l-1 8l-1 29l-3 5q-4 5 -4 14l-1 10q0 7 5 14l8 11q5 6 14 6l21 -1l23 17l-11 32l-4 16q-1 5 -0.5 7.5t1.5 6.5l4 14l-5 11
q-3 8 -2 14l4 17l-7 14q-3 6 -3 13v3q0 10 1 14l4 25l-3 7q-2 3 -3 5.5t-1 7.5l-1 24l-4 12q-2 6 -1 14l4 17l-4 16q-1 7 0 14l4 17l5 19l-3 15l-5 19q-1 7 0 14l5 21l5 13l-3 32l-1 13v14l2 11l5 18l7 22l3 21l-5 23q-1 8 3 15l7 9l-25 25l-14 -2q-9 -2 -14 5l-10 11
q-5 7 -6 13l-2 12l-1 23v7t1 7l1 8q2 8 4 13l7 12z" />
    <glyph glyph-name="underscore" unicode="_" horiz-adv-x="200" 
d="M30 -16q7 1 14 0l15 -3l34 -1h24l17 3l17 4q8 2 14 -1l13 -6l11 -1q8 -1 9 -4.5t-5 -8.5l-4 -3q-6 -5 -14 -3l-18 4l-23 1l-26 -6l-12 -2q-8 -2 -14 1l-23 7l-19 2l-9 -1q-7 -1 -14 2t-7.5 7t6.5 6z" />
    <glyph glyph-name="grave" unicode="`" horiz-adv-x="258" 
d="M128 1099q3 -2 6 -3.5t6 -4.5l12 -10q5 -5 8 -11l3 -7l3 -6t2 -6l2 -11l14 -7q9 -4 10 -11l3 -17l12 -23l5 -5q6 -8 5 -14v-4q-2 -12 -13 -9l-19 4l-24 10q-7 3 -11 8l-17 20l-14 8q-8 6 -11 10l-3 4l-14 13q-6 4 -7 13l-2 12l-22 13q-3 2 -5.5 4t-4.5 5q-6 8 -8 12l-3 6
q-3 8 -2 14l2 7q3 9 11 10h10l19 -2l7.5 -1.5t5.5 -2.5l17 -10z" />
    <glyph glyph-name="a" unicode="a" horiz-adv-x="641" 
d="M605 110q4 -1 -8 -12l-7 -5l-23 -15l-19 -10l-4 -5q-2 -3 -4.5 -4.5t-6.5 -3.5l-17 -9l-11 -12q-2 -3 -4.5 -4.5t-6.5 -3.5l-21 -11l-12 -11q-8 -7 -15 -1l-7 4q-4 3 -10 9l-16 16h-8q-4 0 -7.5 0.5t-6.5 4.5l-16 18l-19 3q-3 1 -6.5 1.5t-6.5 2.5l-8 3q-6 2 -12 6l-11 8
l-18 -1l-25 -11l-10 -11q-4 -5 -10 -8l-21 -11l-21 -14l-8 -8q-4 -4 -12 -8l-15 -6q-9 -3 -15 4l-12 13l-15 10l-23 12q-4 2 -6 3.5t-5 3.5l-7 7l-16 6l-20 7q-6 2 -12 6l-6 4q-7 5 -6 14q0 6 5 1l10 33l-5 11q-3 6 -3 13l-1 14q0 9 4 14l5 8l-6 25q-1 6 2 14l6 15l-7 9
q-6 6 -3 15l6 16l-1 13l-4 25q-1 5 -1 13l1 7l7 31l1 21l-5 21l-1 6q-1 4 -1 13l1 14l-4 24l-1 14q0 8 3 14l9 19v48l-7 9q-4 7 -3 14l2 12l9 31l-2 8q-2 8 -2 13v16l-5 14q-1 4 -1.5 7t0.5 8l3 11l1 25q0 9 1 13l3 11l-7 15q-2 5 -4 13v1l-2 3q-4 12 8 14l16 3l14 10l27 15
l5 3q6 5 13 6l15 3l20 6l21 15q3 2 5.5 3t5.5 3l6 2l10 10q3 3 11 7l18 7q7 3 14 0l3 -1q3 -2 6 -3t6 -4l20 -17l10 -7l25 -12q8 -4 11 -8l6 -7l30 -11l8 2q7 1 14 -2l17 -10l20 -6l29 -12l6 3q7 3 15 -2l15 -8l19 -5q10 -4 11 -11l-14 -3h-3l1 -25l2 -24l4 -17q1 -8 -2 -14
l-5 -10l2 -23l4 -20q1 -8 -1 -14l-5 -13l-2 -30l5 -9q3 -7 4 -13l1 -7q1 -7 0 -14l-2 -12l-10 -35l3 -3q6 -7 3 -14l-4 -14l-1 -30l1 -19l6 -23q1 -4 1 -7t-2 -7l-5 -9l4 -21q2 -9 -3 -15l-3 -4v-24l4 -16q1 -4 1 -13v-16l3 -20q1 -5 0 -8t-3 -6l-5 -10l11 -38l10 -4
q6 -1 12 -6l19 -15l17 -13l4 -1q6 -1 12 -6l23 -15zM308 647q-4 1 -6.5 3t-5.5 4l-9 8l-24 14l-7 3q-7 3 -10 9l-15 19l-19 -11l3 -15q2 -8 2 -13v-3q0 -8 -1 -13l-2 -13l4 -18q1 -6 0 -13l-4 -15l-6 -27l5 -4q6 -6 5 -15l-3 -17l22 -27l14 7q8 4 13 4l23 2l20 -1l19 18
l3 18l3 24l-3 23l-3 5q-3 8 -1 15l7 22zM244 149l20 -5q9 -2 12 -9l5 -11l31 -9l9 14l8 20l-8 18q-2 6 -1 14l4 20l-2 9q-2 8 1 14l9 19l-4 16q-1 5 -1 13l1 6l-3 15q-1 3 -1 6.5v6.5l-1 18q0 9 1 13l1 8l-20 31l-15 -8q-10 -4 -15 -2l-20 7l-25 1l-15 -20l-6 -22l-1 -29
l4 -10q2 -4 2.5 -6t0.5 -7v-5q0 -5 -2 -13l-4 -19v-14l7 -19q2 -4 2 -13l1 -14l16 -21z" />
    <glyph glyph-name="b" unicode="b" horiz-adv-x="610" 
d="M574 420q5 -2 6 -6.5t-4 -8.5l-5 -4q4 -3 1 -13l-8 -18l8 -19q2 -3 2 -6t1 -7v-3q1 -7 -2 -14l-6 -13l4 -14q1 -7 0 -14l-3 -14l-2 -25l8 -24q2 -7 0 -14l-6 -17l1 -18l2 -10q1 -4 1.5 -7t-0.5 -7l-6 -31l11 -9q1 -1 -15 -8l-10 -4l-13 -9l-25 -12l-14 -11q-4 -3 -12 -7
l-8 -3q-4 -2 -12 -4l-7 -2l-9 -11q-4 -5 -12 -9l-42 -16l-5 -4q-8 -6 -16 0l-14 10l-16 11l-23 17l-17 9l-14 1q-7 0 -13 5l-16 13l-17 6l-21 6l-18 3q-7 1 -13 6l-9 8l-18 8l-22 -3q-6 -1 -14 2l-14 5l-8 2q-9 2 -9 6q-1 4 2.5 5.5t6.5 3.5l2 1l1 24l-7 16q-2 4 -2 13v16
q0 8 4 13l5 8l-8 16q-2 4 -2 13v22q0 10 1 14l5 25l-5 19q-3 8 0 14l8 18l-6 14q-3 6 -3 13v24q0 8 1 12q-6 0 2 13l-4 25v65l1 23q0 8 3 14l6 12l3 17l-9 15q-4 8 -2 15l4 12q2 6 6 12l5 7q5 9 14 6l4 -1q6 -2 12 -5l18 -10l21 -7l29 -2l22 1l15 3q8 2 14 -3l4 -3
q6 -5 8 -13l1 -12v-30l-1 -17l4 -8q3 -8 2 -14l-1 -13l10 4q8 3 15 -4l13 -14l29 13l-1 12l-6 26q-1 6 2 14l1 3l-1 26q0 9 1 13l1 2l-5 25q-1 7 0 14l2 13l-20 7l-31 6l-5 -5q-6 -6 -14 -4l-12 1l-25 -4q-9 -2 -15 3l-9 7l-14 -6q-7 -3 -15 0l-10 4l-15 2q-9 2 -13 5
l-20 13l-12 1q-4 0 -6.5 0.5t-6.5 2.5l-10 5q-4 2 -6 3.5t-5 4.5l-8 8l-24 13l-13 4q-10 4 -11 11v1q-2 12 8 13l24 4l26 9l13 6q6 3 13 3h16l18 11l16 11l18 10q6 3 12 5l15 4l15 16l12 12q4 6 11 9l21 10l15 8l19 13q9 7 15 -1l7 -8l24 -24l14 -1q7 0 13 -5l13 -11l22 -12
l16 -13l18 -8l12 -7l15 -10l35 -6q4 -1 7 -1.5t6 -2.5l15 -9l-10 -2l3 -36l-1 -16l-3 -23l2 -24q1 -6 -2 -14l-2 -6l-3 -20l1 -31l5 -13q2 -3 2 -6t1 -7l1 -6q1 -5 0.5 -7.5t-1.5 -6.5l-5 -15l5 -24l3 -12q1 -5 1.5 -8t-1.5 -7l-9 -26l5 -17l14 -21l26 -7zM392 226v12v6.5
t1 6.5l3 16l-2 21q0 4 -0.5 7t0.5 7l5 21l-2 14l-18 5l-22 4q-5 1 -12 6l-10 7l-15 8q-6 3 -11 8l-11 11l-14 -12v-19l2 -27l2 -7q1 -9 -1 -15l-6 -16l8 -41l13 -3l25 -7q4 -2 6.5 -3t4.5 -5l9 -12l14 -4q6 -1 12 -6l14 -9l3 -2z" />
    <glyph glyph-name="c" unicode="c" 
d="M504 108q2 -8 -8 -11l-8 -2l-23 -10l-22 -17l-3 -4q-2 -3 -5 -4t-7 -3l-16 -6l-9 -6l-11 -6l-19 -8q-5 -2 -13 -4h-3l-22 -18l-8 -8q-7 -7 -16 0l-16 13l-21 14l-12 5q-7 3 -11 9l-11 16l-13 -1q-9 0 -14 5l-12 10l-19 6l-18 3q-9 2 -13 5l-14 10l-22 5l-25 4l-19 -1
l-14 1q-6 0 -14 4l-3 2q-7 5 -8 8.5t5 4.5l9 35v24l-5 18l-2 6t-1 7v4v6.5t1 6.5l5 36l-6 20q-3 9 1 15l3 6l-2 25q0 9 1 14l2 6l-3 24l-3 14q-2 8 -2 13v18q0 5 2 13l3 11l-1 20q0 8 1 13l4 15l-1 7q-1 3 -1 6.5v6.5l1 23l-3 6q-3 7 0 15l6 15l-4 32l-1 15q0 8 3 14l5 8
l-5 17q-2 8 1 15l5 10l-5 19q-2 8 -2 13l-1 12q0 8 1 13l3 17l-5 21l-5 13l24 13l14 11q4 3 12 7l4 2q5 2 13 4l19 4l10 12q5 6 14 5h2l31 21l9 5q7 5 14 5h13l9 11q6 9 15 4l3 -1q7 -3 11 -9l17 -21l14 -11l14 -5l6 -2t7 -3l15 -9l9 1q8 2 14 -4l10 -11l24 1q6 0 14 -2
l12 -2l7 1q4 1 13 1h11q7 0 13 -3l14 -7l21 -12q7 -5 9 -11q3 -7 -4 -14l-8 -8l-6 -19q-1 -4 -5 -12l-5 -9q-2 -4 -10 -10l-13 -10l-11 -6q-4 -3 -13 -5l-15 -3l-13 -4q-8 -2 -13 -2l-36 -4q-7 -1 -14 4l-11 8l-18 -2q-8 -2 -14 4l-13 12l-19 11l-27 3h-14l-3 -28l3 -19
l3 -25v-11q0 -5 -2 -13l-3 -11l2 -31l3 -10q1 -8 -3 -14l-5 -9l3 -31v-20l4 -19q1 -6 -2 -14l-3 -7l6 -18q3 -6 -2 -14l-4 -7l6 -15q3 -8 0 -15l-9 -17l2 -20l8 -17q3 -6 1 -14l-4 -15l2 -27l2 -21l22 -14l15 -5q4 -2 7 -3t5 -4l4 -4l31 -19l17 -6l14 1l-6 14q-3 9 1 15
l10 18q5 7 11 9l16 8q6 3 14 3h11l8 7q3 3 6 3.5t7 1.5l19 3l14 4q8 3 13 3l12 1q10 0 13 -7l10 -16q2 -3 2.5 -6t2.5 -6l3 -7q3 -6 2 -14l-2 -16l2 -5q2 -5 1.5 -8t-1.5 -7l-6 -18l-3 -16l2 -18l2 -28v-2q2 -4 3 -7z" />
    <glyph glyph-name="d" unicode="d" horiz-adv-x="611" 
d="M574 788q6 -3 7.5 -7t-3.5 -6l-5 -2l-9 -21l9 -18q3 -8 1 -15l-10 -23l3 -13q2 -8 2 -14v-4q0 -10 -1 -14l-3 -12l-1 -27l6 -19q1 -4 1.5 -7t-1.5 -8l-3 -8l3 -12q2 -8 2 -13v-18l2 -26v-41q0 -5 -2 -13l-2 -11l-6 -30l4 -4q5 -4 7 -13l1 -11q1 -6 -2 -14l-10 -19l6 -14
q2 -3 2 -6.5t1 -6.5l2 -10l2 -35v-11q0 -6 -4 -14l-6 -11l2 -24l6 -20l1.5 -6t-0.5 -7l-1 -10q-1 -5 -2 -7.5t-3 -5.5l-6 -11l9 -21q6 -11 3 -11q2 -9 -6 -14l-20 -15l-4 -4q-2 -3 -4 -4.5t-6 -3.5l-25 -13q-4 -2 -6.5 -2.5t-6.5 -1.5l-25 -4l-18 -8l-14 -10q-6 -4 -11 -7
l-8 -3l-10 -12q-2 -3 -4.5 -4.5t-6.5 -3.5l-11 -6q-7 -4 -15 1l-13 10q-3 2 -5.5 4t-4.5 5l-7 8l-19 9l-39 23l-13 4q-6 2 -12 6l-18 13l-43 8l-10 3q-4 2 -6 2.5t-6 2.5l-16 9l-17 1l-12 -2q-10 -2 -15 0l-15 6q-1 0 -1 0.5t-1 0.5q-4 2 -2 6t7 6l6 1l-1 25l3 28l-2 21
l1 20v31l-3 4q-4 5 -4 14l2 27l-2 3q-4 7 -1 15l9 20l-9 20q-4 9 0 15l6 10l-4 22l-3 19q-1 4 -0.5 6.5t1.5 6.5l2 10l1 18l-4 18q-1 5 -0.5 7.5t1.5 6.5l4 16l-1 25v45l3 24l-4 6q-5 9 -4 14l2 11l3 16q1 6 6 13l6 7q5 6 15 3l9 -3l24 -12l24 -4l15 -3l24 -4h13q9 0 14 -4
l9 -6q8 -6 9 -13l2 -13l2 -10q1 -7 0 -14l-4 -19l-2 -23l8 -12q5 -6 3 -14l-4 -24l2 -2q4 -5 2 -15l-3 -18q-1 -3 -1 -6t-1 -7l-4 -13l5 -20q1 -5 0.5 -7.5t-1.5 -6.5l-2 -9l-2 -21l-1 -28l2 -12l1 -20v-13l-1 -17l8 -21l22 -18l13 -3q6 -1 12 -7l11 -9l15 -14l23 -10l10 7
l10 23l-1 25l-2 6q-1 4 -1.5 6.5t-0.5 6.5v18l-4 17q-1 7 0 14l6 19l-2 18q0 10 1 14l1 11l-3 8q-3 8 -1 15l6 18l-5 19q-1 4 -1 13v8q0 9 1 13l5 22l-3 11q-1 6 2 14l3 8l1 28l-5 20q-1 8 1 14l3 9l-3 12q-1 8 1 14l4 12l-5 17q-1 4 -2 6.5t0 7.5l2 13l-16 18l-15 -7
q-8 -4 -14 -4l-18 -2l-9 -6q-5 -4 -13 -4h-22l-37 3q-5 0 -13 2l-11 4l-21 1l-13 -2q-4 -1 -6.5 -0.5t-6.5 0.5l-10 1q-8 1 -13 5l-12 8h-9q-4 0 -6.5 0.5t-6.5 3.5l-14 11l-25 7l-18 -2q-8 -2 -14 3l-7 4q-7 5 -10 7l-10 9q-7 7 -7 13v2q0 12 10 12l31 2l10 7q3 2 5 4t6 4
l6 3q7 4 13 4l20 2l17 8l15 10l23 15q5 4 14 4h13l10 15q5 6 13 8l9 1l24 23l9 8l18 12q8 6 16 0l19 -16l10 -3q6 -1 13 -5l15 -8q4 -2 6 -4.5t4 -5.5l9 -13l18 -8l28 -11l13 -3l20 -2q9 -2 13 -5l21 -13l20 -6l13 5q7 3 14 0l15 -6z" />
    <glyph glyph-name="e" unicode="e" 
d="M508 115q7 -4 -2 -13l-7 -6q-4 -4 -12 -8l-21 -7l-9 -4q-3 -2 -5.5 -2.5t-6.5 -2.5l-10 -3l-22 -17q-6 -5 -14 -5l-10 1l-10 -8q-3 -2 -5 -3.5t-6 -3.5l-13 -7l-25 -12l-14 -9q-10 -5 -15 3l-10 12l-16 3q-9 2 -13 7l-7 12l-19 14l-17 2q-9 2 -13 5l-12 9l-12 6l-13 4
q-3 1 -6 2.5t-6 3.5l-18 9l-15 -2q-6 -1 -14 2l-21 10l-21 6l-9 -3q-7 -3 -15 0l-2 1q-6 2 -7 6.5t4 8.5l6 4l-2 34l1 23l-4 8q-3 8 0 15l5 10l-7 26q-2 8 1 15l5 12l-1 25v12l-6 24q-2 8 -2 13q0 2 2 12l8 27l-1 2q-3 8 -2 15l4 14l-4 16q-2 10 -1 15l7 23l-6 7q-4 8 -2 15
l8 18l-3 28l-4 7q-4 6 -3 15l3 12l-1 18q0 4 -0.5 7t0.5 6l3 19l-4 20q-1 5 0 8t3 6l6 12l-3 9q-3 8 -2 14l2 14l-2 26q0 7 3 13l4 10l-6 17l-3 13v1l-2 1q-7 10 4 15l18 9l21 11l20 9l13 7q8 4 14 3l13 -2l8 11q2 3 3.5 5t4.5 5l5 4q4 4 11 8l18 10l21 10l15 6q8 4 15 -4
l7 -12l16 -14l16 -5q7 -1 12 -5l6 -4l31 -17l9 -1q8 -1 13 -5l16 -11l15 5q7 1 14 0q1 0 9 -2l23 -7l19 -5l14 1q8 2 14 -2l11 -5q11 -6 4 -16l-3 -3l-2 -20q-1 -8 -5 -13l-10 -11l-10 -15l-11 -14q-3 -6 -12 -9l-20 -6l-8 -5q-4 -3 -14 -3l-22 1l-33 -1q-6 0 -14 2l-7 3
l-28 -1l-18 2q-10 2 -13 6l-5 7l-30 10l-12 -2l1 -21q0 -8 -1 -13l-3 -11l8 -24q3 -7 -2 -15l-7 -12l-1 -20l7 -15q2 -6 1 -15l-3 -15l3 -29l23 -9l8 15q4 8 13 8h5l15 13q6 6 15 3l9 -3q9 -3 12 -9l11 -15l15 -3q9 -2 13 -5l15 -10l29 -13l6 -3q4 -2 12 -8l12 -10
q7 -6 4 -15l-3 -6q-2 -5 -10 -10l-19 -10l-6 -8q-4 -5 -9 -9l-18 -14q-6 -4 -12 -6l-7 -3l-22 -5l-13 -11q-8 -6 -13 -7l-24 -3q-4 -1 -13 -1l-12 1q-7 0 -14 5l-10 9l-9 -14l-10 -20l5 -16q1 -4 1.5 -6.5t0.5 -6.5l1 -19v-10q0 -9 -1 -13l-5 -23l26 -11q5 -2 11 -7l9 -6
l14 -4q4 -2 7 -2.5t6 -2.5l11 -6q7 -3 10 -11l2 -6l19 2l2 26q0 9 2 13l7 17q2 6 11 10l21 7l11 3q8 2 13 2l24 1l12 6q8 3 15 0l13 -5l14 2q8 2 14 -3l11 -6q8 -5 8 -13l1 -20l-1 -15l-2 -24l-4 -23l-1 -11l5 -20q1 -8 -1 -14l-7 -15l5 -3z" />
    <glyph glyph-name="f" unicode="f" horiz-adv-x="524" 
d="M327 687q-9 -2 -15 3l-16 12l-31 4h-1q-5 1 -13 7l-13 11l-28 -4l10 -26q2 -6 1 -14l-4 -15l2 -14l2 -22l-2 -32l1 -18l-2 -24l-5 -30l24 -4l8 11q2 4 5 5t7 3l5 2l16 17q6 8 15 2l17 -9q4 -2 6 -4l4 -4l15 -15l16 -2q8 -2 12 -8l11 -18l20 -8h10q6 0 13 -5l14 -10
q8 -7 3 -15l-11 -16l-8 -9q-5 -6 -13 -8l-19 -4l-15 -15q-4 -4 -12 -7l-13 -5l-9 -6q-6 -6 -12 -7l-21 -4l-18 -8q-9 -3 -15 -1l-22 8l-15 5l-18 -10l2 -14q1 -5 0.5 -7l-1.5 -6l-5 -14l3 -12l1.5 -7.5t-1.5 -6.5l-6 -15l4 -25q1 -6 -2 -14l-2 -5l6 -15q2 -5 0 -15l-4 -16
l-2 -26l22 -12q8 -4 11 -7l12 -10l17 -8l13 -4q8 -3 12 -7l10 -9l12 -8q10 -7 1 -16l-3 -3q-3 -3 -6 -4t-6 -3l-20 -8l-5 -9q-4 -6 -11 -9l-19 -7l-17 -11q-4 -3 -12 -7l-13 -4l-7 -11q-2 -3 -4 -5l-5 -5l-11 -10q-7 -7 -15 0l-23 16l-18 11l-20 15l-8 4q-6 3 -11 8l-9 8
l-20 11l-13 5q-8 3 -8 8q0 4 3.5 4.5t7.5 1.5h1l-9 26q-2 5 -1 8t3 7l6 13l-3 18q-1 3 -1 6.5v6.5v7q0 5 2 13l6 20l-7 13q-4 7 1 15l2 3l-1 19v13l1 21l3 19l-7 17q-2 6 -1 14l3 13l5 22l-3 9q-1 4 -2 6.5t-1 6.5l-1 11q0 10 2 14l6 16l-6 17q-3 6 -3 14v5q0 5 2 13l3 20
l5 22l-6 19q-1 4 -1.5 6.5t0.5 7.5l4 13v3v7t1 7l3 17l-4 13q-1 4 -1.5 6.5t-0.5 6.5l-1 13q0 9 1 14l5 21l-6 9q-5 8 -1 16l9 16l-5 10q-2 3 -2 6t-1 7l-3 28q-5 7 -2 14q1 1 2 1q2 2 5 3l19 10l5 3q4 3 14 3h13l12 10q3 3 5 4.5t6 3.5l6 3l11 6l22 10l20 11l11 8
q4 3 6.5 3.5t6.5 0.5h12l13 13q7 7 15 2l2 -1q7 -3 10 -10l11 -18l17 -2q7 -1 13 -5l18 -9l10 -6q4 -2 6.5 -3.5t4.5 -4.5l9 -10l13 3q9 2 14 -2l20 -12l15 -3l19 5q8 2 14 -1l5 -2l22 -8h19q11 0 11 -11v-9q0 -9 -5 -14l-7 -7l-2 -18q0 -7 -6 -13l-13 -12l-14 -15l-13 -10
q-6 -5 -14 -3l-20 3l-9 -11q-6 -6 -14 -5l-38 8z" />
    <glyph glyph-name="g" unicode="g" horiz-adv-x="547" 
d="M509 111q8 -4 -2 -14l-10 -9q-3 -2 -5.5 -4t-6.5 -3l-14 -3q-4 -1 -13 -1l-13 1l-10 -14q-3 -6 -10 -9l-3 -1q-6 -3 -13 -3l-18 -1l-10 -15q-5 -7 -11 -9l-22 -8l-3 -2q-6 -3 -12 -5l-12 -3q-8 -3 -14 0l-11 4q-3 2 -6 3t-6 3l-11 7l-6 4t-5 5l-10 13l-10 3q-3 2 -6 3
t-6 4l-10 9l-19 10l-23 -3q-7 -1 -14 4l-7 4l-22 17l-27 6l-11 -4q-8 -3 -15 4l-3 3l-25 3q-7 0 -13 3q-10 5 -4 15l2 2v23l-1 30l3 20l5 23l-8 17q-3 8 0 15l8 17l-3 14q-1 8 0 14l1 5l-7 23q-2 8 2 15l7 11l-8 17q-2 4 -2 14l1 11q0 5 2 13l4 15l4 25l-6 15q-3 8 0 15
l6 13l-5 17q-1 4 -1.5 6.5t1.5 7.5l5 15l-2 15q-1 6 2 14l1 3l-6 26l-4 23q-1 7 0 13l1 8q1 6 5 13l6 10l-5 17q-2 4 -2 14v11l-2 15q-1 7 2 15l8 16l-3 33q-6 -2 -9 1t-1 6.5t4 6.5l8 10q4 5 13 7l12 2l12 6q8 4 13 5l22 2l9 12q5 7 12 8l16 3l5 7q3 6 10 9l13 7l12 10
q4 3 13 5l8 2q9 3 15 -2l20 -14l18 -9l12 -4q4 -1 6.5 -3t5.5 -4l11 -10l10 -13l30 -9h7q8 0 14 -3l21 -8l23 -3l29 4q6 1 14 -2l19 -9l17 -6q8 -3 8 -12v-9q0 -5 -1 -7.5t-3 -6.5l-3 -6q-2 -4 -4.5 -6t-5.5 -4l-8 -6l-7 -12q-3 -6 -8 -11l-13 -12q-3 -2 -5.5 -4t-6.5 -3
l-8 -2l-14 -8q-4 -2 -6.5 -2.5t-6.5 -1.5l-6 -1q-4 -1 -14 -1l-37 1h-23q-9 0 -14 4l-6 4l-26 3q-4 1 -7 1.5t-6 2.5l-14 9l-14 8l-14 4l-4 -25l2 -22q0 -4 0.5 -7t-1.5 -7l-5 -14l2 -14l3 -25l3 -20q1 -4 1.5 -7t-0.5 -7l-2 -11v-16q0 -4 -0.5 -7t-1.5 -7l-2 -7l1 -26
l2 -19q1 -6 -2 -14l-4 -9l8 -11q5 -6 3 -14l-3 -23v-6q0 -9 -1 -13l-6 -21l2 -20q0 -4 -0.5 -7t-1.5 -7l-1 -4l3 -29l5 -19q2 -8 2 -13v-20l18 -4q4 -1 7 -1.5t6 -2.5l3 -2l21 -15q3 -2 5.5 -4t4.5 -5l7 -9l19 -5l21 3l-4 15q-1 6 2 14l3 7l-1 20l-5 28l-2 9q-1 7 0 14l5 24
l3 10l-28 24l-23 -1l-9 -1q-8 -1 -14 5l-17 20q-5 7 -5 13l-1 9q0 7 5 14l11 14l-4 8q-3 8 0 15l8 16l3 13q2 8 10 11l23 8q4 2 13 2l22 -1l11 4q4 2 13 2l11 -1q4 -1 7 -1t6 -2l7 -4l32 6l5 1q5 1 14 1l25 -2l23 2h13q9 0 13 -7l14 -30q3 -7 0 -15l-10 -21v-18q0 -9 -1 -13
l-9 -37l-1 -12l3 -17q1 -8 -1 -14l-8 -21l5 -13q3 -6 3 -14l-1 -15l-2 -20l6 -17q2 -4 1.5 -6.5l-1.5 -7.5l-2 -11l1 -20q0 -4 0.5 -7t-0.5 -7l-3 -13l1 -23v-18z" />
    <glyph glyph-name="h" unicode="h" horiz-adv-x="743" 
d="M703 107q4 -5 3 -9t-7 -6l-6 -1l-9 -11q-4 -5 -10 -9l-24 -12l-16 -9l-8 -7q-3 -3 -5.5 -4t-5.5 -3l-24 -11l-7 -7q-6 -6 -10 -8l-16 -10q-8 -5 -16 0l-8 6l-13 10q-5 4 -9 9l-12 15l-24 5q-5 1 -12 5l-6 3q-7 5 -11 8l-10 9l-23 13l-16 -3l-30 -16l-6 -5q-5 -5 -11 -8
l-18 -8l-16 -16q-2 -3 -4.5 -4.5t-5.5 -3.5l-2 -1q-4 -3 -12 -7l-17 -6q-8 -3 -15 2l-12 8l-16 5q-4 2 -6 2.5t-6 2.5l-10 6q-3 2 -5 3.5t-5 4.5l-9 9l-21 12q-3 2 -5.5 3.5t-4.5 4.5l-6 7l-15 10q-1 3 -1 5q0 4 2 3l3 31l-5 19q-1 4 -1.5 6.5t0.5 7.5l3 18l-1 6
q-1 3 -1 6.5v6.5v25l-1 14v21l-1 20q0 9 2 14l5 8l-4 22q-1 8 1 14l7 21v16l-6 11q-3 8 -3 14l1 18q0 9 1 13l2 7l-3 19l-2 28q0 5 1 8t3 6l1 3l4 31l-3 7q-2 3 -2 6t-1 6l-3 11q-1 4 -1 14v23l-1 9q-1 8 1 14l8 21l-2 23l-5 18q-2 8 -2 14l1 8q0 7 3 13l4 10l-20 14
q-3 2 -5.5 4t-4.5 5l-6 8l-18 14l-18 3q-4 1 -6.5 1.5t-6.5 2.5l-27 15q-12 7 -2 15l8 7q3 3 6 4.5t6 3.5l26 9l19 10l16 8l13 7l20 17q4 3 12 7l16 8l9 13q7 8 15 3l16 -9q7 -4 11 -10l9 -14l16 -6q8 -3 12 -7l10 -10l19 -14l24 -13l25 -6l15 8l18 9l25 15l14 13q6 6 10 9
l14 9l23 11l7 8q9 9 16 1l15 -16l22 -16l17 -7q5 -2 11 -7l12 -9l10 -2q3 -1 6.5 -1.5t6.5 -2.5l16 -8q6 -3 11 -8l7 -7q10 -8 -2 -15l-12 -7l3 -15q1 -4 1 -13v-13q0 -6 -4 -14l-5 -9l6 -12q3 -8 1 -15l-6 -15l4 -22l1 -20q0 -4 0.5 -6.5t-0.5 -6.5l-4 -22l4 -11
q3 -6 3 -13l1 -16v-37q0 -9 -1 -13l-2 -10l-10 -28l5 -7q4 -7 4 -13l1 -17q0 -10 -2 -14l-6 -12l7 -17q2 -4 2 -14v-2q0 -5 -2 -13l-6 -19l-1 -13v-25l1 -23l2 -25l-1 -14l-2 -23l6 -25l3 -21l18 -28l3 1q8 2 14 -5l12 -11l17 -4q5 -1 12 -6l7 -5q3 -2 5.5 -4t4.5 -5z
M401 750l-12 6q-4 2 -6 4l-4 4l-3 3l-19 9h-17q-9 0 -14 6l-7 9l-5 -29l-2 -23l-1 -9l-2 -24l6 -15q2 -5 2.5 -7t-1.5 -7l-5 -14l-3 -22l1 -20l1 -21l5 -21l2 -17q1 -7 0 -14l-2 -14l18 -31l15 3q4 1 13 1l17 -1l32 8l23 20l-3 21l-5 13q-2 6 -1 14l2 13l5 17l-2 20
q-1 3 -1 6.5v6.5l1 12l-3 15q-2 8 -2 13l-1 12v6.5t1 6.5l2 17zM335 158l12 -7l17 -5q9 -3 12 -9l7 -13l18 -9l19 15l5 22v17l-1 20q0 4 0.5 6.5t1.5 6.5l3 10l4 26l-7 16q-3 8 -2 14l3 14l5 26l-6 10q-4 6 -3 14l1 10l-14 30l-25 4l-23 -5q-7 -1 -14 0l-15 4l-26 -25l3 -28
l2 -2q5 -7 5 -14l1 -13q0 -5 -1 -8t-3 -6l-4 -7l1 -24q0 -9 -1 -13l-2 -10l5 -13q2 -4 2 -13l2 -19z" />
    <glyph glyph-name="i" unicode="i" horiz-adv-x="458" 
d="M419 105q9 -7 2 -16l-1 -2q-4 -7 -13 -7l-24 -1l-5 -7q-3 -6 -10 -9l-24 -11l-13 -11q-5 -5 -13 -7l-12 -2l-7 -15q-2 -7 -10 -10l-13 -6q-5 -2 -8 -1t-7 3l-15 11l-18 15l-20 11q-3 2 -5.5 4t-4.5 5l-1 2l-24 10l-14 4q-5 1 -13 7l-12 11q0 3 1 6q2 5 7 5h3v35l-4 21
l-1 16l-1 13q0 8 1 13l7 23l-7 12q-3 6 -3 13l-1 16q0 8 3 14l8 15l1 24v17l-9 20q-3 6 -3 14v5q0 9 5 14l7 7l-3 34l-3 15l-3 20v25l-1 17q0 3 -0.5 6.5t-0.5 6.5l1 8l4 35l-2 12l-3 16q-1 8 3 14l7 12l-9 18q-3 8 -1 15l5 14l5 22v20l-8 27l-17 25l-22 7l-12 3q-7 1 -12 8
l-9 14l-14 2q-7 0 -13 3t-6.5 7.5t5.5 7.5l14 8l7 6q5 5 11 8l20 10l8 12q5 7 11 9l25 8l8 11q2 4 5 5t7 3l11 4l19 16q9 7 16 -2l29 -33l14 -4q4 -1 12 -5l18 -10l13 -4q3 -2 5.5 -3t6.5 -3l16 -9q4 -2 6 -4l4 -4l6 -5q8 -6 3 -15l-8 -3l-7 -2l-9 -28l5 -9q3 -8 2 -15
l-6 -23l1 -15l3 -13q1 -4 0.5 -7t-1.5 -7l-4 -21l6 -8q4 -5 4 -14l-1 -18q0 -5 -1 -7l-3 -6l-8 -15l6 -7q6 -6 6 -14l-1 -19l1 -14q0 -4 -0.5 -7t-1.5 -7l-3 -10l2 -12q1 -6 0 -13l-4 -22l5 -21q1 -4 1 -13v-6q0 -5 -1 -7.5t-3 -6.5l-7 -13v-19l6 -22q2 -8 2 -13q0 -4 -1 -8
l-6 -26l2 -13l2 -31l4 -7q3 -8 2 -15l-3 -14l-8 -27l1 -29l31 -16h9q8 0 13 -8l8 -13l12 -4q3 -2 6 -3t6 -3l14 -10z" />
    <glyph glyph-name="j" unicode="j" horiz-adv-x="531" 
d="M496 814q4 -4 3.5 -7t-5.5 -3l-8 -16l-6 -20v-18l-2 -26l5 -15q2 -4 1.5 -6.5l-1.5 -7.5l-5 -21v-17l5 -11q2 -7 0 -14l-8 -21l8 -16q3 -8 1 -15l-6 -17l-1 -14l1 -28l1 -17l5 -21q1 -4 1.5 -7t-0.5 -7l-1 -8l-7 -34l6 -22l1 -5l1.5 -6t-0.5 -7l-5 -27l-6 -20l6 -10
q2 -5 4 -13l1 -3q1 -7 0 -14l-1 -12q0 -7 -3 -13l-5 -13l8 -25q3 -6 -2 -14l-3 -4l-6 -29v-27l4 -8q2 -3 3 -5.5t1 -7.5l1 -18l1 -8v-2q1 -8 -5 -14l-8 -6q-6 -4 -12 -6l-17 -6l-10 -12q-4 -6 -11 -9l-33 -15l-10 -6q-3 -2 -6 -2.5t-7 -1.5l-19 -2l-5 -7q-6 -8 -11 -9
l-21 -5l-8 -10q-7 -9 -16 -2l-13 10l-16 7q-8 5 -10 10l-7 16l-8 1q-9 0 -14 4l-19 14l-14 5l-19 2q-9 2 -13 5l-13 9l-8 -2q-4 -1 -7 -1.5t-7 0.5l-17 5l-30 3l-3 -1q-7 -3 -15 0l-18 8q-11 5 -4 15l7 9l5 24l4 10q1 7 6 13l7 8q4 4 12 7l7 3l29 9l4 4q5 7 13 7l17 1l33 10
q8 3 15 -2l15 -11l25 6q8 3 15 -4l13 -13l11 -7l21 -6l23 4v42l-3 10q-1 4 -1.5 6.5t0.5 7.5l6 28l-4 8q-2 5 -4 13l-2 14q-1 4 -0.5 7t0.5 7l1 15l-1 4q-1 6 2 14l9 17l-8 14q-3 6 -3 14l1 12l-1 30v9q0 6 2 14l7 20l-1 17v13l1 12l2 25l-7 14q-3 8 -1 15l5 16l-2 14
q-1 4 -0.5 7t1.5 7l2 11l1 24l-7 22l-1 3q-1 4 -2 6.5t-1 6.5l-2 32l-7 13l-15 3q-7 1 -12 5l-15 11l-23 8l-13 5q-4 2 -7 3t-5 5l-3 4q-7 11 6 14l13 3l9 15q4 7 13 7h16l16 10l20 16q4 3 12 7l8 3l22 13l8 15q5 10 15 3l15 -9l25 -8q8 -3 12 -7l11 -12l16 -16l21 -12
l21 -7q6 -1 12 -7z" />
    <glyph glyph-name="k" unicode="k" horiz-adv-x="781" 
d="M740 112q11 -5 4 -15l-6 -9q-4 -7 -14 -7h-18l-20 -12l-19 -16l-8 -11q-5 -7 -12 -8l-18 -4l-12 -12l-22 -20q-8 -6 -16 0l-13 12q-6 6 -9 10l-9 13h-16q-7 0 -14 5l-12 8l-11 9l-27 14l-16 10q-5 2 -7 7q-2 4 1.5 5t6.5 3l15 7l2 26l-7 18q-2 4 -2 14v9l2 20q0 7 3 13
l2 5l4 20l-8 15q-3 8 0 15l7 13l-1 27l-5 12q-3 8 -2 14l3 12l-24 43l-10 5q-4 2 -6 4l-4 4l-14 14l-67 32l-23 -20l-9 -23l2 -22v-14q0 -9 -1 -13l-3 -12l4 -9q2 -4 2 -14v-14l-3 -26l4 -11q4 -8 4 -13l1 -9q0 -8 -3 -14l-7 -19l9 -25l20 -23l14 -1q7 0 12 -8l4 -6l19 -14
l11 -4q4 -2 6.5 -3t4.5 -4l8 -9q8 -10 -4 -15l-5 -1l-25 -15l-8 -9q-4 -5 -13 -7l-10 -1l-16 -17l-17 -15l-22 -13l-15 -12q-7 -5 -15 -2l-22 7q-6 2 -12 6l-7 4q-3 2 -5.5 4t-4.5 5l-7 7l-19 22l-22 7l-7 4q-8 4 -12 7l-10 7q-9 8 -2 16h3q3 0 6 1h1l-4 27l-4 11
q-2 6 -1 15l5 19l4 26l-3 22l-2 22l-3 18q-1 7 0 14l4 17l3 14l-4 30l-3 5q-4 6 -1 15l8 24v61l-5 21q-1 8 0 14l2 7l-1 25l-4 8q-3 7 -2 14l2 20l2 29l-2 20l-1 17q0 8 3 14l7 14l-8 14q-3 6 -2 14l4 17l-3 24v21l-15 14l-16 5q-8 2 -12 7l-11 13l-12 11l-15 4q-8 2 -12 4
l-3 1q-11 5 -3 15q3 4 11 9l22 12l14 9q6 5 11 7l19 8l18 12l4 4q6 5 11 7l18 9l16 12q7 6 15 4l13 -3q8 -1 11 -10l4 -12l28 -18l23 -6l13 -4l20 -10q6 -3 11 -8l7 -7q9 -7 2 -15q-1 -2 -8 -5l-12 -5l6 -32l1 -5q1 -7 0 -14l-3 -17l2 -23l-2 -33l-2 -13l6 -22q1 -4 1.5 -7
t-0.5 -7l-1 -7l-8 -28l1 -12q0 -3 0.5 -6.5t0.5 -6.5l-2 -27l4 -10l24 -22l7 11q5 6 12 9l18 5l11 7l14 19q5 7 12 8h1l13 18q4 5 9 9l11 9l8 23v25l4 39l-3 9q-2 4 -2.5 6t0.5 7l3 20l-20 20l-20 14q-3 2 -5 4t-4 6l-1 3l-42 8q-8 2 -13 4t-5 6.5t5 8.5l12 10q5 5 12 6
l10 3l20 12l10 8q3 3 5 4.5t6 3.5l20 12l19 15l5 7q2 4 4.5 5.5t5.5 3.5l15 9q8 5 15 -2l19 -18l12 -3q7 -1 12 -5l8 -6l18 -15l29 -10l17 -5q8 -2 12 -7l9 -9q6 -8 2 -15q-1 -1 -2 -1q-3 -2 -6 -3l-10 -4l-8 -28l4 -24l2 -9q1 -4 1 -13v-13q0 -8 -3 -14l-5 -12l-3 -46l1 -8
q1 -4 1.5 -6.5t-0.5 -6.5l-2 -15l-2 -13q-1 -6 -6 -13l-16 -22l-1 -17q0 -5 -2 -7.5t-4 -5.5l-11 -13l5 -25l9 -9l20 -13q7 -5 10 -11l5 -11l14 -12q6 -6 6 -13v-16q0 -10 -8 -13l-2 -1v-26l4 -17q1 -8 -1 -14l-6 -17l-2 -15l9 -22q3 -8 2 -14l-1 -6l-2 -26q0 -5 -2 -13
l-2 -10l2 -21l18 -24l15 -4q8 -3 13 -7l16 -13l14 -14l15 -5z" />
    <glyph glyph-name="l" unicode="l" horiz-adv-x="633" 
d="M605 110q7 -5 -4 -13l-11 -7q-4 -3 -13 -5l-13 -1l-23 -14l-14 -7l-24 -8l-19 -8l-14 -16q-2 -2 -4 -4.5t-5 -4.5l-3 -2q-4 -3 -13 -5l-17 -4l-13 -6q-8 -5 -15 2l-10 9l-15 3q-6 1 -12 9l-7 11l-28 10l-21 7l-14 4q-3 2 -6 3t-6 4l-6 5l-17 16l-18 4q-3 1 -6.5 1.5
t-6.5 2.5l-16 7l-14 -3q-4 -1 -7 -1.5t-7 1.5l-9 2q-5 1 -12 6l-10 8l-10 -1q-8 -1 -9.5 3.5t5.5 9.5l3 2l-6 24l-2 16q-1 4 -0.5 6.5t0.5 6.5l3 23l-1 17v15l1 21l1 25l-2 35q0 9 1 13l3 18l3 20l-2 22q0 4 -0.5 6.5t0.5 6.5l2 14l-5 12q-2 4 -2 14l1 23l-2 10q-2 9 3 15
l9 13l-5 26l-2 8q-1 5 -0.5 7.5t1.5 6.5l4 16v17l-8 19q-2 4 -2 14v10q0 7 3 13l3 9l2 23l2 21l3 33l-21 12q-8 6 -10 10l-7 12l-11 2q-9 2 -13 6l-13 10h-10q-7 0 -14 4l-9 5q-14 8 1 14l12 5l23 14l7 7q5 7 11 9l17 6l12 7l22 21q3 3 5 4l6 3l10 6l11 7q8 5 16 0l16 -10
l17 -4q7 -1 13 -6l8 -8l27 -23l13 -5l23 -13l14 -5q9 -4 6 -14l-1 -2q-2 -5 -3 -7t-6 -4l-5 -3l-6 -22l4 -20q2 -8 2 -14v-10l-1 -23l-1 -24l-3 -24l6 -15q3 -9 -1 -15l-8 -15l3 -10q1 -4 1.5 -6.5t-0.5 -7.5l-3 -14l4 -17q2 -8 2 -14l-1 -16v-27l2 -4q3 -7 0 -15l-6 -12
l1 -33l5 -9q4 -6 1 -15l-7 -22l-2 -21l4 -19l2 -16q0 -10 -1 -14l-2 -18l5 -8q4 -6 2 -15l-5 -20l21 -16l11 1q8 0 14 -5l13 -9l15 -7q5 -2 11 -7l18 -12l16 8l-4 13q-2 6 -1 14l2 10l-5 22q-2 8 4 14l3 4l2 34l-7 10q-4 5 -2 14l1 8v33l2 22l-2 11q-2 8 3 14l20 22
q2 3 4.5 5t5.5 4q5 3 12 4l25 4l12 3q5 1 13 1l15 -1l10 6q5 4 14 4l10 -1q7 0 13 -6l8 -8q6 -6 6 -13l1 -23l6 -12q3 -7 0 -15l-3 -7l5 -25q1 -7 0 -14l-3 -13l3 -12q1 -5 1 -14l-1 -14l-4 -24l2 -27l1 -7q1 -6 -2 -14l-8 -15l-1 -33l5 -22l2 -16l1 -33v2z" />
    <glyph glyph-name="m" unicode="m" horiz-adv-x="1030" 
d="M994 108q8 -8 -1 -15l-29 -21l-17 -12l-19 -11q-5 -4 -13 -4l-14 -1l-10 -16q-6 -8 -12 -9l-16 -3l-15 -13q-6 -6 -15 -2l-15 7q-3 2 -6 3.5t-5 5.5l-1 2l-19 16l-25 16q-3 2 -5.5 4t-4.5 6l-3 3l-15 2q-6 0 -13 4l-22 11l-9 -4q-5 -2 -13 -4l-21 -4l-15 -12l-15 -15
q-4 -5 -11 -8l-18 -6l-7 -7q-2 -3 -4.5 -5t-5.5 -4l-18 -12q-7 -6 -15 -1l-9 5q-6 4 -10 9l-12 14l-25 16h-9q-8 0 -14 3l-10 6q-3 2 -5.5 4t-4.5 5l-13 16l-17 10l-21 -6l-25 -9l-11 -13q-4 -6 -10 -10l-10 -6l-21 -11l-3 -6q-2 -4 -10 -10l-9 -7q-4 -3 -13 -5h-4
q-8 -2 -14 3l-19 11l-38 20l-17 5q-10 3 -12 9l-4 8l-24 9q-3 2 -6 3t-6 3q-6 5 -8 9.5t2 3.5l7 11l6 33l-5 5q-3 4 -3.5 6.5t-0.5 7.5l1 10v6.5t1 6.5l3 12l-3 16q-1 3 -1 6.5v6.5v25l1 15l-2 13q-1 7 0 14l4 19l-3 12q-2 8 -2 13l1 25l1 16l-2 12q-1 4 -0.5 7t1.5 7l5 23
v18v6.5t1 6.5l2 11l-1 26l-2 8q-1 7 0 13l2 19l-1 17l-5 16q-2 8 -2 13l-1 10q0 6 2 14l5 15l-5 14q-2 7 1 15l6 13l-5 16q-1 4 -2 6.5t-1 6.5l-1 11q0 9 1 13l4 29l-26 11l-12 4q-6 2 -11 9l-2 3l-29 17l-8 2q-7 2 -13 7l-5 4q-9 9 2 16l17 10l4 3q4 4 13 6l21 5l29 26
q3 2 5.5 4t6.5 3l15 5l17 16q3 3 5 4.5t5 3.5l9 6q8 5 15 1l9 -5q8 -5 11 -9l9 -9l17 -21l48 5l7 8q3 4 11 9l21 11l20 12q7 4 15 -2l16 -13l11 -5q9 -4 11 -9l7 -13l26 -10h3q7 0 13 -3l17 -7l49 -10l3 4q3 4 11 8l22 9l12 12q6 6 13 6l12 1l15 17q4 5 13 7l17 4q9 2 15 -3
l6 -3l20 -16l25 -18l14 -2q4 -1 6.5 -1.5t6.5 -2.5l6 -3q4 -2 6 -3.5t5 -4.5l12 -10l26 -12l25 -9l13 -3h21q10 0 14 -2l20 -9l11 -3q11 -3 7 -14q0 -1 -8 -4l-9 -3l2 -21l3 -17q1 -8 -1 -14l-5 -9l5 -22q1 -7 0 -14l-2 -9l4 -22q1 -8 -1 -14l-7 -15l4 -24l5 -14q3 -6 3 -14
q0 -2 -3 -10l-9 -16l10 -25q3 -6 3 -14l-1 -10l-5 -22l4 -17q2 -8 -3 -14l-7 -9l3 -18q1 -3 1 -6.5v-6.5v-19l-4 -41l4 -20q1 -8 -1 -14l-2 -5l1 -19l2 -22q0 -4 0.5 -7t-0.5 -7l-4 -18l6 -5q7 -7 4 -15l-6 -21l17 -16l19 -7q3 -2 5.5 -3t5.5 -4l7 -6l22 -16l10 -2
q5 -1 13 -7zM627 160l12 -4q8 -3 11 -11l3 -7l22 -13l16 -3l27 11l-5 14l-3 15q-1 8 0 14l7 23v12l2 23l-1 27l-4 13q-1 5 -1 14l2 12v48l-1 13q0 10 1 14l4 20l-1 18v26l-3 5q-6 8 -3 15l7 23l-6 20l-3 8q-2 4 -2 13v14q0 6 2 14l1 8l-1 20q0 10 2 14l7 15l-3 24l-9 19
l-17 9q-8 4 -11 8l-9 9l-26 11q-6 -1 -12 6l-13 17l-21 -16l3 -16l2 -12q1 -5 0.5 -7.5t-1.5 -6.5l-4 -12l1 -27q0 -9 -1 -13l-2 -8l6 -11q4 -6 1 -15l-8 -19l6 -10q5 -8 2 -15l-5 -16l5 -18q1 -3 1 -6.5t1 -6.5l1 -10q1 -8 -3 -14l-7 -11l4 -26l3 -13l2 -29l1 -9
q0 -9 -1 -13l-3 -16l-1 -19l4 -16q1 -4 1 -13v-15l1 -19l-3 -34v-8q0 -4 -1 -7l-2 -6l-6 -23zM337 156l12 -8l12 -4q6 -2 12 -5l13 -8q3 -2 6 -3.5t5 -4.5l7 -8l25 11l-5 16q-1 4 -1.5 6.5t0.5 7.5l2 12l-2 27q0 8 3 14l9 15l-2 11l-6 15q-2 4 -2 14l2 20l4 21l-7 20
q-2 8 2 15l9 15l-8 17q-2 3 -3 5.5t-1 7.5v9q0 10 1 14l1 9q2 8 4 12l4 13l-8 20q-2 4 -2 14q0 5 1 8t3 6l7 14l-8 15q-2 3 -3 6t-1 8v5q0 5 1 8t3 6l8 15l-4 22q-1 4 -1 14l2 37l-5 19l-17 13l-16 -3q-8 -2 -14 3l-10 6l-45 28l-4 -6l2 -13q1 -8 -1 -14l-4 -12l-5 -41
l2 -21l2 -26l4 -23q1 -6 -2 -14l-1 -2l-8 -23l5 -23q1 -5 1 -13v-11l4 -18q1 -8 -1 -14l-5 -14l3 -7q3 -6 3 -14l-1 -12q0 -5 -0.5 -7t-2.5 -6l-6 -12l5 -26q2 -8 2 -13v-6l1 -26l-2 -17l4 -19q1 -8 -1 -14l-4 -10l5 -30l1 -22z" />
    <glyph glyph-name="n" unicode="n" horiz-adv-x="745" 
d="M706 107q6 -5 5 -9t-9 -5h-6l-24 -19l-7 -6q-3 -2 -6 -3t-6 -3l-20 -7l-10 -10q-5 -5 -11 -8l-14 -7l-16 -12l-18 -14q-8 -5 -15 -1l-26 14q-6 3 -11 8l-22 19l-4 2q-4 2 -6 2.5t-6 2.5l-19 10l-13 4q-4 1 -6.5 3t-5.5 4l-14 13l-16 -6l-14 -10q-7 -5 -12 -6l-16 -4
l-13 -11q-3 -3 -5.5 -4t-6.5 -3l-10 -3l-17 -11l-14 -11l-11 -13q-5 -8 -15 -3l-13 8q-3 2 -5.5 4t-4.5 6l-9 14l-20 2q-7 1 -13 6l-15 12l-9 5q-3 2 -5.5 3.5t-5.5 4.5l-10 10l-14 9q-2 1 -2.5 2t-2.5 2q-3 4 0.5 5.5t8.5 0.5l-7 34l-3 17q-1 7 0 14l3 13l-1 21l-1 7
q-1 6 2 14l7 17l-1 15v14l1 18l-5 16q-2 8 -2 13l-1 16q0 9 4 14l5 9l-8 22l-3 13v1q-1 6 2 14l7 19l3 17l-2 22l-4 23q-1 3 -1 6.5v6.5v12l2 20l-3 15q-1 4 -1.5 7t0.5 7l2 11v31l-2 11q-2 8 -2 13l1 23l-2 17q-1 4 -0.5 6.5t1.5 6.5l2 10l8 25l-5 28l-19 19l-14 3
q-6 2 -13 5l-7 4l-23 8l-17 5q-9 2 -13 5l-3 2q-12 7 0 16l23 14l12 8q5 4 12 5l12 3l9 11q3 4 11 9l10 5l21 18q4 3 12 7l13 5l8 11q3 5 7.5 4.5t8.5 -4.5l14 -16l23 -11l23 -9l42 -2l9 13q2 4 5 5.5t6 3.5l11 5l20 13q8 5 15 1l20 -9q8 -4 12 -8l4 -4l17 -19l22 -7
q8 -2 13 -6l13 -8l11 -4q8 -4 12 -7l17 -12h16q8 0 13 -4l18 -10l9 2q6 1 14 -2l21 -9l12 -4l4 -2l4 -2q3 -5 -1.5 -6t-9.5 1l-2 1l3 -24q1 -4 1 -13l-2 -20l4 -10q2 -6 1 -14l-3 -16l2 -14q1 -5 0.5 -7.5t-1.5 -6.5l-8 -24v-12l6 -20l4 -20q1 -5 1 -14v-1q-1 -4 -1 -7
t-2 -6l-8 -20l5 -28l1 -12q0 -5 -2 -13l-5 -20l3 -22v-9l3 -25q2 -8 -4 -15l-3 -4l8 -23q3 -8 2 -14l-2 -7l3 -22q1 -6 -2 -14l-7 -14l6 -8q5 -7 4 -14l-2 -18l2 -15q1 -8 -3 -14l-8 -13l8 -25l16 -21l20 -5q8 -3 12 -8l13 -14l13 -7zM331 159l23 -12l15 -8l27 -17l12 -2
l23 10l-1 28l1 14l-2 12q-1 7 0 13l3 19l-7 20q-3 9 3 15l4 3l-2 33l-5 12q-2 4 -2 14v9q0 9 5 14l7 6l-9 21q-2 5 -2.5 7.5t1.5 7.5l4 12v25l-5 12q-3 6 -3 14v8q0 4 1 7.5t2 6.5l3 11l-3 15q-1 8 0 14l3 12v26l-2 19q-1 4 -0.5 7t1.5 7l2 8l5 21l-5 29l-7 29l-14 3l-13 3
l-13 4l-15 7q-5 3 -11 7l-3 2l-19 12l-19 6l-1 -25l7 -20q2 -6 1 -14l-1 -9l-6 -19l1 -29v-25l2 -6q3 -6 3 -14l-1 -10l1 -26q0 -5 -1 -8t-3 -6l-2 -4l1 -22l2 -31l-1 -23l1 -3l1.5 -6t0.5 -7l-3 -28l1 -21v-11l-4 -30l2 -17l2 -16q1 -8 -1 -14l-4 -10l-4 -26l3 -17l2 -36z
" />
    <glyph glyph-name="o" unicode="o" 
d="M497 755q1 -4 1 -13v-16q0 -9 -1 -13l-3 -16l4 -9q2 -4 1.5 -7t-0.5 -7l-2 -24l4 -14q3 -8 -2 -15l-4 -4l4 -22q1 -6 0 -13l-2 -11l-1 -20l-1 -27l4 -15q1 -7 0 -15l-3 -13l-4 -18l8 -18q3 -7 1 -15l-7 -24l-2 -18l5 -8q4 -6 3 -14l-4 -24l-2 -16l6 -15q3 -7 0 -15
l-6 -15l7 -14q2 -4 2.5 -6.5t-1.5 -7.5l-5 -14l4 -20l2 -27q0 -5 -0.5 -7.5t-3.5 -6.5l-7 -8l6 -12q3 -6 1 -14l-6 -24l4 -6q1 -2 3 -4q2 -4 0.5 -6.5t-3.5 -6.5l-4 -6q-4 -7 -13 -7h-13l-21 -16q-5 -4 -14 -4h-2l-23 -11l-11 -9q-3 -3 -5.5 -3.5t-6.5 -2.5l-19 -6l-13 -10
q-6 -5 -13 -6l-14 -3l-5 -12q-4 -10 -15 -5l-17 8q-8 3 -10 10l-5 14l-22 10l-12 6l-12 8l-9 5l-17 6q-3 2 -6 3t-6 3l-12 9h-20q-9 0 -14 4l-14 10l-13 6l-26 -1q-9 0 -14 4l-9 6l-25 6h-7h-3q-5 1 -4.5 5.5t5.5 7.5l5 30l-1 13q0 8 1 13l4 23l-2 25l-2 4q-2 8 -2 13l-1 16
q0 5 1 7.5t3 5.5l4 8v32l-1 8q-1 4 -1 13l1 17l-4 21l-5 22l-1 15q0 10 2 14l7 18l2 27l2 15l-8 31l-3 12q-1 7 0 14l3 11q1 4 5 12l3 7v27l-6 18q-1 4 -1.5 7t-0.5 7l-1 10q0 10 1 14l2 13l5 20l-6 19q-2 4 -2 14l1 9l3 28l4 21l-4 12l-1 1q-3 11 8 14l12 3l5 6q6 6 14 6
l20 -1l7 6q3 3 5 4.5t6 3.5l8 5q3 2 5.5 2.5t5.5 2.5l17 7l11 11q5 5 11 8l21 9l5 6q5 5 11 8l10 5q7 4 15 -1l17 -9q4 -2 6 -4t4 -7l4 -10h20q5 0 13 -4l9 -5q6 -4 10 -9l8 -9l21 -13l30 -12l21 -4h3q10 0 14 -2l27 -12l23 3h16q5 0 13 -4l7 -4q9 -6 3 -15l-7 -5l-5 -3z
M225 248q4 -1 12 -5l32 -16q3 -2 6 -3t6 -3l10 -7q4 -3 10 -9l8 -11l17 5l-2 31l-5 12q-2 8 0 15l5 12l-1 16q0 8 1 13l4 22l-2 5q-1 4 -1.5 7t-0.5 7l2 14l3 32l-2 24l-5 11q-3 8 -1 15l7 19l-1 12v13v15l-2 20q-1 7 0 13l3 17v14l-7 14q-3 6 -3 13l1 16q0 4 0.5 6.5
t1.5 6.5l6 20l-6 21l-20 15l-24 8q-9 -3 -15 3l-12 12l-19 6l-21 1l6 -18q2 -5 1.5 -7.5t-2.5 -6.5l-8 -19l2 -10l2 -29v-19l-1 -27l-2 -23l4 -9q3 -7 0 -15l-4 -10l5 -19q1 -4 1.5 -6.5t-1.5 -7.5l-6 -15l1 -20l7 -24q1 -4 1.5 -7t0.5 -7v-23q0 -10 -1 -14l-6 -20l4 -6
q5 -8 4 -14l-1 -9q-1 -4 -1 -7t-2 -6l-7 -19l5 -32z" />
    <glyph glyph-name="p" unicode="p" horiz-adv-x="611" 
d="M576 789q5 -2 4 -6.5t-5 -7.5l-1 -1l-2 -33v-12l1 -26l-1 -10q0 -9 -2 -13l-6 -15l10 -23q3 -8 -1 -15l-7 -10l5 -14q2 -4 2 -13l1 -14q0 -8 -3 -14l-5 -10l7 -21q2 -7 -1 -15l-4 -10l6 -18q3 -7 -2 -14l-7 -10v-21l6 -13q3 -8 2 -14l-3 -19q-1 -3 -1 -6t-2 -6l-3 -7
l1 -29l8 -6q4 -4 5 -6q2 -5 -1 -7.5t-6 -4.5l-15 -9q-3 -2 -6 -2.5t-7 -1.5l-12 -1l-12 -13q-7 -7 -13 -7l-13 -1l-19 -9l-7 -4q-6 -4 -11 -7l-19 -9l-5 -6q-3 -4 -11 -9l-15 -8q-4 -2 -6 -2.5l-6 -1.5l-2 -1q-7 -1 -14 0l-16 2q-9 2 -12 9l-6 13l-19 14l-29 9l-15 -9
l-2 -25l8 -36q1 -4 1.5 -7t-0.5 -7l-2 -17l14 -18l22 -10l18 -10q6 -3 10 -10l4 -7h17q8 0 13 -5l13 -11q10 -8 -2 -15l-20 -10l-12 -9l-15 -10q-5 -4 -13 -4l-19 -2l-13 -17l-11 -12q-4 -5 -13 -7l-20 -4l-8 -15q-5 -9 -15 -3l-20 13l-16 5q-9 3 -12 9l-8 14l-22 8l-7 3
q-8 4 -11 8l-13 17l-21 5q-5 1 -7 5q-3 5 1.5 6.5t9.5 -0.5l3 -1l-7 20q-1 4 -1.5 6.5t0.5 7.5l4 18l5 17l-5 15q-3 6 -1 14l7 24l-2 21l-2 11l-1 34l1 14v6.5t1 6.5l3 13l-13 18v1q-14 7 -5 12l4 12l4 17l7 24l-1 9q-1 7 0 14l3 21l-5 9q-2 3 -3 5.5t-1 7.5l1 22l-1 20
q0 4 0.5 6.5t1.5 6.5l3 11v24l-5 14q-3 7 3 15l2 3l-2 25v30q-1 8 5 14l14 14q6 7 15 2l10 -6l25 -11l11 -2l22 -1l32 -5l10 -1q9 -2 13 -5l9 -6q8 -5 7 -14l-3 -14l4 -9q3 -8 2 -14l-2 -19l2 -6q2 -5 1.5 -7.5t-2.5 -7.5l-7 -17l5 -16q1 -4 1.5 -6.5t-0.5 -7.5l-3 -20
l20 -3q4 -1 7 -1t6 -2l12 -5q7 -3 10 -10l6 -12l21 -10l25 -7l16 -8l-1 27l-4 9q-3 8 -2 14l4 25l-3 17q-1 4 -0.5 7t1.5 7l3 14l2 19l-5 8q-4 5 -4 14l1 17l-3 25l-1 10q0 7 3 13l6 13l2 24l-23 8l-12 -4l-6 -2t-7 -1l-25 -1l-6 -5q-6 -6 -13 -6h-18q-5 0 -13 2l-40 10
l-15 -1h-13l-10 1l-23 1q-5 0 -13 4l-11 5l-18 11l-12 -3q-8 -3 -15 2l-17 12l-14 7l-30 12l-11 3q-11 4 -9 13v5q2 10 12 10h26l23 10l40 19l7 5q6 4 13 6l12 4q6 3 13 3h5l20 11l22 18l18 14q6 5 13 6l14 3l9 15q2 6 9 11l10 8q8 7 16 -1l17 -15l16 -16l17 -12l23 -6
q4 -1 6.5 -3t5.5 -4l11 -10h12q8 0 14 -6l11 -13l30 -6l11 -1l27 -5q4 -1 6.5 -3t5.5 -4l7 -6l26 -4l16 1h5z" />
    <glyph glyph-name="q" unicode="q" horiz-adv-x="646" 
d="M611 105q6 -9 -3 -15l-11 -6l-19 -7l-45 -30l-8 -7q-3 -3 -5 -4.5t-6 -3.5l-15 -8l-14 -9l-16 -12q-7 -6 -15 -3l-16 4q-7 2 -12 9l-11 17l-15 1l-38 8l-24 -16l-5 -5q-5 -4 -13 -7l-18 -5q-9 -3 -15 5l-5 7l-13 6q-3 2 -6 2.5t-6 2.5l-18 12l-18 13l-27 14l-3 -1
q-6 -1 -14 2l-6 3q-3 2 -6 3t-6 3l-23 16l-9 -3q-7 -3 -15 0l-12 3q-7 1 -13 6l-13 11l-17 -2q-6 -1 -14 2l-3 1q-13 5 -3 15h1l-4 18q-1 6 2 14l10 22l-8 13q-4 7 1 15l8 12l-2 29l-5 12q-2 3 -2 6t-1 7v1q0 9 1 14l6 26l-1 5q-3 8 -2 14l4 16l1 32l-2 24l-4 6q-4 6 -1 15
l8 23l-2 8l-3 13l-2 14q-1 8 1 14l6 14l-2 16q-1 3 -0.5 6.5t0.5 7.5v33l-1 28l-1 10v13l2 14l-4 21q-1 7 0 14l2 13l-3 27l-1 10q-1 7 0 14l5 18l1 26q-3 0 -5 2t0 4l8 15q2 5 11 10l8 4q7 4 14 4l18 1l6 9q5 6 13 8l18 2l24 8l5 8q2 5 5 6t8 2l12 1l20 16l10 14q6 10 16 2
l37 -29l23 -11l17 -9l16 -9l26 -15l9 1q9 0 14 -4l16 -10l25 -6h17q5 0 13 -2l40 -8l17 -5q6 -2 7.5 -6t-2.5 -9l-2 -1v-3q0 -6 -4 -14l-6 -13l-4 -19l3 -24l4 -13q1 -4 1.5 -6.5t-0.5 -7.5l-3 -24l-3 -21l4 -13q3 -7 -2 -15l-4 -5l10 -21q3 -8 2 -14l-2 -11l-3 -20l-4 -28
l3 -7q2 -3 2 -6t1 -7l2 -19v-21l-2 -31l1 -11l2 -21q1 -7 0 -14l-4 -18l3 -9q1 -4 1.5 -6.5t-0.5 -7.5l-4 -18l-5 -22l-2 -22l7 -14q2 -4 3 -7t-1 -8l-5 -15l3 -19l6 -25l10 -13l21 -8q7 -3 11 -9l3 -4l22 -20l18 -4q7 -1 12 -8zM228 247q5 0 13 -2l16 -5q6 -1 12 -6l17 -11
l9 -7q3 -2 5.5 -4t4.5 -5l13 -14l6 13l9 26l-2 3q-2 4 -2 14l1 19l-5 20q-1 4 -1 13l1 14v20q0 7 3 13l5 14l-5 9q-3 6 -3 13l-1 15v23q0 6 2 14l5 19l2 13l1 31l-8 17q-2 4 -3 6.5t0 7.5v2l5 25l3 27l-4 19q-1 8 1 14l1 4l-3 33l-27 14h-5q-9 2 -13 5l-21 13l-17 9l-18 8
l-12 2l5 -23l3 -13q1 -7 -2 -15l-8 -16l5 -14q3 -6 3 -13v-12q0 -10 -1 -14l-4 -14l2 -23l3 -11q1 -6 0 -14l-4 -16l-4 -31l2 -20l5 -20q1 -4 1.5 -7t-0.5 -7v-3l-7 -32l4 -22l4 -13q1 -4 1.5 -7t0.5 -7v-2q0 -6 -2 -14l-8 -24l2 -16v-34z" />
    <glyph glyph-name="r" unicode="r" horiz-adv-x="715" 
d="M679 108q7 -3 6.5 -7t-7.5 -7l-11 -4l-16 -10l-18 -17q-6 -6 -14 -6l-17 -1l-13 -10l-20 -24l-10 -10q-4 -5 -12 -7l-10 -1q-4 -1 -7 -0.5t-7 1.5l-11 3q-5 1 -12 6l-10 10l-28 20l-20 8l-9 2q-7 2 -12 6l-14 13l-10 4q-7 3 -11 9v5h-6h-9l-10 -14q-5 -7 -12 -8l-15 -2
l-20 -14l-19 -11l-13 -13q-4 -4 -12 -8l-12 -4l-21 -16q-8 -5 -15 -1l-6 4q-7 3 -10 10l-7 12l-18 12l-22 7q-4 1 -12 5l-7 3q-8 3 -11 11l-5 12l-17 8q-7 5 -9 12q0 3 11 3h2l-3 13q-1 4 -1 13l1 27l1 9l-4 21q-2 9 3 15l6 7l-8 17q-2 4 -2 14v10q0 5 2 13l4 19l-2 20
l-2 14q-1 7 0 14l2 9l6 51l-13 21l-5 12q-2 2 0.5 5t8.5 5h2l2 32l6 28l-1 10q-1 7 0 13l1 12l-9 20q-3 9 1 15l8 15l-7 18q-2 6 -1 14l3 21l-2 5q-2 8 5 15l8 7q7 7 15 3l13 -6l20 -2q7 -1 13 -6l10 -7l25 2l16 3q8 2 14 -1l9 -4q6 -3 11 -8l6 -6q6 -6 9 -10q3 -3 1 -12
l-5 -19l3 -12q1 -7 0 -14l-2 -13l6 -22l14 5q6 2 14 -1l7 -3l23 6l5 21l-4 10q-1 4 -1.5 6.5t0.5 7.5l2 16l3 19l-4 16q-2 8 1 14l6 12l-7 25l-15 14l-14 -9q-6 -5 -14 -3l-22 3l-23 -4l-13 -1q-4 -1 -6.5 -0.5t-6.5 0.5l-13 1l-7.5 1.5t-5.5 3.5l-9 8l-19 -4q-10 -2 -15 3
l-10 9l-20 -3q-9 -2 -15 4l-14 12l-14 10h-7q-6 0 -14 4l-21 12l-14 7q-4 2 -6.5 4t-3.5 7q-1 10 8 13l35 7l9 6q3 2 6 2.5t7 2.5l9 3l20 6l24 11q5 3 12 4l15 2l14 16q3 5 12 8l3 1l15 14q4 4 13 6l15 2l11 16q5 8 12 8l10 1l25 19q8 6 16 0l11 -9l21 -15l31 -23
q6 -4 10 -10l11 -12l16 -5q8 -2 13 -6l20 -12l8 2q6 1 14 -2l21 -9h7q9 0 14 -2l12 -4q14 -4 4 -14q-5 -5 -11 -6h-1l4 -28l3 -20q1 -3 0.5 -7t-0.5 -7v-5l3 -16q1 -9 -1 -15l-7 -13l4 -28l4 -11q2 -5 2 -13l-2 -24v-11q0 -10 -2 -14l-7 -19l3 -20l1 -28l5 -17q1 -8 -1 -14
l-4 -14l16 -18l12 -2l13 -3l7 -2q8 -3 9 -7t-5 -6q3 -6 2 -14l-3 -20l4 -38q1 -8 -1 -14l-6 -15l4 -13q1 -4 1.5 -7t0.5 -7v-9q0 -5 -2 -13l-4 -19v-3q3 -6 3 -13l1 -24l5 -28l12 -18l20 -4q9 -2 13 -7l4 -6l20 -11q8 -4 11 -8l6 -5zM371 117q3 -1 6.5 -1.5t6.5 -2.5l15 -7
l-4 18l-3 23q0 4 -0.5 6.5t0.5 6.5l1 9l-1 24v5q0 9 1 13l4 22l-2 15l-4 22q-1 6 2 14l2 4l2 41l2 15l-23 -2q-8 -2 -14 3l-6 4l-10 4q-3 2 -6 3t-6 3l-24 16l-16 14h-6l-7 -49l3 -19q1 -5 1 -14v-5q0 -5 -2 -13l-3 -10l-1 -25l2 -28l1 -21l5 -26l21 -19l9 -5q3 -2 5.5 -4
t4.5 -5l10 -13l13 -11z" />
    <glyph glyph-name="s" unicode="s" 
d="M509 106q3 -2 -1 -4.5t-12 -4.5l-4 -1l-21 -10l-25 -13l-10 -4l-18 -14q-6 -4 -12 -6l-19 -7l-11 -7q-4 -3 -13 -5l-14 -1l-15 -11l-11 -11q-7 -7 -16 0l-11 11l-11 6q-3 2 -5 3.5t-5 4.5l-18 16l-8 3q-6 1 -12 7l-12 10l-17 -2q-8 -2 -14 2l-9 5h-22l-21 3
q-4 1 -6.5 1.5t-6.5 2.5l-15 8l-11 -2h-25q-8 0 -13 4l-11 8q-7 6 -7 13v7q0 9 4 14l7 9q6 6 10 9l11 8v4q2 8 7 13l11 9q6 5 11 7l20 10l12 7q5 4 13 4l12 2l49 -1h23l14 -1q4 0 7 -0.5t7 -2.5l14 -8l7 -3q6 -2 11 -9l9 -14l23 -5l-7 30l-6 17q-2 8 -2 13l-1 11l-6 17
l-9 11q-2 3 -4 5.5t-3 6.5l-5 15l-16 11q-7 5 -9 11l-4 9l-13 24l-9 8l-18 18q-5 5 -8 11l-10 20l-9 7q-7 5 -7 13v5l-16 16q-6 6 -7 12l-6 17l-13 13l-13 16q-3 4 -7 12l-8 18l-3 8l-9 12q-4 6 -5 13l-4 22l-7 12q-3 7 -5 13l-4 18l-8 14l-11 11q-2 3 -4 5.5t-3 7.5l-4 17
q-1 6 2 14l3 8l-1 28v25l-6 7q-5 7 -6 13v1l-1 3q-3 10 6 14l13 5l23 7l15 7l28 9l17 11l6 9q3 7 10 10l10 6q5 4 13 4h10l18 11l19 13q8 5 15 1l15 -8q7 -3 10 -10l1 -1l28 -16l13 -8q3 -2 5.5 -4t4.5 -5l7 -7l16 -6q6 -2 12 -5l6 -4h19q7 0 13 -3l17 -7l19 2l14 3
q8 2 15 -1l21 -9l9 -4q7 -3 10 -11q3 -9 -1 -15l-7 -13l-11 -15q-2 -3 -3.5 -5t-4.5 -5l-14 -14l-4 -6q-4 -7 -10 -10l-19 -8l-16 -7l-19 -7q-6 -3 -14 -3l-42 -1h-2q-5 0 -13 2l-11 2q-5 1 -12 6l-26 15l-7 5l-19 6l-20 9l-3 -27l4 -27l10 -19l2 -6q2 -4 3 -6.5t2 -5.5
l4 -18l5 -25l13 -21l10 -8q6 -6 9 -10l8 -12l5 -6q3 -4 7 -12l9 -23l15 -13l13 -7q7 -4 11 -10l8 -12l15 -13q4 -4 6 -13l1 -9l19 -24l10 -9q3 -3 7 -11l8 -18l13 -12l14 -15q2 -3 4 -5.5t4 -5.5l2 -4q3 -6 3 -13l1 -12l10 -21q2 -3 2 -6t1 -7l3 -16l4 -9q2 -5 4 -13l3 -23
l6 -14q2 -6 1 -14l-1 -5l8 -25q1 -6 0 -14l-2 -8v-11z" />
    <glyph glyph-name="t" unicode="t" horiz-adv-x="695" 
d="M487 693q-6 -3 -14 -1l-19 4l-31 -30l8 -13q4 -6 3 -14l-4 -19l-4 -13l5 -12q3 -8 2 -14l-3 -19l3 -18q1 -5 0 -8t-3 -6l-6 -12l2 -30l2 -11l5 -23l2 -24q0 -8 -3 -14l-6 -16l7 -17q3 -8 2 -14l-1 -4l-9 -29l8 -19q3 -6 2 -14v-4q0 -4 -1.5 -7t-3.5 -6l-7 -13l7 -19
l4 -18q1 -8 -1 -14l-6 -12l2 -30l21 -16q3 -2 5.5 -4t4.5 -5l5 -5l17 -13l12 -4q8 -4 12 -7l17 -14l7 -3q16 -5 2 -14l-6 -4l-17 -10q-4 -2 -6.5 -3t-5.5 -3l-15 -5l-13 -15q-2 -3 -5 -5l-6 -4l-17 -11l-2 -3q-4 -6 -11 -9l-20 -8l-14 -13q-9 -7 -16 -1l-22 18l-6 1
q-9 0 -14 5l-11 11l-20 15l-12 2q-7 1 -12 8l-10 12l-15 11q-2 2 -3 2.5t-2 2.5q-4 7 4 13l4 17l-3 25l-2 12q-1 3 -1 6.5v6.5v23l1 22l1 12q0 5 2 13l4 16l-2 25l-5 16q-1 4 -1.5 6.5t0.5 7.5l2 9l2 28l4 21l-2 4q-4 5 -4 14l1 16l-2 18q-1 8 2 14l5 11l-6 20q-1 4 -2 6.5
t-1 6.5l-1 11q0 10 2 14l5 12v24l2 22l-5 12q-3 9 1 15l4 7l-2 16q-1 5 -0.5 7.5t1.5 6.5l5 17l-11 29q-2 6 -1 14q2 8 10 9l24 5l13 11l12 12l-31 12l-4 -1q-10 -2 -15 2l-18 13l-17 -2q-7 -1 -14 3l-15 7l-16 5l-30 -2l-8 -5q-7 -5 -14 -4l-21 3l-15 -5q-4 -1 -7 -1.5
t-7 0.5l-17 2l-11 -2q-8 -2 -14 4l-4 4q-9 9 4 13l19 6l12 7q5 4 14 4h22l20 8l5 4q8 6 13 6l14 1l12 10q6 5 11 7l9 4q4 2 12 4l23 7l5 6q4 6 11 9l11 5l23 10q4 2 12 4l14 4l14 12l11 8q8 6 16 0l8 -6q3 -2 5.5 -4t4.5 -5l11 -13h18q10 0 14 -6l10 -13h15q6 0 14 -2l11 -4
l27 -6l15 -2l28 -1l29 -4l4 2q4 3 13 5l27 4l21 1l5 4q5 4 15 2l19 -3q10 -2 11 -11l1 -3q1 -7 -2 -15l-4 -8l-12 -29l-5 -10q-3 -7 -11 -10l-10 -4l-19 -20q-4 -5 -12 -7h-4l-9 -12q-4 -6 -13 -6h-18l-44 -10z" />
    <glyph glyph-name="u" unicode="u" horiz-adv-x="742" 
d="M706 110q12 -11 -2 -16l-5 -1l-32 -14l-13 -16q-4 -5 -12 -7l-12 -3l-8 -9q-2 -2 -4 -4.5t-5 -4.5l-9 -8q-3 -3 -6 -3.5t-6 -2.5l-20 -7l-15 -11q-7 -5 -15 -2l-10 4q-8 3 -11 11l-3 8l-31 17l-35 -6l-16 -3l-20 -13l-14 -11q-8 -7 -15 2l-10 10l-15 1q-8 0 -13 8l-10 13
l-18 14h-11q-10 0 -14 2l-43 18l-11 4l-12 6l-19 13l-12 1q-7 0 -13 3l-16 7l-9 -3q-7 -3 -14 0l-11 5q-12 5 -4 15l4 3l5 27l-4 13q-2 8 -2 13l-1 10q0 8 1 13l5 21l-6 15q-3 9 1 15l7 11l2 24l-2 6q-1 4 -1.5 6.5t0.5 7.5l3 20l-4 9q-3 7 -1 15l5 19v22l-3 13q-1 4 -1.5 7
t0.5 7l3 13l1 20l-8 16q-2 4 -3 6.5t0 7.5l2 13q1 4 1 7t2 6l7 18v18l-5 8q-5 8 -2 15l8 19l-8 21q-2 6 -1 14l2 10l-1 23l1 13q0 7 3 13l4 11l1 36l-23 14l-20 9l-18 10q-3 2 -5.5 3t-5.5 4l-2 1l-15 7q-3 2 -5.5 3t-5.5 4l-8 7q-4 4 -4.5 8.5t4.5 7.5l5 3q6 5 11 7l7 3
q8 4 12 5l12 3l23 15l12 10q3 3 5.5 4t5.5 3l12 4l23 15l9 14q7 11 16 2l16 -16l23 -7q9 -4 11 -9l7 -13l25 -8l14 -3q5 -1 12 -6l14 -13l15 -1q4 0 6.5 -0.5t6.5 -3.5l3 -2l19 9l26 9l4 14q3 8 10 11l33 9l15 22q3 5 12 7l6 1q8 2 14 -3l8 -6q3 -2 5.5 -4t4.5 -5l13 -15
l13 -2q4 -1 6.5 -1.5t6.5 -2.5l14 -8q8 -4 11 -7l8 -6l22 -6q8 -3 12 -8l7 -8q7 -10 -4 -16q-3 -2 -11 -2l-2 -1l4 -23q1 -6 0 -13l-3 -16l-8 -26l7 -9q5 -7 5 -13l1 -20v-8q0 -6 -3 -14l-7 -13l6 -23l2 -15q1 -4 0.5 -6.5t-1.5 -6.5l-6 -26l3 -13q1 -4 1.5 -7t-0.5 -7
l-2 -12l-4 -18l7 -14q4 -7 -1 -15l-7 -12l1 -19l4 -18q1 -4 0.5 -6.5t-0.5 -6.5l-1 -12l4 -16q1 -4 1.5 -6.5t-0.5 -7.5l-5 -24l3 -14q1 -5 0.5 -7.5t-1.5 -6.5l-5 -15l-1 -18l5 -10q3 -8 2 -14l-3 -13l5 -25q1 -6 -2 -14l-6 -15l10 -16l18 -22l11 -3q8 -2 12 -7l13 -14
l15 -13l9 -1q8 0 13 -4zM353 235l18 -8l19 -6q6 -2 11 -9l13 -19l8 17l7 13l-4 13q-1 6 0 14l5 25l-4 3q-7 7 -4 15l5 16l-5 13q-2 4 -2 14l1 12q0 9 2 13l5 12l-6 13q-2 4 -2.5 6.5t1.5 7.5l5 14l-3 25q-1 6 2 14l6 12l-6 9q-5 8 -2 15l8 21l-6 11q-2 4 -2.5 6t-0.5 7
l-1 16q0 5 2 13l4 15l5 14l-4 24l-4 27l-1 3q-3 8 1 15l8 13l-8 17q-3 8 -2 14l4 26l-15 13l-19 7l-23 11l-14 5q-7 3 -11 9l-9 12l-23 -25v-17l4 -9q2 -3 3 -6t0 -8l-2 -18l-3 -13l-6 -19v-15l3 -22l4 -11q2 -8 2 -14l-1 -21v-14l-3 -29l4 -34q1 -6 0 -13l-2 -16v-52
l-2 -19l-3 -23l-4 -13l-1 -31l4 -17l5 -21q1 -5 0.5 -7.5t-1.5 -6.5l-5 -19l8 -15l16 -12z" />
    <glyph glyph-name="v" unicode="v" horiz-adv-x="649" 
d="M608 822q12 -8 0 -15l-8 -14l1 -18q0 -4 0.5 -7t-0.5 -7l-3 -12l2 -24q0 -9 -1 -14l-4 -15l1 -16l4 -22q2 -8 -3 -14l-6 -8l3 -28v-15l-2 -22l7 -20q2 -4 2 -13l-1 -21l-3 -23l2 -11l3 -17q1 -8 -1 -14l-6 -17l-2 -23l-1 -27v-23l7 -12q4 -7 0 -15l-6 -11l4 -16
q1 -7 0 -14l-4 -17l5 -15q2 -7 0 -14l-4 -10l7 -14q3 -8 2 -14l-2 -18l-1 -13q0 -4 -1 -7l-2 -6l-4 -15l7 -40q2 -2 2.5 -4t2.5 -5q2 -6 -7 -10l-12 -6q-4 -2 -6.5 -2.5t-6.5 -0.5h-12l-13 -9q-4 -3 -12 -7l-14 -6l-15 -6l-12 -12q-4 -5 -12 -7l-17 -4l-10 -3l-27 -15
l-18 -14q-9 -7 -15 1l-6 6l-24 23l-14 13l-15 8l-19 7l-25 12q-5 3 -11 7l-7 5l-25 7l-23 2h-15q-5 0 -13 4q-2 1 -4 1.5t-5 2.5l-19 12h-15q-7 0 -13 3l-4 2q-6 3 -8.5 6t1.5 5l7 29l-3 10q-2 5 -1.5 8t1.5 7l7 23l-3 13l-4 22l-2 13q-1 7 0 14l5 19l2 21l-4 23l-3 11
q-1 8 0 14l5 19l-3 21l-2 23q0 4 0.5 6.5t1.5 6.5l2 7l5 20l-5 18q-2 8 -2 13l-1 17v6.5t1 6.5q0 3 2 11l7 26l-7 11q-4 7 0 15l4 7v21l3 26l-4 20q-1 8 0 14l3 7l-7 23q-1 4 -1.5 6.5t0.5 7.5l2 20l-13 4q-7 2 -12 7l-8 6l-26 12l-9 3q-5 3 -11 7l-8 6l-16 9q-10 6 -2 15
l7 7q2 3 4.5 5t5.5 4l16 9l21 11q4 2 6.5 2.5t6.5 1.5l7 1l11 15q2 4 5 5.5t6 3.5l15 7l38 28q10 8 16 -2l15 -20l14 -9q3 -2 5.5 -3.5t4.5 -4.5l8 -8l13 -4q7 -1 13 -6l19 -15l22 -6q8 -1 13 -7l7 -7l20 15q3 2 6 3t6 3l8 3l26 20l8 8q3 3 5.5 4t5.5 3l16 7l16 10l21 10
q9 5 15 -3l12 -12l15 -8q4 -2 6 -4l4 -4l10 -10l14 -2q9 -2 13 -6l15 -15l14 -1q6 0 13 -5zM430 221l-5 13q-2 4 -2 13l-1 19q0 5 2 13l1 6l2 25l-2 27l-4 13l-1.5 6t0.5 7l1 7l7 33l2 23l-5 6q-5 6 -3 14l3 15l-3 21l-1 22q0 6 2 14l3 15l-2 4q-3 9 -1 15l7 14l-4 15
q-1 6 0 14l3 14l3 31l-1 12l-6 30l-1 18l-4 27l-10 20l-18 9l-26 16l-20 7l-16 4l-11 -18l-8 -18l6 -22q2 -8 -2 -14l-1 -2l-7 -27v-21l7 -18q3 -6 0 -14l-5 -15l2 -26l1 -12l2 -20q1 -6 0 -13l-3 -23l4 -13q3 -7 0 -15l-2 -8l4 -31v-4q0 -4 0.5 -7t-0.5 -7l-2 -15l-2 -27
l3 -21q1 -5 1 -13v-1q0 -7 -3 -13l-7 -17l2 -24v-21l8 -31l15 -6l23 -10l34 -18q3 -2 6 -3.5t5 -5.5l4 -5l15 -3z" />
    <glyph glyph-name="w" unicode="w" horiz-adv-x="933" 
d="M891 817q13 -4 2 -14q-4 -4 -10 -5l-3 -1v-33l2 -11q1 -3 1 -6.5v-6.5v-16l-2 -25l4 -15q1 -4 1.5 -6.5t-0.5 -7.5l-3 -12l1 -27l1 -20l-1 -16q0 -8 -3 -14l-3 -8l2 -27l4 -18q1 -4 1.5 -7t-0.5 -7l-3 -13l-2 -23l1 -17l4 -20q1 -6 -2 -14l-5 -10l2 -31l3 -17
q1 -5 -4 -14l-3 -5l2 -26l4 -21q1 -8 -1 -14l-6 -15l3 -8q3 -6 3 -13l2 -24l1 -5q1 -6 -2 -14l-7 -15l4 -21q1 -4 0.5 -7t-1.5 -7l-2 -10l1 -28l3 -3q5 -5 8 -11q1 -2 -6 -9l-9 -9q-4 -4 -13 -6l-18 -3l-6 -9q-4 -8 -13 -7l-19 1l-10 -13q-6 -8 -15 -5l-1 1l-28 -10l-20 -16
l-8 -6l-20 -14q-7 -6 -15 -2l-12 5q-6 3 -10 10l-7 11l-22 11l-36 14q-4 2 -7 3t-5 4l-13 15l-44 -7l-14 -10q-3 -2 -5.5 -3t-5.5 -3l-8 -3l-27 -17l-13 -6l-22 -13l-16 -10q-9 -6 -16 0l-22 17l-16 11l-10 1q-8 2 -12 4l-11 5q-3 2 -5.5 3t-5.5 4l-13 13l-14 4q-7 3 -12 8
l-5 4l-20 11l-19 -1q-7 -1 -14 4l-11 8l-19 -2q-7 -1 -14 2l-6 3q-3 2 -6 3t-6 3l-11 9l-14 1q-14 2 -8 13l3 5l5 15l-4 26l-3 16q-1 8 3 14l6 10l-4 25q-1 7 0 14l3 15v17l-3 22q0 8 1 13l1 8l-3 17q-1 8 1 14l4 14l-2 23l-3 16l-1 13v6.5t1 6.5l2 19q2 8 4 13l3 6l-5 17
q-1 7 0 14l4 18v18l-4 26q-1 4 -1 13l1 14l-2 15q0 9 1 14l1 6v22q0 8 4 13l5 5l-10 23q-2 6 -1 14l4 20l-20 13q-4 3 -10 9l-7 6l-17 2q-9 2 -13 7l-3 4l-20 11l-12 5q-11 5 -4 15l5 8q5 7 11 9l22 9l19 6l17 9l26 15l18 14l4 9q2 7 9 12l11 6q8 5 15 -1l20 -13l19 -6
q8 -3 12 -9l10 -17l15 -6l26 -10l17 -5q8 -2 12 -5l9 -6l6 3l23 8l11 7q6 5 13 6l13 3l22 9l15 14l27 21l2 3q8 10 16 3l14 -10q3 -2 5.5 -4t4.5 -5l9 -10l21 -9q3 -2 5.5 -3t5.5 -3l17 -13l14 -2q3 -1 6.5 -1.5t6.5 -2.5l11 -4l18 -7q8 -3 10 -8l16 12l9 8q6 6 14 6l17 -1
l15 14l15 12q3 2 6 3t6 3l14 6l4 8q6 11 16 4l17 -12l38 -19q5 -2 11 -7l10 -8l24 -9q7 -3 11 -8l5 -6zM349 235l18 -7q3 -2 5.5 -3t6.5 -3l6 -3q7 -3 10 -10l7 -13l13 15l3 20l1 27v16q0 4 1 7l2 6l4 13l-2 16l-2 31l-1 18l-2 20q0 9 1 14l3 11l-3 12q-2 10 0 15l10 21v23
l-7 15q-3 7 -4 12v1q-1 4 -1.5 7t0.5 7l4 28l-1 10v13l1 12q0 7 3 13l6 16l-1 17l-3 20l-3 24l-2 32l-2 28l-15 5l-14 6q-7 3 -11 9l-5 9l-16 6q-3 2 -6 3t-6 4l-12 11l-18 -21v-12q0 -8 -3 -14l-6 -13l6 -20l2 -6t1 -7l1 -15q0 -8 -1 -13v-22q0 -9 -2 -13l-7 -16l7 -18
q2 -6 1 -14l-2 -21l3 -12q1 -6 -2 -14l-7 -17l7 -17q3 -6 1 -14l-1 -3l-5 -33l4 -17q2 -8 2 -14l-2 -8l-7 -26l5 -18q1 -4 1.5 -6.5t-0.5 -7.5l-1 -4l-4 -31l7 -25l2 -11q1 -8 -1 -14l-9 -23l21 -9zM713 227l-4 9q-3 6 0 14l4 14l-1 27v26l1 10l-2 21l-6 29q-1 4 -1 13v2
q0 9 2 13l8 20l-2 4l-3 6t-1 7l-1 20l1 15q0 3 1 6.5t2 6.5l3 13l1 25l-5 22q-1 5 -1 13l1 9l1 18q0 4 1 7l2 6l2 6l-9 25q-2 6 -1 14l3 15l7 22v12l-4 29l-17 10q-3 2 -5.5 4t-4.5 6l-9 12l-10 2q-3 1 -6.5 1t-6.5 2l-15 6l-21 9l-26 -4l6 -21q2 -9 -2 -15l-4 -8l8 -18
q3 -7 0 -15l-8 -21l5 -17l4 -14q1 -4 1.5 -7t0.5 -7v-8q0 -4 -0.5 -6.5t-1.5 -6.5l-3 -10l4 -24q1 -6 -2 -14l-4 -11l4 -13q1 -4 1.5 -6.5t-0.5 -7.5l-2 -9l2 -15q1 -5 0.5 -7.5t-1.5 -6.5l-4 -13l2 -23l-1 -14l-1 -17l-2 -22l5 -15q2 -8 2 -14v-6l-3 -22l3 -29l3 -15
q1 -4 1 -14v-2l-2 -32l11 -2q6 -1 13 -5l7 -3l14 -4q4 -2 6.5 -3t5.5 -3l15 -9q3 -2 5.5 -4t4.5 -5l10 -11l9 6z" />
    <glyph glyph-name="x" unicode="x" horiz-adv-x="752" 
d="M717 110q9 -8 -3 -15l-16 -8l-7 -8q-4 -5 -13 -7l-18 -4l-10 -15q-2 -4 -4.5 -6t-5.5 -4l-8 -5q-6 -5 -13 -6l-19 -4l-9 -10q-2 -3 -4.5 -5t-5.5 -4l-13 -8q-8 -5 -15 -1l-15 9q-3 2 -5.5 3.5t-5.5 4.5l-12 11l-20 17l-19 9l-13 2q-4 1 -6.5 1.5t-6.5 2.5l-7 3
q-6 3 -11 8l-6 6q-5 5 -4.5 9.5t7.5 3.5q-1 3 1 12l3 24l4 17l-3 13q-2 8 -2 13l-1 15l2 31l2 24l1 20v10l3 29l-2 6q-1 5 -0.5 7.5t1.5 6.5l4 16l-20 44l-53 1l-12 -11q-5 -5 -11 -8l-12 -5l-17 -4l-13 -18q-2 -3 -4.5 -5t-5.5 -4l-11 -8v-7q0 -7 -4 -14l-12 -17v-36
l-3 -24v-16q0 -5 -2 -13l-2 -10l23 -17l12 -4q4 -2 7 -2.5t6 -2.5l10 -7q8 -6 10 -10l8 -14h10q7 0 13 -5l11 -8q11 -9 -2 -16l-3 -1l-27 -13l-11 -10q-3 -2 -5.5 -4t-6.5 -3l-19 -6l-8 -11q-2 -4 -4.5 -6t-5.5 -4l-20 -13l-9 -4l-17 -20q-6 -7 -15 -2l-15 8q-4 2 -6.5 3.5
t-4.5 3.5l-14 12l-18 17l-17 9l-17 3q-8 2 -12 8l-9 16l-15 3q-11 3 -5 14q0 1 4 5l2 30l-1 10q-1 4 -0.5 6.5t1.5 6.5l3 15l-1 13q0 9 1 14l6 17l-3 33l1 41l-5 17q-2 9 2 15l3 5l7 22q1 3 2.5 5.5t3.5 6.5l4 9q2 4 4.5 6t5.5 4l8 6l15 17l13 16l11 9q6 6 10 8l17 11l1 19
l-22 4l-24 4q-4 1 -6.5 1.5t-6.5 2.5l-1 1q-5 3 -6 7t4 7l7 36l1 21v18l-5 18l-2 6t-1 7v6q0 10 1 14l4 15l4 48l2 27l-8 23l-20 25l-14 4l-22 10l-16 4q-9 3 -13 8l-8 9l-8 6q-9 8 -1 15l4 4q3 3 6 4t6 3l9 3l26 11l45 32l15 10l20 18l9 7q8 6 16 0l18 -14q6 -4 10 -10
l7 -9l18 -12l25 -7l20 -6q6 -2 11 -9l5 -8l30 -5l23 5l10 5l30 21l15 11l8 10q4 6 12 8l9 1l24 13q9 4 15 1l14 -4q4 -1 7 -3.5t5 -4.5l20 -20l22 -7q4 -2 6.5 -2.5t5.5 -3.5l14 -12l24 -14l11 -5q8 -4 6.5 -8.5t-8.5 -6.5l-4 -1l-7 -9l-3 -24q0 -4 -0.5 -6.5t-1.5 -6.5
l-4 -12l4 -7q2 -3 3 -5.5t2 -6.5l2 -13q1 -7 0 -14l-4 -18l-8 -40l5 -16q1 -7 -2 -15l-9 -16l-10 -27l-5 -11l-5 -14q-1 -6 -6 -12l-14 -18l1 -32l12 -5q7 -3 11 -9l11 -14l15 -14l18 -10q8 -5 7 -14l-1 -11q-1 -7 -8 -12l-7 -6v-24l6 -17q3 -7 -2 -15l-5 -7l2 -21l5 -25
l2 -17q1 -5 0.5 -7l-1.5 -6l-7 -22l1 -15l11 -25l13 -24l13 -12l14 -2q9 -2 13 -5l15 -10l16 -6q8 -4 12 -8zM376 764l-18 12h-17q-8 0 -14 3l-18 9l8 -24q1 -3 1.5 -5.5t0.5 -7.5v-2q-2 -8 -4 -13l-7 -16l6 -22q2 -8 2 -14v-25q0 -9 -1 -13l-4 -19l-2 -29l29 -7q9 -2 13 -5
l14 -9l36 5l11 16l1 10q0 5 1 7.5t3 6.5l12 22l-3 41l-3 15q-1 6 2 14l4 12z" />
    <glyph glyph-name="y" unicode="y" horiz-adv-x="649" 
d="M615 817q5 -5 3 -8.5t-9 -4.5h-4l-7 -18l3 -18q1 -7 -2 -15l-5 -9v-19l1 -21v-28l-3 -20l3 -11q1 -4 1.5 -6.5t0.5 -6.5l-1 -25l5 -12q2 -6 1 -14l-4 -15l-4 -18l4 -12q1 -4 1.5 -6.5t-0.5 -7.5l-4 -22l1 -5q1 -4 1.5 -7t-0.5 -7l-3 -13l6 -27q1 -9 -1 -15l-5 -13l1 -16
l4 -27q1 -5 0.5 -7.5t-1.5 -6.5q3 0 3 -10q0 -5 -3 -11l-6 -16l7 -16q2 -3 2 -6.5t1 -6.5v-2q1 -4 1.5 -7t-0.5 -7l-2 -11l-5 -32l4 -18q1 -4 1.5 -7t-0.5 -7l-2 -11l-6 -21l7 -18q2 -4 2 -14l1 -20l1 -2q2 -3 3 -5.5t3 -5.5l-2 -2q-2 -2 -6 -4l-24 -14l-11 -5q-4 -2 -13 -2
l-15 1l-9 -12q-5 -7 -12 -8l-13 -3l-12 -4l-23 -11l-22 -12l-13 -15q-3 -4 -11 -8l-11 -4q-9 -3 -14 5l-7 11l-23 19l-34 18l-21 14l-23 3h-9q-6 0 -13 5l-12 10l-20 -3q-7 -1 -14 3l-3 2l-29 -1l-13 -1q-7 -1 -14 2l-13 7q-9 6 -3 15l5 7l6 18l3 15q2 8 8 13l12 8l10 19
q2 5 12 9l6 2q8 2 13 2h23l8 4q7 4 14 4h42l4 3q6 5 15 3l17 -3q5 -1 12 -6l12 -8l17 -8l29 -7l11 3l-1 18q0 9 1 14l4 17l-4 21l-16 -7q-9 -4 -15 3l-24 24l-13 6q-8 4 -11 7l-17 17l-16 5q-8 2 -12 5l-14 10l-15 1l-15 2q-9 2 -13 6l-10 8l-27 9l-13 2l-17 -2q-8 -2 -15 4
l-14 10q-8 2 -12.5 4.5t-0.5 3.5l-2 30q0 9 1 13l5 16l-1 26v10l-3 31l-1 24l-1 8q-1 7 0 14l4 15l-3 22q-1 7 2 15l6 11l2 22l-4 15q-1 4 -2 6.5t-1 6.5l-1 14l-3 23q-1 5 0 8t3 6l7 13l-25 13q-4 2 -6.5 3.5t-4.5 4.5l-13 13l-15 14l-11 1l-18 4q-8 2 -12 7l-3 3
q-9 9 2 15l15 8l17 10q3 2 6 3t6 3l12 5l16 10l23 22l19 14l5 8q3 7 12 9l15 3q10 2 14 -5l10 -13l17 -7l24 -14l9 -4q8 -4 12 -7l18 -13l22 -8l29 -3l14 1l20 11q5 4 12 5l13 3l8 10q2 2 4 4.5t5 4.5l19 15l24 24q8 8 16 0l19 -20l30 -13q3 -2 5.5 -3t5.5 -4l18 -15l26 -12
l18 -3q8 -2 12 -7zM421 472q-1 4 -1 14l1 13q0 6 5 13l3 4l-5 15q-1 4 -1.5 6.5t0.5 7.5l5 25l-3 18l-1 15q0 9 1 14l4 14l-7 24q-1 8 3 15l3 4l-7 26q-2 8 1 15l9 20l-23 9q-8 4 -12 8l-8 7l-18 13l-18 5l-21 -1l-11 -12l-6 -23l-3 -9l-4 -30l5 -16q1 -4 1.5 -6.5
t-0.5 -7.5l-2 -10l-1 -19l-3 -27l1 -15l5 -19q1 -4 1.5 -7t-1.5 -7l-6 -15l1 -22l4 -20l23 -16l16 -7l21 -10q5 -2 11 -7l16 -12l17 -11l11 6z" />
    <glyph glyph-name="z" unicode="z" 
d="M510 103q-2 -4 -7 -8l-18 -11l-10 -6l-24 -11l-16 -8l-20 -7l-13 -3h-4l-27 -12l-18 -11l-9 -8q-6 -6 -12 -7l-10 -3q-4 -1 -7 -1.5t-7 0.5l-17 4q-5 1 -12 6l-15 11l-9 5l-17 5q-4 2 -6.5 3t-5.5 3l-12 9l-23 -3q-6 -1 -14 2l-37 16l-24 2h-11q-8 0 -14 3l-13 7l-24 -2
l-15 -1q-12 0 -11 11q0 3 9 6q-3 3 0 11l5 17v30l-1 5q-1 7 0 14l6 24l1 22l1 11q0 9 5 14l12 11l2 12q1 6 5 13l13 18l4 14l6 17q1 4 5 12l11 20l16 21l1 8q2 8 8 12l10 6l7 19q4 8 7 12l8 9q2 3 4.5 4.5t5.5 3.5l10 7l8 20q2 6 11 10l12 5l14 18l1 21q0 7 6 13l11 8l20 16
l10 23l7 18q4 8 7 12l7 8l8 26v29q0 4 0.5 7t1.5 7l5 17l1 19l-15 7l-32 -4l-13 -3q-6 -1 -14 2l-18 8l-9 -3q-5 -2 -7.5 -1.5t-6.5 1.5l-18 5l-21 4l-9 -2q-8 -2 -14 1l-21 7q-7 3 -11 8l-9 10l-12 2q-4 1 -7.5 2t-5.5 5l-9 14q-5 3 -3.5 6.5t8.5 5.5l18 6l15 12q7 5 12 6
l18 5l20 5l20 2l24 2l11 10q8 6 13 7l17 3l10 13q2 4 5 5t7 3l13 6l31 12q0 5 4 6.5t9 -1.5l6 -3q6 -3 11 -8l12 -12l13 -5q3 -2 6 -3.5t5 -5.5l6 -8l26 -8l16 -7q5 -2 11 -7l14 -11l13 -4l9 -2q9 -2 13 -5l11 -6q9 -6 4 -14l-3 -11v-17l1 -16q0 -6 -2 -14l-5 -21l-1 -22
l2 -15q0 -8 -3 -14l-5 -11l-5 -16q-1 -4 -2 -6.5t-3 -5.5l-5 -10l-8 -19l-5 -14q-2 -6 -5 -12l-14 -22l-4 -14q-1 -6 -9 -12l-8 -6l-13 -26l-13 -19l-2 -9l-11 -22q-2 -4 -3 -6.5t-3 -5.5l-5 -8l-20 -24l-7 -13q-3 -6 -8 -11l-6 -5l-9 -24l-11 -20l-8 -12q-2 -4 -4 -5.5
t-6 -3.5l-13 -7l-5 -21q-1 -5 -3.5 -7.5t-5.5 -4.5l-5 -3l-15 -22l-15 -23l18 -19h9q9 0 13 -3l16 -11l16 -3l25 -9l16 9l-5 9q-4 6 -3 14l2 12q2 8 4 13l10 21q4 9 13 9l19 1l13 2l19 11q6 5 14 3l13 -2l17 5q4 1 7 1.5t7 -0.5l11 -2q9 -2 13 -7l4 -5q6 -8 7 -13l1 -5
q1 -8 -1 -14l-3 -9l7 -13q4 -6 1 -15l-7 -16l7 -16q3 -7 0 -15l-8 -17l5 -22l5 -6q7 -6 5 -11z" />
    <glyph glyph-name="braceleft" unicode="{" horiz-adv-x="340" 
d="M258 757l-16 -21v-56q0 -7 -3 -13l-2 -7l8 -23q3 -6 3 -13v-8l4 -15q1 -4 1.5 -7t-0.5 -7l-1 -10l-1 -29l3 -32l1 -12q0 -9 -1 -13l-1 -6q-1 -7 -8 -12l-12 -9l-5 -19l13 -12q7 -5 8 -12l3 -11q2 -8 2 -13v-12q0 -9 -1 -13l-4 -25l-2 -27l1 -20v-22q0 -8 -3 -14l-8 -21
l1 -6q2 -8 2 -13l3 -42l-1 -26l10 -13l18 -6l27 -12q8 -3 10 -10l3 -8q3 -8 2 -14l-3 -14l-1 -14l1 -20l5 -12q3 -9 -3 -15l-17 -15q-8 -8 -16 0l-1 1l-53 -5l-8 -2q-8 -3 -15 1l-21 10l-8 2q-7 1 -13 6l-13 8l-16 13l-6 6q-6 6 -8 10l-8 14l-11 16q-4 6 -5 14l-2 14
q-1 4 -0.5 7t1.5 7l5 29l-3 13q-1 4 -1 13l1 15q0 7 6 13l4 5l11 28l-4 7q-3 7 1 15l11 20l-7 34q-1 7 0 13l5 20l-8 9l-16 17l-22 22q-6 4 -7 13l-2 13l1 29l3 22l-1 18q0 7 5 14l11 13q4 5 13 7l10 2l4 23l7 20l-6 41v28l-1 6q-1 4 -1.5 7t0.5 7l1 12l-10 18q-3 7 -5 13
l-2 9q-1 5 -1 14l2 16l-3 37q0 8 3 14l6 10l2 10q1 5 6 12l11 16l5 6q3 4 9 10l2 2q2 3 4.5 5t5.5 4l14 9l18 14q6 5 13 6l9 2l21 3q7 1 14 0l36 -8h8q9 0 14 -4l12 -8q6 -4 9 -11l3 -5q3 -7 1 -15l-5 -16l-3 -27l-2 -24v-8q0 -13 -12 -10l-12 3z" />
    <glyph glyph-name="bar" unicode="|" horiz-adv-x="270" 
d="M76 817l2 13q2 8 9 12l16 9l15 15l6 5q3 3 5 4.5t5 3.5l18 11l15 6q10 3 15 -3l13 -15q3 -4 7 -12q1 -3 1.5 -5.5t0.5 -6.5l1 -15q0 -10 -3 -14l-6 -10l2 -18q1 -6 -2 -14l-3 -8v-21l9 -20q3 -6 3 -14l-1 -7q0 -9 -2 -13l-8 -22l3 -4q4 -7 3 -14l-4 -15l7 -19q2 -4 2 -14
v-9q0 -8 -3 -14l-7 -16l2 -16l6 -20q2 -8 -1 -15l-7 -18l3 -16l2 -25l3 -9q2 -5 1 -7.5t-3 -6.5l-8 -16l8 -15q2 -6 1 -14l-2 -10l2 -34l2 -10q1 -6 -2 -14l-9 -18l6 -7q6 -7 3 -14l-5 -17l-1 -21v-6.5t-1 -6.5l-1 -3l2 -33l5 -10q2 -4 3 -7t-1 -8l-10 -31v-17q0 -5 -2 -13
l-4 -14l-5 -19q-1 -8 -7 -12l-13 -12q-3 -3 -5 -4.5t-5 -3.5l-7 -5l-12 -20q-5 -7 -11 -9l-12 -4l-11 -8q-9 -8 -15 1l-10 13q-5 7 -5 14v18l-2 8q-1 7 2 15l4 8l-5 23q-1 4 -1 14v14l2 16l-2 27l-2 10q-1 7 0 14l3 18l-3 11q-1 4 -1.5 7t1.5 7l9 27l-7 13q-3 8 -1 15l2 6
l6 30l-5 10q-3 7 0 15l7 22l-2 15l-1 22l-7 35q-1 7 3 14l7 10l-6 21q-1 4 -1.5 6.5t0.5 7.5l4 22l-3 5q-3 6 -3 13l-1 20l-2 13q-1 5 -0.5 7.5t1.5 6.5l6 20l-1 16v31l2 20l-3 16q-1 8 1 14l4 8l-7 18q-3 8 -2 14l3 30z" />
    <glyph glyph-name="braceright" unicode="}" horiz-adv-x="340" 
d="M45 765q-9 -2 -14 6l-8 13q-4 8 0 15l7 11v48l-7 13q-4 9 3 15l11 8q4 3 13 5l16 3q7 1 14 0l33 -8l14 5q8 3 15 -1l15 -9l5 -1q9 -2 13 -5l22 -14l8 -3q9 -3 10 -12l1 -6l17 -14q6 -5 7 -12l2 -9l2 -6t1 -7l1 -13v-48l-1 -15q0 -5 -1 -7.5t-3 -5.5l-5 -10l-2 -19
q0 -7 -3 -13l-6 -15v-17q0 -8 -3 -14l-4 -10l-2 -46l8 -8q6 -6 6 -14l1 -9l16 -16q4 -3 8 -11l7 -18l8 -12q5 -8 2 -15l-7 -18l1 -18l5 -19q2 -9 -2 -15l-10 -17q-4 -6 -12 -9l-17 -6l-7 -21l3 -9q3 -6 3 -13l1 -26q0 -9 -1 -13l-5 -19l4 -17l4 -23l1 -16l7 -32l3 -14
q2 -8 2 -13v-23q0 -9 -2 -13l-6 -18l2 -7q2 -8 -3 -14l-13 -21l-4 -6q-4 -7 -12 -9l-20 -4l-8 -7q-5 -5 -11 -8l-12 -6l-17 -7q-3 -2 -6 -2t-7 -1l-12 -2q-7 -1 -14 0l-29 4l-13 -2q-9 -2 -14 3l-7 6q-6 6 -6 13l-1 24v17l-2 10q-2 8 -2 13v18q0 7 4 14q2 3 10 6l20 8l19 14
l13 8l5 25l1 39v28l2 30l-9 16q-4 6 -2 15l3 13l-6 8q-5 7 -5 13l-3 36v13l1 11q0 8 8 13l10 4l13 20l6 15l-21 18q-5 5 -8 11l-3 5l-5 11q-2 4 -2 14l3 33q0 4 1 7l2 6l6 21l3 13l5 23l-3 6q-3 8 -1 15l15 39l-10 42l-8 17l-10 22l-16 12z" />
    <glyph glyph-name="exclamdown" unicode="&#xa1;" horiz-adv-x="294" 
d="M224 884q8 -3 8 -13l1 -10q0 -8 -3 -14l-6 -17l5 -10q3 -6 -1 -15l-2 -4q-2 -6 -7 -12l-16 -23l-5 -6q-3 -4 -11 -8l-14 -6q-3 -2 -6 -2t-7 -1l-21 -3l-29 -3q-9 0 -14 1l-17 2q-7 1 -13 5l-9 5q-8 5 -8 13v12q0 10 6 14l6 4l-3 30l-5 15q-3 7 2 15l12 18q2 4 4.5 5.5
t6.5 3.5l6 3q8 4 14 3l18 -2l21 10q7 4 15 -1l5 -2l14 8q7 4 15 1l13 -4zM58 630q-1 4 -1.5 6.5t0.5 6.5l1 5q1 10 11 10h9l26 6l12 5q4 2 13 2l19 -2l9 7q6 5 13 6l13 2l22 10l6 5q7 7 15 3h1l7 -3q8 -4 2 -15l-2 -4l-4 -23l-4 -24l5 -23q2 -8 2 -14v-11l3 -16q1 -6 -2 -14
l-6 -14l-1 -20l6 -22q2 -8 -4 -15l-3 -4l3 -24q1 -5 0.5 -7.5t-1.5 -6.5l-2 -6l5 -27l3 -14q1 -4 1.5 -7t-0.5 -7l-5 -24v-23l2 -3q4 -5 2 -15l-4 -21l3 -18l1 -22q0 -10 -1 -14l-4 -15l2 -21l6 -17q3 -7 -2 -15l-7 -13l4 -14q1 -4 1.5 -7t0.5 -7l-1 -31q2 -2 -0.5 -5.5
t-9.5 -5.5l-5 -2l-40 -12l-27 -15l-11 -6l-12 -18q-5 -6 -10 -9l-19 -10l-2 -5q-3 -8 -8 -12l-9 -6q-5 -4 -9 -2.5t-6 6.5l-5 16l-4 16q-1 7 2 15l8 19l-6 10q-2 4 -2 14l1 17q0 4 1 7l2 6l5 15l-6 9q-3 6 -3 15l2 12v25q0 7 3 13l2 5l-7 17q-3 6 -3 13v18l1 14q0 4 0.5 6.5
t1.5 6.5l7 20l1 24l-6 11q-4 8 -2 15l2 7l-3 26q-1 7 4 14l3 3l2 29l-2 10q-1 5 -1 14l2 24l-1 15l-6 15q-3 8 1 15l7 13l-7 15q-3 7 -2 14l2 21l4 18z" />
    <glyph glyph-name="cent" unicode="&#xa2;" 
d="M502 203q8 -7 -3 -14l-5 -4q-4 -3 -13 -5l-17 -3l-15 -14q-8 -6 -13 -7l-16 -3l-23 -4l-22 -9l-15 -12l-18 -19l-33 -27l-1 -19q0 -9 -6 -14l-14 -10l-7 -12q-4 -6 -13 -8l-20 -3l-9 -9q-9 -9 -15 1l-8 10q-4 5 -4 14l1 18l-4 13q-2 7 0 14l3 8l-5 24q-1 8 1 14l3 10
l-21 32l-22 14l-25 4h-3q-10 0 -14 3l-14 9l-23 6l-28 3l-13 2q-3 1 -6 1t-6 2q-6 2 -6.5 6.5t5.5 8.5l5 2l-2 12q-1 7 0 13l5 23l-9 13q-4 5 -4 14l1 8q0 7 3 13l7 19l-3 3q-7 7 -2 15l7 14l1 25l-5 18q-2 8 -2 13v2q-1 5 -0.5 7.5t1.5 6.5l4 13l-2 33l-2 10q-1 8 1 14
l5 15l-7 13q-3 8 -2 14v6q0 8 3 14l4 11v18q0 10 1 14l4 14l-2 25l-12 14q-6 10 4 14l10 5l16 10q5 4 14 4h14l21 9l44 15l14 9l12 13q4 5 13 7l15 3v27q0 10 2 14l4 9l6 15q3 6 9 12l12 10l10 15l17 19q5 6 14 6h5l18 7q10 3 15 -3l4 -5q2 -3 4 -5.5t3 -6.5l6 -20
q2 -7 0 -15l-3 -11l2 -20l1 -28l2 -14q1 -4 0.5 -6.5t-1.5 -6.5l-4 -16l18 -36l18 -5l23 1h6.5t6.5 -1l16 -2l18 -6l19 2q8 0 14 -3l14 -6q8 -3 7 -13v-3q-1 -6 -6 -13l-12 -14l-3 -11q-1 -4 -2 -6.5t-3 -5.5l-5 -9q-5 -6 -11 -10l-21 -11l-7 -7q-6 -6 -12 -7l-13 -4
q-6 -3 -14 -1l-10 1l-38 -3q-9 -2 -15 3l-10 7l-19 1l-23 4q-4 1 -6.5 1.5t-6.5 2.5l-25 13l-18 -4l-5 -24l4 -16l1.5 -6t0.5 -7l-1 -10q0 -4 -1 -7t-3 -7l-4 -6l4 -13q1 -6 0 -14l-5 -26l3 -3q6 -7 4 -15l-2 -14l1 -26l4 -13q1 -7 0 -14l-5 -25l23 -7q6 -2 12 -7l10 -9
l18 -8l33 -22l17 3l6 22l5 32q2 9 13 9l23 -1l8 8q7 7 14 6l17 -2l18 1l22 8q4 2 7 1.5t7 -1.5h1q5 -1 12 -6l11 -7q8 -6 6 -15l-4 -14l7 -9q5 -6 3 -15l-6 -20v-4v-13l-1 -16l4 -22q1 -6 0 -13l-2 -13l-1 -6z" />
    <glyph glyph-name="sterling" unicode="&#xa3;" horiz-adv-x="599" 
d="M572 106q5 -2 -6 -11l-6 -6q-4 -5 -12 -7l-15 -4l-21 -9l-16 -6q-6 -3 -14 -3h-3l-28 -17l-13 -6l-15 -6l-27 -12l-14 -17q-7 -9 -15 -1l-21 17l-13 3l-12 4q-3 1 -12 6l-14 7l-22 13l-15 1q-5 0 -13 2l-13 3l-23 -2q-10 0 -14 2l-13 6l-17 3l-16 -4q-4 -1 -13 -1l-10 1
q-7 0 -13 3l-15 5l-16 -7q-7 -4 -15 -1l-21 8q-5 2 -8 4.5t0 4.5l-1 31q0 5 2 13l6 20l-4 6q-5 8 -1 15l7 13l-2 25l-3 11q-1 6 2 14l11 22l-5 9q-4 6 0 15l8 20l4 26l-1 12q0 5 1.5 7.5t3.5 6.5l5 7l5 23l-5 15q-2 8 2 15l8 14l-4 19q-2 8 4 14l10 10l-1 22q0 9 1 13l6 38
l-1 6q0 5 0.5 7.5t1.5 6.5l4 14l1 24q0 7 3 13l5 11l-2 12q-1 7 0 14l6 24l-6 14q-3 6 -3 13l-1 14q0 9 1 13l4 14l-2 14q-1 4 -0.5 6.5t0.5 6.5l2 24l-5 2h-1q-6 2 -6.5 6.5t4.5 8.5l11 10q4 4 13 6l16 3l19 7l14 7q5 2 13 4l14 3l20 13l11 6l21 10l19 11l13 14q7 9 15 2
l16 -13l16 -5q8 -3 11 -11l2 -4l22 -14l18 -5q8 -3 12 -7l7 -8l16 -1l14 -2q3 -1 6.5 -1t6.5 -2l28 -10l16 -4l11 3q8 2 14 2h14q7 0 13 -5l15 -11q7 -5 5 -15l-5 -7l-10 -14l-5 -19q-1 -7 -10 -11l-18 -10l-4 -11q-3 -8 -10 -11l-3 -1q-7 -4 -13 -4h-20l-22 -6l-32 -5
q-7 -1 -14 0l-20 5q-7 2 -12 6l-4 4h-20l-15 3q-4 1 -7 1t-6 2l-24 11l-13 -8l2 -13q1 -8 -2 -15l-2 -4l2 -30l1 -5q2 -10 0 -15l-5 -13l3 -10q1 -7 0 -14l-6 -26l10 -6l18 17q3 2 5.5 4t6.5 3l7 1l19 20q7 7 15 2l16 -8q8 -4 11 -8l8 -10l24 -9q7 -3 11 -9l12 -16l17 -2
q9 -2 13 -5l8 -6l14 -8q10 -7 2 -16l-7 -7q-3 -3 -11 -8l-15 -9l-9 -16q-2 -5 -11 -9l-17 -6l-5 -6q-3 -4 -9 -10l-11 -10q-4 -4 -14 -4l-12 1l-31 -11q-7 -3 -15 2l-10 6l-19 13l-27 1l-22 -5l-2 -19q0 -5 -2 -13l-5 -16l-2 -14l2 -19q1 -4 0.5 -6.5t-1.5 -6.5l-3 -11
l-2 -6t-3 -7l-6 -12l3 -8q2 -5 1.5 -7.5t-2.5 -7.5l-9 -23l1 -20l6 -22l24 -9l25 -5h17q9 0 13 -1l12 -4q4 -2 7 -2.5t6 -3.5l7 -7l19 -6l33 -2l17 -3l-1 28l1 26l-4 18q-1 8 1 14l2 5l1 30l-2 11q-1 5 -0.5 7.5t1.5 6.5l6 20q3 10 12 10l21 1l16 11q5 4 13 4l13 -1l8 4
q7 4 12 5l9 2q5 1 14 1l10 -1q5 0 13 -6l19 -18q7 -7 2 -15l-4 -8l2 -18v-13l-3 -20l-2 -12l3 -20l7 -21q2 -7 0 -14l-6 -16l6 -14q2 -6 1 -14l-4 -19l-2 -27l5 -10z" />
    <glyph glyph-name="currency" unicode="&#xa4;" horiz-adv-x="778" 
d="M651 276q5 -5 8 -11l5 -9l7 -7q4 -4 8 -12l5 -12q2 -4 2 -14l-2 -20l-1 -24l2 -7q1 -8 -1 -14l-6 -14l-6 -19q-3 -9 -13 -9h-7q-9 0 -13 7l-7 9l-9 7q-3 2 -5.5 4t-4.5 5l-19 23l-29 -3l-26 -1l-7 -8q-6 -6 -14 -6h-10l-27 -10l-10 -11q-3 -4 -12 -7l-13 -4l-9 -10
q-6 -8 -15 -3l-12 7l-18 13l-24 15l-6 4t-5 5l-5 6l-16 4q-7 2 -13 7l-12 12l-30 9l-12 6l-20 4l-43 -6l-13 -14q-6 -6 -13 -6h-14l-20 -5q-6 -1 -13 0h-3l-18 -10q-6 -4 -14 0l-20 9l-15 -1q-4 0 -7.5 0.5t-6.5 4.5l-2 4t-2 6l-6 20q-2 8 4 14l10 8q4 4 11 8l15 8l6 14
q2 7 10 10l18 7l3 8q3 6 8 11l9 8l24 38l-1 14v7t1 7l2 23l-2 13l-4 17q-1 9 1 15l7 15l-1 29l-3 14l-1 19l-2 21q0 8 1 13l4 16l-3 18l-11 33l-11 9q-3 2 -5.5 4t-4.5 5l-17 24q-2 3 -3.5 5t-3.5 6l-5 11l-10 23l-8 20q-2 4 -2 13v9q0 10 2 14l2 7q2 3 3 5.5t3 5.5l10 15
l5 17q3 9 13 9h6q10 0 14 -2l15 -6q8 -3 11 -11l3 -10l15 -12q6 -4 9 -11l8 -14l27 -21l32 -8l21 12l18 12l5 4q3 3 6 4.5t6 3.5l16 6l14 9q8 5 15 1l12 -6q3 -2 6 -3t6 -3l15 -11l17 -7l13 -2q9 -2 13 -6l12 -13l15 -10l17 1q8 0 13 -4l13 -10l36 6l7 16q3 6 10 10l30 17
l17 15l8 6q6 6 14 3l14 -3l27 3q9 0 14 -1l11 -3l22 -9l11 -1q11 0 10 -11l-2 -19q-1 -4 -2 -7t-5 -6l-11 -8l-2 -3q-2 -4 -4.5 -6t-5.5 -4l-15 -10l-4 -14q-3 -8 -10 -11l-8 -4l-24 -22l-3 -14q-1 -4 -5 -12l-18 -33l3 -8q2 -7 0 -14l-4 -13l4 -14l1.5 -6t0.5 -7l-2 -18
l-4 -21l2 -24q0 -4 0.5 -7t-0.5 -7l-3 -15l4 -15q1 -4 1.5 -6.5t-0.5 -7.5l-2 -11l-3 -13l-5 -15l15 -36zM441 320l4 25l4 19l-8 18q-3 7 0 14l4 8l3 26l-2 17l-2 18v27q0 10 1 14l5 19l-23 4q-5 1 -13 7l-10 9h-9q-9 0 -14 5l-18 15l-20 11l-2 -10l-2 -28l-2 -14
q-2 -8 -4 -13l-1 -4v-19q0 -5 -2 -13l-4 -17l5 -7q6 -8 5 -14l-2 -14l3 -15q1 -6 -2 -14l-5 -14l-5 -37l25 -9l17 -3l11 -4q9 -3 12 -9l13 -18l24 -14l9 10z" />
    <glyph glyph-name="yen" unicode="&#xa5;" horiz-adv-x="756" 
d="M721 470q6 -4 -3 -12l-11 -10q-2 -2 -5 -4.5t-7 -3.5l-6 -2l-15 -7q-8 -4 -13 -5l-19 -4l-23 -15l-17 -17l1 -14q0 -14 -5 -12l2 -5q3 -6 3 -14q3 -2 5 -5q6 -5 8 -8q3 -2 3.5 -2t3.5 -2l8 -3q3 -2 6 -3.5t5 -5.5l13 -19l26 -10l7 -1q7 -2 7.5 -6t-4.5 -9l-9 -7
q-3 -3 -11 -8l-12 -7l-10 -12q-5 -7 -13 -7l-14 -1l-20 -36v-19q0 -4 -0.5 -7t-1.5 -7l-4 -13l7 -35l2 -3q1 0 -9 -8l-14 -10l-11 -8q-6 -4 -12 -6l-14 -5l-21 -8l-12 -11q-3 -3 -5 -4.5t-6 -3.5l-9 -5q-6 -5 -14 -3l-15 2l-6 -10q-4 -5 -10 -9l-21 -11l-6 -5q-9 -7 -16 -1
l-11 9l-20 19l-12 3q-9 2 -13 5l-7 5l-23 10l-18 5q-9 2 -13 6l-15 14l-12 -5q-7 -3 -14 0l-14 4l-24 6l-9 2l-22 3q-4 1 -7 1.5t-6 2.5l-11 7q-9 5 -5 14l1 1l7 21q3 9 9 11l8 4l4 21q1 7 8 12l7 5q3 2 6 3t6 3l10 4q4 2 13 2h19l4 8q5 8 14 7l43 -8l18 4q8 2 14 -1l8 -3
l19 -5q6 -1 12 -7l11 -11l17 -14l18 11l2 35l-3 12q-1 4 -1.5 7t0.5 7l3 18l-9 -10q-8 -10 -15 -1l-18 18l-11 9l-15 16l-29 12l-9 1q-3 1 -6 0.5t-7 1.5l-14 5l-33 15q-3 2 -5.5 3t-5.5 4l-10 9h-16q-9 0 -13 2l-17 6l-17 9l-25 3h-6q-8 1 -9.5 4.5t4.5 7.5l-6 22
q-1 7 0 14l4 20l2 28l-1 12q-1 5 -0.5 7.5t1.5 6.5l3 11v21l1 24l-6 19q-1 8 3 15l6 10l-3 27l-1 14l-6 16q-2 6 -1 14l4 26v20l-2 24l-13 17l-15 9l-22 17l-19 2q-8 2 -13 4q-4 1 -10 6l-8 7q-9 8 1 15l7 5l28 15l20 14l7 9q3 6 10 9l12 5l29 16l16 9l16 6q8 3 14 2l11 -2
q9 -2 13 -8l12 -19h14q9 0 14 -5l15 -13l21 -11l17 -8l23 -12l19 4l27 16l10 11q4 4 13 6h2l17 16l24 19l10 12q7 9 16 2l20 -15l20 -14l11 -7q3 -2 6 -3.5t5 -4.5l16 -17l27 -7l18 -9q3 -2 5.5 -3t5.5 -4l1 -1q9 -8 -1 -15l-1 -1l-11 -15l4 -11q2 -4 2 -14v-3q0 -10 -2 -14
l-8 -21l8 -16q3 -8 2 -14l-2 -19v-6q0 -5 -2 -13l-5 -20l2 -20l2 -17q1 -5 0.5 -7.5t-1.5 -6.5l-2 -7l2 -33l13 -27l14 -6q8 -4 12 -7l13 -10l13 -1q4 -1 7 -1t6 -2l40 -17zM424 471q-1 8 0 14l2 8l3 31l-6 10q-3 8 -2 14l3 19l-2 11q-1 4 -1 13l1 14l-2 21q-1 8 3 14l9 15
l-8 19q-3 10 2 15l5 7l-5 40l-16 9l-20 15l-19 12l-18 1q-7 1 -13 6l-8 8l-18 -21l-7 -22l5 -17q2 -8 -1 -15l-4 -9l1 -18l5 -11q2 -6 1 -14l-4 -21l6 -20q1 -7 0 -14l-3 -11l-8 -18l8 -22q2 -5 1.5 -7t-2.5 -7l-5 -12l12 -26l5 -1q3 -1 6.5 -1.5t6.5 -2.5l9 -4q3 -2 5.5 -3
t5.5 -3l18 -14l16 -6q8 -3 11 -10l3 -5l21 7z" />
    <glyph glyph-name="brokenbar" unicode="&#xa6;" horiz-adv-x="270" 
d="M66 786q0 5 2 13l2 8q1 7 4 12l6 11q3 6 8 11l16 16l11 12q2 3 4.5 5t5.5 4q2 2 10 6l7 3q6 3 13 3l9 1q8 0 14 -3l20 -11q8 -5 7 -14l-1 -4l-7 -32l-1 -17l3 -17l5 -29l1 -22q0 -10 -1 -14l-3 -14l-4 -17l6 -17q3 -7 -2 -15l-8 -14l7 -39q1 -7 -2 -15l-6 -14l-7 -20
l-6 -12l-9 -16l-3 -8q-2 -6 -9 -11l-9 -5l-19 -20q-2 -3 -4.5 -4.5t-5.5 -3.5l-4 -2q-5 -3 -14 -5h-5q-10 0 -14 3l-5 3q-7 4 -7 13v9q0 9 1 13l3 12l-3 22l-2 9q-1 4 -1.5 7t0.5 7l4 22l-6 17q-3 6 -3 14l1 16l-1 9q-1 5 0 8t3 6l5 10l3 25l-8 14q-4 6 -3 14l2 12v45z
M73 315q0 5 4 13l5 12v23q0 8 6 14l11 10l18 14l12 9q6 6 13 7l11 3l19 10q10 5 15 -3l4 -5q5 -7 6 -13l2 -8q1 -5 1 -13l-2 -23l-4 -23l6 -15q2 -4 2 -14v-13q0 -9 -2 -13l-4 -11l3 -15q1 -7 -2 -15l-4 -9l6 -32l4 -8q3 -6 3 -14l-2 -42q0 -5 -2 -13v-1q-1 -4 -3.5 -7
t-4.5 -5l-12 -14l-3 -16q-1 -6 -6 -13l-9 -10l-8 -13q-2 -3 -4 -5.5t-4 -5.5l-12 -12q-2 -2 -5 -4.5t-7 -3.5l-8 -2l-12 -4q-9 -3 -15 -1l-16 5q-9 3 -9 12v5q0 6 2 14l4 15l2 23l-4 17l-2 18q-1 4 -0.5 7t0.5 7l1 15l3 17l-2 28l-2 14q-1 4 -1 13l2 22l2 13l2 31z" />
    <glyph glyph-name="section" unicode="&#xa7;" horiz-adv-x="614" 
d="M557 435q2 0 2 -1q2 -2 0 -5.5t-4 -6.5l-7 -11q-5 -7 -11 -9l-20 -6l-14 -10l-15 -7q-6 -3 -14 -3l-19 -2l-20 -16l-7 -5q-8 -6 -12 -7l-14 -4l-20 -15q-9 -7 -15 2l-13 20l-15 12l-21 12l-37 10l-44 17l-7 -14l13 -6l24 -15l20 -18l10 -12l24 -7l13 -7q8 -4 12 -7l10 -8
l9 -10l8 -9l13 -7q4 -2 6 -4t4 -7l4 -10l10 -14l19 -18q6 -6 6 -14v-15l7 -20l4 -17q2 -8 2 -13v-7v-6.5t-1 -6.5l-1 -5l7 -13l1 -1q10 -10 -4 -15l-21 -7l-12 -7q-4 -2 -6.5 -2.5t-6.5 -2.5l-16 -5l-6 -6q-3 -3 -5 -4.5t-6 -3.5l-15 -8l-14 -7q-4 -2 -12 -4l-8 -1l-27 -8
l-9 -10q-6 -7 -15 -4l-7 2q-9 3 -12 8l-12 14l-20 11l-11 3q-8 2 -12 4l-14 6l-22 5q-5 1 -12 6l-14 12l-24 4l-13 3l-13 -7q-8 -5 -15 -1l-17 8l-19 3q-12 2 -9 12l5 22l2 5q2 3 3 6t3 6l6 7q2 3 4 5.5t5 4.5l18 14l41 25q6 5 12 6l3 1q4 1 14 1l32 1l23 -1q8 0 14 -5
l14 -11l5 -1q9 -2 13 -6l12 -10h14q9 0 13 -3l8 -5l-7 25l-6 3q-3 2 -6 3t-6 3l-13 10q-5 5 -8 11l-6 14l-16 8q-3 2 -5.5 3t-5.5 4l-11 10l-12 5q-8 4 -12 8l-3 3l-9 11l-9 13l-22 16q-8 6 -10 10l-2 5l-14 6q-8 3 -11 10l-8 17l-11 18l-10 17l-6 12l-1 3q-3 6 -1 14l5 19
l-4 9l-8 17q-2 0 4.5 5t13.5 9l21 9q8 4 13 4l9 1l16 15q4 4 12 7l9 3l25 5l21 13l10 11q2 3 4.5 5t5.5 4l13 7q8 5 15 0l13 -7q8 -4 11 -8l13 -11l22 -22l35 -14l36 -7l13 5l-20 24l-18 7q-6 2 -11 9l-9 16l-7 1q-7 1 -13 6l-22 16l-29 17q-3 2 -5.5 4t-4.5 5l-6 7
q-2 3 -4 5.5t-3 6.5l-3 13l-22 21l-11 9q-5 5 -8 12l-4 11l-7 10q-2 4 -3.5 6.5t-2.5 6.5l-3 19l-4 18q-1 3 -1 6.5v6.5v21q-3 0 0.5 4t9.5 7l13 13q5 5 14 5l12 -1l31 14l8 9q3 4 11 8l9 5l20 9q3 2 6.5 2.5t6.5 1.5l17 3l15 10q9 6 16 -1l9 -8l8 -8l24 -18l14 -1
q8 0 13 -4l12 -8l26 -15l13 4q7 3 15 -2l11 -7l5 3q8 3 15 0l14 -5h24q8 0 14 -3l3 -1q8 -3 8 -13l1 -15q0 -9 -5 -14l-9 -9l-6 -11q-2 -3 -4 -5.5t-4 -5.5l-11 -11q-3 -3 -5 -4.5t-6 -3.5l-15 -9l-8 -7q-3 -2 -5.5 -4t-6.5 -3l-13 -4q-4 -1 -7 -1.5t-7 0.5l-33 6l-26 7
l-22 5l-8 -2q-9 -1 -15 5l-3 4l-18 16l-18 1l3 -18l10 -16l17 -6l22 -10q4 -2 10 -10l9 -15l20 -1q8 0 13 -7l14 -17l10 -15l13 -4q4 -2 7 -3t5 -4l15 -19l13 -13l7 -9l17 -19l11 -12q5 -7 6 -13l3 -21l2 -16v-13l-1 -20l-1 -17z" />
    <glyph glyph-name="dieresis" unicode="&#xa8;" horiz-adv-x="427" 
d="M247 959q-8 5 -8 12l-1 20l-1 14l-4 32l-1 3q-1 8 4 15l18 21q2 3 4.5 5t5.5 4l7 4l20 11q7 4 14 1l8 -3l17 9q8 4 14 3l12 -2l18 4q9 2 15 -4l9 -9q5 -5 8 -11l3 -7q3 -8 1 -15l-9 -24l4 -8q4 -6 1 -14l-4 -12l-9 -24q-2 -5 -4 -7t-5 -4l-8 -5l-12 -7l-20 -8l-34 -9
q-5 -1 -14 -1h-6q-4 0 -7 1l-6 2l-10 3q-3 1 -12 6zM24 964q-9 7 0 16l2 1l-1 21l-5 23q-2 8 -2 13v9q0 6 5 13l14 17q4 5 11 8l14 5l22 5l15 8l13 6q8 4 15 0l14 -7l19 7q9 3 15 -3l6 -6q4 -4 7 -11l5 -13q2 -4 1.5 -7t-1.5 -8l-2 -9l-4 -29l1 -16q0 -8 -3 -14l-7 -16
q-3 -8 -11 -11l-12 -4q-4 -1 -14 -1l-17 1l-4 -9q-5 -8 -14 -7l-15 2l-23 -4q-8 -2 -14 1l-7 3q-8 4 -12 7z" />
    <glyph glyph-name="copyright" unicode="&#xa9;" horiz-adv-x="961" 
d="M936 433q0 -9 -1 -13l-2 -13l-6 -19l-1 -21q0 -9 -4 -14l-7 -11l2 -18q1 -8 -5 -14l-8 -7l-3 -19q-2 -8 -4 -13l-6 -14q-4 -8 -7 -12l-7 -8l-3 -8q-2 -3 -3 -6t-3 -6l-15 -21l-2 -13q0 -7 -6 -13l-10 -11l-8 -12q-5 -7 -12 -8l-18 -4l-12 -14l-13 -18q-2 -4 -4.5 -5
t-6.5 -3l-12 -4l-16 -15q-3 -3 -5.5 -5t-5.5 -4l-13 -9l-9 -7q-4 -3 -12 -7l-13 -6l-27 -10l-2 -1q-6 -3 -13 -3h-14l-20 -8q-6 -3 -14 -3l-17 -1l-20 -3l-29 -2l-11 -9q-7 -5 -15 -4l-37 4l-17 -1q-5 0 -13 2l-7 2l-19 4q-3 1 -6.5 1.5t-6.5 2.5l-21 9l-6 -2q-8 -3 -15 1
l-11 7l-43 24l-19 11l-24 3q-8 2 -13 4l-3 1q-6 3 -11 8l-18 15l-3 1q-3 2 -6 3.5t-6 4.5l-13 12l-22 24l-5 4q-5 4 -9 9l-6 8l-17 14q-3 2 -5 4t-4 6l-10 19l-10 24l-3 8l-15 14q-6 4 -7 11l-7 24l-6 8q-4 7 -5 13l-3 21l-5 11q-2 3 -2 6t-1 6l-2 10q-1 4 -1 13l1 21l-7 15
q-3 7 -1 15l3 8l-1 34q0 6 2 14l5 18l-6 13q-2 8 0 15l6 17l1 11q1 8 5 13l13 16l-4 11q-2 6 4 14l12 14l1 17q0 7 4 14l13 19l5 13q2 7 9 12l14 8l12 17l7 15l6 9q2 4 8 10l16 14l16 15l25 20l5 9q2 6 11 9l11 3l20 9l41 26q3 2 6 2.5t7 1.5l10 1l10 7q3 2 6 2.5t7 2.5
l16 5q5 2 13 2l9 1l21 13q4 3 12 5t14 1l22 -5l24 -3l28 9q4 1 7 1.5t7 -0.5l17 -4l20 1q9 0 13 -2l19 -8l18 -4l9 -1q7 0 13 -3l25 -10l12 -2q9 -2 13 -5l10 -8l19 -7q6 -2 11 -9l5 -9l20 -3q8 -2 12 -7l6 -7l20 -20l22 -17l7 -6l5 -5t4 -5l5 -8l22 -19q6 -6 9 -10l2 -3
q2 -3 4 -5.5t3 -6.5l4 -12l14 -10q6 -4 9 -12l4 -11l4 -19l11 -16q2 -4 3.5 -6.5t2.5 -6.5l2 -14l8 -23l5 -11q2 -3 2 -6t1 -7l2 -16l6 -20l3 -13l2 -16l1 -21zM830 429l-1 45l-8 18q-3 5 -4 12l-2 13l-5 21l-3 22q-1 7 0 13l3 13l-8 6q-5 4 -9 10l-7 10q-4 6 -5 13l-6 25
l-2 17l-12 14q-3 3 -7 11l-8 14l-14 9q-3 2 -5.5 4t-4.5 6l-8 16h-1q-7 3 -12 8l-14 15l-14 8q-3 2 -5.5 4t-4.5 5l-13 15l-17 3q-4 1 -12 5l-17 8l-11 3q-6 2 -12 6l-20 13l-9 2h-30l-20 2l-45 8l-44 -10l-17 -10q-6 -4 -14 -2l-10 2l-10 -7q-7 -5 -12 -6l-15 -4l-17 -16
q-3 -3 -5 -4.5t-6 -3.5l-16 -9l-20 -14l-10 -10q-5 -5 -11 -8l-12 -5l-7 -11q-2 -3 -4 -5t-4 -5l-13 -15l-9 -17q-2 -4 -3.5 -6t-3.5 -5l-7 -10l-4 -12q-1 -4 -2 -6l-3 -6l-6 -12l-6 -19q-1 -5 -5 -12l-10 -15l3 -13q1 -6 -2 -14l-8 -17l-8 -22l-2 -23l-2 -29l2 -40l3 -19
l5 -16q1 -4 1.5 -7t0.5 -7l1 -22l2 -13l3 -24l8 -23l13 -23l4 -4q4 -4 8 -12l12 -26l4 -10l11 -14q5 -6 7 -11l10 -18l17 -14l21 -19l16 -8l12 -7q3 -2 5 -4t4 -6l4 -9l25 -13q5 -2 11 -7l11 -8l9 2q8 1 14 -5l10 -12l49 -6l28 4h60l12 3q7 1 14 0l23 -2l11 9q4 3 12 7l20 9
l16 7l11 4l29 13l14 15l7 12q3 6 8 11l14 13l5 5t5 4l13 8l6 11l6 18q2 8 7 12l14 13l12 18l13 22l2 17q0 4 1.5 6.5t3.5 6.5l5 6l1 26q0 8 3 14l7 14v11q0 8 3 14l4 8zM718 282q3 -6 3 -14l-1 -10q0 -5 -2 -13l-3 -12q-1 -2 -1 -4v-2l1 -4q2 -4 -3 -12l-8 -11q-4 -7 -13 -7
h-3l-22 -13q-4 -3 -14 -5l-14 -2l-13 -6l-22 -8l-19 -10l-24 -17l-3 -8q-3 -7 -12 -9l-10 -2q-4 -1 -7 -1.5t-7 1.5l-11 4q-3 2 -6 3.5t-6 4.5l-19 17l-6 2q-8 4 -11 8l-9 10l-23 5l-22 7l-18 7l-24 12l-24 7l-5 1q-7 1 -13 6l-15 9l-17 5l-16 -4q-8 -2 -15 1l-9 3
q-5 2 -6.5 6t0.5 9l4 6l-1 22q0 5 2 13l1 5l5 27l-5 12q-3 6 -3 14v12q0 10 2 14l6 13l-7 20q-2 5 -1.5 7.5t2.5 6.5l2 5l7 20l-3 18q-1 7 0 13l3 21l-5 9q-2 6 -1 15l4 18l-4 6q-4 6 -2 14l7 25l-2 13v27l1 15l-2 15q0 8 1 13l6 27h-1q-10 -2 -13 8q-2 5 6 11l9 7q6 6 14 4
l15 -1l18 7l13 7q4 2 6.5 3t5.5 3l17 7l18 11l13 14q2 3 4.5 4.5t5.5 3.5l10 6l32 16q8 5 15 0l21 -13l3 -2q3 -2 5.5 -4t4.5 -5l13 -17l18 -5l6 -2t7 -3l5 -3l23 -11l22 -8l23 -3l17 -3l22 -6l27 -4h11q5 0 13 -2l6 -2q8 -1 10 -11l3 -11q2 -8 -4 -15l-5 -6l-19 -19l-2 -7
q-2 -5 -10 -11l-13 -8l-18 -12q-6 -4 -11 -7l-8 -4q-7 -3 -14 -2h-7l-39 -9q-4 -1 -7 -1.5t-7 0.5l-16 2q-9 2 -13 7l-5 6l-22 6q-4 2 -6.5 2.5t-5.5 2.5l-14 8l-13 6l-15 -2l-6 -22l-2 -25l2 -8q1 -7 0 -14l-5 -24l3 -14q1 -5 0.5 -7.5t-1.5 -6.5l-4 -17l2 -9q1 -4 1.5 -7
t-0.5 -7l-2 -18l7 -21q2 -7 -1 -15l-5 -9l-3 -23l27 -18l27 -7l8 -1q7 -1 12 -8l9 -13l19 -11l22 8l1 9q0 7 3 13l12 25q2 3 4 5.5t4 5.5l5 5q5 5 11 8l3 1q3 1 6.5 2t7.5 1l47 2l16 3q4 1 7 1.5t7 -1.5l2 -1q7 -1 13 -6l14 -13q6 -6 6 -14v-1l2 -19q1 -3 1 -6.5v-6.5v-7
q0 -5 -1 -7.5t-3 -5.5l-5 -10z" />
    <glyph glyph-name="guillemotleft" unicode="&#xab;" horiz-adv-x="816" 
d="M787 877q6 -6 5 -14l-1 -8l1 -8l-1 -14l-2 -27l1 -1q4 -6 2 -15l-3 -13q-2 -11 -13 -9l-27 2l-17 -11l-8 -6q-4 -3 -12 -7l-16 -6l-19 -6l-12 -14q-2 -2 -4.5 -5t-5.5 -5l-6 -4l-12 -18q-6 -8 -11 -10l-16 -6l-6 -23l-5 -19q-1 -6 -8 -12l-8 -6l-13 -19l-12 -29l-7 -17
l-8 -15l-5 -29l-2 -17l-2 -21l-7 -45l6 -8q5 -7 5 -13l-2 -22l5 -8q5 -6 7 -11l8 -22l11 -18q4 -8 5 -13l5 -16l8 -17l13 -15l15 -17q5 -7 6 -13l1 -5l20 -23l12 -5q7 -3 11 -9l16 -20l10 -9l19 -4q8 -2 12 -4l17 -6l14 -8h26q9 0 12 -9l4 -15q2 -8 2 -13l1 -10v-51l-1 -11
q-1 -8 -9 -12l-15 -6q-6 -3 -14 -3h-38l-10 -1q-6 -1 -13 0l-18 4q-5 1 -12 6l-4 3l-22 7l-28 14l-9 6l-19 11q-3 2 -5 4t-4 7l-2 6l-18 15q-6 6 -9 10l-4 4q-5 5 -8 11l-11 18l-13 13q-2 2 -4.5 5t-4.5 6l-1 3l-14 12q-6 4 -7 13l-2 10l-14 14q-7 5 -8 12l-4 16l-8 28l-9 7
q-6 5 -6 14l2 15l-16 18q-5 7 -6 13l-1 12l-1 21l-3 22l-3 12q-1 3 -2 6.5t-1 6.5l-1 20l-7 31q-2 8 3 14l8 10l-4 23q-2 8 5 15l9 9v17q0 8 4 13l7 12l6 19l6 20l11 26l8 18v12q0 5 1 7.5t3 5.5l10 17l10 15l24 26v3q0 6 7 13l16 15l4 9q3 6 6 11l7 9q2 4 4.5 6t5.5 4
l22 13l15 13l15 12l15 15q6 6 12 7l6 2l26 10l8 5q7 5 13 5h13l20 11q8 4 14 3l27 -5q7 -1 13 -6zM467 878q6 -6 3 -15l-2 -4l-1 -20l-2 -28l4 -12q1 -7 -1 -14l-2 -5q-3 -9 -12 -9l-18 -1l-19 -9q-3 -2 -5.5 -2.5t-6.5 -2.5l-15 -5l-17 -6l-21 -17q-3 -2 -6 -3t-7 -3l-5 -2
l-7 -13q-2 -6 -9 -11l-9 -7l-16 -21l-10 -18l-19 -25l-2 -12q-1 -8 -7 -12l-4 -4l-8 -23l-7 -22q-2 -7 -8 -11l-10 -8l3 -17q1 -4 0.5 -6.5t-1.5 -6.5l-2 -14l-3 -13l-3 -7l-1 -41l-3 -27l13 -15q4 -5 4 -14v-19l4 -22l11 -10q4 -4 8 -12l6 -13l8 -16q2 -4 3 -6.5t2 -6.5
l5 -17l6 -6q6 -6 8 -10l12 -20l21 -13q3 -2 5.5 -4t4.5 -5l10 -13l12 -11l5 -2q3 -2 6 -3t6 -3l26 -19l19 -9l15 -6l19 5q11 4 14 -7l6 -14q3 -9 -1 -15l-5 -7l1 -28l2 -19v-6q0 -9 -5 -14l-9 -9q-6 -6 -13 -6l-41 -1l-12 -4q-9 -3 -15 3l-13 10l-25 10h-13q-8 0 -13 8
l-8 12l-26 10l-10 2q-7 1 -13 6l-5 5q-2 2 -4 4.5t-4 5.5l-9 12q-2 3 -3.5 5t-3.5 6l-5 10l-22 18l-5 6l-5 5t-4 5l-7 13l-8 20l-13 15q-2 3 -3 6t-3 6l-5 12l-11 20l-6 15l-7 21l-8 23l-9 23l-5 12l-13 20q-4 6 -5 13l-2 12q-1 4 -1.5 6.5t0.5 6.5l2 13l-3 13q-1 7 0 13
l6 43l-2 23l-2 14q-2 9 6 14l8 6l-4 23q-2 9 4 15l10 9l1 11q0 10 2 14l3 9l6 12l10 16l11 15l12 26l1 12q0 7 3 13l7 18l8 14q3 6 8 11l15 14l4 7q3 7 11 10l17 7l2 12q1 7 8 12l13 9l29 31q3 4 11 8l4 2q5 2 13 4l21 4l20 13l9 5q6 5 12 6l11 3q5 2 13 2l16 1l41 2
q9 0 14 -5z" />
    <glyph glyph-name="registered" unicode="&#xae;" horiz-adv-x="961" 
d="M936 496q3 -7 0 -15l-6 -12l5 -28q1 -7 0 -14l-6 -25l1 -8q1 -5 0 -8t-3 -6l-7 -14l1 -29v-5q0 -8 -3 -14l-10 -17l-3 -17q-1 -4 -2.5 -6t-3.5 -6l-7 -11l-11 -18l-11 -25q-3 -6 -8 -11l-8 -7l-7 -14q-2 -4 -3 -6.5t-3 -5.5l-4 -4t-4 -5l-11 -12l-10 -22q-2 -6 -13 -8
l-9 -1l-14 -19q-2 -4 -4.5 -5.5t-6.5 -3.5l-15 -8l-11 -12q-6 -6 -13 -6l-10 -1l-21 -13q-4 -3 -13 -5l-13 -3l-16 -7l-15 -12l-14 -10q-6 -5 -14 -3l-25 4l-9 -7q-4 -3 -7 -3.5t-7 -0.5h-18l-19 -8q-5 -2 -13 -4l-6 -1q-4 -1 -6.5 -0.5t-6.5 1.5l-38 9l-6 -1q-7 -1 -13 1
l-16 6l-28 1l-11 -1q-8 -2 -14 3l-19 12l-16 -1q-8 0 -14 3l-11 4q-3 2 -5.5 3t-5.5 4l-5 5l-18 16l-26 6l-18 8q-7 3 -11 9l-4 5l-17 10l-12 11q-6 6 -9 10l-12 17l-17 12l-15 9q-3 2 -5.5 3.5t-4.5 5.5l-10 14q-4 7 -4 13l-1 8l-13 18l-14 18q-5 7 -5 13l-1 10l-7 9
q-5 6 -7 12l-4 8q-2 4 -3 6.5t-2 6.5l-5 16l-3 17l-8 33l-5 16l-5 18l-3 19q-1 3 -0.5 6.5t0.5 6.5l1 41l1 19q0 5 1 8t3 6l7 13l5 21l-3 7q-2 4 -1.5 7t1.5 8l3 12l5 16q1 4 5 12l15 24l7 14l9 23l7 15q3 5 7 11l8 11l4 12q3 7 8 12l8 8l12 19q5 7 11 9l14 5l6 13q3 7 9 11
l21 13l8 9q6 6 13 6l18 1l18 15l6 7q4 5 12 7l9 2l29 14l14 5l21 7l27 5l14 7q5 2 13 4l10 1l20 6q5 2 13 2h10q9 0 13 -1l36 -6l18 1q9 0 13 -1l15 -3l18 1q9 0 13 -1l13 -3q8 -2 12 -4l8 -3l16 -1q9 0 14 -5l12 -12l23 -7q4 -2 6 -2.5t6 -2.5l2 -1l6 -4t5 -5l8 -9l24 -6
q8 -2 12 -5l7 -4q3 -2 5.5 -4t4.5 -6l5 -8l18 -14l17 -15q6 -4 7 -12l3 -11l16 -4q8 -2 12 -7l7 -7q5 -5 6 -13l4 -22l3 -2q7 -3 10 -10l12 -20q2 -3 3 -5.5t2 -6.5l3 -11l13 -17q5 -6 6 -13v-2l6 -31l7 -10q4 -5 4 -13v-16l2 -25zM828 469l-6 20q-2 8 0 15l2 6l-10 35l-4 7
q-2 3 -3.5 6t-2.5 6l-2 5q-1 3 -1.5 6t-0.5 8l2 23l-13 19l-8 13q-2 3 -3 5.5t-2 6.5l-4 12l-11 14l-16 14q-6 4 -7 12l-4 19l-11 10l-17 16l-20 10q-8 3 -10 11l-4 15l-13 4q-7 2 -12 7l-11 10l-24 4q-9 2 -13 5l-13 7l-20 9l-21 4h-8q-9 0 -13 1l-18 4l-54 4l-13 -8
q-3 -2 -5.5 -2.5t-6.5 -2.5q-8 -2 -13 -1l-21 2l-24 -5l-13 -13q-6 -6 -13 -6h-16l-9 -11q-3 -4 -11 -9l-14 -7l-22 -13l-16 -14l-9 -18q-2 -4 -4 -6t-4 -5l-6 -8l-16 -19l-14 -17l-12 -12l-15 -30l-2 -9l-12 -29l-7 -17l-11 -21l-1 -27l3 -8q2 -4 1.5 -7t-1.5 -7l-4 -15
q-1 -3 -2 -5.5t-3 -6.5l-2 -7l1 -57l1 -10l8 -23q2 -8 2 -14l1 -14l5 -11q3 -7 4 -12l4 -20l4 -18l7 -17l15 -32l2 -4l6 -12l7 -19l11 -16l13 -24l25 -15l11 -10l15 -13q6 -6 8 -11l6 -12l17 -1q9 0 13 -6l13 -16l13 -6l25 -7q6 -2 12 -7l6 -6h20l24 -1q9 0 13 -1l12 -3
l40 -3l14 7q8 3 14 2l20 -4l18 9l23 8l28 6l5 6q3 5 12 8l13 4l22 11l21 23l4 11q3 8 10 11l12 5l10 12q4 6 10 10l16 10l1 13q0 5 1.5 7t3.5 6l10 14l14 26l4 16l7 18q2 3 3 6t3 6l11 14l-1 16q0 8 3 14l2 6q2 6 6 12l6 8l-2 21q-1 8 1 14l5 15v41zM734 247q13 -2 5 -14
l-4 -6q-2 -3 -4.5 -5t-5.5 -4l-7 -5q-5 -4 -12 -5l-22 -5l-6 -13q-3 -7 -11 -10l-16 -6l-13 -4l-12 -9q-7 -6 -15 0l-15 12l-20 1q-9 0 -13 7l-13 18l-3 1q-4 1 -7 1.5t-6 2.5l-20 12l-24 4l-13 -3l-8 -7q-6 -6 -12 -7l-20 -5l-25 -12l-4 -11q-3 -8 -11 -10l-8 -2
q-8 -2 -14 3l-17 10l-26 11q-8 -1 -14 6l-11 15l-17 11l-15 7l-6 3q-7 4 3 8l4 2l1 31l-4 15q-1 7 0 14l5 17l-4 10q-3 8 -2 14l2 14l-4 39l-1 15q0 9 3 11q-5 5 -7 10.5t0 4.5l1 25q0 6 5 13l4 4v27l2 27l1 8q0 7 4 14l3 4q6 8 15 5l7 -3l19 -3q4 -1 6.5 -1.5t6.5 -2.5
l7 -4l22 -6l23 5q10 2 14 -7l5 -11l15 -15q7 11 15 1l8 -10l13 8l4 25v22l-29 6l-4 -2q-8 -4 -14 -4h-11q-7 0 -13 3l-21 8l-14 2l-23 -1q-6 0 -14 2l-15 4l-20 8l-17 3l-22 5q-7 1 -12 8l-4 6l-18 11q-7 5 -6 14q1 6 9 10l6 3q5 2 13 4l25 4l5 4q5 4 13 4h15l25 12l4 3
q6 5 11 7l18 8l14 17l12 13q4 4 13 6l10 1l18 12q7 6 15 1l24 -12q3 -2 5.5 -4t4.5 -4l23 -18l10 -1q8 0 14 -6l13 -14l18 -5l12 -2q4 -1 7 -1.5t7 -3.5l16 -13l26 -5l-2 -4l-8 -26l4 -31l1 -6q2 -8 2 -14l-1 -17l-3 -25l-2 -24l2 -22v-13l-1 -12l33 -30h5q10 1 12 -10
q0 -1 -4 1v-22q0 -9 -1 -13l-7 -28l3 -22l-1 -31l23 -19l8 -4q6 -3 11 -8l16 -16l17 -8zM614 652q1 1 1 0h-1zM502 238l2 20q0 6 4 13l5 8l-7 10q-4 6 -2 15l5 14v32l-3 13l-20 6h-12q-9 0 -14 5l-13 14l-18 8l-9 5l1 -44q0 -7 -3 -13l-9 -18l2 -31l21 -10q8 -4 12 -8
l11 -11l19 -7l3 1q9 0 14 -7z" />
    <glyph glyph-name="macron" unicode="&#xaf;" horiz-adv-x="355" 
d="M175 936q-7 -3 -15 0l-18 9l-18 1q-8 0 -13 7l-11 12l-19 10l-9 6q-4 2 -6.5 3.5t-4.5 3.5l-16 14l-12 9q-10 7 -1 16l10 9q6 6 10 8l9 6l12 11q4 4 13 6l18 2l16 14l12 9q4 3 12 7l23 9l12 14q7 8 15 0l12 -11l21 -20h7q9 0 14 -4l19 -14l23 -15l14 -2q7 -1 13 -6
l12 -10q9 -9 -1 -16l-32 -22l-12 -15q-4 -6 -12 -9l-7 -3l-23 -16q-3 -2 -5.5 -3t-5.5 -3l-9 -4q-5 -2 -13 -4h-10z" />
    <glyph glyph-name="degree" unicode="&#xb0;" horiz-adv-x="490" 
d="M230 444q-7 -1 -14 0l-12 2q-9 2 -13 5l-14 8l-9 1q-5 0 -13 2l-4 1q-8 2 -12 7l-12 13l-19 15l-15 5q-9 4 -10 11l-3 13l-15 11q-5 4 -8 11l-11 20l-6 10q-4 8 -5 12l-4 15q-1 4 -1.5 6.5t0.5 7.5l3 14l-5 13q-3 6 -3 13l-2 31q0 4 -0.5 7t0.5 7l3 13l4 18q1 4 3 6.5
t4 5.5l5 7l1 11q1 6 6 13l15 16l6 19q3 7 8 12l2 2q4 4 12 7l18 5l4 10q3 8 10 11l16 5l11 9q6 5 11 7l7 4q4 2 7 3l6 2l11 3q4 1 6.5 1.5t6.5 -0.5l17 -2l46 -1l9 1q7 1 14 -2l17 -8l18 -5l16 -6q6 -2 12 -5l14 -7q6 -3 11 -8l9 -8l11 -9q6 -6 7 -13l2 -13l16 -4
q10 -3 12 -9l4 -7q3 -6 3 -14v-21l2 -5q3 -5 4 -12l4 -26l6 -11q2 -5 4 -13l5 -32q2 -7 -5 -14l-10 -10l5 -24q1 -4 0.5 -7t-1.5 -7l-2 -7q-1 -5 -5 -12l-10 -15l-6 -10q-2 -3 -4.5 -5t-4.5 -5l-19 -19q-7 -7 -11 -9l-13 -8l-15 -19q-4 -5 -9 -9l-5 -3l-25 -17l-7 -4
q-6 -5 -15 -3l-13 2h-26zM285 506l18 12q3 2 6.5 3t6.5 2l8 2l13 21l16 19l2 9q1 3 1.5 6.5t2.5 6.5l10 22l-3 17q-1 8 3 14l7 12l-6 40q-1 4 -0.5 7t0.5 7l1 13l-7 8q-5 7 -6 13l-4 20l-10 14l-11 18q-3 7 -5 13l-2 9l-21 7q-8 4 -12 8l-7 7l-22 8l-35 3l-45 -17l-21 -22
l-10 -13l-12 -23l-3 -12q-1 -7 -8 -12l-10 -6l1 -14q0 -5 0.5 -7.5t-1.5 -6.5l-6 -17l9 -39q1 -4 1 -14l-1 -10l-3 -29l9 -17l11 -11q6 -6 7 -12l6 -22l8 -17l29 -14l19 -11l5 2q8 3 14 2l35 -5z" />
    <glyph glyph-name="acute" unicode="&#xb4;" horiz-adv-x="258" 
d="M150 1114q7 5 14 5l12 1l17 2q8 2 14 -4l2 -2l5 -5t4 -6l3 -6q5 -8 -2 -15l-12 -12l-11 -10l-6 -9q-4 -7 -10 -10l-21 -12q-1 -3 -2.5 -6.5t-3.5 -6.5l-7 -12q-3 -5 -9 -10l-9 -7q-4 -3 -12 -7l-13 -5l-28 -19q-4 -3 -14 -5l-11 -1q-9 -2 -14 6l-2 3q-5 8 -2 15l3 10
q2 5 4.5 7t5.5 4l13 9l13 20l2 7q1 5 8 12l13 10l9 20q3 6 8 11l7 6z" />
    <glyph glyph-name="paragraph" unicode="&#xb6;" horiz-adv-x="906" 
d="M867 111q5 -2 3 -5.5t-8 -7.5l-9 -5l-9 -15q-4 -6 -12 -9l-14 -4l-19 -7l-24 -18l-10 -10q-6 -6 -10 -9l-9 -7q-8 -6 -12 -7l-5 -1q-4 -1 -7 -1.5t-7 0.5l-19 4q-4 1 -6.5 1.5t-6.5 2.5l-6 4q-3 2 -5 4t-4 7l-5 16l-38 7q-7 1 -13 5l-13 7l-31 11l-18 -14q-6 -4 -11 -7
l-2 -1q-4 -2 -6.5 -3t-5.5 -3l-20 -7l-4 -12q-3 -8 -10 -11l-19 -8l-13 -9q-8 -7 -15 2l-14 15l-5 2q-9 2 -13 6l-19 16l-11 4q-8 4 -12 7l-15 11l-20 15l-11 6q-1 3 -1 5q1 6 5 5l1 29v27l-6 16q-2 3 -1.5 5.5t0.5 7.5l1 19l-1 12q0 7 3 14l6 11l3 17l-1 32l-7 12
q-2 5 -4 13l-6 31l-24 13l-22 15l-17 12l-11 11l-17 4q-8 2 -12 7l-14 16l-13 -1q-8 0 -14 6l-13 13l-11 3q-4 1 -12 5l-27 12h-6q-4 0 -7 0.5t-7 3.5l-17 13l-10 -1q-4 -1 -7 -0.5t-7 1.5l-10 3q-8 3 -8 13q0 5 9 0l2 39l4 20l-4 8q-4 6 -1 15l4 11l-4 20q-1 4 -0.5 7
t0.5 7v2q0 5 2 13l5 20l-6 24q-1 4 -1 13v6q0 9 4 14l4 6l-6 15q-2 6 -1 15l4 14l1 26l-7 9q-2 4 -3 5q-3 7 4 14l3 4q6 6 14 6l18 1l17 12q3 2 6 3t6 3l14 6l5 4q7 5 14 5l11 1l13 12q3 3 5 4.5t6 3.5l15 8q4 2 6.5 2.5t6.5 1.5l3 1l15 8q3 2 7 3t8 0l18 -3q7 -1 12 -8
l9 -13l16 -1q9 0 12 -9l5 -12l20 -6q4 -2 6.5 -2.5t5.5 -2.5l10 -7l25 -10l8 1q9 0 13 -1l15 -2q4 -1 6.5 -1.5t6.5 -2.5l13 -8l15 -6l22 -5l15 13q3 3 5.5 3.5t6.5 2.5l16 5l24 8l12 14q2 3 4.5 4.5t6.5 3.5l8 5q4 3 13 5l18 4l18 18l7 10q6 9 15 3l24 -15l16 -8
q6 -3 11 -8l4 -4l24 -16l23 -15l12 -6q3 -2 6 -3t6 -3l9 -6q6 -3 6 -9q-1 -4 -4.5 -5t-6.5 -3l-12 -5v-28l4 -16l4 -25q1 -5 0.5 -7.5t-1.5 -6.5l-1 -3l-3 -34l-2 -20l2 -10q2 -8 2 -13l-1 -11l1 -20q0 -9 -2 -14l-5 -9l7 -14q4 -6 1 -14l-8 -22l7 -20q2 -4 1.5 -6.5
l-1.5 -7.5l-1 -4v-22q0 -4 -0.5 -7t-1.5 -7l-4 -13l9 -18q3 -8 1 -15l-2 -5l-1 -19l4 -22q1 -7 0 -14v-1l-3 -13l-6 -21v-26l1 -9q0 -3 -0.5 -6t-0.5 -7l-1 -14l-2 -19l9 -27q1 -3 1.5 -5.5t0.5 -7.5l-1 -15l12 -9q3 -2 5.5 -4t4.5 -5l12 -12l20 -9l14 -7q3 -2 6 -3t6 -4
l10 -9zM515 159l21 -12l22 -11l18 -4l18 12l-7 21q-2 7 1 15l8 15l-4 21l-3 13q-1 7 0 13l3 15l2 16l-8 18q-3 8 -1 15l4 12l2 27l4 22l-7 10q-5 9 -4 14l4 26l1 13q0 4 1 7.5t2 6.5l4 10l-9 29l-2 4q-2 4 -1.5 6.5l1.5 7.5l4 21l1 22l-4 11q-2 7 0 14l7 17l-6 19
q-2 8 -2 13l-1 12q0 9 2 13l6 16l2 13l-3 25q-1 3 -1 6.5v6.5l1 13l-25 24l-17 8l-31 21l-11 -5l-6 -28l2 -5q2 -6 1 -14l-5 -22l1 -16q0 -9 -1 -14l-2 -10l2 -27q0 -10 -1 -14l-2 -9l-2 -26l5 -14q2 -6 -3 -15l-1 -3l7 -21q1 -4 1 -14v-1q0 -5 -2 -13l-4 -20l3 -4l5 -8
q6 -9 -4 -16l-3 -1l4 -20l3 -10q2 -8 -1 -15l-7 -15l2 -23l4 -8q3 -8 2 -15l-4 -21l1 -17q0 -8 -2 -13l-5 -14l2 -18l5 -17q1 -4 1 -13v-23q0 -5 -2 -13l-4 -19zM327 556l-1 3q-3 7 -1 15l8 26l-3 5l-3 6t-2 6l-3 9q-1 8 0 15l5 16l-29 20l-15 7l-7 1q-4 0 -7 1l-6 2l-13 4
q-6 1 -12 7l-15 15v-8q0 -4 -1 -6.5t-2 -6.5l-4 -14l2 -19l-2 -24l1 -13q0 -4 0.5 -7t-0.5 -7l-3 -22l19 -5q5 -1 12 -6l12 -8l20 -13q3 -2 5 -3.5t4 -5.5l6 -9l22 -7l16 8z" />
    <glyph glyph-name="periodcentered" unicode="&#xb7;" horiz-adv-x="212" 
d="M22 413q-6 6 -3 15l5 16l-8 18q-2 8 2 15l3 5l-5 21q-2 8 4 14l25 25l3 4q4 9 14 7l14 -2l32 8l10 5q8 3 14 1l18 -5l12 5q9 5 15 -3l10 -13q5 -7 2 -15l-4 -12v-19l7 -18q2 -4 2 -14v-5q0 -5 -2 -7.5t-4 -5.5l-12 -16q-2 -4 -4.5 -5.5t-6.5 -3.5l-12 -7q-4 -2 -7 -2.5
t-7 -0.5h-2l-17 -10q-6 -3 -14 -3l-13 1l-48 -7q-7 -1 -14 5z" />
    <glyph glyph-name="cedilla" unicode="&#xb8;" horiz-adv-x="114" 
d="M53 -7q3 -2 5.5 -3.5t4.5 -5.5l7 -12l12 -2q3 0 4 -1q8 -1 2 -11l-1 -2l-2 -13l-1 -28l-5 -4q-6 -5 -13 -6l-4 -1q-6 -1 -14 2l-13 7q-14 8 0 15l7 3q7 3 13 5l6 1l-2 4l-14 6q-3 2 -6 3t-6 4l-2 2q-6 6 -6 14l1 12q0 6 7 13q8 8 16 1z" />
    <glyph glyph-name="guillemotright" unicode="&#xbb;" horiz-adv-x="816" 
d="M39 896q5 8 14 6l40 -6l12 2q8 2 14 -2l20 -11l9 1q9 0 14 -5l10 -11l27 -14l16 -5q7 -3 10 -10l2 -5l22 -13q3 -2 5.5 -4.5t3.5 -7.5l3 -12l20 -11l13 -8q3 -2 5.5 -4t4.5 -5l7 -7q3 -4 7 -12l4 -12l11 -24l10 -23l8 -14q4 -8 5 -12l3 -12l16 -15q5 -3 8 -12l3 -11
l3 -13l1 -8l11 -28l5 -9q4 -5 4 -14l-1 -21l6 -11q4 -8 5 -13l1 -8q1 -8 -1 -14l-5 -10l6 -40l1 -23q0 -6 -2 -14l-3 -10q-1 -5 -4 -12l-7 -16l-1 -16q0 -5 -2 -13l-2 -6q-1 -6 -5 -13l-3 -5l-3 -19q-1 -7 -8 -12l-14 -9l-4 -24q-1 -4 -2 -7t-5 -6l-6 -4l-9 -21l-5 -18
q-1 -5 -3 -7.5t-4 -4.5l-13 -13l-10 -14q-2 -4 -4.5 -6t-5.5 -4l-6 -3l-18 -21l-14 -15l-4 -8q-2 -3 -4 -5.5t-4 -5.5l-10 -12q-4 -5 -11 -8l-10 -3l-19 -12q-3 -2 -5.5 -2.5t-6.5 -2.5l-9 -3l-15 -8l-12 -10q-5 -5 -13 -5l-22 2l-19 -11q-6 -3 -14 -3l-30 2q-7 0 -13 6
l-13 14q-7 9 -3 15l6 11l2 25l-5 15q-2 8 0 15l4 11l-1 6q-1 11 9 12l23 3l23 6l27 4l5 11q3 7 11 10l9 3l30 28l14 17l5 7l16 21l7 13q2 6 9 11l16 11l8 18l1 15q0 5 6 13l13 14l10 27l-2 17q-2 8 3 14l7 11l10 17l-4 41l-7 18q-2 5 -4 13l-1 7q-1 4 -0.5 7t0.5 7l2 23
l-6 17l-12 17q-2 4 -3.5 6t-2.5 6v4l-11 20l-15 21q-2 4 -3.5 6t-2.5 6l-2 9l-11 15q-2 3 -3.5 5t-3.5 6l-9 19l-11 4q-8 3 -12 7l-8 8l-16 21l-14 15l-19 8l-27 8l-27 11l-16 -3q-13 -2 -11 11l1 17l-3 8q-2 8 0 15l5 13l-2 16q-1 3 -0.5 6t0.5 7l1 12q0 6 4 13zM363 892
q5 7 13 7l38 3q10 0 14 -2l17 -9l16 -9l13 -1q8 -2 12 -4l12 -4q6 -1 12 -6l5 -4l21 -8q4 -2 6.5 -3t4.5 -4l7 -8l18 -12q8 -6 9 -12l5 -15l7 -7q6 -6 9 -10l15 -21l15 -11q3 -2 5 -3.5t4 -5.5l6 -9l12 -19l16 -24l7 -11l11 -23l8 -18q3 -6 3 -13v-5l12 -16q4 -7 5 -13
l3 -23l-1 -22l8 -14q2 -3 3 -6t1 -8v-11l4 -24l1 -14l6 -42l2 -22q0 -6 -2 -14l-1 -4q-1 -3 -2.5 -6t-3.5 -6l-6 -12l2 -21q0 -8 -3 -14l-5 -13l-7 -27l-4 -13q-3 -7 -8 -12l-12 -12l-11 -13l-4 -16q-1 -3 -1.5 -6.5t-2.5 -6.5l-2 -4q-4 -8 -7 -12l-16 -17l-12 -18l-8 -13
q-2 -4 -4.5 -6t-5.5 -4l-12 -7l-2 -17q-1 -10 -11 -12l-13 -2l-13 -18q-2 -3 -4 -5.5t-5 -4.5l-3 -2l-12 -19q-4 -7 -13 -7l-18 -2l-6 -5q-3 -4 -11 -8l-17 -9q-7 -4 -13 -4h-13l-9 -6q-4 -3 -12 -5l-10 -3q-4 -2 -6.5 -1.5t-6.5 0.5l-35 2q-7 0 -13 6l-14 14q-5 5 -5 14v7
l-2 11q-2 10 2 15l8 13l1 29v8q0 10 11 10l15 1l29 3l11 8l24 19q4 4 13 6h2l14 18q3 5 12 8l19 6l1 12q1 6 5 13l10 15q2 3 4 5.5t4 5.5l12 13l10 9l12 22l7 24l7 19l8 20l6 12l6 11l2 20l5 31l10 43l-4 10l-6 22l-5 19l-7 22l-13 19q-3 4 -7 12l-3 7q-2 3 -2.5 6.5
t-1.5 6.5l-3 15l-15 9q-7 5 -9 11l-4 11l-13 25l-13 21l-8 3q-8 4 -11 8l-16 19l-14 10l-13 8q-3 2 -5.5 4t-4.5 5l-11 14l-22 10l-22 3l-11 1q-7 0 -13 6l-9 9q-6 6 -3 15l6 16l-2 8q-1 7 0 14l3 18l1 14q0 5 6 13z" />
    <glyph glyph-name="questiondown" unicode="&#xbf;" horiz-adv-x="593" 
d="M426 767q-4 -8 -13 -8l-11 -1l-18 -7l-16 -8q-6 -3 -14 -3l-10 -1l-16 -6q-8 -3 -14 -2l-9 2q-9 2 -13 6l-14 12q-3 3 -4 5.5t-3 6.5l-5 13q-2 6 -1 13l1 9q1 7 7 13l3 4l-5 23q-2 8 4 15l12 13q2 3 4.5 4.5t5.5 3.5l14 8q4 3 13 5h2l39 13q6 3 15 -1l12 -4l21 1
q4 0 7 -0.5t7 -2.5l11 -5q9 -4 6 -14l-5 -16l6 -16q2 -6 1 -14l-4 -19l1 -3q1 -8 -3 -14zM25 74q-3 7 9 7l8 11h-1q-2 4 -3.5 6t-1.5 7l-2 26q0 9 4 14l3 5l1 28v12q0 8 6 14l14 11l7 21v14q0 8 3 14l7 14q3 6 8 11l13 14l4 9q3 5 7 11l10 13l13 12l15 28l5 8q3 6 10 9
l18 10l4 12q1 5 6 12l11 12q2 2 4.5 5t5.5 5l6 4l12 24l7 12l19 33l7 11l7 26l-1 6q-1 3 -1 6.5v6.5v22l2 25l1 16v8q0 12 12 10l15 -2l4 3q7 6 15 4l22 -3l15 4l22 11l14 12l12 7q3 2 6 3t6 3l6 2q9 4 15 1l4 -1q7 -2 10.5 -5.5t-0.5 -5.5l-8 -10l2 -21l2 -25l4 -15
q2 -7 -3 -15l-9 -12l-3 -29l2 -6q2 -6 1 -14l-4 -17q-1 -9 -7 -13l-8 -8l-14 -16l-3 -20l-5 -19q-1 -5 -2.5 -7t-3.5 -5l-9 -10l-16 -23l-3 -15q-1 -8 -7 -12l-14 -13l-5 -6q-2 -3 -3.5 -5t-4.5 -5l-8 -7l-21 -17l-12 -17l-18 -22l-17 -20l-6 -16l-8 -16q-2 -6 -10 -10
l-10 -5l13 -23h14q8 0 13 -2l25 -7l23 -5l25 -9l9 -2q9 -2 13 -5l8 -5l29 16l-3 15q-1 4 -1.5 6.5t0.5 6.5l1 10q1 8 6 14l9 12q2 3 4.5 5t5.5 4l10 7q7 6 15 3l14 -4l13 11q6 6 15 3l14 -5l24 11l5 2q7 3 15 -3l16 -12q7 -5 7 -14l-1 -13v-15q0 -9 -1 -13l-3 -13l3 -11
q1 -4 1.5 -6.5t-0.5 -7.5l-3 -22l-2 -11l4 -35q2 0 2 -3q1 -8 -5 -14l-8 -8q-6 -6 -15 -4l-13 3l-14 -11q-6 -5 -15 -3l-9 3l-19 -14q-6 -5 -13 -5h-15l-15 -10q-7 -5 -14 -5l-10 1l-22 -10l-11 -13q-5 -7 -14 -7l-15 -1l-13 -13q-6 -6 -15 -1l-8 5q-3 2 -5 3.5t-5 4.5
l-15 14l-28 6l-11 3l-25 8l-21 6l-12 2q-4 1 -6.5 1.5t-6.5 2.5l-25 13l-13 4l-21 -4q-5 -1 -14 -1l-6 1l-20 1q-5 0 -13 2l-14 3q-9 2 -12 9v1z" />
    <glyph glyph-name="Agrave" unicode="&#xc0;" horiz-adv-x="641" 
d="M412 960q-1 -6 -10 -7l-12 -2q-7 -1 -14 4l-26 19q-3 2 -5.5 4t-4.5 5l-7 8l-16 6q-9 4 -11 10l-6 15l-15 15l-17 12l-8 7q-3 3 -4.5 6t-3.5 6l-6 12l-13 15q-3 4 -7 12q-2 4 10 6l12 2q4 1 6.5 1.5t6.5 -0.5l10 -1l15 -5q4 -2 6 -2.5t6 -2.5l24 -13q4 -2 6.5 -3.5
t4.5 -4.5l9 -10q2 -3 4 -5.5t3 -6.5l32 -37q2 -3 3 -6t3 -6l15 -30l7 -9q4 -7 3 -14zM602 109q9 -4 2 -14l-6 -9q-4 -6 -11 -10l-11 -5q-3 -2 -6.5 -2.5t-6.5 -1.5l-6 -1l-31 -15l-11 -7l-11 -16q-2 -3 -4.5 -5t-5.5 -4l-20 -12l-9 -6q-7 -5 -15 1l-22 17l-14 3q-8 2 -12 8
l-6 9l-16 3q-8 2 -12 7l-14 15l-19 7l-29 7l-14 -6l-19 -10q-6 -3 -14 -3h-5l-25 -21q-5 -5 -13 -5h-10l-4 -12q-2 -5 -4 -7t-6 -4l-20 -10q-7 -4 -15 1l-14 8q-7 5 -10 11l-3 6l-21 17l-18 3q-9 2 -13 5l-7 4l-17 7q-3 2 -5.5 3t-5.5 4l-10 9q-8 8 -2 14l1 1l5 31q2 8 4 13
l4 8v17l-9 24q-2 6 -1 14l4 17v11q0 9 1 13l2 17l-4 7q-4 8 -2 15l7 21l2 21l-1 16v15v6.5t1 6.5l2 12l-5 20q-1 8 0 14l5 20v20l-11 33q-1 4 -1.5 6.5t0.5 7.5l1 10l7 29l3 25l-1 13l-2 21l-6 19q-2 7 1 15l9 15l-5 21l-2 19q-1 8 1 14l4 10l-3 12q-1 7 0 14l4 21l-7 18
q-2 4 -2 13v2q-7 7 4 13l7 3q8 4 13 5l18 4l5 4q3 3 6 4.5t6 3.5l15 7q5 2 13 4l5 1l27 8l4 8q3 7 13 9l15 2l17 14l13 8q6 5 15 3l14 -2q10 -2 13 -6l17 -19l12 -9l16 -4q3 -1 6.5 -1.5t6.5 -2.5l8 -4l24 -6q6 -2 11 -9l8 -13l31 -8l19 -7l15 2q7 1 14 0l10 -3l25 -4l20 -4
q7 -2 8 -6t-4 -9l-4 -3l-2 -4l-7 -32l6 -11q3 -7 3 -14l1 -21l-2 -12q-1 -4 -1 -7t-2 -6l-5 -13l7 -20q3 -7 -2 -15l-4 -6l3 -21q1 -5 1 -14l-2 -17l2 -14v-34l3 -12q1 -7 0 -14l-1 -6l1 -21q0 -10 -1 -14l-7 -21l3 -22l2 -14q1 -6 0 -13l-2 -11l-5 -27l6 -11q3 -6 3 -14
v-10q0 -6 -2 -14l-4 -15l6 -22q1 -4 1.5 -6.5t-0.5 -7.5l-2 -7l-6 -24l-1 -29l21 -10q5 -3 10 -9l8 -9l22 -9l17 -6q4 -2 7 -3t5 -5l10 -13zM284 669l-16 1q-7 0 -12 8l-8 11l-20 19l-20 -15l5 -8q4 -5 2 -14l-2 -12l4 -20q1 -8 -5 -14l-4 -4l8 -24q2 -6 1 -14l-2 -15l1 -3
q1 -7 0 -14l-6 -26l20 -18l34 1l14 5q6 3 14 3h13l19 14l9 25l-3 6q-2 5 -4 13l-3 21l-2 18q-1 3 -1 6.5v6.5l1 19l-12 10zM248 159q9 -3 12 -8l9 -12l21 -14l12 -3l19 14l7 14v41q0 9 1 13l2 14l-7 22q-2 3 -2.5 6.5t-1.5 6.5v3q-1 7 1 13l7 19l-4 15q-1 8 1 14l5 13v11
l-28 23l-16 10l-27 -9q-8 -2 -14 -2l-9 1l-30 -21l5 -14q2 -8 2 -13l1 -5q1 -3 1 -6.5v-6.5v-6q0 -8 -3 -14l-3 -7l-3 -26l8 -17q3 -8 2 -14l-2 -9q-2 -8 -4 -12l-3 -9l26 -21z" />
    <glyph glyph-name="Aacute" unicode="&#xc1;" horiz-adv-x="641" 
d="M247 951q-8 -3 -14 3l-6 5q-7 7 -2 16l5 9q2 4 9 11l16 14l12 8l5 20q1 7 8 12l13 11v4q0 6 5 13l5 6q2 3 4.5 4.5t5.5 3.5l23 15l11 6l6 2q6 3 14 1l24 -5l14 3q11 2 12 -10l1 -5q1 -9 -7 -14l-14 -8l-13 -12l-6 -14q-2 -5 -10 -11l-8 -5l-7 -11q-4 -6 -9 -10l-15 -12
l-7 -10q-2 -3 -4 -5.5t-5 -4.5l-8 -6q-4 -3 -12 -7l-31 -12zM606 109q11 -5 -1 -14l-9 -7q-3 -2 -5.5 -3t-5.5 -3l-19 -9l-8 -6l-16 -15q-5 -5 -13 -7l-19 -2l-5 -6l-10 -9l-14 -12q-3 -3 -5.5 -4t-5.5 -3l-14 -6q-9 -5 -15 3l-10 10l-20 9q-8 3 -10 10l-3 6l-18 3
q-4 1 -6.5 1.5t-6.5 2.5l-20 10l-42 20l-18 -4l-18 -6l-25 -21l-8 -9l-13 -11q-6 -6 -13 -6l-18 -1l-19 -18q-7 -7 -15 -1l-20 16l-9 9l-19 17l-23 13l-16 4q-7 3 -11 8l-4 5q-5 5 -12.5 11.5t-5.5 5.5q-7 7 -2 15l8 18l-4 14q-1 4 -1.5 6.5t-0.5 6.5l1 14l5 33l-1 17l-3 14
q-2 8 -2 13l-1 12q0 9 4 14l5 5l-3 26q0 8 1 13l1 5l1 29v16l-8 21q-2 4 -2 13v5q0 3 1 6.5t2 6.5l4 17l-6 19q-1 6 2 14l6 13l-4 10q-3 6 -3 13l-1 16v13v4l4 20l6 24l-4 25l-5 17q-2 6 -1 15l5 17l-5 12q-2 6 -1 14l1 7l6 25l-6 19q-2 8 1 15l6 10l-6 21l-2 16q-6 11 6 14
l15 3l22 8l9 4l28 12l28 24q5 5 12 6l20 4l14 9l18 14l14 8q9 6 16 -2l11 -12l22 -17h14q8 0 13 -5l13 -12l16 -13l25 -10h11q9 0 13 -2l19 -7l21 -3q9 -2 13 -5l5 -3l22 -5l17 -1q7 0 13 -3l20 -10q6 -3 5.5 -7.5t-5.5 -7.5q-1 -1 -6 -1l-7 -26l5 -20q2 -8 2 -13
q0 -9 -1 -14l-4 -23l6 -15q3 -7 -2 -15l-7 -12l3 -18l5 -19q1 -4 1 -14l-1 -13l1 -28v-16q0 -8 -4 -13l-6 -8l1 -35l4 -6q4 -7 3 -14l-4 -14l-4 -30l7 -16q3 -6 3 -14l1 -15l-2 -14q0 -5 -2 -13l-4 -11l1 -25q0 -10 -1 -14l-3 -7l8 -16q3 -7 -1 -15l-8 -15l7 -18q3 -8 2 -14
l-2 -12l21 -15q5 -4 9 -9l9 -10l18 -12l16 -7q8 -4 12 -7l13 -9zM302 648q-3 2 -5.5 3t-5.5 4l-13 11l-15 8q-6 4 -10 9l-9 11l-10 14l-18 -13l2 -7q3 -6 1 -14l-4 -14l-2 -23v-14q0 -4 -0.5 -6.5t-1.5 -6.5l-4 -10l6 -25l1.5 -7.5t-1.5 -6.5l-3 -6l10 -19l13 -30l19 2h31
l27 6l20 11l-3 26v20l-2 22q0 4 -0.5 7t0.5 7l1 8l-1 22zM256 145h6q9 0 14 -5l8 -7l18 -12l23 12l-1 25l1 11l-4 26q-1 5 0 7.5t3 6.5l5 11l-5 17q-1 4 -1.5 6.5t0.5 7.5l2 10l4 28l1 20l-6 14q-2 4 -2.5 6.5t1.5 7.5l5 15l-23 18l-16 -4q-4 -1 -13 -1h-9q-5 0 -13 2l-22 6
l-22 -27l3 -19l3 -12q1 -6 -2 -14l-4 -9l2 -28v-21l3 -13q1 -8 -1 -14l-5 -9l8 -34l15 -10z" />
    <glyph glyph-name="Acircumflex" unicode="&#xc2;" horiz-adv-x="641" 
d="M217 956q-6 -4 -13 -5l-14 -3q-11 -2 -14 8l-3 8q-2 7 0 14l1 4q1 4 3 6.5t4 5.5l9 11l13 13l7 12q2 3 4 5.5t4 5.5l18 19l13 22l1 2q2 5 10 10l34 17l4 4q5 6 14 5l19 -5l17 1q9 0 14 -5l16 -16q3 -3 7 -11l7 -14l13 -6q8 -4 10 -11l5 -16l9 -9q2 -3 4 -5.5t4 -5.5
l8 -14l16 -13q4 -3 5 -5.5t3 -6.5q1 -2 0 -10l-1 -9q-2 -12 -13 -9l-9 2q-9 2 -13 5l-34 20l-14 9q-6 4 -10 10l-9 11l-10 13l-20 15l-34 5l-7 -11q-2 -4 -10 -10l-12 -7l-5 -18q-1 -6 -9 -12l-20 -14zM607 105q12 -7 2 -15l-6 -5q-3 -2 -5.5 -4t-6.5 -3l-25 -6l-21 -8
l-3 -4q-3 -4 -11 -9l-20 -10l-18 -13l-19 -14l-8 -11q-6 -10 -16 -2l-17 14l-21 8q-8 3 -11 10l-5 9l-12 1q-5 0 -13 6l-11 9l-22 9q-8 4 -12 7l-16 11l-27 -8l-23 -20q-5 -5 -11 -8l-20 -10l-15 -11q-3 -2 -6 -3t-6 -3l-10 -4l-16 -18q-7 -9 -15 -1l-16 15l-18 12l-38 16
q-3 2 -6 3t-6 4l-11 9l-16 7q-8 4 -12 7l-9 7q-9 6 0 15q3 5 7 -3l7 36l-6 20q-1 4 -1.5 6.5t-0.5 6.5v4q0 7 3 13l7 15l-5 9q-3 8 -2 15l4 23l-3 5q-5 7 -2 15l8 19l-8 14q-3 7 1 15l7 13l-5 26l-1 4q-1 5 -0.5 7.5t1.5 6.5l6 19l-3 14q-2 8 -2 13l-1 18v6.5t1 6.5l1 9
l3 17v28l-4 19q-1 6 2 14l1 4l1 22l-2 15q-1 4 -1 13v14q0 5 2 13l3 11l-7 14q-3 8 -2 15l6 24l-3 4q-5 8 -1 15l7 11l1 23l-4 16q-1 4 -1.5 6.5t-0.5 6.5l2 22l-1 1q-7 3 -11 7q-3 4 4 11l11 11q4 4 13 6l12 2l24 10l19 7l21 7l7 6q5 5 12 6l19 6l21 10l7 12q6 8 11 10l7 3
q6 3 14 0l17 -5q5 -1 12 -6l12 -8l24 -14l11 -4q3 -2 6 -3t6 -3l12 -8l18 -7l24 -10l45 -17l14 -7h23q4 0 7.5 -0.5t6.5 -3.5l10 -9l35 -10l-12 2l-5 -6l-5 -27l7 -31l1 -7q1 -5 0.5 -7.5t-1.5 -6.5l-7 -23l1 -13l1 -21l5 -20q1 -5 0.5 -7.5t-1.5 -6.5l-6 -20l1 -17l4 -25
q1 -5 1 -14l-2 -15l-1 -15l3 -16q1 -4 0.5 -7t-1.5 -7l-5 -21l2 -7q1 -4 1.5 -6.5t-1.5 -7.5l-6 -18l4 -22l3 -15q1 -8 0 -14l-6 -21l3 -15q1 -7 0 -14l-2 -9l4 -28l4 -15q2 -9 -2 -15l-8 -14l5 -22l3 -30l20 -12q3 -2 5.5 -3.5t5.5 -4.5l3 -3l23 -16l12 1q9 0 13 -8l8 -13z
M309 650q-7 0 -13 6l-14 14h-5q-9 0 -14 5l-11 11l-28 10l-15 1v-22l1 -8q1 -4 0.5 -6.5t-0.5 -6.5l-1 -14l4 -27l2 -6q3 -8 1 -15l-9 -21l4 -10q2 -3 2 -6.5t1 -6.5l3 -15l25 -18l18 -8h15l24 -1l25 30l-1 9q-1 7 0 14l4 20l-3 9q-2 8 1 14l5 14l-5 33zM238 157q6 0 13 -5
l21 -15l18 -14l18 2l10 5v23q0 9 1 13l2 10l1 13q0 7 3 13l4 13l-1 20l-7 15q-2 4 -1.5 7t1.5 7l5 18l1 19l-4 17q-1 3 -1 6.5v6.5l-1 19l-22 19l-17 -3l-20 -2q-6 -1 -14 2l-8 3l-29 -15l3 -18q1 -6 0 -13l-2 -12l3 -31l-1 -13q0 -7 -3 -13l-2 -5l7 -28l1 -7q1 -8 -1 -14
l-10 -28l29 -15h3z" />
    <glyph glyph-name="Atilde" unicode="&#xc3;" horiz-adv-x="641" 
d="M170 949q-7 -7 -15 1l-15 17q-6 6 -2 15l5 13l2 21q2 8 4 13l7 18l5 11q3 6 8 11l11 10l15 16q3 5 12 8l5 1l28 3l19 1q10 0 14 -2l35 -17q7 -3 10 -9l8 -12l18 -15l7 -5q7 -5 8 -12l2 -9l41 -4l19 13l17 21v1q-1 4 -1.5 6.5t1.5 7.5l5 14q2 3 3 6t3 6l11 14q5 7 12 8
l8 2q9 1 14 -7l12 -24q4 -7 -1 -15l-8 -11l-4 -12l-1 -21q0 -7 -6 -13l-10 -8l-12 -16l-4 -17q-2 -9 -10 -12l-5 -2q-3 -2 -5.5 -2.5t-6.5 -2.5l-20 -6l-24 -5q-7 -1 -14 0l-24 6q-9 2 -13 6l-11 9q-6 4 -9 11l-6 9l-17 10q-6 4 -8 12l-1 12l-14 5l-50 3l-6 -9l-15 -29
l1 -14q0 -9 -7 -13l-22 -15zM607 115q13 -8 0 -16l-15 -8q-4 -2 -6.5 -2.5t-6.5 -2.5l-12 -4l-21 -16l-9 -15q-3 -4 -11 -9l-6 -3q-8 -4 -12 -5l-11 -4l-21 -16q-6 -5 -13 -6l-10 -2q-8 -2 -14 1l-14 6l-12 7q-5 3 -10 9l-5 8l-27 19l-11 8l-15 1q-8 0 -13 4l-16 10l-25 2
l-12 -13q-2 -3 -4 -4.5t-6 -3.5l-16 -9q-4 -2 -6.5 -2.5t-6.5 -1.5l-8 -1l-19 -15l-12 -15q-2 -3 -5 -4t-8 -3l-16 -5q-8 -3 -15 2l-34 24l-18 14l-15 3q-8 2 -13 4l-13 6l-14 9q-7 5 -11 8q-5 5 -7 10t3 3l10 12l-8 18q-2 7 1 15l4 9l-5 28l-1 19l-2 11q-1 3 -1 6.5v6.5v20
l3 25l3 19q1 8 4 13l2 3l-6 18q-2 8 -2 13l1 25l-2 16l-2 17l1 20q0 7 3 13l5 14l3 15l-2 29l-3 13q-1 4 -1 13v14l-4 23q-1 3 -0.5 6.5t0.5 7.5v19q0 4 -0.5 7t0.5 6l1 9q1 3 1.5 6.5t2.5 6.5l7 18l-10 22q-3 7 0 14l8 15l-2 4q-2 5 -4 13l-3 17q-1 4 -1 13v9q0 7 3 13l4 8
l-6 26l-4 14q-7 5 5 12l15 9l20 8q6 3 14 1l7 -1l25 10l8 13q4 6 12 8l11 3l15 6l20 17q3 3 6 3.5t7 1.5l5 1l21 16q8 6 16 0l6 -4q8 -6 10 -10l11 -18l32 -13l7 1q7 1 14 -6l8 -9l29 -14l15 -7h12q5 0 13 -2l23 -6l20 -7l21 -10l21 1q9 0 13 -1l7 -1q16 -3 9 -10l-12 -13
l4 -18q1 -6 -2 -14l-7 -20l4 -23l4 -12q1 -5 1 -14l-1 -14v-11q0 -9 -1 -13l-6 -26l-4 -13l3 -17q1 -5 1 -13l-2 -17l6 -30l2 -8q1 -6 -2 -14l-6 -11l5 -28l1 -27l-1 -22l3 -9q3 -7 0 -15l-4 -13l4 -14q1 -5 1 -13l-2 -29l-2 -14l-5 -29l3 -7q3 -6 3 -14l-1 -12q0 -4 -1 -7
l-2 -6l-5 -20l5 -20l17 -11q3 -2 5 -4l5 -5l14 -13l13 -15l29 -7l6 -1q4 -1 6.5 -1.5t6.5 -2.5zM276 671l-3 1q-7 2 -12 6l-18 15l-10 6l-23 3l4 -21l3 -22q1 -8 -1 -14l-2 -5l-1 -24l4 -12q3 -8 2 -14l-2 -13l1 -19l1 -32l20 -12h12q8 0 14 -3l14 -7l19 1l24 27l2 22l1 14
l-3 14l-1.5 7.5t1.5 6.5l8 23l-3 23l-24 13zM221 167q3 -2 5.5 -4t4.5 -5l13 -13l23 -11h17q10 0 13 -8l2 -5l25 17l7 20v23l-3 5q-4 5 -2 14l3 24l-3 4q-6 7 -1 15l6 12l1 23l-10 18q-3 8 -1 15l8 21l-3 19l-21 25l-20 -7q-7 -3 -14 0l-20 7l-18 -13l-27 -17l8 -12
q4 -5 2 -14l-1 -7l-3 -33l2 -11q1 -4 1.5 -7t-1.5 -7l-3 -6l-5 -18l3 -27l7 -33z" />
    <glyph glyph-name="Adieresis" unicode="&#xc4;" horiz-adv-x="641" 
d="M506 1094q5 -6 7 -12l3 -6q4 -7 0 -15l-6 -10l2 -14q1 -6 0 -13l-4 -16q-1 -5 -4 -12l-9 -18q-3 -7 -10 -10l-31 -11l-22 -7q-7 -3 -14 2l-5 3l-27 -3l-8 -7q-7 -7 -15 0l-17 13q-6 5 -5 14l2 10l-2 22q0 4 -0.5 7t0.5 7l2 12l-3 16q-2 8 4 15l11 13q2 3 4.5 5t5.5 4
l15 10q8 5 15 0l1 -1l22 12q7 4 14 2l21 -5l16 3l13 6q9 3 15 -4zM299 1089q6 -8 2 -15l-3 -6l2 -19l4 -20q1 -5 -4 -14l-7 -9l-9 -31q-3 -9 -12 -9h-11l-26 -10l-11 -3q-4 -1 -6.5 -1.5t-6.5 -0.5l-12 1l-18 -6q-8 -2 -14 -2h-9q-9 0 -14 5l-15 16q-5 7 -4 14l2 10l2 25
l-1 11l-5 17q-3 9 3 15l24 24l7 9q6 8 14 5l13 -4l19 8q4 2 13 2l17 1l26 3l12 3q9 1 14 -4zM608 108q11 -9 -1 -16l-10 -6q-4 -3 -13 -5l-16 -3l-22 -12l-5 -11q-3 -7 -11 -10l-17 -6l-15 -9l-26 -10l-16 -17q-8 -8 -16 0l-13 13l-17 15l-13 8l-18 12l-26 14l-12 -1
q-9 0 -14 5l-10 8l-28 -6q-6 -1 -13 0h-3l-17 -12l-21 -17l-13 -15q-4 -5 -12 -7l-16 -4l-14 -13q-4 -3 -7 -4t-8 3l-15 12l-20 7q-4 1 -6.5 3t-5.5 4l-11 10l-4.5 4.5t-3.5 5.5l-5 8l-28 10l-6 -1q-8 -2 -15 4l-15 11l-3 3q-4 4 0 6.5t9 1.5l10 29l-6 14q-2 6 -1 15l6 25
l-2 6q-3 8 -2 14l3 19l-3 16l-3 23q-2 8 -2 13l1 7l-2 19q0 8 3 14l7 11l-4 24q-1 7 0 14l3 15l-4 13l-3 21l-1 12q0 9 2 13l8 20l-5 13q-2 4 -2 14v13l3 24l-4 17q-2 10 2 15l6 10l-5 25l-2 20q-2 8 3 14l5 5l-1 23l-6 23q-1 9 1 15l2 3l-4 22q-1 4 -1 13v16l-1 25l-2 9
q-1 8 1 14l5 12l-9 -4l46 29l12 6q6 3 14 3h8l11 10q6 5 13 6l14 3l11 16q5 7 11 9l17 6l6 6q4 4 13 6l14 3q8 2 15 -1l11 -6q8 -5 11 -9l8 -9l17 -8q5 -2 11 -7l15 -10l18 -1q9 0 13 -6l10 -12l21 -1q6 0 13 -3l4 -1q4 -1 12 -5l22 -10l6 -1q3 -1 6.5 -1t6.5 -1l26 -8l13 2
q6 1 14 -2l9 -4q12 -6 2 -15l-2 -1h1l-6 -32l4 -19q2 -8 2 -13q0 -3 -2 -11l-7 -22l2 -18q1 -7 0 -14l-2 -14l-2 -19l7 -13q3 -7 0 -15l-10 -23l5 -9l3 -6t1 -7l1 -16l2 -17q0 -8 -3 -14l-7 -19l4 -14q1 -4 1.5 -6.5t-0.5 -7.5l-4 -19l1 -8q1 -3 0.5 -6.5t-0.5 -6.5v-18
l4 -16q2 -8 -1 -15l-5 -10l-1 -33v-10l8 -23q2 -4 2 -13l-1 -19l-3 -15q-1 -3 -1 -6t-2 -6l-5 -14l13 -31l14 -14l17 -5q9 -4 11 -10l5 -13l29 -10l7 -1q9 -2 13 -6zM304 652q-7 1 -13 6l-9 7l-9 9l-7 8l-20 8q-3 2 -6.5 3.5t-5.5 3.5l-7 7l-7 -3v-23q0 -7 -5 -14l-2 -3
l3 -19q1 -5 0.5 -7l-1.5 -6l-4 -14l6 -13q3 -7 0 -15l-8 -19l7 -12q4 -7 0 -15l-5 -10l30 -17l9 1q4 0 7 -0.5t7 -2.5l15 -8l30 5l16 16l5 25l-7 17q-3 9 1 15l5 9l-5 20q-1 4 -1 13l-1 25zM229 170q3 -2 5.5 -4t4.5 -6l6 -9l22 -6q7 -2 11 -8l8 -11l18 -1l15 10l9 12l-1 19
q0 9 1 14l3 20l-5 11q-2 4 -3 6.5t0 7.5l2 14q2 8 4 13l3 6l-10 29l-2 7q-1 8 1 14l8 21l1 22l-23 24h-28l-20 -7q-8 -3 -15 2l-5 5l-33 -30l3 -5q2 -3 3 -6t1 -8l-1 -24v-20l1 -3q5 -7 2 -15l-8 -26l-2 -8l9 -15q4 -6 3 -14l-2 -21z" />
    <glyph glyph-name="Aring" unicode="&#xc5;" horiz-adv-x="641" 
d="M285 960q-9 0 -13 8l-1 3l-16 11q-8 6 -9 11l-2 6q-2 8 -2 13l-1 34q0 10 6 14l10 8l10 16q5 8 12 9l2 1l17 12q7 5 13 5l16 1q10 0 14 -2l11 -4q7 -3 12 -8l11 -11l10 -11q2 -3 3.5 -5t2.5 -7l2 -13l7 -30q2 -8 -4 -15l-8 -9l-14 -21q-4 -6 -11 -8l-10 -7q-5 -5 -14 -5
l-45 4h-9zM288 1049l-5 -42l18 -5l43 -7l15 19l-9 32l-7 14h-46zM602 106q7 -9 -2 -15l-9 -6l-10 -6q-4 -2 -6.5 -3t-5.5 -3l-23 -8l-6 -5q-3 -3 -5 -4.5t-6 -3.5l-16 -9l-13 -15q-5 -6 -13 -8h-4l-19 -14q-7 -5 -15 -2l-14 4q-7 1 -12 8l-6 6l-31 17l-10 5q-8 5 -11 9l-7 9
l-19 2q-8 1 -13 6l-14 14l-18 -5l-18 -16q-7 -5 -13 -5l-19 1l-10 -16q-2 -4 -5 -5.5t-6 -3.5l-15 -7l-36 -21q-7 -4 -15 0l-16 9l-16 12l-15 3q-7 1 -12 8l-9 13l-19 10l-13 3q-9 2 -13 6l-10 8q-8 8 0 16l3 2q-1 2 -2 4.5t-1 7.5l-1 15q0 5 1.5 7.5t3.5 6.5l4 6l-5 20
q-1 5 -1 14l1 20l1 17l1 21l-1 17q0 8 1 13l2 11l1 28l-6 13q-2 4 -2 14v3q0 5 4 13l6 14v17l-3 26q-1 9 3 15l2 3l-6 16q-2 4 -2 13l-1 20l1 19q0 5 2 13l2 11l-3 28v21l-1 10l-4 28l1 19q0 9 4 14l7 8v30l-2 6q-1 4 -1 13v12l-5 26q-1 8 2 14l4 7l-8 23l-3 13v2l-1 2
q-3 9 6 14l11 6l18 9q7 4 14 4h12l11 11q4 5 13 7l16 2l8 8q6 6 13 6l19 1l9 13q2 4 4.5 5.5t6.5 3.5l17 9l16 10q9 6 15 -4l9 -15l15 -3q7 -1 12 -8l11 -16l22 -9l16 -2q8 -1 13 -6l8 -8l18 -2q4 -1 7 -1.5t7 -2.5l12 -7l25 -14h16q5 0 13 -2l15 -3l24 -3l13 -3
q10 -3 3 -14v-1l2 -6t1 -7l1 -19q0 -4 0.5 -7t-0.5 -6l-2 -14l1 -15q0 -9 -1 -14l-3 -12l1 -21q0 -7 -5 -14l-2 -3l5 -20q1 -4 1.5 -6.5t-0.5 -7.5l-5 -17l4 -11q2 -6 1 -14l-4 -26l3 -15q1 -7 0 -14l-2 -10l4 -15q2 -9 -3 -15l-6 -9l6 -34v-9v-13l-1 -13l5 -29l2 -26v-6
q0 -8 -1 -13l-7 -24l1 -15l4 -14q1 -4 1.5 -6.5t-0.5 -7.5l-3 -22l-2 -17l4 -26l23 -23l13 -8l12 -4q6 -1 12 -7l14 -12l8 -3q7 -3 11 -8zM306 647q-4 2 -6.5 2.5t-5.5 2.5l-9 4q-6 3 -11 8l-11 10l-18 15l-14 11l-12 1v-11q0 -9 -2 -13l-7 -18l5 -25l2 -18q2 -8 -4 -15
l-6 -6l2 -24l6 -11q3 -7 3 -14l-1 -15l13 -27h32l15 8q4 2 7 2h7h7l35 11l-2 25v14l1 16l-1 12l-7 19q-2 5 -1.5 7.5t2.5 7.5l5 13zM245 152l17 -6q4 -2 7 -3t5 -4l12 -13h24l8 3l12 28l-2 23v12l2 32l2 17l-5 9q-2 4 -2 14v15l-2 23q0 8 3 14l3 7l-9 24l-22 27l-17 1
l-22 -4l-29 -7l-18 -9l-3 -30l-1 -12l1 -16v-13l-2 -21l2 -13l6 -22l2 -15q1 -8 -1 -14l-9 -26l26 -16z" />
    <glyph glyph-name="AE" unicode="&#xc6;" horiz-adv-x="818" 
d="M788 107q-3 -7 -10 -10l-11 -3l-16 -12q-6 -5 -13 -6l-13 -2l-6 -6q-3 -3 -5.5 -4.5t-5.5 -3.5l-17 -11l-18 -10q-6 -3 -14 -3h-4l-11 -13q-5 -7 -13 -7l-18 -1l-7 -6q-6 -6 -14 -4l-13 2q-6 1 -12 7l-15 14l-15 10l-22 18l-23 10l-22 7l-33 9q-5 1 -12 6l-14 9l-14 2
q-7 0 -13 3l-11 4l-30 7h-1q-3 -3 -11 -8l-18 -10l-28 -23l-7 -5q-4 -3 -12 -7l-23 -10l-21 -7l-4 -6q-3 -4 -9 -10l-6 -4q-6 -4 -11 -7l-17 -8q-7 -4 -15 1l-17 10l-15 8q-5 3 -11 7l-9 7l-19 9q-8 4 -11 8l-4 4l-21 3q-4 1 -7.5 2t-5.5 5l-5 7q-4 5 -4 14q2 9 6 9v23
l-1 15q0 5 2 13l6 19l1 17l-4 12q-1 5 -1 14l1 17v32l-5 14q-2 5 -1.5 7.5t2.5 6.5l5 12l3 15l-5 19l-3 23q-1 8 2 14l5 10l-1 22l-3 22l-3 13q-1 4 -1.5 7t0.5 7l4 21l5 25l2 21l-3 12q-2 8 -2 14v12l5 24l-4 5q-2 4 -2 7.5t1 7.5l4 13v29l2 19l-1 19l-1 31l-7 9
q-4 5 -2 15l3 13l4 30h-3q-9 -2 -13 9q-2 6 10 8l16 3l10 7q3 2 5 4t6 4l17 9q8 4 12 5l3 1q6 3 14 3h11l13 14q5 7 12 8l16 5l11 7l12 6l13 5l8 10q8 10 16 3l18 -12l20 -11q5 -2 11 -7l11 -8l12 -11l20 -12l19 1l49 -2l19 10l13 10q3 2 6 3t6 3l16 7l8 7q6 6 13 6h10
l28 17q10 7 15 -4l7 -14l19 -9l13 -5q8 -3 12 -7l13 -14l11 -3l18 -7l33 -8h3h6.5t6.5 -1l13 -3h23l16 -1q5 0 13 -2l21 -5l20 -6q12 -4 5 -15l-7 -11l-5 -21q-2 -8 -4 -13q-2 -3 -4 -5.5t-4 -5.5l-5 -6q-2 -3 -4.5 -4.5t-5.5 -3.5l-22 -15l-20 -14l-6 -4q-5 -4 -15 -2
l-10 2l-44 -6q-6 -1 -14 2l-8 3l-26 5l-13 3q-6 2 -12 6l-19 14l-14 7l-16 -14l-5 -11l1 -27l4 -14q1 -4 1.5 -7t-0.5 -7l-2 -19l-4 -19l3 -26q0 -8 -1 -13l-2 -12v-24l19 -10l24 8l11 17q2 3 4 5t4 5l2 2q9 9 16 1l20 -18l27 -13l11 -3q8 -2 12 -7l13 -15l17 -3
q3 -1 6.5 -1.5t6.5 -2.5l2 -1q8 -4 11 -8l10 -12q6 -8 -1 -15l-12 -11l-5 -12q-3 -8 -10 -11l-17 -7q-3 -2 -6 -2t-6 -1l-12 -2l-9 -13q-5 -7 -12 -8l-13 -3l-15 -11q-4 -3 -13 -5l-15 -2q-8 -2 -14 2l-20 10l-18 3l-21 -8l2 -30l-1 -16l4 -16q1 -7 0 -14l-8 -26l9 -25
l16 -12l21 -8h14q7 0 14 -5l15 -11q7 -5 9 -11l3 -5l23 1l-6 26q-1 9 5 15l18 16l13 9q6 5 13 5l17 1l8 6q7 5 12 6l9 2q4 1 13 1l26 -1l9 3q9 3 15 -3l8 -7q5 -5 8 -11l4 -12q2 -4 2 -13l-1 -10q0 -7 -5 -14l-6 -6l3 -33l4 -4q5 -5 5 -14l1 -13q0 -4 -0.5 -7t-1.5 -7
l-4 -14q7 -6 4 -13zM309 650q-9 2 -13 7l-10 11l-21 10q-3 2 -6.5 3.5t-5.5 4.5l-6 7l-15 10l-24 -12l4 -16l2 -11q1 -5 1 -14l-2 -21l-3 -20l-1 -20l-2 -17l4 -9q2 -3 2 -6t1 -7l3 -22l20 -14l20 -3l26 1l17 3l22 20l3 21l5 20v23l-5 13q-2 6 -1 14l5 21zM317 149
q0 4 -0.5 6.5t0.5 6.5l2 11l7 25l-3 12q-1 5 -1 13l3 24l3 12l-5 18q-1 6 0 14l2 15v22l-7 27l-18 15l-19 2l-13 -2q-6 -1 -13 0l-24 2l-21 -20l-3 -24l3 -13q1 -7 0 -14l-3 -19l9 -36q2 -8 2 -14l-1 -30v-22l11 -10l20 -11q8 -5 11 -9l13 -14l11 -7l22 1l13 4z" />
    <glyph glyph-name="Ccedilla" unicode="&#xc7;" 
d="M506 206q2 -3 2 -6t-5 -7l-8 -7q-4 -4 -13 -6l-20 -4l-7 -8q-3 -5 -12 -8l-12 -4q-8 -2 -14 -2h-3l-18 -11q-6 -5 -13 -6l-10 -2l-16 -15l-17 -14q-4 -3 -12 -7l-5 -2q-7 -4 -15 0l-18 9l-13 2l7 -21h16q7 0 13 -6l11 -12l26 -8l18 -1v-7v-11q0 -7 -3 -13l-4 -9l3 -21
l1 -27l3 -26q8 -5 -9 -10l-12 -3l-19 -10q-5 -2 -13 -4l-12 -17q-3 -5 -7.5 -5t-8.5 5l-9 13l-18 16l-32 8l-11 -1q-9 -2 -15 3l-15 11q-8 6 -2 15l3 4q2 4 4.5 5.5t5.5 3.5l10 7q5 4 14 4l26 -1q8 0 13 -8l8 -11l27 14l-7 27l-12 20l-15 2l-13 3l-10 3q-7 2 -13 7l-13 11
l-5 4q-7 5 -9 11l-4 10q-2 7 1 15l9 19l-3 20l-22 33l-19 6q-6 2 -12 6l-14 10l-13 4l-24 2l-21 -1q-9 0 -14 4l-11 7l-10 4q-7 2 -8.5 6t3.5 6l-2 16q-1 8 2 14l7 15l-5 15q-2 5 -2 14l2 18l-4 20q-2 8 3 14l7 10l-3 13q-2 8 -2 13l-1 22v58q0 9 1 13l4 21v16l-2 8
q-1 5 -1 13l2 20l-2 15q-1 8 2 14l5 10l1 31l-5 12q-2 4 -2.5 6.5t1.5 7.5l7 22l-7 12q-5 8 1 16l6 6l-5 19l-4 22q-1 4 -0.5 7t0.5 7l2 21q-9 3 -9 13q0 5 8 10l7 4q8 4 13 4h16l13 7l26 13l11 8q6 6 12 7l14 4l15 11q6 5 11 7l6 2l12 11q4 4 13 6l20 2q8 1 14 -6l4 -5
l20 -7l16 -9q8 -5 11 -10l4 -6l29 -14l14 -8l18 -8l27 -3h7q10 0 14 -2l16 -6l23 5q6 1 14 -2l14 -6h13q11 0 11 -11v-12q0 -7 -7 -13l-12 -9l-8 -19q-4 -8 -7 -11l-10 -11l-2 -2q-5 -5 -11 -8l-19 -9q-5 -2 -13 -4l-15 -3l-13 -5q-3 -2 -6 -2t-7 -1l-24 -4q-6 -1 -14 2
l-23 11h-12q-6 0 -14 4l-26 12l-24 6l-20 1l1 -31l1 -8q1 -4 0.5 -6.5t-1.5 -6.5l-2 -12l2 -27l4 -15q1 -4 1 -13l-1 -21l1 -12q0 -6 -3 -14l-6 -12l3 -28l4 -21q1 -7 0 -14l-2 -9l3 -10q2 -5 2.5 -7t-1.5 -7l-10 -25l10 -18q2 -6 1 -15l-2 -8l1 -28l24 -13l11 -1q9 0 12 -7
l7 -11l20 -17l25 -13l15 17l-1 9q-1 8 2 14l14 27q3 7 11 10l14 5l12 4q6 3 14 1l20 -4l6 8q6 6 14 6l16 -1h20q9 0 14 -5l11 -11q5 -5 5 -14v-5l1 -19q0 -10 -3 -14l-6 -10l2 -19l2 -21q1 -6 0 -13l-3 -14l4 -15q2 -9 1 -13z" />
    </font>
</defs>
</svg>
